<?xml version="1.0" encoding="UTF-8" standalone="no"?>
<svg
   xmlns:dc="http://purl.org/dc/elements/1.1/"
   xmlns:cc="http://creativecommons.org/ns#"
   xmlns:rdf="http://www.w3.org/1999/02/22-rdf-syntax-ns#"
   xmlns:svg="http://www.w3.org/2000/svg"
   xmlns="http://www.w3.org/2000/svg"
   xmlns:sodipodi="http://sodipodi.sourceforge.net/DTD/sodipodi-0.dtd"
   xmlns:inkscape="http://www.inkscape.org/namespaces/inkscape"
   version="1.1"
   id="svg2"
   xml:space="preserve"
   width="912.09332"
   height="644.90668"
   viewBox="0 0 912.09332 644.90668"
   sodipodi:docname="Chennai_Super_Kings_Logo.eps"><metadata
     id="metadata8"><rdf:RDF><cc:Work
         rdf:about=""><dc:format>image/svg+xml</dc:format><dc:type
           rdf:resource="http://purl.org/dc/dcmitype/StillImage" /></cc:Work></rdf:RDF></metadata><defs
     id="defs6"><clipPath
       clipPathUnits="userSpaceOnUse"
       id="clipPath20"><path
         d="M 2806.27,3112.99 C 2717.6,3067.42 2609.9,3058.3 2516,3036.9 v 0 c 8.88,-18.76 43.68,-17.75 74.03,-16.74 v 0 c 13.36,0.43 25.86,0.89 34.91,-0.34 v 0 c -99.03,-52.1 -169.58,-114.59 -227.54,-204.5 v 0 c -35.21,-24.76 -52.77,-67.2 -72.92,-103.78 v 0 c -12.22,-22.21 -34.54,-46.94 -23.52,-70.39 v 0 c 21.77,7.67 123.78,180.28 294.99,216.59 v 0 c -7.86,-8.38 -57.25,-71.26 -70.5,-93.78 v 0 c -33.28,-56.71 -56.28,-112.9 -76.47,-179.02 v 0 c -21.48,-70.4 -27.29,-145.44 -38.99,-198.74 v 0 c -4.26,-19.24 -19.97,-38.93 -11.42,-59.61 v 0 c 16.35,6.14 23.89,28.89 32.15,45.02 v 0 c 28.62,55.82 52.43,116.69 98.03,154.73 v 0 c 0.3,-3.25 -2.29,-4.05 -2.7,-6.76 v 0 c -77.05,-158.2 -38.91,-425.46 3.53,-596.05 v 0 c 8.05,3.56 6.69,-15.65 14.81,-21.56 v 0 c -7.22,140.73 -50.22,282.18 -37.39,414.01 v 0 c 11.52,118.29 56.79,219.81 108.42,305.49 v 0 c -32.75,2.14 -64.85,-26.01 -87.16,-49.56 v 0 c -33.88,-35.77 -54.88,-89.8 -85.07,-114.55 v 0 c 34.95,172.33 133.08,323.03 252.02,421.62 v 0 c 16.38,13.56 140.28,55.67 125.25,101.56 v 0 c -6.8,-12.11 -13.25,-15.18 -21.33,-18.04 v 0 c -50.8,-18.02 -111.75,-23.14 -166.18,-39.77 v 0 c -66.28,-20.28 -117.79,-54.76 -166.49,-75.65 v 0 c 42.46,71.48 128.99,121.37 177.65,177.58 v 0 c 96.5,13.55 163.48,52.1 209.39,108.52 v 0 c -3.11,0.95 -5.97,1.38 -8.65,1.38 v 0 c -15.87,0 -25.24,-14.73 -38.58,-21.57"
         id="path18" /></clipPath><radialGradient
       fx="0"
       fy="0"
       cx="0"
       cy="0"
       r="1"
       gradientUnits="userSpaceOnUse"
       gradientTransform="matrix(892.644,0,0,892.644,1280.39,1855.66)"
       spreadMethod="pad"
       id="radialGradient26"><stop
         style="stop-opacity:1;stop-color:#f5f015"
         offset="0"
         id="stop22" /><stop
         style="stop-opacity:1;stop-color:#f14b1c"
         offset="1"
         id="stop24" /></radialGradient><clipPath
       clipPathUnits="userSpaceOnUse"
       id="clipPath36"><path
         d="m 1885.88,2971.94 c -5.34,-0.51 -61.57,-16.99 -86.04,-23.4 v 0 c -13.93,-3.64 -34.58,-13.53 -41.28,-13.17 v 0 c -1.76,0.08 0.29,7.23 -3.79,6.21 v 0 c -17.27,-4.38 -32.83,-15.63 -50.46,-20.47 v 0 c -50.96,-13.95 -111.7,-22.75 -148.1,-61.09 v 0 c -12.19,-1.72 -29.48,0.89 -28.33,-12.11 v 0 c 13.05,-14.18 41.67,-6.99 59.05,-4.91 v 0 c 51.91,6.25 108.91,33.89 158.65,52.17 v 0 c 23.8,8.79 53.97,22.09 82.29,29.61 v 0 c 44.62,11.87 93.14,24.96 134.06,33.87 v 0 c 169.36,36.86 339.69,55.54 520.33,52.67 v 0 c -54.92,6.12 -109.05,8.84 -162.64,8.84 v 0 c -147.58,0 -290.91,-20.67 -433.74,-48.22"
         id="path34" /></clipPath><radialGradient
       fx="0"
       fy="0"
       cx="0"
       cy="0"
       r="1"
       gradientUnits="userSpaceOnUse"
       gradientTransform="matrix(893.23,0,0,893.23,1280.24,1854.28)"
       spreadMethod="pad"
       id="radialGradient42"><stop
         style="stop-opacity:1;stop-color:#f5f015"
         offset="0"
         id="stop38" /><stop
         style="stop-opacity:1;stop-color:#f14b1c"
         offset="1"
         id="stop40" /></radialGradient><clipPath
       clipPathUnits="userSpaceOnUse"
       id="clipPath52"><path
         d="m 1128.37,2792.18 c 1.16,-4.57 5.8,-5.04 7.28,-9.19 v 0 c 13.87,9.29 33.75,13.55 39.94,29.35 v 0 c -4.33,0.38 -8.64,0.65 -12.86,0.65 v 0 c -15.41,0 -29.15,-3.76 -34.36,-20.81"
         id="path50" /></clipPath><radialGradient
       fx="0"
       fy="0"
       cx="0"
       cy="0"
       r="1"
       gradientUnits="userSpaceOnUse"
       gradientTransform="matrix(879.129,0,0,879.129,1279.78,1869.67)"
       spreadMethod="pad"
       id="radialGradient58"><stop
         style="stop-opacity:1;stop-color:#f5f015"
         offset="0"
         id="stop54" /><stop
         style="stop-opacity:1;stop-color:#f14b1c"
         offset="1"
         id="stop56" /></radialGradient><clipPath
       clipPathUnits="userSpaceOnUse"
       id="clipPath68"><path
         d="m 1416.99,2809.45 c 3.81,-0.25 3.94,-4.83 4.03,-9.46 v 0 c 15.84,-1.74 39.58,-3.98 49.08,-2.45 v 0 c 4.24,14.47 24.27,15.57 26.73,31.52 v 0 c -7.35,4.55 -16.64,6.67 -26.39,6.67 v 0 c -20.85,0 -43.67,-9.73 -53.45,-26.28"
         id="path66" /></clipPath><radialGradient
       fx="0"
       fy="0"
       cx="0"
       cy="0"
       r="1"
       gradientUnits="userSpaceOnUse"
       gradientTransform="matrix(887.865,0,0,887.865,1280.96,1860.55)"
       spreadMethod="pad"
       id="radialGradient74"><stop
         style="stop-opacity:1;stop-color:#f5f015"
         offset="0"
         id="stop70" /><stop
         style="stop-opacity:1;stop-color:#f14b1c"
         offset="1"
         id="stop72" /></radialGradient><clipPath
       clipPathUnits="userSpaceOnUse"
       id="clipPath84"><path
         d="m 1324.98,2779.04 c 8.48,-30.43 44.95,-19.57 73.07,-16.79 v 0 c 2.89,10.48 -5.73,7.46 -7.53,12.43 v 0 c 4.95,6.84 18.25,6.58 14.59,20.74 v 0 c -7.33,5.78 -15.51,8.06 -23.87,8.06 v 0 c -21.19,0 -43.56,-14.71 -56.26,-24.44"
         id="path82" /></clipPath><radialGradient
       fx="0"
       fy="0"
       cx="0"
       cy="0"
       r="1"
       gradientUnits="userSpaceOnUse"
       gradientTransform="matrix(887.324,0,0,887.323,1280.26,1860.77)"
       spreadMethod="pad"
       id="radialGradient90"><stop
         style="stop-opacity:1;stop-color:#f5f015"
         offset="0"
         id="stop86" /><stop
         style="stop-opacity:1;stop-color:#f14b1c"
         offset="1"
         id="stop88" /></radialGradient><clipPath
       clipPathUnits="userSpaceOnUse"
       id="clipPath100"><path
         d="m 1247.25,2733.52 c -0.04,-9.54 8.14,-9.34 8.09,-18.87 v 0 c 12.24,12.85 28.55,3.74 34,22.35 v 0 c -2.97,4.02 -8.11,5.54 -13.89,5.54 v 0 c -10.35,0 -22.71,-4.88 -28.2,-9.02"
         id="path98" /></clipPath><radialGradient
       fx="0"
       fy="0"
       cx="0"
       cy="0"
       r="1"
       gradientUnits="userSpaceOnUse"
       gradientTransform="matrix(896.895,0,0,896.895,1279.8,1851.09)"
       spreadMethod="pad"
       id="radialGradient106"><stop
         style="stop-opacity:1;stop-color:#f5f015"
         offset="0"
         id="stop102" /><stop
         style="stop-opacity:1;stop-color:#f14b1c"
         offset="1"
         id="stop104" /></radialGradient><clipPath
       clipPathUnits="userSpaceOnUse"
       id="clipPath116"><path
         d="m 1600.59,2717.04 c -4.43,-0.32 -10.79,-0.13 -18.26,0.05 v 0 c -14.47,0.35 -33.14,0.7 -49.99,-2.42 v 0 c 2.96,-18.98 18.4,-23.3 31.8,-29.97 v 0 c 24.17,12.63 43.06,29.75 78.78,32.55 v 0 c -7.12,11.74 -23.22,12.88 -40.18,13 v 0 c -7.56,-4.95 4.56,-11.75 -2.15,-13.21"
         id="path114" /></clipPath><radialGradient
       fx="0"
       fy="0"
       cx="0"
       cy="0"
       r="1"
       gradientUnits="userSpaceOnUse"
       gradientTransform="matrix(896.156,0,0,896.156,1280.21,1851.75)"
       spreadMethod="pad"
       id="radialGradient122"><stop
         style="stop-opacity:1;stop-color:#f5f015"
         offset="0"
         id="stop118" /><stop
         style="stop-opacity:1;stop-color:#f14b1c"
         offset="1"
         id="stop120" /></radialGradient><clipPath
       clipPathUnits="userSpaceOnUse"
       id="clipPath132"><path
         d="m 1437.1,2683.99 c 7.87,-27.62 32.93,-23.19 54.46,-28.09 v 0 c 8.48,14.9 25.26,22.73 32.68,38.54 v 0 c -4.19,0.31 -8.11,0.44 -11.89,0.44 v 0 c -28.21,0 -46.26,-7.64 -75.25,-10.89"
         id="path130" /></clipPath><radialGradient
       fx="0"
       fy="0"
       cx="0"
       cy="0"
       r="1"
       gradientUnits="userSpaceOnUse"
       gradientTransform="matrix(889.097,0,0,889.097,1280.61,1859.79)"
       spreadMethod="pad"
       id="radialGradient138"><stop
         style="stop-opacity:1;stop-color:#f5f015"
         offset="0"
         id="stop134" /><stop
         style="stop-opacity:1;stop-color:#f14b1c"
         offset="1"
         id="stop136" /></radialGradient><clipPath
       clipPathUnits="userSpaceOnUse"
       id="clipPath148"><path
         d="m 1635.86,2684.12 c -3.23,-0.29 -3.6,-2.97 -6.2,-3.78 v 0 c 0.73,-8.64 1.42,-17.27 2.14,-25.91 v 0 c 23.17,-25.73 52.74,-7.81 75.53,-6.8 v 0 c 59.94,2.64 120.39,-13.88 177.72,-21.2 v 0 c 114.77,-14.68 212.59,-35.74 315.22,-68.51 v 0 c 51.29,-16.39 102.66,-34.47 153.44,-42.76 v 0 c -205.26,90.54 -437.53,169.01 -704.66,169.01 v 0 c -4.36,0 -8.79,-0.03 -13.19,-0.05"
         id="path146" /></clipPath><radialGradient
       fx="0"
       fy="0"
       cx="0"
       cy="0"
       r="1"
       gradientUnits="userSpaceOnUse"
       gradientTransform="matrix(892.757,0,0,892.757,1280.42,1855)"
       spreadMethod="pad"
       id="radialGradient154"><stop
         style="stop-opacity:1;stop-color:#f5f015"
         offset="0"
         id="stop150" /><stop
         style="stop-opacity:1;stop-color:#f14b1c"
         offset="1"
         id="stop152" /></radialGradient><clipPath
       clipPathUnits="userSpaceOnUse"
       id="clipPath164"><path
         d="m 2310.17,2371.44 c 0.15,-4.14 -3.79,-4.83 -2.45,-9.96 v 0 c 93.63,-152.64 97.09,-413.17 121.1,-599.4 v 0 c 20.14,128.29 7.89,334.75 -30.04,483.04 v 0 c -10.29,40.29 -47.84,127.01 -83.2,127 v 0 c -1.82,0 -3.63,-0.2 -5.41,-0.68"
         id="path162" /></clipPath><radialGradient
       fx="0"
       fy="0"
       cx="0"
       cy="0"
       r="1"
       gradientUnits="userSpaceOnUse"
       gradientTransform="matrix(890.449,0,0,890.449,1283.18,1856.41)"
       spreadMethod="pad"
       id="radialGradient170"><stop
         style="stop-opacity:1;stop-color:#f5f015"
         offset="0"
         id="stop166" /><stop
         style="stop-opacity:1;stop-color:#f14b1c"
         offset="1"
         id="stop168" /></radialGradient><clipPath
       clipPathUnits="userSpaceOnUse"
       id="clipPath180"><path
         d="M 3167.54,4161.07 C 2864.28,4081.09 2588.79,3951.75 2524.36,3647 v 0 c 30.25,26.92 42.17,70 62.93,106.22 v 0 c 11.15,19.42 22.42,34.05 34.84,51.75 v 0 c 12.12,17.28 26.96,37.42 28.35,51.21 v 0 c 12.28,25.52 74.27,76.89 109.34,97 v 0 c 306.42,175.66 644.54,199.48 746.85,309.25 v 0 c -17.52,-37.98 -61.99,-67.28 -96.38,-95.93 v 0 c -475.66,-93.45 -658.27,-469.55 -684.46,-512.67 v 0 c 79.17,52.07 325.25,509.94 1000.56,512.65 v 0 c 84.7,0.35 193.08,2.79 272.99,48.59 v 0 c -50.55,-72.69 -185.82,-56.63 -261.45,-109.55 v 0 c 127.45,29.01 323.09,36.89 453.72,69.99 v 0 c -47.59,-44.21 -132.91,-74.08 -206.16,-108.24 v 0 c -68.39,-31.88 -165.02,-36.47 -250.07,-49.94 v 0 c -532.89,-84.44 -671.59,-377.03 -664.65,-396.96 v 0 c 49.8,37.45 144.09,211.46 544.54,312.11 v 0 c 142.51,35.82 293.15,30.79 440.75,29.81 v 0 c 269.85,-1.82 532.27,-121.59 802.64,-51.15 v 0 c -109.18,-72.19 -204.86,-98.48 -346.99,-139.39 v 0 c -554.81,141.42 -880.32,-85.85 -899.86,-113.3 v 0 c 16.41,-3.73 153.97,54.67 202.06,64.9 v 0 c 454.51,96.78 802.47,-16.66 1132.97,-130.81 v 0 c 0,0 146.74,-60.27 343.84,-59.65 v 0 c -132.39,-99.33 -332.04,-164.38 -530.68,-164.32 v 0 c -114.66,54.6 -247.23,101.53 -392.04,130.61 v 0 c -87.44,17.58 -170.79,33.97 -273.19,32.88 v 0 c -20.61,-0.22 -42.68,0.33 -65.44,0.87 v 0 c -73.87,1.76 -154.98,3.53 -216.43,-20.84 v 0 c 15.6,-13.01 56.23,-7.76 75.49,-6.82 v 0 c 204.59,10.03 434.25,-28.25 600.32,-87.37 v 0 c 221.14,-78.72 404.52,-182.3 583.39,-316.88 v 0 c 132.16,-99.46 245.67,-254.7 422.64,-304.07 v 0 c -28.31,-4.99 -54.31,-8.96 -83.91,-10.19 v 0 c -73.29,-3 -156.11,1.03 -210.61,25 v 0 c -43.81,19.28 -350.65,237.28 -369.01,246.58 v 0 c 18.75,-38.25 429.96,-336.86 611.02,-454.73 v 0 c -17.99,-8.86 -281.85,93.89 -407.39,158.69 v 0 c 0.93,-14.29 91.18,-91.05 124.5,-126.64 v 0 c 85.5,-91.29 154.09,-211.13 212.52,-324.64 v 0 c 88.76,-172.42 166.4,-391.51 277.88,-524.56 v 0 c -30.77,2.75 -107.75,57.53 -126.44,71.02 v 0 c -17.41,12.62 -36.9,35.47 -54.47,28.13 v 0 c -3.85,-14.89 14.71,-24.99 22.65,-37.23 v 0 c 25.43,-39.38 43.74,-105.93 59.45,-167.84 v 0 c 32.18,-126.86 53.06,-245.36 91.13,-354.21 v 0 c -37.41,40.2 -65.95,86.71 -104.84,124.97 v 0 c -22.39,22.06 -100.93,108.33 -116.2,65.38 v 0 c -1.3,-25.78 19.79,-95.82 21.51,-102.51 v 0 c 19.63,-76.96 58.39,-163.01 94.46,-236.63 v 0 c 26.26,-53.55 64.05,-115.6 95.35,-168.11 v 0 c 38.77,-64.969 144.86,-195.711 152.2,-186.219 v 0 C 5745.1,871.719 5712.2,939.32 5677.65,974.07 v 0 c -59.27,114.75 -149.55,286.95 -176.8,444.93 v 0 c 103.35,-76.31 146.84,-182.8 235.9,-279.68 v 0 c 16.26,-10.51 39.5,-56.95 45.13,-73.17 v 0 c 5.77,28.49 -29.96,84.32 -42.83,111.73 v 0 c -11.71,24.99 -20.83,47.19 -22.33,73.14 v 0 c -62.58,164.53 -75.52,331.8 -130.89,520.41 v 0 c 63.33,-30.66 145.89,-58.72 227.31,-69.27 v 0 c 27.21,-3.52 55.61,-13.77 75.24,-3.56 v 0 c -25.93,8.02 -40.69,19.44 -40.69,19.44 v 0 c -258.39,223.6 -378.82,598.9 -574.25,878.16 v 0 c 106.45,-44.33 305.95,-85.2 412.79,-37.02 v 0 c -81.68,4.21 -141.18,25.27 -178.07,41.91 v 0 c -40.16,18.11 -84.7,55.42 -121.09,79.42 v 0 c -39.91,26.32 -80.87,48.43 -114.04,78.59 v 0 c 67.8,-25.94 344.05,-84.69 506.84,58.09 v 0 c 8.84,7.73 24.06,13.65 30.51,25.33 v 0 c -263.22,-73.96 -661.28,271.77 -711.95,311.46 v 0 c -31.03,24.32 -58.78,45.63 -67.46,51.17 v 0 c -22.67,14.41 -43.12,32.09 -65.77,46.74 v 0 c -48.61,31.38 -106.06,50.9 -150.7,88.58 v 0 c 50.14,-5.88 98.93,2.47 145.38,15.25 v 0 c 6.26,-2.09 95.79,12.5 141.09,27.92 v 0 c 187.23,63.73 315.7,217.35 477.39,296.81 v 0 c -64.79,11.29 -152.18,-55.71 -343.14,-67.39 v 0 c -200.74,-12.27 -302.49,39.88 -360.01,58.3 v 0 c -34.22,10.95 -228.65,69.66 -280.17,77.92 v 0 c 354.65,67.83 476.14,331.54 476.14,331.54 v 0 C 5021.87,4033.97 4993.1,4020 4993.1,4020 v 0 c -70.89,-36.6 -166.3,-50.53 -246.02,-59.39 v 0 c -59.58,-6.63 -186.98,12.83 -332.88,32.28 v 0 c -134.56,17.95 -284.86,35.88 -412.28,33.38 v 0 c 75.79,31.44 142.56,56.02 207.23,95.3 v 0 c 77.58,47.11 152.34,115.97 182.49,197.52 v 0 c -93.33,-93.91 -296.65,-129.96 -392.02,-146.36 v 0 c 60.47,48.54 116.19,82.33 142.55,168.16 v 0 c -173.79,-138.14 -428.76,-117.46 -664.99,-155.84 v 0 c 0,0 111.54,99.25 195.2,244.64 v 0 c 0,0 -227.42,-200.63 -504.84,-268.62"
         id="path178" /></clipPath><radialGradient
       fx="0"
       fy="0"
       cx="0"
       cy="0"
       r="1"
       gradientUnits="userSpaceOnUse"
       gradientTransform="matrix(892.293,0,0,892.293,1279.87,1857.63)"
       spreadMethod="pad"
       id="radialGradient186"><stop
         style="stop-opacity:1;stop-color:#f5f015"
         offset="0"
         id="stop182" /><stop
         style="stop-opacity:1;stop-color:#f14b1c"
         offset="1"
         id="stop184" /></radialGradient><clipPath
       clipPathUnits="userSpaceOnUse"
       id="clipPath196"><path
         d="m 1366.73,1205.26 c 17.55,8.73 36.34,-11.59 56.38,-11.7 v 0 c -6.27,-2.04 -12.71,-2.99 -18.97,-2.99 v 0 c -15.61,0 -30.01,5.84 -37.41,14.69 M 1271,1497.17 c 23.51,-89.47 47.08,-178.86 97.69,-236.38 v 0 c -96.65,3.42 -117.55,146.91 -97.69,236.38 m 181.81,-268.55 c -49.44,78.34 -69.77,234.14 -40.7,335.56 v 0 c 14.86,-142.33 79.39,-244.88 137.54,-324.3 v 0 c -19.87,-10.18 -42.28,-18.48 -64.23,-18.48 v 0 c -11.12,0 -22.13,2.12 -32.61,7.22 m 431.44,498.3 c 7.99,-2.44 27.92,-1.5 20.49,-11.32 v 0 c 6.61,-1.33 8.6,1.25 10.61,3.88 v 0 c 1.72,2.23 3.46,4.52 8.28,4.18 v 0 c -5.07,-31.05 -50.1,-53.72 -64.54,-86.78 v 0 c -132.44,-92.85 -187.85,-237.99 -194.13,-253.9 v 0 c -11.13,-28.07 -40.78,-75.79 -61.62,-122.4 v 0 c -49.86,29.95 -74.74,89.42 -103.18,144.67 v 0 c 65.51,106.37 138.13,221.64 257.82,272.2 v 0 c -27.04,-33.42 -73.27,-57.57 -85.32,-111.32 v 0 c 58.63,51.64 123.12,124.41 211.59,160.79 m -766.43,718.93 c 30.51,23.53 78.1,8.75 100.65,44.16 v 0 c 45.66,-11.05 57.15,-7.44 109.74,-26.81 v 0 c -57,-67.9 -75.17,-210.71 -38.05,-328.99 v 0 c -25.72,31.21 -55.86,102.32 -66.19,170.51 v 0 c -9.59,63.25 2.18,115.25 3.1,159.92 v 0 c -21.94,-6.5 -19.23,-33.88 -24.86,-54.19 v 0 c -14.05,4 -19.16,-2.64 -42.08,-3.47 v 0 c -2.7,18.14 -2.4,39.81 -22.63,37.23 v 0 c -5.52,-16.44 -9.73,-53.79 5.07,-61.48 v 0 c -7.3,-46.95 -22.39,-100.11 -24.13,-142.13 v 0 c -22.69,56.21 -44.15,171.71 -0.62,205.25 m 370.35,53.36 c 67.84,6.32 133.57,-3.92 158.01,-58.68 v 0 c -2.82,-5.63 -13.46,-4.65 -18.89,-8.08 v 0 c 1.62,7.46 8.41,17.02 1.37,22.94 v 0 c -20.66,-1.56 -29.86,-12.84 -43.99,-19.92 v 0 c -31.18,32.76 -72.03,72.99 -116.2,26.25 v 0 c -12.21,18.73 -42.2,23.35 -54.74,31.35 v 0 c 27.47,7.17 54.04,10.22 71.76,-0.61 v 0 c 4.98,1.55 -3.32,5.47 2.68,6.75 m -173.14,5.27 c 31.13,-4.71 55.27,-17.68 95.46,-11.68 v 0 c -13.38,-22.51 -54.45,-5.36 -72.83,-25.55 v 0 c 6.26,17.94 -17.58,21.8 -22.63,37.23 m 897.86,1204.82 c 21.59,-40.71 25.67,-105.1 -11.97,-131.33 v 0 c 14.31,35.03 11.42,84.64 11.97,131.33 m 494.99,399.29 c 35.13,45.56 97.72,83.7 109.1,139.35 v 0 c -59.23,-57.78 -139.97,-98.82 -205.38,-157.08 v 0 c -66.03,-58.77 -114.65,-131.73 -166.06,-199.43 v 0 c 11.25,88.83 85.59,140.15 120.47,198.95 v 0 c -120.31,-63.8 -183.38,-171.21 -196.24,-188.9 v 0 c -51.69,-71.03 -57.76,-168.95 -107.04,-243.45 v 0 c -39.42,52.87 -9.13,109.95 13.1,157.48 v 0 c -122.29,-50.78 -86.52,-229.09 -286.39,-297.77 v 0 c -32.29,-11.1 -70.1,-30.7 -102.53,-45.91 v 0 c -39.28,-18.39 -83.04,-34.08 -110.21,-59.7 v 0 c -15.37,-14.48 -67.35,-85.66 -78.49,-100.48 v 0 c -11.92,-15.8 -20.85,-35.9 -31.88,-48.25 v 0 c -16.54,-18.46 -38.28,-15.7 -62.26,-12.93 v 0 c -12.16,1.39 -24.9,2.8 -37.83,1.42 v 0 c -88.79,-9.38 -167.46,-87.36 -287.86,-105.19 v 0 c -10.3,-1.53 -20.81,-1.29 -31.5,-1.08 v 0 c -9.93,0.21 -20.01,0.42 -30.25,-0.76 v 0 c -44.48,-5.08 -89.56,-22.69 -127.61,-33.32 v 0 c -87.07,-24.29 -141.266,-55.05 -217.211,-92.85 v 0 c -42.789,-21.33 -99.454,-53.75 -113.895,-81.09 v 0 c -27.726,-52.56 34.957,-102.34 63.262,-134.93 v 0 c 10.344,-75.01 48.355,-58.97 63.344,-56.69 v 0 c 23.668,-24.57 15.562,-49.57 19.878,-83.08 v 0 c 15.883,-123.42 60.934,-181.79 148.682,-222.37 v 0 c 22.66,-48.55 15.45,-132.58 34.9,-186.13 v 0 c 22.87,-62.93 58.86,-128.32 92.09,-168.38 v 0 c -20.45,66.88 -39.8,163.9 -25.16,226.02 v 0 c 10.98,14.11 24.33,37.78 25.13,50.97 v 0 c 2.51,-6.05 5.14,-2.79 7.82,0.44 v 0 c 1.6,1.96 3.23,3.9 4.88,3.86 v 0 c -4.43,-86.46 21.63,-161.84 50.24,-214.2 v 0 c 26.98,-49.37 49.15,-88.68 78.9,-127.1 v 0 c 16.14,-20.85 33.94,-43.73 53.1,-51.05 v 0 c 1.58,26.57 -24.89,36.22 -25.82,76.11 v 0 c -53.32,122.61 -64.4,361.94 63.48,415.83 v 0 c 19.29,-23.2 42.48,-64.2 75.74,-49.14 v 0 c 30.53,-61.05 67.38,-114.71 78.3,-198.85 v 0 c 20.27,-4.15 18.91,10.06 28.08,15.36 v 0 c 36.73,-65.58 72.22,-132.64 89.88,-220.7 v 0 c 5.25,-1.74 8.82,-0.9 11.9,-0.04 v 0 c 3.69,1.01 6.68,2.07 11.03,-1.36 v 0 c 26.63,-120.47 33.46,-197.39 28.06,-300.76 v 0 c -29.3,-8.63 -96.05,-72.01 -104.18,-80.27 v 0 c -11.86,-5.69 -98.34,-110.85 -152.82,-162.5 v 0 c -33.96,58.21 -38.11,166.68 -31.62,225.5 v 0 c -14.16,-10.13 -26.88,-30.52 -35.11,-48.52 v 0 c -46.07,-100.79 -46.29,-264.33 -19.19,-360.02 v 0 c -69.72,37.4 -114.93,222.52 -93.32,301.87 v 0 c -46.07,-28.22 -67.78,-117.57 -66.25,-184.69 v 0 c 1.92,-83.48 57.45,-123.54 66.72,-176.99 v 0 c -10.57,-110.98 -73.25,-196.12 -20.21,-307.989 v 0 c 21.31,-44.961 103.04,-104.289 103.71,-151.153 v 0 c 4.79,9.731 3.03,-0.566 2.66,-10.867 v 0 c -0.3,-8.242 0.31,-16.492 5.94,-14.461 v 0 c 19.36,23.981 26.78,66.41 13.86,108.672 v 0 c 32.39,-35.812 73.19,-74.613 82.41,-130.082 v 0 c 7.68,-46.219 -21.04,-84.16 -15.48,-128.371 v 0 c 47.85,42.742 53.51,121.25 72.45,188.481 v 0 c 52.24,-64.059 120.46,-119.418 101.18,-239.348 v 0 c 27.85,43.629 37.24,93.297 15.8,164.23 v 0 c -13.5,44.688 -53,81.879 -43.57,133.297 v 0 c 10.77,-32.269 43.09,-39.097 72.51,-49.41 v 0 c 6.29,-12.75 11.99,-26.117 28.29,-27 v 0 c -13.91,39.242 -40.2,63.859 -48.18,110.07 v 0 c 39.44,-21.218 86.6,-47.371 140.22,-40.597 v 0 c 22.05,-23.672 44.19,-47.293 79.5,-55.321 v 0 c 3.23,16.719 -16.07,13.188 -24.51,20.77 v 0 c -42.43,38.059 -60.09,128.359 -45.41,195.039 v 0 c 4.28,-23.762 17.44,-45.258 28.25,-66.102 v 0 c 9.83,-18.898 17.07,-50.488 43.41,-51.816 v 0 c -16.43,73.207 -12.88,173.238 6.66,235.198 v 0 c 5.52,-22.31 19.65,-42.78 34.2,-59.09 v 0 c 13.74,-15.44 31.03,-37.62 48.78,-38.36 v 0 c -8.74,78.85 19.28,152.09 68.94,191.43 v 0 c 59.17,-30.85 84.45,-101.67 117.72,-163.02 v 0 c -26,-65.201 -51.77,-125.521 -51.95,-199.818 v 0 c -0.37,-158.25 81.92,-337.91 62.42,-480.422 v 0 c -5.93,-43.258 -22.92,-116.52 -35.21,-165.84 v 0 c 19.25,28.5 44.63,103.981 46.48,108.129 v 0 c 51.03,114.57 4.98,337.41 -13.34,477.941 v 0 c 3.23,3.301 -3.51,138.051 18.24,174.219 v 0 c 35.68,-73.398 66.58,-151.867 90.12,-263.027 v 0 c -1.34,193.918 -57.8,361.618 -122.5,537.368 v 0 c -78.71,213.67 -41.71,453.59 23.49,663.47 v 0 c -37.61,-36.25 -58.54,-101.22 -74.84,-159.34 v 0 c -18.79,-66.88 -34.94,-166.28 -36.62,-227.88 v 0 c -2.23,-81.58 5.37,-159.35 16.78,-243.03 v 0 c -12.96,54.24 -67.14,7.55 -83.36,-16.66 v 0 c -31.59,-47.09 -48.11,-137.84 -63.28,-181.17 v 0 c -27.16,42.03 -18.44,95.9 -12,145.64 v 0 c -28.31,8.78 -34.38,-29.54 -41.59,-49.03 v 0 c -19.94,-53.92 -29.27,-123.12 -33.32,-188.501 v 0 c -7.6,37.291 -30,79.311 -39.02,117.341 v 0 c -7.3,30.8 -7.07,75.24 -47.41,61.26 v 0 c 17.39,-118.25 -9.29,-201.019 18.09,-298.288 v 0 c -49.97,-4.153 -82.46,42.32 -100.55,73.168 v 0 c -12.31,20.972 -18.69,49.812 -33.68,52.628 v 0 c -25.62,-34.648 -2.51,-108.089 -0.92,-146.718 v 0 c -17.35,20.941 -24.97,53.422 -39.05,78.23 v 0 c -12.82,0.86 -18.56,-4.34 -25.35,-8.59 v 0 c 10.75,-73.082 9.22,-122.101 40.3,-172.679 v 0 c -57.82,47.441 -88.09,143.328 -104.17,235.847 v 0 c -6.48,37.212 -5.37,59.992 -26.35,82.572 v 0 c -16.55,4.27 -26.18,-5.42 -34.55,-15.89 v 0 c 3.18,-23.49 9.16,-68.51 12.61,-73.92 v 0 c 15.43,-71.07 55.69,-141.34 34.06,-215.539 v 0 c -6.87,20.949 -5.15,41.281 -11.27,57.73 v 0 c -22.92,61.618 -74.93,75.52 -110.47,114.731 v 0 c -12.78,14.066 -10.8,33.488 -29.64,43.168 v 0 c -14.08,-38.5 20.23,-91.789 24.14,-134.879 v 0 c -58.99,60.187 -110.05,221.109 -55,311.569 v 0 c 11.78,-6.5 34.29,-10.2 46.11,-5.98 v 0 c 65.77,-29.83 139.57,-30.2 219.53,-14.49 v 0 c 32.36,22.16 58.8,53.59 88.81,69.23 v 0 c 49.45,79.32 73.03,157.78 131.8,219.46 v 0 c 2.52,-7.69 12.83,-6.2 20.22,-8.13 v 0 c 58.28,63.01 115.49,126.92 155.82,205.14 v 0 c 3.21,-4.49 3.61,-12.32 13.75,-8.64 v 0 c 8.64,28.79 34.6,42.92 42.93,71.95 v 0 c -29.26,90.98 -63.52,176.03 -81.74,280.04 v 0 c 2.34,11.8 12.02,25.91 0.58,32.64 v 0 c -8.51,5.21 -11.82,-1.15 -14.92,-7.51 v 0 c -3.02,-6.22 -5.86,-12.41 -13.15,-7.86 v 0 c 8.23,28.77 -10.85,63.68 -4.23,90.93 v 0 c -6.15,0.27 -10.53,-4.01 -14.31,-8.3 v 0 c -4.79,-5.37 -8.61,-10.78 -13.77,-7.07 v 0 c -4.62,38.18 11.95,67.46 8.2,98.47 v 0 c -7.18,5.2 -8.78,-0.62 -11.35,-6.42 v 0 c -1.95,-4.37 -4.45,-8.71 -10.24,-8.41 v 0 c -36.43,57.37 -19.66,163.52 -66.45,212.83 v 0 c -20.7,-15.16 -8.82,-39.62 -28.08,-54.44 v 0 c -4.52,67.8 -33.67,140.65 -72.12,202.62 v 0 c -39.26,63.27 -76,124.65 -141.52,95.88 v 0 c -11.93,7.22 -27.73,9.9 -34.49,23.23 v 0 c 20.16,5.68 43.42,-0.44 54.49,11 v 0 c -56.38,14.39 -162.93,6.14 -218.2,-1.69 v 0 c 27.58,-34.95 104.2,-12.04 136.98,-40.84 v 0 c -41.94,-41.43 -98.28,-22.49 -144.87,-21.72 v 0 c 3.07,-6.1 17.75,-16.66 14.57,-18.37 v 0 c -41.6,-1.71 -79.99,0.37 -105.73,17.38 v 0 c -3.27,11.63 -15.91,30.76 -27.76,20.5 v 0 c -5.89,-14.03 18.75,-24.96 20.45,-50.45 v 0 c -64.76,4.61 -96.11,41.04 -136.94,79.97 v 0 c -4.19,-17.74 13.31,-21.6 5.91,-32.11 v 0 c -40.43,-14.47 -86.3,-5.92 -111.92,13.58 v 0 c -49.027,37.29 -54.109,124.01 -86.16,175.39 v 0 c -7.753,-72.08 30.5,-148.01 56.45,-210.42 v 0 c -68.809,25.35 -64.528,136.95 -92.305,210.73 v 0 c 5.559,5.31 10.504,11.15 14.84,17.5 v 0 c -48.317,34.17 -113.106,48.9 -130.434,119.61 v 0 c 92.285,94.54 256.859,196.25 417.989,226.73 v 0 c 39.86,7.53 71.7,5.82 102.12,4.09 v 0 c 24.27,-1.36 47.63,-2.73 73.45,0.61 v 0 c 76.57,53.15 175.62,100.73 271.43,107.1 v 0 c 35.4,2.35 69.56,-2.45 93.35,14.22 v 0 c 35.51,24.84 49.23,110.18 86.16,140.71 v 0 c 165.35,136.79 409.25,148.06 453.01,197.03 v 0 c 75.68,84.68 108.91,277.99 119.19,293.34 v 0 c -7.72,-51.72 -17.68,-136.97 14.15,-171.54 v 0 c 18.36,168.41 120.19,307.36 231.24,397.08 v 0 c -32.42,-50.39 -85.59,-134.32 -78.12,-198.7 v 0 c 73.37,89.32 146.28,179.05 268.02,227.39 v 0 c 7.52,5.02 1.49,6.64 5.66,10.26 v 0 c 84,30.86 178.31,73.39 271.7,103.86 v 0 c -85.8,-91.21 -201.3,-113.46 -285.77,-170.2 v 0 c 28.66,6.21 80.8,19.06 124.09,36.3 v 0 c 79.32,31.55 155.1,77.93 204.03,134.12 v 0 c 19.38,22.24 30.73,50.1 49.41,72.52 v 0 c 20.06,24.02 49.57,43.57 55.36,79.51 v 0 C 3144.64,4253.22 2874.36,4224.2 2707.88,4108.59"
         id="path194" /></clipPath><radialGradient
       fx="0"
       fy="0"
       cx="0"
       cy="0"
       r="1"
       gradientUnits="userSpaceOnUse"
       gradientTransform="matrix(892.215,0,0,892.215,1280.23,1856.6)"
       spreadMethod="pad"
       id="radialGradient202"><stop
         style="stop-opacity:1;stop-color:#f5f015"
         offset="0"
         id="stop198" /><stop
         style="stop-opacity:1;stop-color:#f14b1c"
         offset="1"
         id="stop200" /></radialGradient><clipPath
       clipPathUnits="userSpaceOnUse"
       id="clipPath212"><path
         d="m 2062.46,3162.46 c 20.5,-8.94 55.81,-0.43 69.82,-17.05 v 0 c -42.62,-4.64 -82.77,-23.32 -116.54,-48.73 v 0 c -15.27,0.98 -22.97,10.81 -36.94,13.26 v 0 c -1.96,14.71 3.57,23.06 7.05,33.15 v 0 c 7.7,-10.39 21.8,-15.65 35.82,-15.65 v 0 c 20.76,0 41.35,11.53 40.79,35.02 m -46.38,9.22 c -2.41,-3.98 -3.55,-9.04 -1.92,-16.47 v 0 c -4.32,-0.35 -8.62,-0.7 -12.94,-1.06 v 0 c -1.7,11.47 3.27,17.31 14.86,17.53 v 0 0 m 263.16,246.55 c -0.35,0.33 -9.18,1.07 -16.24,-0.58 v 0 c -83.66,-19.43 -454.78,-198.51 -607.33,-301.77 v 0 c -108.54,11.55 -213.59,-25.52 -294.57,-63.37 v 0 c -19.12,-8.93 -41.17,-14.3 -52.89,-30.45 v 0 c 2.98,-11.07 15.74,-10.65 28.46,-10.21 v 0 c 7.92,0.27 15.85,0.53 21.43,-1.95 v 0 c 74.68,45.44 171.98,97.12 279.5,88.21 v 0 c -8.89,-3.52 -167.82,-100.31 -93.44,-131.54 v 0 c 9.55,2.93 10.27,13.37 25.09,11.85 v 0 c 37.93,52.12 87.32,94.56 149.26,126.35 v 0 c 69.99,77.16 172.37,126.85 268.53,181.84 v 0 c -14.28,-24.04 -36.77,-41.1 -49.95,-66.04 v 0 c 5.82,-22.74 24.38,-30.42 33.39,-49.39 v 0 c -7.11,-15.05 -7.72,-35.61 -11.92,-53.13 v 0 c -23.18,7.3 -71.36,21.9 -89,12.23 v 0 c 0.46,-16.18 26.82,-16.3 33.72,-13.52 v 0 c 48.11,-15.13 81.3,-28.53 134.27,-47.59 v 0 c 16.44,30.37 52.81,46.56 92.85,59.8 v 0 c 53.1,17.56 109.63,12.43 165.61,7.12 v 0 c -5.39,20.89 -30.34,18.7 -50.7,21.9 v 0 c -44.43,17.94 -127.96,33.94 -201.98,38.74 v 0 c -9.93,13.16 -33.25,10.5 -44.2,22.43 v 0 c -19.72,42.26 36.08,76.4 47.01,101.64 v 0 c 69.14,37.29 136.74,58.67 208.03,85.58 v 0 c 19.79,7.48 44.06,9.41 59.62,27.73 v 0 c -15.26,-2.09 -28.74,-5.75 -34.55,-15.88"
         id="path210" /></clipPath><radialGradient
       fx="0"
       fy="0"
       cx="0"
       cy="0"
       r="1"
       gradientUnits="userSpaceOnUse"
       gradientTransform="matrix(891.561,0,0,891.561,1280.17,1857.53)"
       spreadMethod="pad"
       id="radialGradient218"><stop
         style="stop-opacity:1;stop-color:#f5f015"
         offset="0"
         id="stop214" /><stop
         style="stop-opacity:1;stop-color:#f14b1c"
         offset="1"
         id="stop216" /></radialGradient><clipPath
       clipPathUnits="userSpaceOnUse"
       id="clipPath228"><path
         d="m 1415.49,2946.19 c -30.19,7.17 -75.07,2.53 -92.01,-30.4 v 0 c 31.79,-41.59 78.36,8.68 98.47,30.94 v 0 c 24.62,-19.07 64.39,16.98 82.03,32.82 v 0 c -4.22,0.67 -8.65,0.99 -13.19,0.99 v 0 c -32.87,0 -71.14,-16.59 -75.3,-34.35"
         id="path226" /></clipPath><radialGradient
       fx="0"
       fy="0"
       cx="0"
       cy="0"
       r="1"
       gradientUnits="userSpaceOnUse"
       gradientTransform="matrix(902.043,0,0,902.043,1280.53,1843.17)"
       spreadMethod="pad"
       id="radialGradient234"><stop
         style="stop-opacity:1;stop-color:#f5f015"
         offset="0"
         id="stop230" /><stop
         style="stop-opacity:1;stop-color:#f14b1c"
         offset="1"
         id="stop232" /></radialGradient><clipPath
       clipPathUnits="userSpaceOnUse"
       id="clipPath244"><path
         d="m 2360.19,1922.61 c 5.22,-116.7 -7.79,-233.78 -38.03,-329.04 v 0 c 4.25,-46.29 -25.17,-68.9 -29.52,-116.47 v 0 c 0.39,-5.37 -6.16,-10.81 -2.43,-10 v 0 c 56.77,82.57 84.31,202.56 94.93,310.89 v 0 c 8.5,86.61 7.62,183 -12.44,269.47 v 0 c -6.36,27.5 -7.94,66 -36.06,81.77 v 0 c 4.15,-65.79 20.26,-133.04 23.55,-206.62"
         id="path242" /></clipPath><radialGradient
       fx="0"
       fy="0"
       cx="0"
       cy="0"
       r="1"
       gradientUnits="userSpaceOnUse"
       gradientTransform="matrix(850.908,0,0,850.908,1338.13,1856.09)"
       spreadMethod="pad"
       id="radialGradient250"><stop
         style="stop-opacity:1;stop-color:#f5f015"
         offset="0"
         id="stop246" /><stop
         style="stop-opacity:1;stop-color:#f14b1c"
         offset="1"
         id="stop248" /></radialGradient><clipPath
       clipPathUnits="userSpaceOnUse"
       id="clipPath260"><path
         d="m 2848.1,3435.79 c -15.11,-6.94 -63.82,-32.45 -101.62,-56.29 v 0 c -17.47,-11.01 -83.01,-57.84 -111.84,-89.07 v 0 c -60.86,-65.91 -86.2,-53.09 -81.79,-67.98 v 0 c 9.3,-9.58 18.86,-12.65 30.47,-13.78 v 0 c 51.54,-5.04 84.25,17.64 107.1,44.67 v 0 c 57.08,67.51 159.2,149.55 245.85,179.95 v 0 c 80.08,28.1 153.7,14.18 228.33,0.29 v 0 c 44.03,-8.2 88.43,-16.4 134.7,-15.96 v 0 c -66.69,31.57 -166.34,53.17 -263.71,53.17 v 0 c -67.5,0 -133.92,-10.39 -187.48,-35"
         id="path258" /></clipPath><radialGradient
       fx="0"
       fy="0"
       cx="0"
       cy="0"
       r="1"
       gradientUnits="userSpaceOnUse"
       gradientTransform="matrix(893.093,0,0,893.093,1279.94,1853.03)"
       spreadMethod="pad"
       id="radialGradient266"><stop
         style="stop-opacity:1;stop-color:#f5f015"
         offset="0"
         id="stop262" /><stop
         style="stop-opacity:1;stop-color:#f14b1c"
         offset="1"
         id="stop264" /></radialGradient><clipPath
       clipPathUnits="userSpaceOnUse"
       id="clipPath276"><path
         d="m 1116.93,2970.44 c -63.55,-10.27 -263.489,-50.91 -242.864,-137.33 v 0 c 5.122,-21.48 55.227,-47.36 85.196,-45.11 v 0 c 38.953,67.31 56.748,152.59 173.028,154.39 v 0 c 8.59,38.86 38.18,59.95 61.28,86.52 v 0 c -4.26,-0.32 -3.41,5.43 -7,5.93 v 0 c -17.89,-24.94 -63.33,-39.26 -69.64,-64.4"
         id="path274" /></clipPath><radialGradient
       fx="0"
       fy="0"
       cx="0"
       cy="0"
       r="1"
       gradientUnits="userSpaceOnUse"
       gradientTransform="matrix(892.65,0,0,892.65,1279.89,1855.04)"
       spreadMethod="pad"
       id="radialGradient282"><stop
         style="stop-opacity:1;stop-color:#f5f015"
         offset="0"
         id="stop278" /><stop
         style="stop-opacity:1;stop-color:#f14b1c"
         offset="1"
         id="stop280" /></radialGradient><clipPath
       clipPathUnits="userSpaceOnUse"
       id="clipPath292"><path
         d="m 1198.03,2856.56 c 38.85,-29.8 100.72,1.17 100.91,40.9 v 0 c -2.8,1.33 -6.31,1.93 -10.37,1.93 v 0 c -24.94,0 -70.01,-22.91 -90.54,-42.83"
         id="path290" /></clipPath><radialGradient
       fx="0"
       fy="0"
       cx="0"
       cy="0"
       r="1"
       gradientUnits="userSpaceOnUse"
       gradientTransform="matrix(886.413,0,0,886.413,1280.37,1862.27)"
       spreadMethod="pad"
       id="radialGradient298"><stop
         style="stop-opacity:1;stop-color:#f5f015"
         offset="0"
         id="stop294" /><stop
         style="stop-opacity:1;stop-color:#f14b1c"
         offset="1"
         id="stop296" /></radialGradient><clipPath
       clipPathUnits="userSpaceOnUse"
       id="clipPath308"><path
         d="m 1734.49,2555.35 c 15.93,-11.03 47.63,-13.49 42.3,-38.88 v 0 c 35,-10.6 35.23,-36.36 38.23,-68.53 v 0 c 99.44,-91.94 146.11,-245.15 218.44,-356.75 v 0 c -3.24,-0.28 -4.08,2.31 -6.74,2.72 v 0 c 16.31,-15.47 23.19,-38.9 39.6,-45.62 v 0 c -52.65,153.52 -110.29,297.22 -194.64,423.87 v 0 c -0.54,6.48 -1.06,12.96 -1.59,19.42 v 0 c -31.22,34.21 -72.3,56.78 -114.03,78.59 v 0 c -10.45,-2.15 -20.69,-4.54 -21.57,-14.82"
         id="path306" /></clipPath><radialGradient
       fx="0"
       fy="0"
       cx="0"
       cy="0"
       r="1"
       gradientUnits="userSpaceOnUse"
       gradientTransform="matrix(892.209,0,0,892.208,1280.04,1855.97)"
       spreadMethod="pad"
       id="radialGradient314"><stop
         style="stop-opacity:1;stop-color:#f5f015"
         offset="0"
         id="stop310" /><stop
         style="stop-opacity:1;stop-color:#f14b1c"
         offset="1"
         id="stop312" /></radialGradient><clipPath
       clipPathUnits="userSpaceOnUse"
       id="clipPath326"><path
         d="m 2811.8,2427.14 1.03,0.8 z m 31.13,14.22 c -4.99,0 -9.37,-0.91 -13.32,-2.74 v 0 c -4.77,-2.28 -10.57,-6.02 -17.15,-11.07 v 0 c -7.08,-5.54 -15.7,-13.96 -15.7,-21.98 v 0 -67.35 c 1.54,-4.46 193.78,-561.55 193.78,-561.55 v 0 h -169.36 c 0,0 -15.25,11.56 -25.47,19.28 v 0 -93.68 h 263.23 c 7.26,0 13.36,1.05 18.16,3.06 v 0 c 4.76,2.04 8.55,4.59 11.55,7.79 v 0 c 3.2,3.47 5.55,7.04 6.98,10.68 v 0 c 1.42,3.66 2.16,7.16 2.16,10.27 v 0 64.09 c -1.56,4.48 -198.04,567.41 -198.04,567.41 v 0 h 173.51 c 0,0 16.21,-12.02 27.66,-20.49 v 0 96.28 z"
         id="path324" /></clipPath><linearGradient
       x1="0"
       y1="0"
       x2="1"
       y2="0"
       gradientUnits="userSpaceOnUse"
       gradientTransform="matrix(0,-433.158,433.158,0,2948.38,2433.04)"
       spreadMethod="pad"
       id="linearGradient332"><stop
         style="stop-opacity:1;stop-color:#53aee5"
         offset="0"
         id="stop328" /><stop
         style="stop-opacity:1;stop-color:#28418f"
         offset="1"
         id="stop330" /></linearGradient><clipPath
       clipPathUnits="userSpaceOnUse"
       id="clipPath344"><path
         d="m 3405.99,2441.36 c 10.65,-11.3 25.38,-26.93 25.38,-26.93 v 0 -639.19 h -127.58 v 638.1 c 0,0 14.23,16.12 24.74,28.02 v 0 h -167.26 c 10.5,-11.9 24.75,-28.02 24.75,-28.02 v 0 -680.9 c 0,-18.88 47.38,-30.17 126.77,-30.17 v 0 h 265.4 c -13.23,10.98 -32.13,26.66 -32.13,26.66 v 0 685.52 c 0,0 14.73,15.65 25.34,26.91 v 0 h -165.41 z"
         id="path342" /></clipPath><linearGradient
       x1="0"
       y1="0"
       x2="1"
       y2="0"
       gradientUnits="userSpaceOnUse"
       gradientTransform="matrix(0,-433.158,433.158,0,3369.72,2433.04)"
       spreadMethod="pad"
       id="linearGradient350"><stop
         style="stop-opacity:1;stop-color:#53aee5"
         offset="0"
         id="stop346" /><stop
         style="stop-opacity:1;stop-color:#28418f"
         offset="1"
         id="stop348" /></linearGradient><clipPath
       clipPathUnits="userSpaceOnUse"
       id="clipPath362"><path
         d="m 3792.48,2361.34 h 41.75 c 21.83,0 40.73,-3.36 56.11,-9.96 v 0 c 15.48,-6.64 28.36,-15.71 38.27,-26.94 v 0 c 9.67,-10.96 16.81,-23.49 21.28,-37.3 v 0 c 4.28,-13.33 6.4,-26.76 6.4,-40.01 v 0 c 0,-12.69 -2.12,-25.94 -6.35,-39.48 v 0 c -4.4,-13.91 -11.22,-26.79 -20.22,-38.32 v 0 c -9.34,-12.04 -21.65,-22.1 -36.57,-29.93 v 0 c -15.36,-8.06 -33.8,-12.14 -54.79,-12.14 v 0 h -45.88 z m 52.64,80.02 h -198.26 c 10.51,-11.9 24.75,-28.02 24.75,-28.02 v 0 -683.93 c 0,0 -14.11,-15.71 -24.38,-27.14 v 0 h 166.5 c -10.27,11.45 -24.33,27.14 -24.33,27.14 v 0 392.83 c 0,0 58.98,-52.47 70.39,-62.64 v 0 c 140.29,41.01 177.86,119.99 188.3,140.68 v 0 c 10.07,20.12 30.12,136.55 -50.29,198.24 v 0 c -52.69,40.43 -130.54,42.9 -148.75,42.9 v 0 c -2.54,0 -3.93,-0.06 -3.93,-0.06"
         id="path360" /></clipPath><linearGradient
       x1="0"
       y1="0"
       x2="1"
       y2="0"
       gradientUnits="userSpaceOnUse"
       gradientTransform="matrix(0,-426.908,426.908,0,3852.16,2422.29)"
       spreadMethod="pad"
       id="linearGradient368"><stop
         style="stop-opacity:1;stop-color:#53aee5"
         offset="0"
         id="stop364" /><stop
         style="stop-opacity:1;stop-color:#28418f"
         offset="1"
         id="stop366" /></linearGradient><clipPath
       clipPathUnits="userSpaceOnUse"
       id="clipPath380"><path
         d="m 4120.58,2441.36 c 10.71,-12.31 25.07,-28.8 25.07,-28.8 v 0 -239.32 c 0,0 -27.6,-57.53 -40.48,-84.4 v 0 h 40.48 v -358.48 c 0,0 -14.24,-16.12 -24.76,-28.09 v 0 h 293 v 95.68 c -11.99,-8.9 -28.66,-21.28 -28.66,-21.28 v 0 h -123.36 v 313.6 h 112.36 c 6.14,10.98 28.68,51.35 42.74,76.47 v 0 h -155.1 v 199.52 h 122.94 c 0,0 16.79,-11.37 29.08,-19.73 v 0 94.83 z"
         id="path378" /></clipPath><linearGradient
       x1="0"
       y1="0"
       x2="1"
       y2="0"
       gradientUnits="userSpaceOnUse"
       gradientTransform="matrix(0,-433.158,433.158,0,4261.12,2433.04)"
       spreadMethod="pad"
       id="linearGradient386"><stop
         style="stop-opacity:1;stop-color:#53aee5"
         offset="0"
         id="stop382" /><stop
         style="stop-opacity:1;stop-color:#28418f"
         offset="1"
         id="stop384" /></linearGradient><clipPath
       clipPathUnits="userSpaceOnUse"
       id="clipPath398"><path
         d="m 4630.2,2361.34 h 41.97 c 21.96,0 41.1,-3.29 56.93,-9.86 v 0 c 15.99,-6.62 29.19,-15.7 39.23,-27 v 0 c 9.73,-10.9 16.99,-23.46 21.49,-37.3 v 0 c 4.33,-13.39 6.52,-26.86 6.52,-40.05 v 0 c 0,-12.61 -2.18,-25.92 -6.48,-39.52 v 0 c -4.44,-14 -11.56,-27 -21.15,-38.58 v 0 c -9.71,-11.92 -22.24,-21.87 -37.19,-29.66 v 0 c -15.47,-8.05 -34.02,-12.11 -55.15,-12.11 v 0 h -46.17 v 234.08 z m 47.25,80.02 h -193.39 c 10.7,-11.83 25.24,-27.91 25.24,-27.91 v 0 -684.15 c 0,0 -14.42,-15.67 -24.87,-27.03 v 0 h 167 c -10.26,11.45 -24.35,27.14 -24.35,27.14 v 0 340.46 l 31.96,6.33 171.5,-345.3 v -28.63 h 137.75 c -13.06,11.02 -28.57,24.14 -28.57,24.14 v 0 l -6.99,12.85 0.83,0.61 -150.59,354.34 c 145.42,81.61 113.12,210.75 113.12,210.75 v 0 c -35.7,128.23 -174.63,136.6 -210.28,136.6 v 0 c -5.34,0 -8.36,-0.2 -8.36,-0.2"
         id="path396" /></clipPath><linearGradient
       x1="0"
       y1="0"
       x2="1"
       y2="0"
       gradientUnits="userSpaceOnUse"
       gradientTransform="matrix(0,-433.339,433.339,0,4726.22,2433.07)"
       spreadMethod="pad"
       id="linearGradient404"><stop
         style="stop-opacity:1;stop-color:#53aee5"
         offset="0"
         id="stop400" /><stop
         style="stop-opacity:1;stop-color:#28418f"
         offset="1"
         id="stop402" /></linearGradient><clipPath
       clipPathUnits="userSpaceOnUse"
       id="clipPath418"><path
         d="m 2956.39,1607.5 c -0.46,-15.37 -1.31,-42.81 -1.31,-42.81 v 0 l -2.69,-3.77 c -64.89,-90.97 -128.01,-185.31 -187.62,-280.45 v 0 l -29.52,-47.11 7.91,335.25 c 0,0 29.46,21.76 52.51,38.83 v 0 c -2.79,-0.03 -312.23,-0.18 -381.67,-0.2 v 0 c 25.31,-20.41 59.16,-47.65 59.16,-47.65 v 0 l 0.09,-7.48 -7.37,-1040.028 c 0,0 -24.77,-34.621 -46.38,-64.82 v 0 c 116.7,61.929 235.29,119.527 353.95,171.758 v 0 c -20.86,7.199 -52.44,18.082 -52.44,18.082 v 0 l 0.42,11.097 9.58,404.821 29.03,6.26 c 57,-118.909 113.92,-231.831 169.16,-335.628 v 0 l 1.9,-3.593 c 0,0 -0.62,-20.661 -1.07,-35.25 v 0 c 94.22,37.781 189.16,72.222 283.43,103.453 v 0 c -16.76,5.629 -39.66,13.379 -39.66,13.379 v 0 l -2.77,5.269 c -70.68,131.192 -138.89,266.79 -208.52,414.56 v 0 l -3.59,7.63 4.52,7.1 c 74.58,117 235.8,345.67 235.8,345.67 v 0 c 0,0 19.77,12.88 39.46,25.73 v 0 c -59.48,0 -258.91,-0.1 -282.31,-0.1"
         id="path416" /></clipPath><linearGradient
       x1="0"
       y1="0"
       x2="1"
       y2="0"
       gradientUnits="userSpaceOnUse"
       gradientTransform="matrix(0,-377.165,377.165,0,2826.4,1607.74)"
       spreadMethod="pad"
       id="linearGradient424"><stop
         style="stop-opacity:1;stop-color:#53aee5"
         offset="0"
         id="stop420" /><stop
         style="stop-opacity:1;stop-color:#28418f"
         offset="1"
         id="stop422" /></linearGradient><clipPath
       clipPathUnits="userSpaceOnUse"
       id="clipPath436"><path
         d="m 3354.52,1607.68 c 13.99,-9.96 35.37,-25.13 35.37,-25.13 v 0 l -0.17,-8.31 -24.55,-717.068 c 0,0 -18.89,-18.332 -31.56,-30.602 v 0 c 92.8,27.891 185.56,52.539 277.18,73.578 v 0 c -11.19,5.032 -33.39,14.954 -33.39,14.954 v 0 l 4.86,169.948 14.24,501.91 c 0,0 19.46,13.1 30.83,20.76 v 0 c -67.17,0 -236.48,-0.04 -272.81,-0.04"
         id="path434" /></clipPath><linearGradient
       x1="0"
       y1="0"
       x2="1"
       y2="0"
       gradientUnits="userSpaceOnUse"
       gradientTransform="matrix(0,-377.078,377.078,0,3480.55,1607.76)"
       spreadMethod="pad"
       id="linearGradient442"><stop
         style="stop-opacity:1;stop-color:#53aee5"
         offset="0"
         id="stop438" /><stop
         style="stop-opacity:1;stop-color:#28418f"
         offset="1"
         id="stop440" /></linearGradient><clipPath
       clipPathUnits="userSpaceOnUse"
       id="clipPath454"><path
         d="m 4099.32,1608.56 c 6.97,-4.66 24,-16.05 24,-16.05 v 0 l -0.22,-8.44 c 0,0 -2.73,-100.8 -2.73,-100.98 v 0 c 0,-3.6 -0.16,-132.11 -0.16,-132.11 v 0 l -26.7,30.33 c -57.74,65.63 -126.1,143.84 -196.37,227.25 v 0 h -154.68 c 9.72,-6.5 28.62,-19.11 28.62,-19.11 v 0 l -0.1,-8.43 -14.07,-633 c 0,0 -17.54,-14.52 -26.64,-22.059 v 0 c 86.31,17.098 171.93,31.109 255.92,41.859 v 0 c -8.18,4.141 -27.76,14.11 -27.76,14.11 v 0 l 0.05,9.48 3.33,352.95 150.24,-172.56 c 66.2,-75.76 134.53,-154.04 201.64,-233.3 v 0 c -0.43,33.898 -8.14,652.69 -8.14,652.69 v 0 c 0,0 16.38,11.89 23.89,17.37 v 0 z"
         id="path452" /></clipPath><linearGradient
       x1="0"
       y1="0"
       x2="1"
       y2="0"
       gradientUnits="userSpaceOnUse"
       gradientTransform="matrix(0,-377.139,377.139,0,4029.79,1608.69)"
       spreadMethod="pad"
       id="linearGradient460"><stop
         style="stop-opacity:1;stop-color:#53aee5"
         offset="0"
         id="stop456" /><stop
         style="stop-opacity:1;stop-color:#28418f"
         offset="1"
         id="stop458" /></linearGradient><clipPath
       clipPathUnits="userSpaceOnUse"
       id="clipPath472"><path
         d="m 5011.1,1593.83 -0.43,-0.3 -0.44,-0.3 c -9.3,-6.16 -14.82,-12.32 -14.82,-16.4 v 0 c 0,-0.04 1.4,-56.16 1.54,-61.3 v 0 c 79.52,-186.09 147.64,-368.86 208.11,-558.632 v 0 l 9.52,-29.859 -29.82,9.621 c -45.19,14.551 -92.6,27.988 -140.89,39.93 v 0 c -0.14,0.031 -8.35,2.039 -8.35,2.039 v 0 l -3.33,2.75 c 0,0 -12.19,10.473 -24.31,20.911 v 0 c 0.82,-32.36 1.66,-66.028 2,-79.739 v 0 c 90.73,-23.25 215.58,-57.449 304.49,-96.531 v 0 c 8.29,-3.641 13.09,-4.25 15.65,-4.141 v 0 c 2.06,0.141 4.97,0.543 6.71,1.863 v 0 c 1.56,1.168 2.47,2.656 3.27,4.387 v 0 c 0.33,3.851 0.45,12.301 0.45,22.512 v 0 c 0,12.148 -0.14,26.32 -0.26,36.859 v 0 c 0,0 -0.16,19.582 -0.19,23.359 v 0 c -55.77,209.181 -119.67,406.781 -195.38,603.851 v 0 l -8.96,23.36 95.75,-5.68 57.32,-3.67 3.99,-3.33 c 0,0 10.93,-9.38 21.59,-18.61 v 0 100.01 c -26.58,0 -268.26,0.1 -268.26,0.1 v 0 c -12,0 -23.45,-4.25 -34.95,-13.06"
         id="path470" /></clipPath><linearGradient
       x1="0"
       y1="0"
       x2="1"
       y2="0"
       gradientUnits="userSpaceOnUse"
       gradientTransform="matrix(0,-377.138,377.138,0,5167.81,1608.59)"
       spreadMethod="pad"
       id="linearGradient478"><stop
         style="stop-opacity:1;stop-color:#53aee5"
         offset="0"
         id="stop474" /><stop
         style="stop-opacity:1;stop-color:#28418f"
         offset="1"
         id="stop476" /></linearGradient><clipPath
       clipPathUnits="userSpaceOnUse"
       id="clipPath488"><path
         d="m 4723.13,1607.78 c 0,0 -306.27,-3.85 -339.78,-275.7 v 0 c 0,0 -36.56,-285.75 373.76,-362.939 v 0 l 155.73,-27.059 -6.76,238.308 23.02,18.98 -171.99,16.26 4.07,-165.22 c 0,0 -222.76,27.67 -215.99,275.48 v 0 c 18.95,211.03 175.37,206.6 175.37,206.6 v 0 l 150.31,-1.35 38.55,-22.04 -2.82,98.68 h -183.47 z"
         id="path486" /></clipPath><linearGradient
       x1="0"
       y1="0"
       x2="1"
       y2="0"
       gradientUnits="userSpaceOnUse"
       gradientTransform="matrix(0,-358.823,358.823,0,4655.82,1590.68)"
       spreadMethod="pad"
       id="linearGradient494"><stop
         style="stop-opacity:1;stop-color:#53aee5"
         offset="0"
         id="stop490" /><stop
         style="stop-opacity:1;stop-color:#28418f"
         offset="1"
         id="stop492" /></linearGradient></defs><sodipodi:namedview
     pagecolor="#ffffff"
     bordercolor="#666666"
     borderopacity="1"
     objecttolerance="10"
     gridtolerance="10"
     guidetolerance="10"
     inkscape:pageopacity="0"
     inkscape:pageshadow="2"
     inkscape:window-width="640"
     inkscape:window-height="480"
     id="namedview4" /><g
     id="g10"
     inkscape:groupmode="layer"
     inkscape:label="ink_ext_XXXXXX"
     transform="matrix(1.3333333,0,0,-1.3333333,0,644.90667)"><g
       id="g12"
       transform="scale(0.1)"><g
         id="g14"><g
           id="g16"
           clip-path="url(#clipPath20)"><path
             d="M 2806.27,3112.99 C 2717.6,3067.42 2609.9,3058.3 2516,3036.9 v 0 c 8.88,-18.76 43.68,-17.75 74.03,-16.74 v 0 c 13.36,0.43 25.86,0.89 34.91,-0.34 v 0 c -99.03,-52.1 -169.58,-114.59 -227.54,-204.5 v 0 c -35.21,-24.76 -52.77,-67.2 -72.92,-103.78 v 0 c -12.22,-22.21 -34.54,-46.94 -23.52,-70.39 v 0 c 21.77,7.67 123.78,180.28 294.99,216.59 v 0 c -7.86,-8.38 -57.25,-71.26 -70.5,-93.78 v 0 c -33.28,-56.71 -56.28,-112.9 -76.47,-179.02 v 0 c -21.48,-70.4 -27.29,-145.44 -38.99,-198.74 v 0 c -4.26,-19.24 -19.97,-38.93 -11.42,-59.61 v 0 c 16.35,6.14 23.89,28.89 32.15,45.02 v 0 c 28.62,55.82 52.43,116.69 98.03,154.73 v 0 c 0.3,-3.25 -2.29,-4.05 -2.7,-6.76 v 0 c -77.05,-158.2 -38.91,-425.46 3.53,-596.05 v 0 c 8.05,3.56 6.69,-15.65 14.81,-21.56 v 0 c -7.22,140.73 -50.22,282.18 -37.39,414.01 v 0 c 11.52,118.29 56.79,219.81 108.42,305.49 v 0 c -32.75,2.14 -64.85,-26.01 -87.16,-49.56 v 0 c -33.88,-35.77 -54.88,-89.8 -85.07,-114.55 v 0 c 34.95,172.33 133.08,323.03 252.02,421.62 v 0 c 16.38,13.56 140.28,55.67 125.25,101.56 v 0 c -6.8,-12.11 -13.25,-15.18 -21.33,-18.04 v 0 c -50.8,-18.02 -111.75,-23.14 -166.18,-39.77 v 0 c -66.28,-20.28 -117.79,-54.76 -166.49,-75.65 v 0 c 42.46,71.48 128.99,121.37 177.65,177.58 v 0 c 96.5,13.55 163.48,52.1 209.39,108.52 v 0 c -3.11,0.95 -5.97,1.38 -8.65,1.38 v 0 c -15.87,0 -25.24,-14.73 -38.58,-21.57"
             style="fill:url(#radialGradient26);fill-opacity:1;fill-rule:nonzero;stroke:none"
             id="path28" /></g></g><g
         id="g30"><g
           id="g32"
           clip-path="url(#clipPath36)"><path
             d="m 1885.88,2971.94 c -5.34,-0.51 -61.57,-16.99 -86.04,-23.4 v 0 c -13.93,-3.64 -34.58,-13.53 -41.28,-13.17 v 0 c -1.76,0.08 0.29,7.23 -3.79,6.21 v 0 c -17.27,-4.38 -32.83,-15.63 -50.46,-20.47 v 0 c -50.96,-13.95 -111.7,-22.75 -148.1,-61.09 v 0 c -12.19,-1.72 -29.48,0.89 -28.33,-12.11 v 0 c 13.05,-14.18 41.67,-6.99 59.05,-4.91 v 0 c 51.91,6.25 108.91,33.89 158.65,52.17 v 0 c 23.8,8.79 53.97,22.09 82.29,29.61 v 0 c 44.62,11.87 93.14,24.96 134.06,33.87 v 0 c 169.36,36.86 339.69,55.54 520.33,52.67 v 0 c -54.92,6.12 -109.05,8.84 -162.64,8.84 v 0 c -147.58,0 -290.91,-20.67 -433.74,-48.22"
             style="fill:url(#radialGradient42);fill-opacity:1;fill-rule:nonzero;stroke:none"
             id="path44" /></g></g><g
         id="g46"><g
           id="g48"
           clip-path="url(#clipPath52)"><path
             d="m 1128.37,2792.18 c 1.16,-4.57 5.8,-5.04 7.28,-9.19 v 0 c 13.87,9.29 33.75,13.55 39.94,29.35 v 0 c -4.33,0.38 -8.64,0.65 -12.86,0.65 v 0 c -15.41,0 -29.15,-3.76 -34.36,-20.81"
             style="fill:url(#radialGradient58);fill-opacity:1;fill-rule:nonzero;stroke:none"
             id="path60" /></g></g><g
         id="g62"><g
           id="g64"
           clip-path="url(#clipPath68)"><path
             d="m 1416.99,2809.45 c 3.81,-0.25 3.94,-4.83 4.03,-9.46 v 0 c 15.84,-1.74 39.58,-3.98 49.08,-2.45 v 0 c 4.24,14.47 24.27,15.57 26.73,31.52 v 0 c -7.35,4.55 -16.64,6.67 -26.39,6.67 v 0 c -20.85,0 -43.67,-9.73 -53.45,-26.28"
             style="fill:url(#radialGradient74);fill-opacity:1;fill-rule:nonzero;stroke:none"
             id="path76" /></g></g><g
         id="g78"><g
           id="g80"
           clip-path="url(#clipPath84)"><path
             d="m 1324.98,2779.04 c 8.48,-30.43 44.95,-19.57 73.07,-16.79 v 0 c 2.89,10.48 -5.73,7.46 -7.53,12.43 v 0 c 4.95,6.84 18.25,6.58 14.59,20.74 v 0 c -7.33,5.78 -15.51,8.06 -23.87,8.06 v 0 c -21.19,0 -43.56,-14.71 -56.26,-24.44"
             style="fill:url(#radialGradient90);fill-opacity:1;fill-rule:nonzero;stroke:none"
             id="path92" /></g></g><g
         id="g94"><g
           id="g96"
           clip-path="url(#clipPath100)"><path
             d="m 1247.25,2733.52 c -0.04,-9.54 8.14,-9.34 8.09,-18.87 v 0 c 12.24,12.85 28.55,3.74 34,22.35 v 0 c -2.97,4.02 -8.11,5.54 -13.89,5.54 v 0 c -10.35,0 -22.71,-4.88 -28.2,-9.02"
             style="fill:url(#radialGradient106);fill-opacity:1;fill-rule:nonzero;stroke:none"
             id="path108" /></g></g><g
         id="g110"><g
           id="g112"
           clip-path="url(#clipPath116)"><path
             d="m 1600.59,2717.04 c -4.43,-0.32 -10.79,-0.13 -18.26,0.05 v 0 c -14.47,0.35 -33.14,0.7 -49.99,-2.42 v 0 c 2.96,-18.98 18.4,-23.3 31.8,-29.97 v 0 c 24.17,12.63 43.06,29.75 78.78,32.55 v 0 c -7.12,11.74 -23.22,12.88 -40.18,13 v 0 c -7.56,-4.95 4.56,-11.75 -2.15,-13.21"
             style="fill:url(#radialGradient122);fill-opacity:1;fill-rule:nonzero;stroke:none"
             id="path124" /></g></g><g
         id="g126"><g
           id="g128"
           clip-path="url(#clipPath132)"><path
             d="m 1437.1,2683.99 c 7.87,-27.62 32.93,-23.19 54.46,-28.09 v 0 c 8.48,14.9 25.26,22.73 32.68,38.54 v 0 c -4.19,0.31 -8.11,0.44 -11.89,0.44 v 0 c -28.21,0 -46.26,-7.64 -75.25,-10.89"
             style="fill:url(#radialGradient138);fill-opacity:1;fill-rule:nonzero;stroke:none"
             id="path140" /></g></g><g
         id="g142"><g
           id="g144"
           clip-path="url(#clipPath148)"><path
             d="m 1635.86,2684.12 c -3.23,-0.29 -3.6,-2.97 -6.2,-3.78 v 0 c 0.73,-8.64 1.42,-17.27 2.14,-25.91 v 0 c 23.17,-25.73 52.74,-7.81 75.53,-6.8 v 0 c 59.94,2.64 120.39,-13.88 177.72,-21.2 v 0 c 114.77,-14.68 212.59,-35.74 315.22,-68.51 v 0 c 51.29,-16.39 102.66,-34.47 153.44,-42.76 v 0 c -205.26,90.54 -437.53,169.01 -704.66,169.01 v 0 c -4.36,0 -8.79,-0.03 -13.19,-0.05"
             style="fill:url(#radialGradient154);fill-opacity:1;fill-rule:nonzero;stroke:none"
             id="path156" /></g></g><g
         id="g158"><g
           id="g160"
           clip-path="url(#clipPath164)"><path
             d="m 2310.17,2371.44 c 0.15,-4.14 -3.79,-4.83 -2.45,-9.96 v 0 c 93.63,-152.64 97.09,-413.17 121.1,-599.4 v 0 c 20.14,128.29 7.89,334.75 -30.04,483.04 v 0 c -10.29,40.29 -47.84,127.01 -83.2,127 v 0 c -1.82,0 -3.63,-0.2 -5.41,-0.68"
             style="fill:url(#radialGradient170);fill-opacity:1;fill-rule:nonzero;stroke:none"
             id="path172" /></g></g><g
         id="g174"><g
           id="g176"
           clip-path="url(#clipPath180)"><path
             d="M 3167.54,4161.07 C 2864.28,4081.09 2588.79,3951.75 2524.36,3647 v 0 c 30.25,26.92 42.17,70 62.93,106.22 v 0 c 11.15,19.42 22.42,34.05 34.84,51.75 v 0 c 12.12,17.28 26.96,37.42 28.35,51.21 v 0 c 12.28,25.52 74.27,76.89 109.34,97 v 0 c 306.42,175.66 644.54,199.48 746.85,309.25 v 0 c -17.52,-37.98 -61.99,-67.28 -96.38,-95.93 v 0 c -475.66,-93.45 -658.27,-469.55 -684.46,-512.67 v 0 c 79.17,52.07 325.25,509.94 1000.56,512.65 v 0 c 84.7,0.35 193.08,2.79 272.99,48.59 v 0 c -50.55,-72.69 -185.82,-56.63 -261.45,-109.55 v 0 c 127.45,29.01 323.09,36.89 453.72,69.99 v 0 c -47.59,-44.21 -132.91,-74.08 -206.16,-108.24 v 0 c -68.39,-31.88 -165.02,-36.47 -250.07,-49.94 v 0 c -532.89,-84.44 -671.59,-377.03 -664.65,-396.96 v 0 c 49.8,37.45 144.09,211.46 544.54,312.11 v 0 c 142.51,35.82 293.15,30.79 440.75,29.81 v 0 c 269.85,-1.82 532.27,-121.59 802.64,-51.15 v 0 c -109.18,-72.19 -204.86,-98.48 -346.99,-139.39 v 0 c -554.81,141.42 -880.32,-85.85 -899.86,-113.3 v 0 c 16.41,-3.73 153.97,54.67 202.06,64.9 v 0 c 454.51,96.78 802.47,-16.66 1132.97,-130.81 v 0 c 0,0 146.74,-60.27 343.84,-59.65 v 0 c -132.39,-99.33 -332.04,-164.38 -530.68,-164.32 v 0 c -114.66,54.6 -247.23,101.53 -392.04,130.61 v 0 c -87.44,17.58 -170.79,33.97 -273.19,32.88 v 0 c -20.61,-0.22 -42.68,0.33 -65.44,0.87 v 0 c -73.87,1.76 -154.98,3.53 -216.43,-20.84 v 0 c 15.6,-13.01 56.23,-7.76 75.49,-6.82 v 0 c 204.59,10.03 434.25,-28.25 600.32,-87.37 v 0 c 221.14,-78.72 404.52,-182.3 583.39,-316.88 v 0 c 132.16,-99.46 245.67,-254.7 422.64,-304.07 v 0 c -28.31,-4.99 -54.31,-8.96 -83.91,-10.19 v 0 c -73.29,-3 -156.11,1.03 -210.61,25 v 0 c -43.81,19.28 -350.65,237.28 -369.01,246.58 v 0 c 18.75,-38.25 429.96,-336.86 611.02,-454.73 v 0 c -17.99,-8.86 -281.85,93.89 -407.39,158.69 v 0 c 0.93,-14.29 91.18,-91.05 124.5,-126.64 v 0 c 85.5,-91.29 154.09,-211.13 212.52,-324.64 v 0 c 88.76,-172.42 166.4,-391.51 277.88,-524.56 v 0 c -30.77,2.75 -107.75,57.53 -126.44,71.02 v 0 c -17.41,12.62 -36.9,35.47 -54.47,28.13 v 0 c -3.85,-14.89 14.71,-24.99 22.65,-37.23 v 0 c 25.43,-39.38 43.74,-105.93 59.45,-167.84 v 0 c 32.18,-126.86 53.06,-245.36 91.13,-354.21 v 0 c -37.41,40.2 -65.95,86.71 -104.84,124.97 v 0 c -22.39,22.06 -100.93,108.33 -116.2,65.38 v 0 c -1.3,-25.78 19.79,-95.82 21.51,-102.51 v 0 c 19.63,-76.96 58.39,-163.01 94.46,-236.63 v 0 c 26.26,-53.55 64.05,-115.6 95.35,-168.11 v 0 c 38.77,-64.969 144.86,-195.711 152.2,-186.219 v 0 C 5745.1,871.719 5712.2,939.32 5677.65,974.07 v 0 c -59.27,114.75 -149.55,286.95 -176.8,444.93 v 0 c 103.35,-76.31 146.84,-182.8 235.9,-279.68 v 0 c 16.26,-10.51 39.5,-56.95 45.13,-73.17 v 0 c 5.77,28.49 -29.96,84.32 -42.83,111.73 v 0 c -11.71,24.99 -20.83,47.19 -22.33,73.14 v 0 c -62.58,164.53 -75.52,331.8 -130.89,520.41 v 0 c 63.33,-30.66 145.89,-58.72 227.31,-69.27 v 0 c 27.21,-3.52 55.61,-13.77 75.24,-3.56 v 0 c -25.93,8.02 -40.69,19.44 -40.69,19.44 v 0 c -258.39,223.6 -378.82,598.9 -574.25,878.16 v 0 c 106.45,-44.33 305.95,-85.2 412.79,-37.02 v 0 c -81.68,4.21 -141.18,25.27 -178.07,41.91 v 0 c -40.16,18.11 -84.7,55.42 -121.09,79.42 v 0 c -39.91,26.32 -80.87,48.43 -114.04,78.59 v 0 c 67.8,-25.94 344.05,-84.69 506.84,58.09 v 0 c 8.84,7.73 24.06,13.65 30.51,25.33 v 0 c -263.22,-73.96 -661.28,271.77 -711.95,311.46 v 0 c -31.03,24.32 -58.78,45.63 -67.46,51.17 v 0 c -22.67,14.41 -43.12,32.09 -65.77,46.74 v 0 c -48.61,31.38 -106.06,50.9 -150.7,88.58 v 0 c 50.14,-5.88 98.93,2.47 145.38,15.25 v 0 c 6.26,-2.09 95.79,12.5 141.09,27.92 v 0 c 187.23,63.73 315.7,217.35 477.39,296.81 v 0 c -64.79,11.29 -152.18,-55.71 -343.14,-67.39 v 0 c -200.74,-12.27 -302.49,39.88 -360.01,58.3 v 0 c -34.22,10.95 -228.65,69.66 -280.17,77.92 v 0 c 354.65,67.83 476.14,331.54 476.14,331.54 v 0 C 5021.87,4033.97 4993.1,4020 4993.1,4020 v 0 c -70.89,-36.6 -166.3,-50.53 -246.02,-59.39 v 0 c -59.58,-6.63 -186.98,12.83 -332.88,32.28 v 0 c -134.56,17.95 -284.86,35.88 -412.28,33.38 v 0 c 75.79,31.44 142.56,56.02 207.23,95.3 v 0 c 77.58,47.11 152.34,115.97 182.49,197.52 v 0 c -93.33,-93.91 -296.65,-129.96 -392.02,-146.36 v 0 c 60.47,48.54 116.19,82.33 142.55,168.16 v 0 c -173.79,-138.14 -428.76,-117.46 -664.99,-155.84 v 0 c 0,0 111.54,99.25 195.2,244.64 v 0 c 0,0 -227.42,-200.63 -504.84,-268.62"
             style="fill:url(#radialGradient186);fill-opacity:1;fill-rule:nonzero;stroke:none"
             id="path188" /></g></g><g
         id="g190"><g
           id="g192"
           clip-path="url(#clipPath196)"><path
             d="m 1366.73,1205.26 c 17.55,8.73 36.34,-11.59 56.38,-11.7 v 0 c -6.27,-2.04 -12.71,-2.99 -18.97,-2.99 v 0 c -15.61,0 -30.01,5.84 -37.41,14.69 M 1271,1497.17 c 23.51,-89.47 47.08,-178.86 97.69,-236.38 v 0 c -96.65,3.42 -117.55,146.91 -97.69,236.38 m 181.81,-268.55 c -49.44,78.34 -69.77,234.14 -40.7,335.56 v 0 c 14.86,-142.33 79.39,-244.88 137.54,-324.3 v 0 c -19.87,-10.18 -42.28,-18.48 -64.23,-18.48 v 0 c -11.12,0 -22.13,2.12 -32.61,7.22 m 431.44,498.3 c 7.99,-2.44 27.92,-1.5 20.49,-11.32 v 0 c 6.61,-1.33 8.6,1.25 10.61,3.88 v 0 c 1.72,2.23 3.46,4.52 8.28,4.18 v 0 c -5.07,-31.05 -50.1,-53.72 -64.54,-86.78 v 0 c -132.44,-92.85 -187.85,-237.99 -194.13,-253.9 v 0 c -11.13,-28.07 -40.78,-75.79 -61.62,-122.4 v 0 c -49.86,29.95 -74.74,89.42 -103.18,144.67 v 0 c 65.51,106.37 138.13,221.64 257.82,272.2 v 0 c -27.04,-33.42 -73.27,-57.57 -85.32,-111.32 v 0 c 58.63,51.64 123.12,124.41 211.59,160.79 m -766.43,718.93 c 30.51,23.53 78.1,8.75 100.65,44.16 v 0 c 45.66,-11.05 57.15,-7.44 109.74,-26.81 v 0 c -57,-67.9 -75.17,-210.71 -38.05,-328.99 v 0 c -25.72,31.21 -55.86,102.32 -66.19,170.51 v 0 c -9.59,63.25 2.18,115.25 3.1,159.92 v 0 c -21.94,-6.5 -19.23,-33.88 -24.86,-54.19 v 0 c -14.05,4 -19.16,-2.64 -42.08,-3.47 v 0 c -2.7,18.14 -2.4,39.81 -22.63,37.23 v 0 c -5.52,-16.44 -9.73,-53.79 5.07,-61.48 v 0 c -7.3,-46.95 -22.39,-100.11 -24.13,-142.13 v 0 c -22.69,56.21 -44.15,171.71 -0.62,205.25 m 370.35,53.36 c 67.84,6.32 133.57,-3.92 158.01,-58.68 v 0 c -2.82,-5.63 -13.46,-4.65 -18.89,-8.08 v 0 c 1.62,7.46 8.41,17.02 1.37,22.94 v 0 c -20.66,-1.56 -29.86,-12.84 -43.99,-19.92 v 0 c -31.18,32.76 -72.03,72.99 -116.2,26.25 v 0 c -12.21,18.73 -42.2,23.35 -54.74,31.35 v 0 c 27.47,7.17 54.04,10.22 71.76,-0.61 v 0 c 4.98,1.55 -3.32,5.47 2.68,6.75 m -173.14,5.27 c 31.13,-4.71 55.27,-17.68 95.46,-11.68 v 0 c -13.38,-22.51 -54.45,-5.36 -72.83,-25.55 v 0 c 6.26,17.94 -17.58,21.8 -22.63,37.23 m 897.86,1204.82 c 21.59,-40.71 25.67,-105.1 -11.97,-131.33 v 0 c 14.31,35.03 11.42,84.64 11.97,131.33 m 494.99,399.29 c 35.13,45.56 97.72,83.7 109.1,139.35 v 0 c -59.23,-57.78 -139.97,-98.82 -205.38,-157.08 v 0 c -66.03,-58.77 -114.65,-131.73 -166.06,-199.43 v 0 c 11.25,88.83 85.59,140.15 120.47,198.95 v 0 c -120.31,-63.8 -183.38,-171.21 -196.24,-188.9 v 0 c -51.69,-71.03 -57.76,-168.95 -107.04,-243.45 v 0 c -39.42,52.87 -9.13,109.95 13.1,157.48 v 0 c -122.29,-50.78 -86.52,-229.09 -286.39,-297.77 v 0 c -32.29,-11.1 -70.1,-30.7 -102.53,-45.91 v 0 c -39.28,-18.39 -83.04,-34.08 -110.21,-59.7 v 0 c -15.37,-14.48 -67.35,-85.66 -78.49,-100.48 v 0 c -11.92,-15.8 -20.85,-35.9 -31.88,-48.25 v 0 c -16.54,-18.46 -38.28,-15.7 -62.26,-12.93 v 0 c -12.16,1.39 -24.9,2.8 -37.83,1.42 v 0 c -88.79,-9.38 -167.46,-87.36 -287.86,-105.19 v 0 c -10.3,-1.53 -20.81,-1.29 -31.5,-1.08 v 0 c -9.93,0.21 -20.01,0.42 -30.25,-0.76 v 0 c -44.48,-5.08 -89.56,-22.69 -127.61,-33.32 v 0 c -87.07,-24.29 -141.266,-55.05 -217.211,-92.85 v 0 c -42.789,-21.33 -99.454,-53.75 -113.895,-81.09 v 0 c -27.726,-52.56 34.957,-102.34 63.262,-134.93 v 0 c 10.344,-75.01 48.355,-58.97 63.344,-56.69 v 0 c 23.668,-24.57 15.562,-49.57 19.878,-83.08 v 0 c 15.883,-123.42 60.934,-181.79 148.682,-222.37 v 0 c 22.66,-48.55 15.45,-132.58 34.9,-186.13 v 0 c 22.87,-62.93 58.86,-128.32 92.09,-168.38 v 0 c -20.45,66.88 -39.8,163.9 -25.16,226.02 v 0 c 10.98,14.11 24.33,37.78 25.13,50.97 v 0 c 2.51,-6.05 5.14,-2.79 7.82,0.44 v 0 c 1.6,1.96 3.23,3.9 4.88,3.86 v 0 c -4.43,-86.46 21.63,-161.84 50.24,-214.2 v 0 c 26.98,-49.37 49.15,-88.68 78.9,-127.1 v 0 c 16.14,-20.85 33.94,-43.73 53.1,-51.05 v 0 c 1.58,26.57 -24.89,36.22 -25.82,76.11 v 0 c -53.32,122.61 -64.4,361.94 63.48,415.83 v 0 c 19.29,-23.2 42.48,-64.2 75.74,-49.14 v 0 c 30.53,-61.05 67.38,-114.71 78.3,-198.85 v 0 c 20.27,-4.15 18.91,10.06 28.08,15.36 v 0 c 36.73,-65.58 72.22,-132.64 89.88,-220.7 v 0 c 5.25,-1.74 8.82,-0.9 11.9,-0.04 v 0 c 3.69,1.01 6.68,2.07 11.03,-1.36 v 0 c 26.63,-120.47 33.46,-197.39 28.06,-300.76 v 0 c -29.3,-8.63 -96.05,-72.01 -104.18,-80.27 v 0 c -11.86,-5.69 -98.34,-110.85 -152.82,-162.5 v 0 c -33.96,58.21 -38.11,166.68 -31.62,225.5 v 0 c -14.16,-10.13 -26.88,-30.52 -35.11,-48.52 v 0 c -46.07,-100.79 -46.29,-264.33 -19.19,-360.02 v 0 c -69.72,37.4 -114.93,222.52 -93.32,301.87 v 0 c -46.07,-28.22 -67.78,-117.57 -66.25,-184.69 v 0 c 1.92,-83.48 57.45,-123.54 66.72,-176.99 v 0 c -10.57,-110.98 -73.25,-196.12 -20.21,-307.989 v 0 c 21.31,-44.961 103.04,-104.289 103.71,-151.153 v 0 c 4.79,9.731 3.03,-0.566 2.66,-10.867 v 0 c -0.3,-8.242 0.31,-16.492 5.94,-14.461 v 0 c 19.36,23.981 26.78,66.41 13.86,108.672 v 0 c 32.39,-35.812 73.19,-74.613 82.41,-130.082 v 0 c 7.68,-46.219 -21.04,-84.16 -15.48,-128.371 v 0 c 47.85,42.742 53.51,121.25 72.45,188.481 v 0 c 52.24,-64.059 120.46,-119.418 101.18,-239.348 v 0 c 27.85,43.629 37.24,93.297 15.8,164.23 v 0 c -13.5,44.688 -53,81.879 -43.57,133.297 v 0 c 10.77,-32.269 43.09,-39.097 72.51,-49.41 v 0 c 6.29,-12.75 11.99,-26.117 28.29,-27 v 0 c -13.91,39.242 -40.2,63.859 -48.18,110.07 v 0 c 39.44,-21.218 86.6,-47.371 140.22,-40.597 v 0 c 22.05,-23.672 44.19,-47.293 79.5,-55.321 v 0 c 3.23,16.719 -16.07,13.188 -24.51,20.77 v 0 c -42.43,38.059 -60.09,128.359 -45.41,195.039 v 0 c 4.28,-23.762 17.44,-45.258 28.25,-66.102 v 0 c 9.83,-18.898 17.07,-50.488 43.41,-51.816 v 0 c -16.43,73.207 -12.88,173.238 6.66,235.198 v 0 c 5.52,-22.31 19.65,-42.78 34.2,-59.09 v 0 c 13.74,-15.44 31.03,-37.62 48.78,-38.36 v 0 c -8.74,78.85 19.28,152.09 68.94,191.43 v 0 c 59.17,-30.85 84.45,-101.67 117.72,-163.02 v 0 c -26,-65.201 -51.77,-125.521 -51.95,-199.818 v 0 c -0.37,-158.25 81.92,-337.91 62.42,-480.422 v 0 c -5.93,-43.258 -22.92,-116.52 -35.21,-165.84 v 0 c 19.25,28.5 44.63,103.981 46.48,108.129 v 0 c 51.03,114.57 4.98,337.41 -13.34,477.941 v 0 c 3.23,3.301 -3.51,138.051 18.24,174.219 v 0 c 35.68,-73.398 66.58,-151.867 90.12,-263.027 v 0 c -1.34,193.918 -57.8,361.618 -122.5,537.368 v 0 c -78.71,213.67 -41.71,453.59 23.49,663.47 v 0 c -37.61,-36.25 -58.54,-101.22 -74.84,-159.34 v 0 c -18.79,-66.88 -34.94,-166.28 -36.62,-227.88 v 0 c -2.23,-81.58 5.37,-159.35 16.78,-243.03 v 0 c -12.96,54.24 -67.14,7.55 -83.36,-16.66 v 0 c -31.59,-47.09 -48.11,-137.84 -63.28,-181.17 v 0 c -27.16,42.03 -18.44,95.9 -12,145.64 v 0 c -28.31,8.78 -34.38,-29.54 -41.59,-49.03 v 0 c -19.94,-53.92 -29.27,-123.12 -33.32,-188.501 v 0 c -7.6,37.291 -30,79.311 -39.02,117.341 v 0 c -7.3,30.8 -7.07,75.24 -47.41,61.26 v 0 c 17.39,-118.25 -9.29,-201.019 18.09,-298.288 v 0 c -49.97,-4.153 -82.46,42.32 -100.55,73.168 v 0 c -12.31,20.972 -18.69,49.812 -33.68,52.628 v 0 c -25.62,-34.648 -2.51,-108.089 -0.92,-146.718 v 0 c -17.35,20.941 -24.97,53.422 -39.05,78.23 v 0 c -12.82,0.86 -18.56,-4.34 -25.35,-8.59 v 0 c 10.75,-73.082 9.22,-122.101 40.3,-172.679 v 0 c -57.82,47.441 -88.09,143.328 -104.17,235.847 v 0 c -6.48,37.212 -5.37,59.992 -26.35,82.572 v 0 c -16.55,4.27 -26.18,-5.42 -34.55,-15.89 v 0 c 3.18,-23.49 9.16,-68.51 12.61,-73.92 v 0 c 15.43,-71.07 55.69,-141.34 34.06,-215.539 v 0 c -6.87,20.949 -5.15,41.281 -11.27,57.73 v 0 c -22.92,61.618 -74.93,75.52 -110.47,114.731 v 0 c -12.78,14.066 -10.8,33.488 -29.64,43.168 v 0 c -14.08,-38.5 20.23,-91.789 24.14,-134.879 v 0 c -58.99,60.187 -110.05,221.109 -55,311.569 v 0 c 11.78,-6.5 34.29,-10.2 46.11,-5.98 v 0 c 65.77,-29.83 139.57,-30.2 219.53,-14.49 v 0 c 32.36,22.16 58.8,53.59 88.81,69.23 v 0 c 49.45,79.32 73.03,157.78 131.8,219.46 v 0 c 2.52,-7.69 12.83,-6.2 20.22,-8.13 v 0 c 58.28,63.01 115.49,126.92 155.82,205.14 v 0 c 3.21,-4.49 3.61,-12.32 13.75,-8.64 v 0 c 8.64,28.79 34.6,42.92 42.93,71.95 v 0 c -29.26,90.98 -63.52,176.03 -81.74,280.04 v 0 c 2.34,11.8 12.02,25.91 0.58,32.64 v 0 c -8.51,5.21 -11.82,-1.15 -14.92,-7.51 v 0 c -3.02,-6.22 -5.86,-12.41 -13.15,-7.86 v 0 c 8.23,28.77 -10.85,63.68 -4.23,90.93 v 0 c -6.15,0.27 -10.53,-4.01 -14.31,-8.3 v 0 c -4.79,-5.37 -8.61,-10.78 -13.77,-7.07 v 0 c -4.62,38.18 11.95,67.46 8.2,98.47 v 0 c -7.18,5.2 -8.78,-0.62 -11.35,-6.42 v 0 c -1.95,-4.37 -4.45,-8.71 -10.24,-8.41 v 0 c -36.43,57.37 -19.66,163.52 -66.45,212.83 v 0 c -20.7,-15.16 -8.82,-39.62 -28.08,-54.44 v 0 c -4.52,67.8 -33.67,140.65 -72.12,202.62 v 0 c -39.26,63.27 -76,124.65 -141.52,95.88 v 0 c -11.93,7.22 -27.73,9.9 -34.49,23.23 v 0 c 20.16,5.68 43.42,-0.44 54.49,11 v 0 c -56.38,14.39 -162.93,6.14 -218.2,-1.69 v 0 c 27.58,-34.95 104.2,-12.04 136.98,-40.84 v 0 c -41.94,-41.43 -98.28,-22.49 -144.87,-21.72 v 0 c 3.07,-6.1 17.75,-16.66 14.57,-18.37 v 0 c -41.6,-1.71 -79.99,0.37 -105.73,17.38 v 0 c -3.27,11.63 -15.91,30.76 -27.76,20.5 v 0 c -5.89,-14.03 18.75,-24.96 20.45,-50.45 v 0 c -64.76,4.61 -96.11,41.04 -136.94,79.97 v 0 c -4.19,-17.74 13.31,-21.6 5.91,-32.11 v 0 c -40.43,-14.47 -86.3,-5.92 -111.92,13.58 v 0 c -49.027,37.29 -54.109,124.01 -86.16,175.39 v 0 c -7.753,-72.08 30.5,-148.01 56.45,-210.42 v 0 c -68.809,25.35 -64.528,136.95 -92.305,210.73 v 0 c 5.559,5.31 10.504,11.15 14.84,17.5 v 0 c -48.317,34.17 -113.106,48.9 -130.434,119.61 v 0 c 92.285,94.54 256.859,196.25 417.989,226.73 v 0 c 39.86,7.53 71.7,5.82 102.12,4.09 v 0 c 24.27,-1.36 47.63,-2.73 73.45,0.61 v 0 c 76.57,53.15 175.62,100.73 271.43,107.1 v 0 c 35.4,2.35 69.56,-2.45 93.35,14.22 v 0 c 35.51,24.84 49.23,110.18 86.16,140.71 v 0 c 165.35,136.79 409.25,148.06 453.01,197.03 v 0 c 75.68,84.68 108.91,277.99 119.19,293.34 v 0 c -7.72,-51.72 -17.68,-136.97 14.15,-171.54 v 0 c 18.36,168.41 120.19,307.36 231.24,397.08 v 0 c -32.42,-50.39 -85.59,-134.32 -78.12,-198.7 v 0 c 73.37,89.32 146.28,179.05 268.02,227.39 v 0 c 7.52,5.02 1.49,6.64 5.66,10.26 v 0 c 84,30.86 178.31,73.39 271.7,103.86 v 0 c -85.8,-91.21 -201.3,-113.46 -285.77,-170.2 v 0 c 28.66,6.21 80.8,19.06 124.09,36.3 v 0 c 79.32,31.55 155.1,77.93 204.03,134.12 v 0 c 19.38,22.24 30.73,50.1 49.41,72.52 v 0 c 20.06,24.02 49.57,43.57 55.36,79.51 v 0 C 3144.64,4253.22 2874.36,4224.2 2707.88,4108.59"
             style="fill:url(#radialGradient202);fill-opacity:1;fill-rule:nonzero;stroke:none"
             id="path204" /></g></g><g
         id="g206"><g
           id="g208"
           clip-path="url(#clipPath212)"><path
             d="m 2062.46,3162.46 c 20.5,-8.94 55.81,-0.43 69.82,-17.05 v 0 c -42.62,-4.64 -82.77,-23.32 -116.54,-48.73 v 0 c -15.27,0.98 -22.97,10.81 -36.94,13.26 v 0 c -1.96,14.71 3.57,23.06 7.05,33.15 v 0 c 7.7,-10.39 21.8,-15.65 35.82,-15.65 v 0 c 20.76,0 41.35,11.53 40.79,35.02 m -46.38,9.22 c -2.41,-3.98 -3.55,-9.04 -1.92,-16.47 v 0 c -4.32,-0.35 -8.62,-0.7 -12.94,-1.06 v 0 c -1.7,11.47 3.27,17.31 14.86,17.53 v 0 0 m 263.16,246.55 c -0.35,0.33 -9.18,1.07 -16.24,-0.58 v 0 c -83.66,-19.43 -454.78,-198.51 -607.33,-301.77 v 0 c -108.54,11.55 -213.59,-25.52 -294.57,-63.37 v 0 c -19.12,-8.93 -41.17,-14.3 -52.89,-30.45 v 0 c 2.98,-11.07 15.74,-10.65 28.46,-10.21 v 0 c 7.92,0.27 15.85,0.53 21.43,-1.95 v 0 c 74.68,45.44 171.98,97.12 279.5,88.21 v 0 c -8.89,-3.52 -167.82,-100.31 -93.44,-131.54 v 0 c 9.55,2.93 10.27,13.37 25.09,11.85 v 0 c 37.93,52.12 87.32,94.56 149.26,126.35 v 0 c 69.99,77.16 172.37,126.85 268.53,181.84 v 0 c -14.28,-24.04 -36.77,-41.1 -49.95,-66.04 v 0 c 5.82,-22.74 24.38,-30.42 33.39,-49.39 v 0 c -7.11,-15.05 -7.72,-35.61 -11.92,-53.13 v 0 c -23.18,7.3 -71.36,21.9 -89,12.23 v 0 c 0.46,-16.18 26.82,-16.3 33.72,-13.52 v 0 c 48.11,-15.13 81.3,-28.53 134.27,-47.59 v 0 c 16.44,30.37 52.81,46.56 92.85,59.8 v 0 c 53.1,17.56 109.63,12.43 165.61,7.12 v 0 c -5.39,20.89 -30.34,18.7 -50.7,21.9 v 0 c -44.43,17.94 -127.96,33.94 -201.98,38.74 v 0 c -9.93,13.16 -33.25,10.5 -44.2,22.43 v 0 c -19.72,42.26 36.08,76.4 47.01,101.64 v 0 c 69.14,37.29 136.74,58.67 208.03,85.58 v 0 c 19.79,7.48 44.06,9.41 59.62,27.73 v 0 c -15.26,-2.09 -28.74,-5.75 -34.55,-15.88"
             style="fill:url(#radialGradient218);fill-opacity:1;fill-rule:nonzero;stroke:none"
             id="path220" /></g></g><g
         id="g222"><g
           id="g224"
           clip-path="url(#clipPath228)"><path
             d="m 1415.49,2946.19 c -30.19,7.17 -75.07,2.53 -92.01,-30.4 v 0 c 31.79,-41.59 78.36,8.68 98.47,30.94 v 0 c 24.62,-19.07 64.39,16.98 82.03,32.82 v 0 c -4.22,0.67 -8.65,0.99 -13.19,0.99 v 0 c -32.87,0 -71.14,-16.59 -75.3,-34.35"
             style="fill:url(#radialGradient234);fill-opacity:1;fill-rule:nonzero;stroke:none"
             id="path236" /></g></g><g
         id="g238"><g
           id="g240"
           clip-path="url(#clipPath244)"><path
             d="m 2360.19,1922.61 c 5.22,-116.7 -7.79,-233.78 -38.03,-329.04 v 0 c 4.25,-46.29 -25.17,-68.9 -29.52,-116.47 v 0 c 0.39,-5.37 -6.16,-10.81 -2.43,-10 v 0 c 56.77,82.57 84.31,202.56 94.93,310.89 v 0 c 8.5,86.61 7.62,183 -12.44,269.47 v 0 c -6.36,27.5 -7.94,66 -36.06,81.77 v 0 c 4.15,-65.79 20.26,-133.04 23.55,-206.62"
             style="fill:url(#radialGradient250);fill-opacity:1;fill-rule:nonzero;stroke:none"
             id="path252" /></g></g><g
         id="g254"><g
           id="g256"
           clip-path="url(#clipPath260)"><path
             d="m 2848.1,3435.79 c -15.11,-6.94 -63.82,-32.45 -101.62,-56.29 v 0 c -17.47,-11.01 -83.01,-57.84 -111.84,-89.07 v 0 c -60.86,-65.91 -86.2,-53.09 -81.79,-67.98 v 0 c 9.3,-9.58 18.86,-12.65 30.47,-13.78 v 0 c 51.54,-5.04 84.25,17.64 107.1,44.67 v 0 c 57.08,67.51 159.2,149.55 245.85,179.95 v 0 c 80.08,28.1 153.7,14.18 228.33,0.29 v 0 c 44.03,-8.2 88.43,-16.4 134.7,-15.96 v 0 c -66.69,31.57 -166.34,53.17 -263.71,53.17 v 0 c -67.5,0 -133.92,-10.39 -187.48,-35"
             style="fill:url(#radialGradient266);fill-opacity:1;fill-rule:nonzero;stroke:none"
             id="path268" /></g></g><g
         id="g270"><g
           id="g272"
           clip-path="url(#clipPath276)"><path
             d="m 1116.93,2970.44 c -63.55,-10.27 -263.489,-50.91 -242.864,-137.33 v 0 c 5.122,-21.48 55.227,-47.36 85.196,-45.11 v 0 c 38.953,67.31 56.748,152.59 173.028,154.39 v 0 c 8.59,38.86 38.18,59.95 61.28,86.52 v 0 c -4.26,-0.32 -3.41,5.43 -7,5.93 v 0 c -17.89,-24.94 -63.33,-39.26 -69.64,-64.4"
             style="fill:url(#radialGradient282);fill-opacity:1;fill-rule:nonzero;stroke:none"
             id="path284" /></g></g><g
         id="g286"><g
           id="g288"
           clip-path="url(#clipPath292)"><path
             d="m 1198.03,2856.56 c 38.85,-29.8 100.72,1.17 100.91,40.9 v 0 c -2.8,1.33 -6.31,1.93 -10.37,1.93 v 0 c -24.94,0 -70.01,-22.91 -90.54,-42.83"
             style="fill:url(#radialGradient298);fill-opacity:1;fill-rule:nonzero;stroke:none"
             id="path300" /></g></g><g
         id="g302"><g
           id="g304"
           clip-path="url(#clipPath308)"><path
             d="m 1734.49,2555.35 c 15.93,-11.03 47.63,-13.49 42.3,-38.88 v 0 c 35,-10.6 35.23,-36.36 38.23,-68.53 v 0 c 99.44,-91.94 146.11,-245.15 218.44,-356.75 v 0 c -3.24,-0.28 -4.08,2.31 -6.74,2.72 v 0 c 16.31,-15.47 23.19,-38.9 39.6,-45.62 v 0 c -52.65,153.52 -110.29,297.22 -194.64,423.87 v 0 c -0.54,6.48 -1.06,12.96 -1.59,19.42 v 0 c -31.22,34.21 -72.3,56.78 -114.03,78.59 v 0 c -10.45,-2.15 -20.69,-4.54 -21.57,-14.82"
             style="fill:url(#radialGradient314);fill-opacity:1;fill-rule:nonzero;stroke:none"
             id="path316" /></g></g><path
         d="m 2831.4,1791.94 h 136.33 l -187.68,543.92 v 69.71 c 0,11.35 7.33,22.69 22,34.04 l -1.06,-0.81 c 7.7,5.97 14.69,10.4 20.99,13.39 6.31,2.96 13.27,4.45 20.94,4.45 h 274.71 v -143.65 l -50.31,37.34 h -144.68 l 191.88,-549.8 v -66.46 c 0,-4.91 -1.07,-10.04 -3.15,-15.44 -2.11,-5.41 -5.44,-10.51 -9.98,-15.41 -4.51,-4.83 -10.3,-8.77 -17.27,-11.76 -7.02,-2.97 -15.38,-4.42 -25.18,-4.42 h -279.96 v 141.41 l 48.23,-36.51 h 4.19"
         style="fill:#28418f;fill-opacity:1;fill-rule:nonzero;stroke:none"
         id="path318" /><g
         id="g320"><g
           id="g322"
           clip-path="url(#clipPath326)"><path
             d="m 2811.8,2427.14 1.03,0.8 z m 31.13,14.22 c -4.99,0 -9.37,-0.91 -13.32,-2.74 v 0 c -4.77,-2.28 -10.57,-6.02 -17.15,-11.07 v 0 c -7.08,-5.54 -15.7,-13.96 -15.7,-21.98 v 0 -67.35 c 1.54,-4.46 193.78,-561.55 193.78,-561.55 v 0 h -169.36 c 0,0 -15.25,11.56 -25.47,19.28 v 0 -93.68 h 263.23 c 7.26,0 13.36,1.05 18.16,3.06 v 0 c 4.76,2.04 8.55,4.59 11.55,7.79 v 0 c 3.2,3.47 5.55,7.04 6.98,10.68 v 0 c 1.42,3.66 2.16,7.16 2.16,10.27 v 0 64.09 c -1.56,4.48 -198.04,567.41 -198.04,567.41 v 0 h 173.51 c 0,0 16.21,-12.02 27.66,-20.49 v 0 96.28 h -257.99"
             style="fill:url(#linearGradient332);fill-opacity:1;fill-rule:nonzero;stroke:none"
             id="path334" /></g></g><path
         d="m 3126.28,2456.64 h 237.22 l -42.98,-48.69 V 1790.5 h 94.11 v 618.25 l -45.07,47.89 h 238.32 l -45.11,-47.84 v -673.1 l 58.69,-48.66 h -308.67 c -95.66,0 -143.49,15.12 -143.49,45.4 v 675.51 l -43.02,48.69"
         style="fill:#28418f;fill-opacity:1;fill-rule:nonzero;stroke:none"
         id="path336" /><g
         id="g338"><g
           id="g340"
           clip-path="url(#clipPath344)"><path
             d="m 3405.99,2441.36 c 10.65,-11.3 25.38,-26.93 25.38,-26.93 v 0 -639.19 h -127.58 v 638.1 c 0,0 14.23,16.12 24.74,28.02 v 0 h -167.26 c 10.5,-11.9 24.75,-28.02 24.75,-28.02 v 0 -680.9 c 0,-18.88 47.38,-30.17 126.77,-30.17 v 0 h 265.4 c -13.23,10.98 -32.13,26.66 -32.13,26.66 v 0 685.52 c 0,0 14.73,15.65 25.34,26.91 v 0 h -165.41 v 0"
             style="fill:url(#linearGradient350);fill-opacity:1;fill-rule:nonzero;stroke:none"
             id="path352" /></g></g><path
         d="m 3806.13,2086.02 v -351.14 l 42.93,-47.84 h -237.17 l 43,47.84 v 673.07 l -43,48.69 h 226.96 c 194.41,1.48 225.63,-119.14 229.82,-133.76 4.24,-14.59 14.01,-87.17 -5.39,-128.96 -10.47,-22.56 -64.56,-124.45 -207.03,-152.51 z m 3.06,260.06 V 2142.5 h 29.17 c 18.11,0 33.58,3.37 46.46,10.13 12.88,6.77 23.28,15.26 31.27,25.57 8.05,10.28 13.91,21.46 17.76,33.66 3.81,12.15 5.73,23.91 5.73,35.27 0,11.94 -1.92,23.79 -5.73,35.7 -3.85,11.89 -9.93,22.57 -18.25,32.04 -8.38,9.44 -19.16,17.02 -32.39,22.71 -13.21,5.67 -29.56,8.5 -48.98,8.5 h -25.04"
         style="fill:#28418f;fill-opacity:1;fill-rule:nonzero;stroke:none"
         id="path354" /><g
         id="g356"><g
           id="g358"
           clip-path="url(#clipPath362)"><path
             d="m 3792.48,2361.34 h 41.75 c 21.83,0 40.73,-3.36 56.11,-9.96 v 0 c 15.48,-6.64 28.36,-15.71 38.27,-26.94 v 0 c 9.67,-10.96 16.81,-23.49 21.28,-37.3 v 0 c 4.28,-13.33 6.4,-26.76 6.4,-40.01 v 0 c 0,-12.69 -2.12,-25.94 -6.35,-39.48 v 0 c -4.4,-13.91 -11.22,-26.79 -20.22,-38.32 v 0 c -9.34,-12.04 -21.65,-22.1 -36.57,-29.93 v 0 c -15.36,-8.06 -33.8,-12.14 -54.79,-12.14 v 0 h -45.88 z m 52.64,80.02 h -198.26 c 10.51,-11.9 24.75,-28.02 24.75,-28.02 v 0 -683.93 c 0,0 -14.11,-15.71 -24.38,-27.14 v 0 h 166.5 c -10.27,11.45 -24.33,27.14 -24.33,27.14 v 0 392.83 c 0,0 58.98,-52.47 70.39,-62.64 v 0 c 140.29,41.01 177.86,119.99 188.3,140.68 v 0 c 10.07,20.12 30.12,136.55 -50.29,198.24 v 0 c -52.69,40.43 -130.54,42.9 -148.75,42.9 v 0 c -2.54,0 -3.93,-0.06 -3.93,-0.06"
             style="fill:url(#linearGradient368);fill-opacity:1;fill-rule:nonzero;stroke:none"
             id="path370" /></g></g><path
         d="m 4278.58,2075 v -283.06 h 100.69 l 51.35,38.1 V 1687 h -344.68 l 42.98,48.73 v 337.85 h -49.29 l 49.29,102.86 v 230.8 l -42.98,49.38 h 344.68 v -140.5 l -51.35,34.9 h -100.69 v -169.01 h 165.69 L 4384.49,2075 h -105.91"
         style="fill:#28418f;fill-opacity:1;fill-rule:nonzero;stroke:none"
         id="path372" /><g
         id="g374"><g
           id="g376"
           clip-path="url(#clipPath380)"><path
             d="m 4120.58,2441.36 c 10.71,-12.31 25.07,-28.8 25.07,-28.8 v 0 -239.32 c 0,0 -27.6,-57.53 -40.48,-84.4 v 0 h 40.48 v -358.48 c 0,0 -14.24,-16.12 -24.76,-28.09 v 0 h 293 v 95.68 c -11.99,-8.9 -28.66,-21.28 -28.66,-21.28 v 0 h -123.36 v 313.6 h 112.36 c 6.14,10.98 28.68,51.35 42.74,76.47 v 0 h -155.1 v 199.52 h 122.94 c 0,0 16.79,-11.37 29.08,-19.73 v 0 94.83 h -293.31"
             style="fill:url(#linearGradient386);fill-opacity:1;fill-rule:nonzero;stroke:none"
             id="path388" /></g></g><path
         d="m 4803.33,2088.5 145.84,-343.08 h -1.1 l 5.29,-9.72 57.67,-48.7 H 4813.8 v 40.59 l -170.01,342.28 v -334.99 l 42.98,-47.88 h -238.24 l 44.06,47.88 v 673.07 l -44.06,48.69 h 228.92 c 4.91,0 8.74,-0.25 11.55,-0.7 11.92,-0.55 24.69,-1.63 38.32,-3.27 0,0 169.77,-12.91 187.14,-168.27 14.65,-131.36 -111.13,-195.9 -111.13,-195.9 m -126.96,54 c 18.28,0 33.89,3.37 46.87,10.13 12.98,6.77 23.67,15.26 32.11,25.57 8.46,10.24 14.57,21.46 18.42,33.63 3.86,12.18 5.84,23.94 5.84,35.3 0,11.94 -1.98,23.79 -5.84,35.7 -3.85,11.89 -9.96,22.57 -18.42,32.04 -8.44,9.46 -19.51,17.05 -33.17,22.71 -13.69,5.67 -30.37,8.51 -50.01,8.51 h -25.25 V 2142.5 h 29.45"
         style="fill:#28418f;fill-opacity:1;fill-rule:nonzero;stroke:none"
         id="path390" /><g
         id="g392"><g
           id="g394"
           clip-path="url(#clipPath398)"><path
             d="m 4630.2,2361.34 h 41.97 c 21.96,0 41.1,-3.29 56.93,-9.86 v 0 c 15.99,-6.62 29.19,-15.7 39.23,-27 v 0 c 9.73,-10.9 16.99,-23.46 21.49,-37.3 v 0 c 4.33,-13.39 6.52,-26.86 6.52,-40.05 v 0 c 0,-12.61 -2.18,-25.92 -6.48,-39.52 v 0 c -4.44,-14 -11.56,-27 -21.15,-38.58 v 0 c -9.71,-11.92 -22.24,-21.87 -37.19,-29.66 v 0 c -15.47,-8.05 -34.02,-12.11 -55.15,-12.11 v 0 h -46.17 v 234.08 z m 47.25,80.02 h -193.39 c 10.7,-11.83 25.24,-27.91 25.24,-27.91 v 0 -684.15 c 0,0 -14.42,-15.67 -24.87,-27.03 v 0 h 167 c -10.26,11.45 -24.35,27.14 -24.35,27.14 v 0 340.46 l 31.96,6.33 171.5,-345.3 v -28.63 h 137.75 c -13.06,11.02 -28.57,24.14 -28.57,24.14 v 0 l -6.99,12.85 0.83,0.61 -150.59,354.34 c 145.42,81.61 113.12,210.75 113.12,210.75 v 0 c -35.7,128.23 -174.63,136.6 -210.28,136.6 v 0 c -5.34,0 -8.36,-0.2 -8.36,-0.2"
             style="fill:url(#linearGradient404);fill-opacity:1;fill-rule:nonzero;stroke:none"
             id="path406" /></g></g><path
         d="m 4722.92,1623.9 c -3.2,-0.04 -320.73,-7.28 -355.57,-289.84 -0.38,-2.96 -33.54,-301.71 386.79,-380.759 l 175.4,-30.5 c 0,0 -6.7,235.429 -7.12,250.179 6.59,5.41 47.08,38.76 47.08,38.76 l -228.95,21.62 c 0,0 3.24,-132.18 4.02,-163.23 -50.04,12.24 -183.4,61.95 -183.4,244.82 0,3.23 0.05,6.52 0.13,9.86 17.44,192.14 153.08,191.7 158.87,191.6 0,0 138.39,-1.26 146.35,-1.36 5.98,-3.41 59.85,-34.24 59.85,-34.24 l -4.15,143.09 h -199.3"
         style="fill:#28418f;fill-opacity:1;fill-rule:nonzero;stroke:none"
         id="path408" /><path
         d="m 2457.97,1552.22 c -28.76,22.64 -57.85,46.04 -87.26,70.24 162.63,0.1 319.64,0.17 471.35,0.25 -27.83,-19.99 -55.73,-40.62 -83.81,-61.92 -2.13,-90.7 -4.25,-181.41 -6.42,-272.19 62.92,100.37 125.77,193.77 188.13,281.2 0.52,17.67 1.08,35.33 1.62,52.97 119.36,0.04 235.45,0.08 348.47,0.13 -26.27,-16.79 -81.37,-53.1 -82.34,-53.75 1.06,0.54 -152.26,-217.04 -231.39,-341.19 70.5,-149.57 139.55,-286.468 208.17,-413.8 25.53,-8.801 51.01,-17.449 76.39,-25.851 -114.11,-36.547 -229.93,-78.508 -346.79,-126 0.52,18.05 1.09,36.101 1.63,54.16 -55.52,104.383 -111.8,215.953 -169.45,336.221 -3.2,-134.858 -6.37,-269.819 -9.57,-404.831 26.22,-9.39 52.31,-18.367 78.3,-27.05 -147.59,-63.649 -296.6,-136.071 -445.79,-217.528 27.02,38.989 54.15,76.86 81.46,113.758 1.21,173.512 6.47,915.831 7.3,1035.181"
         style="fill:#28418f;fill-opacity:1;fill-rule:nonzero;stroke:none"
         id="path410" /><g
         id="g412"><g
           id="g414"
           clip-path="url(#clipPath418)"><path
             d="m 2956.39,1607.5 c -0.46,-15.37 -1.31,-42.81 -1.31,-42.81 v 0 l -2.69,-3.77 c -64.89,-90.97 -128.01,-185.31 -187.62,-280.45 v 0 l -29.52,-47.11 7.91,335.25 c 0,0 29.46,21.76 52.51,38.83 v 0 c -2.79,-0.03 -312.23,-0.18 -381.67,-0.2 v 0 c 25.31,-20.41 59.16,-47.65 59.16,-47.65 v 0 l 0.09,-7.48 -7.37,-1040.028 c 0,0 -24.77,-34.621 -46.38,-64.82 v 0 c 116.7,61.929 235.29,119.527 353.95,171.758 v 0 c -20.86,7.199 -52.44,18.082 -52.44,18.082 v 0 l 0.42,11.097 9.58,404.821 29.03,6.26 c 57,-118.909 113.92,-231.831 169.16,-335.628 v 0 l 1.9,-3.593 c 0,0 -0.62,-20.661 -1.07,-35.25 v 0 c 94.22,37.781 189.16,72.222 283.43,103.453 v 0 c -16.76,5.629 -39.66,13.379 -39.66,13.379 v 0 l -2.77,5.269 c -70.68,131.192 -138.89,266.79 -208.52,414.56 v 0 l -3.59,7.63 4.52,7.1 c 74.58,117 235.8,345.67 235.8,345.67 v 0 c 0,0 19.77,12.88 39.46,25.73 v 0 c -59.48,0 -258.91,-0.1 -282.31,-0.1"
             style="fill:url(#linearGradient424);fill-opacity:1;fill-rule:nonzero;stroke:none"
             id="path426" /></g></g><path
         d="m 3277.72,793.621 c 24.22,24.027 48.38,47.391 72.42,70.25 8.12,237.399 16.23,474.379 24.33,710.889 -22.5,15.68 -45.12,31.73 -67.82,48.14 127.32,0.04 250.8,0.08 370.65,0.11 -21.74,-14.52 -43.66,-29.28 -65.75,-44.34 -6.17,-217.62 -12.38,-435.5 -18.59,-653.799 21.95,-9.871 43.75,-19.652 65.54,-29.383 -124.31,-27.136 -251.46,-61 -380.78,-101.867"
         style="fill:#28418f;fill-opacity:1;fill-rule:nonzero;stroke:none"
         id="path428" /><g
         id="g430"><g
           id="g432"
           clip-path="url(#clipPath436)"><path
             d="m 3354.52,1607.68 c 13.99,-9.96 35.37,-25.13 35.37,-25.13 v 0 l -0.17,-8.31 -24.55,-717.068 c 0,0 -18.89,-18.332 -31.56,-30.602 v 0 c 92.8,27.891 185.56,52.539 277.18,73.578 v 0 c -11.19,5.032 -33.39,14.954 -33.39,14.954 v 0 l 4.86,169.948 14.24,501.91 c 0,0 19.46,13.1 30.83,20.76 v 0 c -67.17,0 -236.48,-0.04 -272.81,-0.04"
             style="fill:url(#linearGradient442);fill-opacity:1;fill-rule:nonzero;stroke:none"
             id="path444" /></g></g><path
         d="m 3904.2,1623.82 c 67.11,-79.76 133.94,-156.47 200.78,-232.44 0.03,30.81 0.08,61.61 0.12,92.38 0.92,33.61 1.87,67.2 2.75,100.73 -19.6,13.05 -39.18,26.14 -58.88,39.33 h 327.46 c -18.36,-13.46 -36.86,-26.88 -55.52,-40.36 2.79,-221.42 5.49,-442.7 8.27,-663.8 -5.85,-0.711 -11.68,-1.488 -17.53,-2.238 -111.06,131.518 -222.91,256.848 -334.95,386.588 -0.96,-104.19 -1.99,-208.45 -2.95,-312.74 21.24,-10.7 42.45,-21.481 63.63,-32.36 -117.92,-13.398 -239.31,-33.328 -363.61,-59.949 22.86,19.25 45.49,38.008 68.05,56.379 4.67,208.91 9.26,417.61 13.9,626.01 -21.16,13.95 -42.39,28.09 -63.68,42.47 h 212.16"
         style="fill:#28418f;fill-opacity:1;fill-rule:nonzero;stroke:none"
         id="path446" /><g
         id="g448"><g
           id="g450"
           clip-path="url(#clipPath454)"><path
             d="m 4099.32,1608.56 c 6.97,-4.66 24,-16.05 24,-16.05 v 0 l -0.22,-8.44 c 0,0 -2.73,-100.8 -2.73,-100.98 v 0 c 0,-3.6 -0.16,-132.11 -0.16,-132.11 v 0 l -26.7,30.33 c -57.74,65.63 -126.1,143.84 -196.37,227.25 v 0 h -154.68 c 9.72,-6.5 28.62,-19.11 28.62,-19.11 v 0 l -0.1,-8.43 -14.07,-633 c 0,0 -17.54,-14.52 -26.64,-22.059 v 0 c 86.31,17.098 171.93,31.109 255.92,41.859 v 0 c -8.18,4.141 -27.76,14.11 -27.76,14.11 v 0 l 0.05,9.48 3.33,352.95 150.24,-172.56 c 66.2,-75.76 134.53,-154.04 201.64,-233.3 v 0 c -0.43,33.898 -8.14,652.69 -8.14,652.69 v 0 c 0,0 16.38,11.89 23.89,17.37 v 0 h -230.12"
             style="fill:url(#linearGradient460);fill-opacity:1;fill-rule:nonzero;stroke:none"
             id="path462" /></g></g><path
         d="m 5047.73,992.23 c 48.57,-12 95.92,-25.371 141.98,-40.218 -65.49,205.498 -135.96,389.868 -208.81,560.108 -0.56,21.39 -1.07,42.82 -1.62,64.21 -0.25,10.36 7.1,20.39 22.02,30.33 14.16,10.8 29.13,16.35 44.75,16.35 97.6,-0.03 192.36,-0.07 284.37,-0.11 v -151.24 c -15.82,14.15 -31.85,27.92 -47.98,41.32 -49.43,2.75 -71.55,5.27 -122.76,7.51 70.01,-182.28 136.5,-382.25 196.44,-607.361 0,-24.41 1.35,-85.309 -0.57,-90.18 -1.92,-4.918 -4.91,-8.929 -9.03,-12.019 -4.08,-3.098 -9.34,-4.789 -15.69,-5.141 -6.35,-0.301 -14,1.543 -22.94,5.481 -88.78,39 -213.87,73.269 -313.82,98.699 -1.03,42.722 -2.1,85.461 -3.21,128.231 17.52,-14.55 34.89,-29.45 52.07,-44.778 1.59,-0.383 3.22,-0.781 4.8,-1.192"
         style="fill:#28418f;fill-opacity:1;fill-rule:nonzero;stroke:none"
         id="path464" /><g
         id="g466"><g
           id="g468"
           clip-path="url(#clipPath472)"><path
             d="m 5011.1,1593.83 -0.43,-0.3 -0.44,-0.3 c -9.3,-6.16 -14.82,-12.32 -14.82,-16.4 v 0 c 0,-0.04 1.4,-56.16 1.54,-61.3 v 0 c 79.52,-186.09 147.64,-368.86 208.11,-558.632 v 0 l 9.52,-29.859 -29.82,9.621 c -45.19,14.551 -92.6,27.988 -140.89,39.93 v 0 c -0.14,0.031 -8.35,2.039 -8.35,2.039 v 0 l -3.33,2.75 c 0,0 -12.19,10.473 -24.31,20.911 v 0 c 0.82,-32.36 1.66,-66.028 2,-79.739 v 0 c 90.73,-23.25 215.58,-57.449 304.49,-96.531 v 0 c 8.29,-3.641 13.09,-4.25 15.65,-4.141 v 0 c 2.06,0.141 4.97,0.543 6.71,1.863 v 0 c 1.56,1.168 2.47,2.656 3.27,4.387 v 0 c 0.33,3.851 0.45,12.301 0.45,22.512 v 0 c 0,12.148 -0.14,26.32 -0.26,36.859 v 0 c 0,0 -0.16,19.582 -0.19,23.359 v 0 c -55.77,209.181 -119.67,406.781 -195.38,603.851 v 0 l -8.96,23.36 95.75,-5.68 57.32,-3.67 3.99,-3.33 c 0,0 10.93,-9.38 21.59,-18.61 v 0 100.01 c -26.58,0 -268.26,0.1 -268.26,0.1 v 0 c -12,0 -23.45,-4.25 -34.95,-13.06"
             style="fill:url(#linearGradient478);fill-opacity:1;fill-rule:nonzero;stroke:none"
             id="path480" /></g></g><g
         id="g482"><g
           id="g484"
           clip-path="url(#clipPath488)"><path
             d="m 4723.13,1607.78 c 0,0 -306.27,-3.85 -339.78,-275.7 v 0 c 0,0 -36.56,-285.75 373.76,-362.939 v 0 l 155.73,-27.059 -6.76,238.308 23.02,18.98 -171.99,16.26 4.07,-165.22 c 0,0 -222.76,27.67 -215.99,275.48 v 0 c 18.95,211.03 175.37,206.6 175.37,206.6 v 0 l 150.31,-1.35 38.55,-22.04 -2.82,98.68 h -183.47 v 0"
             style="fill:url(#linearGradient494);fill-opacity:1;fill-rule:nonzero;stroke:none"
             id="path496" /></g></g><path
         d="m 3355.28,3162.77 -12.94,-43.09 45.33,-12.49 12.98,43.12 z m 235.54,99.42 -43.51,17.36 -18.11,-41.38 43.59,-17.33 z m 682.52,-139.34 -48.4,-9.09 9.63,-48.08 48.35,9.03 z m -160.88,83.98 -12.88,43.29 -45.41,-12.19 12.91,-43.25 z m 5.15,-191.36 c -119.28,45.56 -67.43,157.62 -67.43,157.62 0,0 -19.32,-41.49 -84.5,-34.85 -130.48,13.24 -139.2,197.2 -139.2,197.2 -24.64,-118.24 -76.52,-172.57 -146.98,-184 -77.24,-12.48 -94.62,44.12 -94.62,44.12 0,0 29.13,-94.54 -57.49,-140.3 -79.65,-42.18 -135.97,38.75 -135.97,38.75 l 119.02,-204.53 c 69.33,73.74 164.27,144.65 293.81,144.98 130.58,0.33 247.74,-62.38 310.33,-144.51 l 0.62,-0.02 106.85,158.61 c -56.39,-53.87 -104.44,-33.07 -104.44,-33.07 m -302.05,87.11 -36.25,37.28 38.91,34.45 36.43,-37.25 z m 52.13,298.9 -41.65,42.76 -44.71,-39.57 41.68,-42.62 44.68,39.43"
         style="fill:#375eb4;fill-opacity:1;fill-rule:nonzero;stroke:none"
         id="path498" /><path
         d="m 3204.35,2724.74 v 99.04 l -25.01,20.78 h 138.01 l -25.12,-20.77 v -96.61 h 54.23 v 96.61 l -25.42,20.77 h 138.61 l -26.21,-20.45 v -288.16 l 26.21,-20.11 h -138.4 l 25.64,20.11 v 144.39 h -54.66 v -144.1 l 25.12,-20.4 h -138.01 l 25.01,20.4 v 144.1 l -28.66,0.03 28.66,44.37"
         style="fill:#375eb4;fill-opacity:1;fill-rule:nonzero;stroke:none"
         id="path500" /><path
         d="m 3574.27,2681.51 v -120.88 h 58.62 l 29.86,16.27 v -61.06 h -200.93 l 25.02,20.79 v 144.3 h -28.65 l 28.65,43.94 v 98.61 l -25.02,21.08 h 200.93 v -59.97 l -29.86,14.91 h -58.62 v -72.32 h 96.42 l -34.83,-45.67 h -61.59"
         style="fill:#375eb4;fill-opacity:1;fill-rule:nonzero;stroke:none"
         id="path502" /><path
         d="m 3755.84,2844.85 79.35,-114.93 v 44.33 l 0.63,49.83 -24.99,20.77 h 141.6 l -25.02,-21.12 v -337.86 l -8.55,-1.08 -133.11,201.52 v -149.92 l 25.08,-20.43 h -137.95 l 25,20.43 v 287.69 l -25,20.77 h 82.96"
         style="fill:#375eb4;fill-opacity:1;fill-rule:nonzero;stroke:none"
         id="path504" /><path
         d="m 4037.72,2844.85 79.32,-114.93 v 44.33 l 0.6,49.83 -24.94,20.77 h 141.6 l -25.02,-21.12 v -337.86 l -8.55,-1.08 -133.09,201.52 v -149.92 l 25.01,-20.43 h -137.89 l 25.01,20.43 v 287.69 l -25.01,20.77 h 82.96"
         style="fill:#375eb4;fill-opacity:1;fill-rule:nonzero;stroke:none"
         id="path506" /><path
         d="m 4378.6,2515.86 25.58,20.09 v 144.39 h -54.63 v -144.1 l 24.99,-20.38 H 4236.6 l 25.03,20.38 v 144.1 h -28.7 l 29.14,44.36 v 92.13 c 0.43,7.61 9.98,14.46 28.74,20.45 17.02,4.85 35.24,7.26 54.28,7.26 h 63.46 c 8.86,-0.21 17.56,-0.98 25.88,-2.24 8.33,-1.27 16.9,-3.18 25.86,-5.72 17.37,-4.86 27.56,-11.42 30.43,-19.75 v -281.24 l 26.27,-19.73 H 4378.6 Z m -29.05,211.32 h 54.14 v 73.46 h -54.14 v -73.46"
         style="fill:#375eb4;fill-opacity:1;fill-rule:nonzero;stroke:none"
         id="path508" /><path
         d="m 4519.26,2515.84 24.47,20.4 v 287.54 l -24.47,20.78 h 132.61 l -23.82,-20.78 v -287.54 l 23.82,-20.4 h -132.61"
         style="fill:#375eb4;fill-opacity:1;fill-rule:nonzero;stroke:none"
         id="path510" /><path
         d="m 3170.45,2773.37 v 71.78 c 0,0 -184.17,20.32 -197.05,-161.82 0,0 -2.69,-148.29 153.72,-166.58 l 43.33,-1.35 v 73.12 l -30.47,-17.6 c 0,0 -78.54,-6.77 -83.96,110.38 0,0 3.38,113.07 84.62,110.36 l 29.81,-18.29"
         style="fill:#375eb4;fill-opacity:1;fill-rule:nonzero;stroke:none"
         id="path512" /></g></g></svg>
