<?xml version="1.0" encoding="UTF-8" standalone="no"?>
<svg
   xmlns:dc="http://purl.org/dc/elements/1.1/"
   xmlns:cc="http://creativecommons.org/ns#"
   xmlns:rdf="http://www.w3.org/1999/02/22-rdf-syntax-ns#"
   xmlns:svg="http://www.w3.org/2000/svg"
   xmlns="http://www.w3.org/2000/svg"
   xmlns:sodipodi="http://sodipodi.sourceforge.net/DTD/sodipodi-0.dtd"
   xmlns:inkscape="http://www.inkscape.org/namespaces/inkscape"
   version="1.1"
   id="svg2"
   xml:space="preserve"
   width="314.88"
   height="149.61333"
   viewBox="0 0 314.88 149.61333"
   sodipodi:docname="Indian-Premier-League-IPL-logo.eps"><metadata
     id="metadata8"><rdf:RDF><cc:Work
         rdf:about=""><dc:format>image/svg+xml</dc:format><dc:type
           rdf:resource="http://purl.org/dc/dcmitype/StillImage" /></cc:Work></rdf:RDF></metadata><defs
     id="defs6"><clipPath
       clipPathUnits="userSpaceOnUse"
       id="clipPath68"><path
         d="M 0,0 H 2362 V 1122 H 0 Z"
         id="path66" /></clipPath><clipPath
       clipPathUnits="userSpaceOnUse"
       id="clipPath74"><path
         d="m 576.523,1081.95 c -118.515,89.41 -318.554,24.63 -450.671,-144.227 5.718,0.41 12.8,0.863 20,1.429 118.55,119.078 277.82,156.488 378.171,80.778 C 637.754,934.113 632.637,735.461 512.59,576.211 450.813,494.297 370.625,438.879 291.855,415.949 c 92.254,21.571 189.524,86.199 263.758,184.649 131.992,175.004 141.328,390.488 20.91,481.352"
         id="path72" /></clipPath><linearGradient
       x1="0"
       y1="0"
       x2="1"
       y2="0"
       gradientUnits="userSpaceOnUse"
       gradientTransform="matrix(601.162,-0.324187,-0.324187,-601.162,145.771,769.176)"
       spreadMethod="pad"
       id="linearGradient104"><stop
         style="stop-opacity:1;stop-color:#b7c95e"
         offset="0"
         id="stop76" /><stop
         style="stop-opacity:1;stop-color:#b7c95e"
         offset="0.28"
         id="stop78" /><stop
         style="stop-opacity:1;stop-color:#cfcd4c"
         offset="0.316"
         id="stop80" /><stop
         style="stop-opacity:1;stop-color:#f2cc1e"
         offset="0.377"
         id="stop82" /><stop
         style="stop-opacity:1;stop-color:#f7c616"
         offset="0.455"
         id="stop84" /><stop
         style="stop-opacity:1;stop-color:#f5c416"
         offset="0.546"
         id="stop86" /><stop
         style="stop-opacity:1;stop-color:#f3b938"
         offset="0.649"
         id="stop88" /><stop
         style="stop-opacity:1;stop-color:#f1b148"
         offset="0.65"
         id="stop90" /><stop
         style="stop-opacity:1;stop-color:#e5188c"
         offset="0.685"
         id="stop92" /><stop
         style="stop-opacity:1;stop-color:#e36b6a"
         offset="0.771"
         id="stop94" /><stop
         style="stop-opacity:1;stop-color:#e19f4b"
         offset="0.849"
         id="stop96" /><stop
         style="stop-opacity:1;stop-color:#e1c232"
         offset="0.915"
         id="stop98" /><stop
         style="stop-opacity:1;stop-color:#e1d71d"
         offset="0.968"
         id="stop100" /><stop
         style="stop-opacity:1;stop-color:#e2de1b"
         offset="1"
         id="stop102" /></linearGradient></defs><sodipodi:namedview
     pagecolor="#ffffff"
     bordercolor="#666666"
     borderopacity="1"
     objecttolerance="10"
     gridtolerance="10"
     guidetolerance="10"
     inkscape:pageopacity="0"
     inkscape:pageshadow="2"
     inkscape:window-width="640"
     inkscape:window-height="480"
     id="namedview4" /><g
     id="g10"
     inkscape:groupmode="layer"
     inkscape:label="ink_ext_XXXXXX"
     transform="matrix(1.3333333,0,0,-1.3333333,0,149.61333)"><g
       id="g12"
       transform="scale(0.1)"><path
         d="m 1779.52,331.758 c -26.84,0 -52.65,0 -79.67,0 0.06,51.144 -3.39,101.926 -11.26,152.922 -1.69,-3.313 -3.58,-6.563 -5.05,-9.981 -19.77,-45.441 -39.59,-90.871 -59.03,-136.457 -2.2,-5.144 -4.5,-7.156 -10.11,-6.941 -11.48,0.429 -23,0.39 -34.5,0.008 -5.02,-0.164 -7.25,1.777 -9.22,6.203 -20.62,46.218 -41.45,92.351 -62.25,138.484 -1.25,2.793 -2.83,5.422 -4.26,8.117 -0.7,-0.039 -1.41,-0.097 -2.1,-0.136 -1.51,-25.071 -3.62,-50.129 -4.36,-75.223 -0.77,-25.305 -0.17,-50.637 -0.17,-76.645 -16.71,0 -31.94,0 -47.86,0 16.21,84.661 23.87,170.012 27.53,257.286 3.95,0 8.25,0 12.54,0 13.34,0 26.68,-0.293 40,0.136 5.69,0.188 8.21,-1.992 10.41,-6.98 20.82,-47.278 41.82,-94.465 62.97,-141.594 3.83,-8.504 8.59,-16.621 13.51,-26.062 1.75,2.859 3.08,4.636 4.02,6.609 25.61,52.863 49.99,106.242 69.23,161.816 1.29,3.75 2.75,6.262 7.52,6.184 15.95,-0.293 31.89,-0.227 47.83,-0.039 4.71,0.047 6.17,-1.621 6.53,-6.34 3.04,-41.133 5.45,-82.352 9.9,-123.348 4.25,-39.14 10.7,-78.066 16.21,-117.082 0.46,-3.328 1,-6.66 1.64,-10.937"
         style="fill:#2c5ba7;fill-opacity:1;fill-rule:evenodd;stroke:none"
         id="path14" /><path
         d="m 1261.7,884.969 c -0.19,-2.512 -0.5,-4.781 -0.5,-7.063 -0.03,-41.539 -0.16,-83.082 0.05,-124.629 0.09,-15.117 0.77,-30.269 1.68,-45.371 1.03,-17.113 6.55,-22.125 23.52,-22.293 29.38,-0.293 50.22,13.739 63.78,39.047 14.31,26.715 16.98,55.684 14.26,85.235 -1.7,18.437 -7.48,35.722 -19.37,50.425 -22.01,27.192 -52.09,27.082 -83.42,24.649 z m -74.29,30.551 c 1.09,0.132 2.6,0.488 4.1,0.476 42.61,-0.086 85.21,0 127.81,-0.433 19.14,-0.196 37.88,-3.266 55.92,-10.18 36.85,-14.113 58.04,-40.735 63.17,-79.606 5.79,-43.851 -2.4,-84.32 -32.18,-118.601 -19.08,-21.969 -43.43,-35.742 -71.17,-43.504 -46.01,-12.859 -92.4,-10.766 -138.89,-2.863 -5.79,0.984 -7.56,3.351 -6.95,9.402 5.81,58.141 3.41,116.441 2.73,174.68 -0.26,23.437 -2.94,46.847 -4.54,70.629"
         style="fill:#2c5ba7;fill-opacity:1;fill-rule:evenodd;stroke:none"
         id="path16" /><path
         d="m 2213.58,455.684 c 20.77,-2.371 35.63,5.605 42.04,24.211 3.66,10.652 6.02,22.324 6.01,33.527 -0.01,30.66 -20.17,47.32 -48.05,40.769 0,-32.617 0,-65.332 0,-98.507 z m 148.06,-124.246 c -29.35,0 -57.3,-0.137 -85.25,0.242 -2.45,0.019 -5.74,2.922 -7.14,5.351 -12.48,21.731 -24.42,43.762 -36.96,65.449 -4.32,7.481 -8.75,15.293 -19.56,21.047 1.7,-31.836 3.3,-61.504 4.91,-91.632 -26.25,0 -52.27,0 -78.95,0 7.98,85.644 8.08,171.027 -0.14,257.5 3.24,0 6.02,0 8.8,0 34.76,0 69.53,0.312 104.29,-0.184 11.4,-0.156 22.99,-1.438 34.11,-3.887 37.83,-8.379 56.48,-37.16 50.94,-75.683 -4.35,-30.246 -21.76,-48.719 -49.51,-58.887 -2.43,-0.91 -4.92,-1.719 -7.36,-2.649 -0.45,-0.156 -0.8,-0.625 -1.75,-1.425 14.25,-7.157 21.74,-20.36 30,-32.735 17.08,-25.652 33.8,-51.543 50.64,-77.332 0.83,-1.261 1.5,-2.629 2.93,-5.175"
         style="fill:#2c5ba7;fill-opacity:1;fill-rule:evenodd;stroke:none"
         id="path18" /><path
         d="m 1085.49,505.051 c 0,-14.356 0.22,-28.703 -0.1,-43.059 -0.13,-5.527 1.8,-7.07 7.18,-7.097 15.91,-0.09 26.78,7.656 33.77,21.191 6.64,12.832 8.76,26.883 7.49,41.035 -2.43,27.039 -16.07,39.024 -41.49,38.426 -5.65,-0.125 -7.04,-2.207 -6.94,-7.442 0.27,-14.343 0.09,-28.691 0.09,-43.054 z m 4.38,-173.215 c -26.46,0 -52.49,0 -78.98,0 8.07,85.82 8.09,171.223 -0.05,257.199 3.01,0.137 5.57,0.34 8.13,0.352 35.29,0.019 70.58,0.398 105.87,-0.207 12.42,-0.223 25.14,-1.61 37.14,-4.746 35.11,-9.188 52.27,-37.989 46.94,-74.981 -4.33,-29.902 -21.58,-48.289 -48.96,-58.531 -3.13,-1.164 -6.3,-2.211 -10.82,-3.793 14.44,-6.719 21.52,-18.738 29.09,-30.078 17.54,-26.289 34.64,-52.86 51.91,-79.336 1.09,-1.68 2,-3.465 3.61,-6.289 -13.77,0 -26.46,0 -39.17,0 -14.63,0 -29.28,0.215 -43.92,-0.125 -4.88,-0.11 -7.31,1.621 -9.61,5.828 -11.98,22.004 -24.1,43.945 -36.69,65.605 -4.3,7.395 -8.45,15.5 -19.38,20.235 1.67,-31.211 3.26,-60.723 4.89,-91.133"
         style="fill:#2c5ba7;fill-opacity:1;fill-rule:evenodd;stroke:none"
         id="path20" /><path
         d="m 1900.75,658.633 c -16.09,0 -31.41,0 -47.36,0 8.99,85.672 7.16,171.086 2.48,257.379 17.32,0 33.72,0.258 50.09,-0.262 2.64,-0.086 5.51,-3.301 7.68,-5.617 43.24,-46.086 86.39,-92.254 129.57,-138.399 1.03,-1.097 2.24,-2.05 4.69,-4.293 -0.22,50.418 -3.11,99.122 -9.07,148.157 16.63,0 32.43,0 48.39,0 -1.58,-20.317 -3.76,-40.274 -4.51,-60.278 -1.12,-29.195 -1.51,-58.418 -1.62,-87.629 -0.12,-29.515 0.48,-59.039 0.77,-88.55 0.02,-2.618 -0.08,-5.235 0.02,-7.84 0.59,-13.082 0.49,-11.985 -12.82,-13.356 -16.89,-1.746 -27.89,4.426 -39.33,17.114 -42.01,46.504 -85.59,91.578 -128.53,137.246 -1.92,2.043 -3.26,4.629 -6.24,6.148 -3.39,-53.726 -2.09,-106.348 5.79,-159.82"
         style="fill:#2c5ba7;fill-opacity:1;fill-rule:evenodd;stroke:none"
         id="path22" /><path
         d="m 1095.38,915.617 c 14.53,0 30.15,0 47.6,0 -11.1,-85.179 -6.54,-170.726 -5.48,-257.289 -12.15,0 -23.57,-0.285 -34.98,0.227 -2.27,0.097 -4.68,2.945 -6.57,4.953 -46.5,49.515 -92.93,99.082 -139.407,148.633 -1.926,2.054 -4.082,3.89 -7.996,7.597 -2.609,-55.09 0.191,-107.867 7.144,-161.039 -16.113,0 -31.148,0 -47.144,0 9.058,85.742 7.398,171.196 2.461,257.313 17.359,0 33.777,0.14 50.183,-0.184 2.071,-0.035 4.446,-2.176 6.075,-3.922 42.684,-45.558 85.284,-91.211 127.934,-136.801 2.04,-2.183 4.38,-4.097 6.57,-6.128 0.92,0.23 1.83,0.464 2.75,0.703 -3.04,48.535 -6.08,97.07 -9.14,145.937"
         style="fill:#2c5ba7;fill-opacity:1;fill-rule:evenodd;stroke:none"
         id="path24" /><path
         d="m 1601.2,123.137 c 26.18,0 51.18,0 77.36,0 -3.72,-36.6565 -7.87,-72.8987 -2.65,-110.7972 -13.43,-2.85933 -26.5,-7.07808 -39.81,-8.16011 -26.47,-2.14844 -53.14,-4.289065 -79.61,-3.328127 -54.77,1.988277 -103.36,39.117237 -115.85,87.726537 -17.81,69.2659 11.24,142.0859 93.09,168.3279 36.29,11.649 73.4,11.856 110.7,5.196 1.03,-0.176 2.05,-0.372 3.06,-0.657 22.08,-6.238 22.5,-6.972 17.04,-28.965 -2.06,-8.339 -3.9,-16.757 -6.19,-25.058 -0.59,-2.156 -2.49,-5.652 -3.68,-5.613 -2.35,0.078 -5.39,1.66 -6.8,3.593 -10.29,14.188 -22.92,24.813 -40.42,29.024 -35.44,8.523 -68.02,-5.129 -83.1,-38.172 -19.55,-42.875 -19.06,-86.965 1.19,-129.504 14.34,-30.1406 41.43,-42.1719 74.23,-36.7812 5.57,0.9218 6.73,4.1601 6.49,8.75 -1.18,23.4609 -2.39,46.9218 -3.67,70.3512 -0.25,4.399 -0.85,8.758 -1.38,14.067"
         style="fill:#2c5ba7;fill-opacity:1;fill-rule:evenodd;stroke:none"
         id="path26" /><path
         d="m 1710.59,764.172 c -10.45,26.113 -20.48,51.176 -31.37,78.402 -9.99,-27.289 -19.23,-52.476 -28.72,-78.402 20.53,0 39.52,0 60.09,0 z m 126.98,-105.453 c -3.87,-0.215 -6.39,-0.477 -8.91,-0.477 -22.74,-0.031 -45.49,0.192 -68.21,-0.156 -6.11,-0.098 -9.13,1.523 -11.46,7.566 -7.85,20.45 -16.63,40.547 -24.85,60.864 -1.59,3.925 -3.69,5.55 -8.09,5.515 -23.25,-0.203 -46.52,0.059 -69.77,-0.32 -2.5,-0.043 -6.31,-2.633 -7.18,-4.938 -7.63,-20.238 -15.03,-40.585 -21.8,-61.132 -1.9,-5.782 -4.32,-7.739 -10.32,-7.555 -13.78,0.437 -27.58,0.144 -42.8,0.144 3.48,7.157 6.39,13.114 9.26,19.09 36.77,76.715 72.37,153.93 101.54,233.922 1.5,4.098 3.64,4.906 7.47,4.852 12.54,-0.18 25.11,-0.379 37.64,0.07 5.85,0.215 8.29,-1.598 10.55,-7.246 23.69,-59.063 47.42,-118.105 71.98,-176.809 9.24,-22.117 20.65,-43.328 31.06,-64.961 1.11,-2.324 2.16,-4.679 3.89,-8.429"
         style="fill:#2c5ba7;fill-opacity:1;fill-rule:evenodd;stroke:none"
         id="path28" /><path
         d="m 1253.69,110.328 c 20.8,0 39.93,0 60.11,0 -10.41,25.973 -20.48,51.098 -31.41,78.363 -10.06,-27.461 -19.26,-52.546 -28.7,-78.363 z M 1440.64,4.76172 c -3.35,-0.28125 -5.6,-0.62109 -7.86,-0.62109 -23.51,-0.05079 -47.03,0.14843 -70.55,-0.15235 -5.44,-0.07812 -7.72,1.97266 -9.62,6.75002 -8.27,20.8515 -16.78,41.6211 -25.69,62.1836 -1.09,2.5469 -5.1,5.3476 -7.82,5.3984 -23,0.4414 -45.98,0.168 -68.99,0.3203 -4.24,0.0313 -6.61,-1.1914 -8.07,-5.4414 -7.19,-20.9375 -14.81,-41.7578 -21.91,-62.7304 -1.59,-4.70708 -3.67,-6.59771 -8.78,-6.4688 -14.26,0.33984 -28.54,0.10938 -44.01,0.10938 9.6,20.06252 19.17,38.53902 27.41,57.60152 27.9,64.6291 55.39,129.4341 82.8,194.2771 1.93,4.571 4.05,6.348 9.04,6.211 12.54,-0.363 25.1,-0.422 37.63,0.008 5.37,0.195 7.42,-1.738 9.4,-6.609 25.41,-62.571 50.84,-125.129 76.9,-187.4183 7.95,-19 17.8,-37.1797 26.75,-55.7578 1.07,-2.2227 2,-4.53127 3.37,-7.66018"
         style="fill:#2c5ba7;fill-opacity:1;fill-rule:evenodd;stroke:none"
         id="path30" /><path
         d="m 863.895,331.879 c -26.571,0 -52.586,0 -79.278,0 7.395,85.625 7.461,170.777 -0.047,256.883 3.02,0.222 5.735,0.605 8.457,0.605 32.657,0.039 65.364,0.789 97.989,-0.293 15.976,-0.527 32.402,-2.629 47.617,-7.285 22.812,-6.973 34.012,-24.641 35.664,-48.34 1.894,-27.258 -4.043,-51.769 -26.746,-69.179 -21.465,-16.473 -46.446,-20.188 -72.754,-17.2 -9.004,1.016 -7.902,9.707 -12.055,14.895 1.574,0.711 2.461,1.387 3.418,1.523 25.219,3.496 33.574,24.285 34.594,42.86 0.437,8.332 0.633,16.75 -0.024,25.05 -1.375,17.325 -10.808,26.426 -28.242,27.5 -17.625,1.102 -14.383,1.25 -14.383,-13.351 -0.039,-45.469 -0.449,-90.957 0.489,-136.406 0.488,-23.965 3.469,-47.871 5.293,-71.805 0.105,-1.543 0.008,-3.117 0.008,-5.457"
         style="fill:#2c5ba7;fill-opacity:1;fill-rule:evenodd;stroke:none"
         id="path32" /><path
         d="m 1719.38,261.77 c 26.62,0 52.67,0 79.46,0 -1.17,-12.434 -3.15,-24.493 -3.31,-36.582 -0.72,-48.801 -2.27,-97.637 -0.76,-146.3794 1.02,-33.1992 25.71,-50.1289 59.28,-46.8867 36.12,3.4687 48.51,30.7695 50.4,59.5195 3.07,46.9686 0.73,93.9216 -3.96,140.7466 -0.97,9.589 -1.79,19.199 -2.72,29.359 16,0 31.52,0 47.85,0 -1.36,-16.516 -3.1,-32.785 -3.95,-49.106 -1.43,-27.097 -2.24,-54.246 -3.4,-81.367 -0.75,-17.715 -0.53,-35.574 -2.72,-53.1131 -5.57,-44.3711 -28.9,-68.23043 -73.06,-75.38277 -24.69,-3.98829 -49.53,-3.367193 -74,1.97265 -41.95,9.14062 -63.55,36.09762 -64,79.59762 -0.16,15.6719 1.47,31.3636 0.87,46.9766 -1.58,41.98 -3.93,83.945 -5.98,125.906 -0.05,1.289 0,2.59 0,4.739"
         style="fill:#2c5ba7;fill-opacity:1;fill-rule:evenodd;stroke:none"
         id="path34" /><path
         d="m 2162.33,44.6016 c -0.92,-13.6407 -1.78,-26.0313 -2.65,-38.70316 -56.77,0 -113.21,0 -169.52,0 7.78,84.91016 7.84,169.83556 -0.09,255.46856 50.68,0 101.61,0 153.13,0 0,-12.344 0,-24.765 0,-38.426 -25.86,6.446 -51.74,9.715 -79.06,8.231 0,-6.531 0,-12.449 0,-18.375 0,-17.512 0.35,-35.031 -0.17,-52.524 -0.21,-7.324 1.55,-10.378 9.38,-9.675 18.45,1.648 36.95,2.722 55.43,4.062 2.55,0.176 5.11,0.43 8.21,0.703 0,-12.558 0,-24.433 0,-36.414 -24.13,1.512 -47.91,2.992 -72.85,4.578 0,-8.687 -0.14,-15.379 0.03,-22.078 0.44,-17.4881 1.47,-34.9607 1.35,-52.4373 -0.07,-9.1914 5,-11.4804 12.13,-11.1406 20.55,0.9375 41.1,2.2695 61.62,3.75 7.42,0.5273 14.78,1.8789 23.06,2.9805"
         style="fill:#2c5ba7;fill-opacity:1;fill-rule:evenodd;stroke:none"
         id="path36" /><path
         d="m 2107.94,332.93 c -57.11,0 -113.36,0 -169.59,0 7.84,84.582 7.86,169.758 -0.12,255.683 50.79,0 101.75,0 153.24,0 0,-12.937 0,-25.554 0,-38.211 -13.54,2.313 -26.5,5.125 -39.61,6.582 -12.83,1.438 -25.8,1.465 -39.12,2.118 0,-27.801 0,-53.836 0,-81.856 24.18,1.406 47.97,2.793 72.38,4.231 0,-11.77 0,-23.348 0,-35.313 -24.15,1.289 -47.93,2.547 -71.77,3.816 0,-24.218 -0.78,-46.64 0.25,-68.964 0.78,-16.434 2.04,-17.637 18.86,-16.7 24.43,1.34 48.78,4.473 73.17,6.856 1.27,0.137 2.55,0.266 4.91,0.488 -0.89,-13.238 -1.76,-26.113 -2.6,-38.73"
         style="fill:#2c5ba7;fill-opacity:1;fill-rule:evenodd;stroke:none"
         id="path38" /><path
         d="m 1058.68,231.066 c 0,-25.734 0.12,-50.285 -0.09,-74.843 -0.05,-5.578 3.11,-5.774 7.04,-5.508 18.75,1.238 37.5,2.48 56.25,3.75 2.79,0.195 5.56,0.547 8.89,0.879 0,-12.617 0,-24.485 0,-36.324 -23.93,1.48 -47.44,2.929 -72.09,4.476 0,-10.516 -0.18,-19.047 0.03,-27.5741 0.4,-16.1719 1.34,-32.3438 1.42,-48.5235 0.04,-7.1679 4.06,-9.4179 9.68,-9.2968 17.71,0.3789 35.43,0.9179 53.1,2.1172 10.88,0.75 21.67,2.8203 33.81,4.4804 -0.88,-13.4687 -1.71,-26.0586 -2.55,-38.80076 -56.85,0 -113.28,0 -169.568,0 7.769,85.03126 7.847,169.95356 -0.122,255.52756 50.84,0 101.79,0 153.28,0 0,-12.528 0,-24.949 0,-38.438 -25.96,6.242 -51.81,9.836 -79.08,8.078"
         style="fill:#2c5ba7;fill-opacity:1;fill-rule:evenodd;stroke:none"
         id="path40" /><path
         d="m 1429.47,371.691 c -0.89,-13.507 -1.73,-26.386 -2.55,-38.761 -56.92,0 -113.12,0 -169.66,0 7.97,84.746 7.97,170.109 -0.12,255.84 51.02,0 101.59,0 152.75,0 0,-13.067 0,-25.704 0,-37.11 -21.14,2.363 -42.28,4.746 -63.44,7.031 -3.11,0.332 -6.51,0.832 -9.33,-0.097 -2.19,-0.742 -5.24,-3.535 -5.26,-5.449 -0.34,-24.032 -0.19,-48.075 -0.13,-72.118 0,-0.714 0.43,-1.437 1.17,-3.769 23.05,1.375 46.4,2.773 70.52,4.219 0,-11.731 0,-23.477 0,-35.313 -23.65,1.277 -47.21,2.559 -71.8,3.895 0,-20.067 -0.14,-38.289 0.08,-56.493 0.07,-6.757 1.21,-13.515 1.4,-20.285 0.13,-5.144 2.25,-7.176 7.39,-7.968 20.73,-3.223 41.12,-0.137 61.57,2.57 8.74,1.172 17.48,2.422 27.41,3.808"
         style="fill:#2c5ba7;fill-opacity:1;fill-rule:evenodd;stroke:none"
         id="path42" /><path
         d="m 956.926,44.6602 c -1.067,-13.8907 -2.031,-26.4688 -2.981,-38.75004 -56.789,0 -112.558,0 -169.226,0 7.285,84.89844 7.344,170.03884 -0.117,255.65284 26.55,0 52.566,0 79.507,0 -0.523,-6.786 -0.925,-13.426 -1.558,-20.04 -5.332,-54.453 -4.629,-109.062 -4.113,-163.6714 0.097,-10.4219 1.457,-20.8321 1.75,-31.2618 0.203,-7.1093 4.636,-8.9687 10.234,-8.8007 17.461,0.539 34.922,1.1406 52.332,2.4023 11.062,0.7969 22.043,2.8281 34.172,4.4688"
         style="fill:#2c5ba7;fill-opacity:1;fill-rule:evenodd;stroke:none"
         id="path44" /><path
         d="m 1544.99,658.621 c -25.15,0 -50.93,0 -77.42,0 7.91,85.656 7.67,171.016 -0.25,256.879 26.37,0 52.6,0 77.93,0 -1.29,-43.102 -3.5,-85.828 -3.54,-128.566 -0.06,-42.489 2.07,-84.973 3.28,-128.313"
         style="fill:#2c5ba7;fill-opacity:1;fill-rule:evenodd;stroke:none"
         id="path46" /><path
         d="m 864.043,658.777 c -26.375,0 -52.355,0 -79.246,0 7.398,85.578 7.137,170.922 -0.195,256.746 26.296,0 52.527,0 79.492,0 C 856.238,830 855.605,744.66 864.043,658.777"
         style="fill:#2c5ba7;fill-opacity:1;fill-rule:evenodd;stroke:none"
         id="path48" /><path
         d="m 1892.78,588.898 c -7.88,-86.101 -8.36,-171.269 -0.17,-256.945 -26.33,0 -52.8,0 -79.23,0 7.67,85.703 7.19,171.067 -0.13,256.945 26.54,0 52.79,0 79.53,0"
         style="fill:#2c5ba7;fill-opacity:1;fill-rule:evenodd;stroke:none"
         id="path50" /><path
         d="m 2213.58,455.684 c 0,33.175 0,65.89 0,98.507 27.88,6.551 48.04,-10.109 48.05,-40.769 0.01,-11.203 -2.35,-22.875 -6.01,-33.527 -6.41,-18.606 -21.27,-26.582 -42.04,-24.211"
         style="fill:#ffffff;fill-opacity:1;fill-rule:evenodd;stroke:none"
         id="path52" /><path
         d="m 589.375,270.313 c 13.652,19.894 73.074,17.082 94.609,-5.008 -4.531,1.55 -8.945,3.574 -13.593,4.55 -15.371,3.243 -30.782,7.977 -46.289,8.426 -11.497,0.344 -23.145,-5.086 -34.727,-7.968"
         style="fill:#ffffff;fill-opacity:1;fill-rule:evenodd;stroke:none"
         id="path54" /><path
         d="m 292.48,757.969 c 1.297,-5.664 2.375,-11.43 3.008,-17.328 6.184,1.605 12.024,4.683 17.344,6.875 0.106,0.089 0.254,0.195 0.391,0.238 1.472,0.992 2.519,1.797 3.386,2.156 0.012,5.93 -0.586,11.797 -1.754,17.578 -0.48,-0.031 -0.976,-0.109 -1.425,-0.195 -6.555,-3.914 -14.563,-6.629 -20.989,-8.719 0,-0.187 0.039,-0.379 0.039,-0.605 m -3.671,3.043 c -0.887,4.258 -1.875,9.843 -4.043,13.59 -0.11,0.086 -0.125,0.238 -0.196,0.296 -4.238,-1.363 -8.476,-2.773 -12.734,-4.043 -2.773,-0.933 -5.566,-1.89 -8.484,-2.683 -1.528,-4.488 -3.11,-8.984 -4.563,-13.484 -0.176,-0.477 -0.215,-0.891 -0.305,-1.329 2.368,0.344 4.692,0.692 7.239,1.211 6.632,1.379 13.191,3.137 19.629,5.203 1.203,0.344 2.285,0.825 3.457,1.239 m 21.203,21.871 c -0.547,0.281 -1.203,0.328 -1.899,0.086 -0.175,-0.051 -0.332,-0.149 -0.508,-0.196 -0.21,-0.175 -0.386,-0.218 -0.535,-0.218 -4.062,-1.582 -8.203,-2.891 -11.66,-4.133 -1.965,-0.692 -4.082,-1.32 -6.062,-1.969 -0.41,-0.176 -0.735,-0.308 -1.157,-0.445 0.09,-1.168 0.227,-2.219 0.356,-3.305 0.973,-3.629 1.988,-7.183 2.906,-10.777 6.176,2.156 12.285,4.476 18.266,7.191 1.48,0.719 2.871,1.508 4.265,2.348 -0.476,1.715 -0.898,3.433 -1.418,5.113 -0.711,2.11 -1.558,4.219 -2.554,6.305 M 487.449,578.371 c -0.469,2.02 -0.984,4.004 -1.094,6.301 -12.195,17.664 -22.75,36.129 -34.121,53.976 -3.757,6 -7.371,12.934 -11.453,18.344 -3.847,4.961 -9.824,9.289 -14.718,14.176 -14.676,14.738 -30.301,27.934 -45.614,41.387 11.531,22.633 22.246,47.129 34.61,68.652 4.179,7.199 9.699,14.824 12.578,22.047 2.246,5.543 3.144,12.582 4.746,18.844 4.836,19.343 8.918,37.347 14.109,56.605 3.039,2.41 5.942,4.93 5.742,10.473 -4.324,0.543 -6.433,3.355 -9.414,5.246 -8.125,-3.824 -24.215,-2.219 -25.672,5.215 -1.914,10.125 12.43,10.949 13.633,17.82 -3.691,-0.086 -10.351,-3.324 -12.031,-0.523 3.398,2.531 7.766,4.16 10.996,6.855 -6.426,5.457 -15.691,8.039 -23.562,12.039 -1.086,8.246 -5.079,13.418 -4.746,23.047 0.996,2.672 2.488,4.082 3.281,7.707 0.476,1.461 0.476,2.164 -0.5,4.531 -2.473,0.078 -4.524,-0.418 -5.918,0.344 -2.754,2.672 0.066,8.004 -2.11,11.539 -1.152,-3.75 -1.472,-8.348 -3.652,-11.012 -0.144,2.817 -1.062,4.883 -2.109,6.817 0.566,-7.848 3.066,-13.754 4.765,-20.449 -5.871,0.957 -8.015,-1.739 -13.066,-1.567 0,-1.609 -0.566,-2.672 -1.68,-3.137 -11.797,-4.058 -26.086,-5.601 -36.711,-10.996 -4.734,4.942 -5.957,13.547 -10.386,18.848 1.98,-7.953 6.492,-14.176 8.882,-23.086 15.508,4.27 27.895,11.582 44.536,14.699 1.589,1.782 5.425,2.871 8.425,1.586 0.352,-2.875 2.473,-6.351 0.996,-9.437 -6.003,0.867 -2.414,0.105 -6.23,-1.09 -1.289,0.719 -1.555,-1.039 -3.848,-1.367 -2.629,-0.883 -3.984,-0.883 -6.433,-2.457 -2.602,-1.129 -2.141,-1.368 -4.731,-1.719 -2.273,-1.055 0.403,0 -2.273,-1.055 -2.5,-0.445 -2.774,-0.726 -5.235,-1.551 -3.769,-1.109 -2.39,-0.718 -5.617,-1.609 -4.91,-1.348 -1.929,-0.519 -7.09,-1.887 -7.468,-1.589 -0.769,0.196 -7.8,-1.933 -3.243,4.433 -6.438,8.886 -10.45,12.582 -1.66,-1.461 -2.175,2.547 -2.656,6.234 -4.324,1.485 -5.676,5.875 -5.793,11.567 -1.441,0.265 -3.621,-3.282 -6.25,-3.657 -4.07,1.637 -7.019,7.094 -12.566,7.832 -4.524,0.676 -11.59,-1.738 -17.285,-2.605 -4.383,-0.656 -8.692,-0.781 -12.188,-1.793 -27.566,-2.617 -122.433,-18.012 -139.844,-20.734 18.223,1.613 121.016,13.941 143.75,19.05 10.071,0.801 20.508,3.692 29.778,3.477 0.918,-1.305 1.765,-2.742 1.48,-5.227 -14.207,-4.781 -29.058,-6.187 -43.941,-8.402 -8.614,-1.289 -35.805,-6.852 -40.918,-7.852 -22.004,-4.39 -46.977,-8.957 -71.25,-13.105 -7.09,-1.227 -14.465,-2.367 -21.488,-3.672 -41.9888,-7.656 -86.5044,-10.891 -130.46925,-5.766 -3.52344,0.524 -4.91016,-0.242 -5.60547,-0.886 0.46875,1.843 1.875,3.687 3.34375,4.511 5.40625,2.575 11.98047,5.067 18.43747,6.336 h 3.1328 c 1.2579,1.098 -1.9609,0.469 -3.1328,0.52 -5.4297,0.172 -14.41403,-0.109 -18.35153,0 C 3.625,927.59 1.73828,925.574 1.34766,923.223 1.19141,922.941 0,917.219 0,916.934 v -0.52 c 1.79688,-8.672 3.06641,-17.82 7.80078,-23.609 15.28512,-0.196 29.23832,-4.496 43.54692,-4.664 11.6211,-0.176 23.2812,1.578 34.6289,2.101 9.3242,0.418 18.7114,0.266 28.2694,1.028 16.645,1.339 33.637,5.652 50.317,8.367 51.335,8.398 101.921,17.625 149.902,27.816 4.629,4.832 8.055,11.895 18.301,8.375 3.804,-8.094 6.863,-16.93 10,-25.676 7.695,-2.343 13.406,-8.425 23.062,-4.734 -4.324,19.848 14.082,21.566 26.164,27.781 -0.652,-1.976 0.442,-2.719 0.547,-4.195 10.762,-0.195 9.375,-12.637 14.109,-18.852 -10.425,3.786 -21.043,-0.453 -27.73,-4.183 -2.551,-1.399 -7.813,-4.203 -8.371,-6.332 -1.152,-4.094 1.711,-12.723 2.578,-18.848 0.957,-6.652 3.027,-13.976 2.688,-19.387 -0.508,-6.5 -4.563,-13.461 -6.36,-18.882 -2.285,-7.059 -4.015,-12.993 -5.723,-19.903 -14.121,-12.801 -26.062,-27.738 -41.417,-39.328 -0.641,2.18 -0.918,4.719 -1.422,7.051 -1.719,-1.613 -3.762,-3.004 -6.036,-4.219 -0.16,-0.074 -0.253,-0.109 -0.351,-0.195 -0.461,-0.262 -0.891,-0.457 -1.367,-0.703 0.496,-1.188 0.816,-2.45 1.082,-3.731 1.133,-2.539 2.043,-5.094 2.746,-7.762 0.34,0.211 0.672,0.407 0.926,0.633 1.093,0.969 2.175,1.957 3.281,2.977 0.808,1.242 1.543,2.476 2.695,3.359 1.172,-3.031 -0.129,-4.734 -1.933,-6.293 -1.211,-1.441 -2.559,-2.789 -4.153,-4.047 1.672,-7.371 2.285,-15.019 2.129,-22.214 -20.144,-14.946 -48.379,-20.165 -72.945,-21.629 -7.219,-0.411 -14.262,5.621 -19.934,9.558 -4.804,3.352 -9.558,6.871 -14.258,10.465 -0.046,0.02 -0.136,0.121 -0.214,0.215 -6.27,4.476 -11.985,10.062 -13.243,18.242 0,0.121 -0.046,0.188 -0.086,0.317 0.016,-0.063 0.04,-0.063 0.086,0 -0.371,2.589 -0.332,5.421 0.301,8.585 0.434,-2.218 0.61,-4.628 0.805,-7.062 0.457,-1.176 1.133,-2.371 1.48,-3.91 1.985,-6.481 7.618,-9.867 12.7,-13.699 7.625,-5.754 15.293,-11.5 23.464,-16.407 3.118,-1.828 5.352,-3.199 8.809,-3.023 v 0.066 c 0,0 0.051,0 0.051,-0.043 2.183,6.45 4.429,13.243 6.679,19.731 -1.398,-0.102 -2.777,-0.36 -4.125,-0.43 -9.292,-0.496 -19.019,-4.523 -26.472,1.785 -2.285,1.106 -3.887,2.782 -4.473,5.176 3.496,-0.242 5.254,-2.242 7.219,-4 1.141,-0.391 2.273,-0.676 3.141,-0.894 0.812,-0.223 1.73,-0.282 2.55,-0.391 5.352,0 10.325,0.363 15.266,0.797 0.215,0.097 0.406,0.097 0.644,0.097 2.567,0.469 4.981,0.809 7.352,1.129 1.398,4.239 2.844,8.508 4.297,12.778 0.195,0.476 0.266,0.867 0.437,1.238 -3.336,-0.762 -6.648,-1.477 -9.902,-2.195 -9.793,-2.61 -19.598,-5.082 -29.488,-7.407 -1.992,-0.418 -3.742,-0.398 -5.442,-0.07 -0.031,-0.043 -0.207,-0.086 -0.254,-0.086 -0.07,0.043 -0.144,0.102 -0.144,0.156 -2.309,0.563 -4.27,1.879 -5.981,4.473 -0.183,0.324 -0.574,1.453 -0.984,2.871 -2.101,3.41 -3.152,7.582 -1.824,12.957 -0.371,-8.344 5.32,-16.328 10.816,-17.601 2.317,-0.032 4.934,0.925 6.836,1.336 1.406,0.308 2.824,0.675 4.192,1.027 0.07,0.019 0.136,0.047 0.156,0.047 0.019,0.015 0.09,0.015 0.144,0.015 10.137,2.457 20.09,5.063 30.09,7.852 13.77,3.863 27.547,7.91 41.028,12.91 1.492,0.567 3.035,1.195 4.597,1.801 1.082,0.449 1.477,0.586 1.953,0.742 2.121,0.871 4.18,1.848 6.231,2.832 0.078,0.106 0.144,0.106 0.183,0.145 1.504,0.804 2.7,1.433 4.028,2.132 0.972,0.629 2.039,1.215 2.976,1.934 0.442,0.367 0.801,0.648 1.094,0.781 0.164,3.266 -0.027,2.543 -1.047,5.235 -1.851,-0.473 -4.695,-2.239 -6.519,-2.582 -5.91,-1.305 -4.399,-1.133 -9.309,-1.797 -1.301,5.258 -4.394,8.836 -5.691,14.082 7.129,4.25 16.453,6.277 16.746,17.328 -9.395,3.043 -14.278,7.148 -22.942,10.906 -1.48,1.961 -5.332,8.133 -7.371,12.219 -3.562,5.711 -2.508,3.125 -7.429,9.34 -3.829,4.894 -8.696,9.765 -12.739,11.789 -3.699,1.797 -9.656,3.73 -14.558,5.019 -4.832,1.282 -9.676,3.618 -14.617,3.676 -3.391,0.063 -7.739,-1.348 -11.543,-2.109 -10.918,-2.172 -14.122,-3.696 -20.997,-8.91 -3.031,-2.325 -7.074,-4.942 -8.898,-7.325 -0.812,-1.066 -2.996,-3.593 -3.691,-4.722 -1.496,-2.59 -2.891,-3.578 -4.153,-5.934 -2.273,-4.262 -2.234,-4.762 -3.687,-7.695 -3.574,-7.254 -6.848,-14.774 -8.266,-23.805 0.188,-25.496 14.887,-35.605 19.797,-56.367 0.344,2.805 -1.582,6.094 0,8.375 1.719,-2.625 1.082,-7.68 1.602,-11.547 3.906,-4.453 10.632,-6.129 12.617,-12.539 -4.988,0.883 -8.953,8.402 -12.84,8.672 6.211,-5.258 11.824,-11.07 18.582,-14.457 0.996,-0.504 2.488,0 3.645,-0.539 5.718,-2.617 10.007,-9.481 15.156,-11 2.39,-0.719 2.984,0.347 4.761,-2.242 -11.851,-2.02 -15.32,13.886 -22.429,10.605 -5.321,-2.41 -6.555,-1.629 -12.727,-2.605 -0.972,-4.938 5.293,-12.149 6.172,-16.825 4.094,-5.871 0.156,-8.742 3.684,-15.175 3.691,-3.305 5.91,-4.164 9.05,-6.239 1.797,-12.418 0.598,-25.586 4.708,-37.765 4.613,-9.016 15.238,-15.059 22.589,-23.02 7.981,-8.738 18.868,-18.035 25.059,-24.168 21.609,-20.957 42.305,-38.465 64.559,-58.66 5.617,-5.098 19.101,-14.699 21.957,-20.988 2.507,-5.391 3.457,-12.715 5.195,-19.364 1.824,-6.542 4.676,-13.652 5.281,-19.394 1.223,-10.402 -2.637,-20.305 0,-31.445 0.449,-1.77 1.57,-3.719 2.957,-5.743 42.856,27.665 83.391,63.641 118.383,107.168 2.566,3.231 5.027,6.407 7.488,9.688 -2.898,2.801 -6.203,5.066 -10.832,5.742 m -231.16,169.16 c -0.066,-0.148 -0.09,-0.343 -0.184,-0.539 -1.574,-4.629 -3.097,-9.242 -4.691,-13.871 -0.445,-1.348 -0.66,-2.348 -0.945,-2.953 9.953,0.824 19.824,2.234 29.426,4.559 1.824,0.437 3.543,1.003 5.359,1.523 2.383,1.004 5.215,2.262 7.148,2.98 -0.156,1.5 -0.195,3.043 -0.293,3.571 -0.539,5.019 -1.433,9.972 -2.589,14.887 -0.625,-0.219 -1.407,-0.454 -2.02,-0.657 -5.535,-1.801 -11.145,-3.418 -16.809,-4.676 -4.507,-1.195 -9.011,-2.23 -13.355,-2.609 -0.395,-0.75 -0.656,-1.469 -1.047,-2.215 m 88.524,233.383 c -0.86,5.566 3.058,6.215 6.234,7.774 1.101,0.093 2.195,0.136 3.418,0.226 2.676,-0.367 4.051,-3.566 5.586,-4.898 0.269,2.617 1.687,4.027 2.945,5.593 2.055,0.172 4.172,0.457 6.262,0.696 3.222,-0.524 2.961,-4.477 5.476,-5.739 -0.41,6.563 9.114,8.106 13.086,4.215 -0.047,1.852 -0.769,3.024 -1.05,4.715 l -45.508,-4.715 c -2.578,0.067 -4.895,0 -5.871,-0.562 5.656,0.082 6.484,-4.696 9.422,-7.305 m 57.101,12.238 c 2.871,0.086 5.645,-0.109 8.621,-0.754 0.383,-0.117 0.852,-0.117 1.145,-0.136 1.093,-0.492 1.203,-2.02 2.863,-1.957 1.785,1.242 4.844,1.152 7.852,1.035 2.207,-1.098 3.066,-3.598 4.753,-5.188 1.114,4.328 7.395,5.5 10.977,3.153 2.41,-1.61 1.152,-4.285 3.66,-5.289 -0.562,3.656 1.711,4.418 3.899,5.203 2.011,-0.305 2.363,-0.891 3.269,-1.824 0.149,-0.176 1.027,-2.375 1.027,-2.375 0.997,-3.344 1.817,-6.758 3.016,-10.067 0.852,-2.367 1.152,-5.258 1.945,-6.64 l -0.046,0.007 v -2.625 c -1.731,-0.914 -3.938,-1.281 -6.301,-1.586 0.683,-1.98 2.226,-3 2.617,-5.234 -4.238,-3.293 -9.949,1.738 -14.148,0 0.156,-3.699 3.386,-4.309 4.238,-7.352 -2.766,-5.003 -8.52,-0.691 -13.098,-0.515 -2.14,0.125 -3.848,-1.418 -5.808,-1.02 -1.973,0.41 -3.704,3.973 -5.247,2.075 -0.46,-1.95 5.743,-3.012 4.715,-5.739 8.02,0.434 13.418,-6.715 20.957,-7.367 1.938,-0.121 4.348,0.867 6.301,0.523 5.852,-0.976 11.348,-10.933 11.934,-26.171 0,3.476 2.746,23.734 2.746,27.254 3.601,1.437 6.035,4.132 9.461,5.761 0.476,6.281 0.886,12.766 1.511,18.828 -5.847,1 -12.07,1.813 -17.949,2.875 -1.551,5.125 -4.129,18.973 -10.015,21.672 0.054,0.039 0.125,0.063 0.222,0.082 -4.851,2.715 -12.754,2.871 -18.047,3.157 -3.703,0.195 -7.441,0.234 -11.074,0.125 -1.687,-0.043 -5.137,-0.825 -6.719,-0.215 -3.64,1.41 -5.859,2.172 -9.753,1.695 -1.211,-0.629 -1.594,-1.09 -1.68,-1.348 -0.805,-0.851 -1.86,-1.933 -0.434,-2.347 0.266,1.3 1.406,1.691 2.59,2.304"
         style="fill:#2c5ba7;fill-opacity:1;fill-rule:nonzero;stroke:none"
         id="path56" /><path
         d="m 697.605,348.184 c -2.339,-2.098 -2.976,-3.348 -4.238,-5.137 -1.851,-1.707 -1.851,-1.902 -3.672,-3.75 -3.203,-3.399 -2.261,-3.399 -6.414,-6.629 -2.004,-1.984 -3.152,-2.707 -6.633,-5.684 -3.953,-3.671 -6.609,-5.07 -11.582,-9.054 -4.722,-3.856 -8.296,-7.215 -13.613,-11.582 -1.734,-1.297 -7.168,-4.696 -17.066,-9.746 -4.121,-2.555 -9.282,-5.137 -14.883,-3.887 4.766,4.551 9.324,10.644 16.219,16.301 9.851,7.968 25.84,10.476 25.175,24.609 -0.363,7.07 -2.918,13.387 -5.554,19.773 1.707,1.075 3.594,2.231 4.898,3.215 3.02,2.305 7.004,4.258 10.332,5.977 4.739,2.402 9.621,2.812 14.922,1.738 5.258,-1.074 8.313,-6.086 10.766,-10.605 1.093,-2.043 1.883,-4.075 1.343,-5.539 M 527.703,315.832 c -12.867,4.5 -28.601,11.297 -47.098,7.285 -0.207,-0.39 -0.515,-0.508 -0.515,-1.027 1.14,1.348 14.098,-0.078 10.445,-0.527 -10.152,-0.594 -21.512,-1.075 -29.363,-3.633 14.902,14.386 47.656,11.203 65.027,1.562 2.817,-1.426 3.242,-1.609 5.586,-3.054 1.809,-3.829 -0.445,-1.797 -4.082,-0.606 M 445.293,98.8711 c -0.547,-4.9297 0.5,-8.1328 -5.148,-7.2695 -8.993,1.4179 -9.2,8.4184 -12.872,13.8284 -4.246,6.179 -6.543,10.539 -6.543,10.539 2.09,5.293 3.301,3.281 8.481,4.34 4.91,1.101 10.437,3.324 12.937,3.324 2.559,0 1.348,1.777 2.981,-8.254 1.441,-8.379 0.769,-11.109 0.164,-16.5079 M 322.734,32.6719 C 318.848,28.6016 312.383,28.75 297.5,29.3906 c -14.855,0.6992 -13.887,1.2305 -22.395,4.918 -7.109,2.9922 -9.414,1.9297 -7.8,20.6133 1.699,19.789 17.16,16.1484 33.933,10.8281 17.032,-5.3203 17.153,-7.0781 17.961,-10.6406 0.821,-3.6094 4.207,-14.1992 4.207,-14.1992 0,0 1.914,-5.5391 -0.672,-8.2383 M 700.801,348.77 c -0.242,2.863 -1.895,7.031 -3.02,8.781 -2.754,4.043 -6.718,7.312 -11.48,8.543 -11.34,3.019 -22.778,-4.414 -31.379,-11.629 -1.731,4.09 -3.43,8.289 -4.57,12.715 l -8.348,17.781 c -3.176,7.707 -9.359,12.324 -10.981,21.504 -16.929,24.855 -24.89,58.613 -50.386,74.961 -5.199,6.465 -10.649,12.726 -17.199,17.832 -6.883,11.738 -20.594,16.152 -24.688,29.863 -0.918,3.067 0,7.317 -1.543,10.461 -1.047,2.07 -3.937,2.781 -6.887,5.281 -2.273,1.953 -4.285,4.864 -6.179,6.27 -1.828,1.301 -3.809,2.472 -5.762,3.644 -43.035,-45.918 -91.16,-81.906 -140.293,-106.601 0.449,-0.606 0.918,-1.262 1.367,-1.848 4.395,-6.531 10.344,-12.226 11.317,-20.437 0.414,-3.625 2.179,-6.828 2.621,-10.305 0.3,-2.891 1.504,-5.184 2.644,-7.742 1.328,-3.117 1.016,-6.379 1.301,-9.66 0.184,-2.723 1.394,-4.969 2.027,-7.528 0.285,-1.203 -0.371,-2.453 0,-3.593 0.239,-0.801 1.125,-1.047 1.457,-1.778 0.782,-1.855 0.391,-4.797 0.918,-6.875 0.735,-3.683 1.953,-7.453 1.66,-11.308 -0.515,-7.961 1.211,-16.223 1.836,-24.122 1.067,-11.933 1.407,-23.886 1.067,-35.82 -0.266,-6.191 -0.676,-12.363 -1.262,-18.476 -0.332,-3.118 -0.723,-6.231 -1.113,-9.329 -0.281,-1.941 -0.156,-7.761 -1.406,-9.148 -6.661,-7.305 -9.024,-16.934 -15.223,-24.113 -4.621,-5.36 -11.633,-9.578 -17.297,-14.121 -3.367,-2.762 -6.746,-5.586 -10.156,-8.348 -2.578,-2.16 -5.996,-3.898 -7.891,-6.797 -1.418,-2.051 -2.234,-4.707 -3.348,-7.031 -2.589,-5.52 -5.453,-10.949 -8.253,-16.457 -1.985,-3.789 -3.36,-7.82 -5.196,-11.641 -1.718,-3.359 -4.035,-6.14 -6.113,-9.246 -2.461,-3.691 -3.203,-8.086 -6.531,-11.387 -2.422,-2.48 -4.992,-5.429 -6.606,-7.656 -4.871,-6.269 -6.968,-8.703 -11.426,-15.246 -4.421,-6.648 -8.464,-14.461 -13.621,-19.965 -4.582,-4.859 -11.004,-8.769 -16.23,-13.07 -5.481,-4.488 -10.586,-7.5392 -16.172,-13.2774 -3.516,-7.1133 -2.715,-15.3711 -4.277,-22.9102 -0.664,-3.1914 -2.61,-5.5508 -2.61,-8.9531 0,-3.707 1.828,-7.9102 2.61,-11.9492 1.472,-7.6407 -0.352,-18.2891 6.062,-23.9102 7.5,-6.5391 19.824,-9.7773 29.278,-9.7773 15.8,1.4687 27.687,2.5976 43.847,3.7968 4.153,1.8711 3.149,10.1133 3,11.4805 -0.195,2.4805 -1.543,3.8711 0.11,6.3203 21.277,26.2422 38.601,56.4102 64.976,77.5198 3.664,-5.231 8.215,-10.028 12.539,-15.6995 3.918,-4.9297 7.754,-12.5312 12.61,-15.6914 5.695,-3.8164 11.933,-6.8789 19.89,-7.3281 8.742,4.6406 4.492,41.27 13.117,55.555 6.407,1.211 11.231,4.16 17.332,5.722 39.028,39.27 82.856,79.286 124.692,117.395 6.07,5.523 12.332,12.527 18.367,16.238 11.094,6.824 24.324,9.199 35.637,15.215 18.406,21.699 48.535,56.395 45.164,63.895"
         style="fill:#2c5ba7;fill-opacity:1;fill-rule:nonzero;stroke:none"
         id="path58" /><path
         d="M 94.3555,890.488 C 71.4844,854.039 53.6133,816.477 40.7305,779.09 c 15.2851,37.234 35.8515,74.23 62.2775,109.226 0.605,0.836 1.262,1.633 1.894,2.457 -3.547,-0.121 -7.0504,-0.195 -10.5465,-0.285"
         style="fill:#b6ca5f;fill-opacity:1;fill-rule:nonzero;stroke:none"
         id="path60" /><g
         id="g62"><g
           id="g64"
           clip-path="url(#clipPath68)"><g
             id="g70"
             clip-path="url(#clipPath74)"><path
               d="m 291,415 v 1 h 1 v 1 h 3 v 1 h 3 v 1 h 3 v 1 h 3 v 1 h 3 v 1 h 3 v 1 h 2 v 1 h 3 v 1 h 3 v 1 h 3 v 1 h 2 v 1 h 2 v 1 h 3 v 1 h 2 v 1 h 2 v 1 h 2 v 1 h 3 v 1 h 2 v 1 h 2 v 1 h 2 v 1 h 3 v 1 h 2 v 1 h 2 v 1 h 2 v 1 h 2 v 1 h 2 v 1 h 1 v 1 h 2 v 1 h 2 v 1 h 2 v 1 h 2 v 1 h 2 v 1 h 1 v 1 h 2 v 1 h 2 v 1 h 2 v 1 h 2 v 1 h 1 v 1 h 2 v 1 h 2 v 1 h 1 v 1 h 2 v 1 h 1 v 1 h 2 v 1 h 1 v 1 h 2 v 1 h 1 v 1 h 2 v 1 h 2 v 1 h 1 v 1 h 2 v 1 h 1 v 1 h 2 v 1 h 1 v 1 h 2 v 1 h 1 v 1 h 2 v 1 h 1 v 1 h 1 v 1 h 2 v 1 h 1 v 1 h 1 v 1 h 2 v 1 h 1 v 1 h 1 v 1 h 1 v 1 h 2 v 1 h 1 v 1 h 1 v 1 h 2 v 1 h 1 v 1 h 1 v 1 h 1 v 1 h 2 v 1 h 1 v 1 h 1 v 1 h 2 v 1 h 1 v 1 h 1 v 1 h 1 v 1 h 1 v 1 h 2 v 1 h 1 v 1 h 1 v 1 h 1 v 1 h 1 v 1 h 1 v 1 h 1 v 1 h 1 v 1 h 1 v 1 h 1 v 1 h 2 v 1 h 1 v 1 h 1 v 1 h 1 v 1 h 1 v 1 h 1 v 1 h 1 v 1 h 1 v 1 h 1 v 1 h 1 v 1 h 2 v 1 h 1 v 1 h 1 v 1 h 1 v 1 h 1 v 1 h 1 v 1 h 1 v 1 h 1 v 2 h 1 v 1 h 1 v 1 h 1 v 1 h 1 v 1 h 1 v 1 h 1 v 1 h 1 v 1 h 1 v 1 h 1 v 1 h 1 v 1 h 1 v 1 h 1 v 1 h 1 v 1 h 1 v 1 h 1 v 1 h 1 v 1 h 1 v 1 h 1 v 2 h 1 v 1 h 1 v 1 h 1 v 1 h 1 v 1 h 1 v 1 h 1 v 2 h 1 v 1 h 1 v 1 h 1 v 1 h 1 v 1 h 1 v 2 h 1 v 1 h 1 v 1 h 1 v 1 h 1 v 1 h 1 v 1 h 1 v 2 h 1 v 1 h 1 v 1 h 1 v 1 h 1 v 2 h 1 v 1 h 1 v 1 h 1 v 2 h 1 v 1 h 1 v 1 h 1 v 2 h 1 v 1 h 1 v 1 h 1 v 2 h 1 v 1 h 1 v 1 h 1 v 2 h 1 v 1 h 1 v 2 h 1 v 1 h 1 v 2 h 1 v 1 h 1 v 2 h 1 v 1 h 1 v 2 h 1 v 1 h 1 v 1 h 1 v 2 h 1 v 1 h 1 v 2 h 1 v 1 h 1 v 2 h 1 v 2 h 1 v 1 h 1 v 2 h 1 v 2 h 1 v 1 h 1 v 2 h 1 v 2 h 1 v 2 h 1 v 1 h 1 v 2 h 1 v 2 h 1 v 1 h 1 v 2 h 1 v 2 h 1 v 1 h 1 v 2 h 1 v 2 h 1 v 2 h 1 v 2 h 1 v 2 h 1 v 2 h 1 v 2 h 1 v 2 h 1 v 2 h 1 v 2 h 1 v 2 h 1 v 2 h 1 v 2 h 1 v 2 h 1 v 1 h 1 v 2 h 1 v 2 h 1 v 3 h 1 v 2 h 1 v 2 h 1 v 3 h 1 v 2 h 1 v 3 h 1 v 2 h 1 v 3 h 1 v 2 h 1 v 2 h 1 v 3 h 1 v 2 h 1 v 3 h 1 v 2 h 1 v 3 h 1 v 3 h 1 v 3 h 1 v 3 h 1 v 3 h 1 v 4 h 1 v 3 h 1 v 3 h 1 v 3 h 1 v 3 h 1 v 4 h 1 v 4 h 1 v 4 h 1 v 4 h 1 v 4 h 1 v 4 h 1 v 5 h 1 v 4 h 1 v 6 h 1 v 7 h 1 v 6 h 1 v 6 h 1 v 8 h 1 v 14 h 1 v 46 h -1 v 9 h -1 v 8 h -1 v 8 h -1 v 5 h -1 v 4 h -1 v 5 h -1 v 4 h -1 v 5 h -1 v 4 h -1 v 3 h -1 v 3 h -1 v 3 h -1 v 3 h -1 v 3 h -1 v 3 h -1 v 3 h -1 v 3 h -1 v 2 h -1 v 3 h -1 v 2 h -1 v 2 h -1 v 2 h -1 v 2 h -1 v 2 h -1 v 2 h -1 v 2 h -1 v 2 h -1 v 2 h -1 v 2 h -1 v 2 h -1 v 2 h -1 v 1 h -1 v 2 h -1 v 1 h -1 v 2 h -1 v 1 h -1 v 2 h -1 v 1 h -1 v 2 h -1 v 1 h -1 v 2 h -1 v 1 h -1 v 2 h -1 v 1 h -1 v 2 h -1 v 1 h -1 v 1 h -1 v 1 h -1 v 1 h -1 v 1 h -1 v 1 h -1 v 2 h -1 v 1 h -1 v 1 h -1 v 1 h -1 v 1 h -1 v 1 h -1 v 2 h -1 v 1 h -1 v 1 h -1 v 1 h -1 v 1 h -1 v 1 h -1 v 1 h -1 v 1 h -1 v 1 h -1 v 1 h -2 v 1 h -1 v 1 h -1 v 1 h -1 v 1 h -1 v 1 h -1 v 1 h -1 v 1 h -1 v 1 h -2 v 1 h -1 v 1 h -1 v 1 h -2 v 1 h -1 v 1 h -1 v 1 h -2 v 1 h -1 v 1 h -2 v 1 h -1 v 1 h -2 v 1 h -1 v 1 h -2 v 1 h -2 v 1 h -1 v 1 h -2 v 1 h -1 v 1 h -2 v 1 h -2 v 1 h -2 v 1 h -2 v 1 h -2 v 1 h -2 v 1 h -2 v 1 h -2 v 1 h -2 v 1 h -3 v 1 h -2 v 1 h -3 v 1 h -3 v 1 h -3 v 1 h -3 v 1 h -2 v 1 h -3 v 1 h -3 v 1 h -5 v 1 h -4 v 1 h -4 v 1 h -5 v 1 h -4 v 1 h -9 v 1 h -9 v 1 h -27 v 1 h -2 v -1 h -12 v -1 h -12 v -1 h -6 v -1 h -6 v -1 h -6 v -1 h -5 v -1 h -5 v -1 h -4 v -1 h -4 v -1 h -3 v -1 h -4 v -1 h -4 v -1 h -4 v -1 h -3 v -1 h -2 v -1 h -3 v -1 h -3 v -1 h -3 v -1 h -3 v -1 h -3 v -1 h -3 v -1 h -2 v -1 h -3 v -1 h -2 v -1 h -2 v -1 h -2 v -1 h -3 v -1 h -2 v -1 h -2 v -1 h -3 v -1 h -2 v -1 h -2 v -1 h -2 v -1 h -2 v -1 h -2 v -1 h -2 v -1 h -2 v -1 h -2 v -1 h -2 v -1 h -2 v -1 h -2 v -1 h -1 v -1 h -2 v -1 h -2 v -1 h -2 v -1 h -2 v -1 h -2 v -1 h -1 v -1 h -2 v -1 h -2 v -1 h -1 v -1 h -2 v -1 h -1 v -1 h -2 v -1 h -2 v -1 h -1 v -1 h -2 v -1 h -1 v -1 h -2 v -1 h -2 v -1 h -1 v -1 h -2 v -1 h -1 v -1 h -2 v -1 h -1 v -1 h -1 v -1 h -2 v -1 h -1 v -1 h -1 v -1 h -2 v -1 h -1 v -1 h -2 v -1 h -1 v -1 h -1 v -1 h -2 v -1 h -1 v -1 h -2 v -1 h -1 v -1 h -1 v -1 h -2 v -1 h -1 v -1 h -1 v -1 h -1 v -1 h -1 v -1 h -2 v -1 h -1 v -1 h -1 v -1 h -1 v -1 h -1 v -1 h -2 v -1 h -1 v -1 h -1 v -1 h -1 v -1 h -2 v -1 h -1 v -1 h -1 v -1 h -1 v -1 h -1 v -1 h -2 v -1 h -1 v -1 h -1 v -1 h -1 v -1 h -1 v -1 h -1 v -1 h -1 v -1 h -1 v -1 h -1 v -1 h -1 v -1 h -1 v -1 h -1 v -1 h -2 v -1 h -1 v -1 h -1 v -1 h -1 v -1 h -1 v -1 h -1 v -1 h -1 v -1 h -1 v -1 h -1 v -1 h -3 v -1 h -14 v -1 h -5 v 1 h 1 v 2 h 1 v 1 h 1 v 1 h 1 v 2 h 1 v 1 h 1 v 1 h 1 v 1 h 1 v 1 h 1 v 2 h 1 v 1 h 1 v 1 h 1 v 1 h 1 v 1 h 1 v 1 h 1 v 2 h 1 v 1 h 1 v 1 h 1 v 1 h 1 v 1 h 1 v 1 h 1 v 2 h 1 v 1 h 1 v 1 h 1 v 1 h 1 v 1 h 1 v 1 h 1 v 1 h 1 v 1 h 1 v 1 h 1 v 1 h 1 v 1 h 1 v 2 h 1 v 1 h 1 v 1 h 1 v 1 h 1 v 1 h 1 v 1 h 1 v 1 h 1 v 1 h 1 v 1 h 1 v 1 h 1 v 1 h 1 v 1 h 1 v 1 h 1 v 1 h 1 v 1 h 1 v 1 h 1 v 1 h 1 v 1 h 1 v 1 h 1 v 1 h 1 v 1 h 1 v 1 h 1 v 1 h 1 v 1 h 1 v 1 h 1 v 1 h 1 v 1 h 1 v 1 h 1 v 1 h 2 v 1 h 1 v 1 h 1 v 1 h 1 v 1 h 1 v 1 h 1 v 1 h 1 v 1 h 1 v 1 h 1 v 1 h 2 v 1 h 1 v 1 h 1 v 1 h 1 v 1 h 1 v 1 h 1 v 1 h 1 v 1 h 1 v 1 h 1 v 1 h 2 v 1 h 1 v 1 h 1 v 1 h 1 v 1 h 2 v 1 h 1 v 1 h 1 v 1 h 2 v 1 h 1 v 1 h 1 v 1 h 1 v 1 h 2 v 1 h 1 v 1 h 1 v 1 h 2 v 1 h 1 v 1 h 1 v 1 h 1 v 1 h 2 v 1 h 1 v 1 h 1 v 1 h 1 v 1 h 2 v 1 h 1 v 1 h 2 v 1 h 1 v 1 h 2 v 1 h 1 v 1 h 2 v 1 h 1 v 1 h 2 v 1 h 1 v 1 h 2 v 1 h 1 v 1 h 2 v 1 h 1 v 1 h 2 v 1 h 1 v 1 h 2 v 1 h 1 v 1 h 2 v 1 h 1 v 1 h 2 v 1 h 1 v 1 h 2 v 1 h 2 v 1 h 2 v 1 h 1 v 1 h 2 v 1 h 2 v 1 h 2 v 1 h 1 v 1 h 2 v 1 h 2 v 1 h 2 v 1 h 1 v 1 h 2 v 1 h 2 v 1 h 2 v 1 h 2 v 1 h 2 v 1 h 2 v 1 h 2 v 1 h 2 v 1 h 2 v 1 h 2 v 1 h 2 v 1 h 3 v 1 h 2 v 1 h 2 v 1 h 2 v 1 h 2 v 1 h 2 v 1 h 2 v 1 h 3 v 1 h 3 v 1 h 2 v 1 h 3 v 1 h 3 v 1 h 2 v 1 h 3 v 1 h 3 v 1 h 3 v 1 h 2 v 1 h 3 v 1 h 3 v 1 h 4 v 1 h 3 v 1 h 4 v 1 h 4 v 1 h 3 v 1 h 4 v 1 h 4 v 1 h 3 v 1 h 6 v 1 h 6 v 1 h 6 v 1 h 6 v 1 h 5 v 1 h 14 v 1 h 43 v -1 h 8 v -1 h 7 v -1 h 6 v -1 h 6 v -1 h 5 v -1 h 3 v -1 h 3 v -1 h 4 v -1 h 3 v -1 h 3 v -1 h 4 v -1 h 3 v -1 h 3 v -1 h 2 v -1 h 2 v -1 h 2 v -1 h 2 v -1 h 3 v -1 h 2 v -1 h 2 v -1 h 2 v -1 h 2 v -1 h 3 v -1 h 2 v -1 h 1 v -1 h 2 v -1 h 2 v -1 h 1 v -1 h 2 v -1 h 2 v -1 h 1 v -1 h 2 v -1 h 1 v -1 h 2 v -1 h 2 v -1 h 1 v -1 h 1 v -1 h 2 v -1 h 1 v -1 h 1 v -1 h 2 v -1 h 1 v -1 h 1 v -1 h 1 v -1 h 1 v -1 h 2 v -1 h 1 v -1 h 1 v -1 h 1 v -1 h 1 v -1 h 1 v -1 h 1 v -1 h 1 v -1 h 1 v -1 h 1 v -1 h 1 v -1 h 2 v -2 h 1 v -1 h 1 v -1 h 1 v -1 h 1 v -1 h 1 v -1 h 1 v -2 h 1 v -1 h 1 v -1 h 1 v -1 h 1 v -1 h 1 v -1 h 1 v -2 h 1 v -1 h 1 v -1 h 1 v -1 h 1 v -1 h 1 v -1 h 1 v -2 h 1 v -1 h 1 v -2 h 1 v -1 h 1 v -2 h 1 v -2 h 1 v -1 h 1 v -2 h 1 v -1 h 1 v -2 h 1 v -1 h 1 v -2 h 1 v -2 h 1 v -1 h 1 v -2 h 1 v -2 h 1 v -2 h 1 v -2 h 1 v -2 h 1 v -2 h 1 v -2 h 1 v -2 h 1 v -3 h 1 v -2 h 1 v -2 h 1 v -2 h 1 v -2 h 1 v -3 h 1 v -3 h 1 v -3 h 1 v -3 h 1 v -3 h 1 v -3 h 1 v -3 h 1 v -3 h 1 v -3 h 1 v -4 h 1 v -5 h 1 v -5 h 1 v -5 h 1 v -5 h 1 v -5 h 1 v -6 h 1 v -11 h 1 v -10 h 1 v -48 h -1 v -11 h -1 v -12 h -1 v -7 h -1 v -5 h -1 v -6 h -1 v -6 h -1 v -6 h -1 v -6 h -1 v -4 h -1 v -3 h -1 v -4 h -1 v -4 h -1 v -4 h -1 v -4 h -1 v -4 h -1 v -4 h -1 v -4 h -1 v -3 h -1 v -3 h -1 v -2 h -1 v -3 h -1 v -3 h -1 v -3 h -1 v -3 h -1 v -3 h -1 v -3 h -1 v -3 h -1 v -3 h -1 v -3 h -1 v -2 h -1 v -3 h -1 v -2 h -1 v -2 h -1 v -3 h -1 v -2 h -1 v -2 h -1 v -3 h -1 v -2 h -1 v -3 h -1 v -2 h -1 v -2 h -1 v -3 h -1 v -2 h -1 v -2 h -1 v -2 h -1 v -2 h -1 v -2 h -1 v -2 h -1 v -2 h -1 v -2 h -1 v -2 h -1 v -2 h -1 v -2 h -1 v -2 h -1 v -2 h -1 v -2 h -1 v -2 h -1 v -1 h -1 v -2 h -1 v -2 h -1 v -2 h -1 v -2 h -1 v -2 h -1 v -1 h -1 v -2 h -1 v -2 h -1 v -1 h -1 v -2 h -1 v -2 h -1 v -1 h -1 v -2 h -1 v -2 h -1 v -1 h -1 v -2 h -1 v -2 h -1 v -1 h -1 v -2 h -1 v -2 h -1 v -1 h -1 v -2 h -1 v -2 h -1 v -1 h -1 v -1 h -1 v -2 h -1 v -1 h -1 v -2 h -1 v -1 h -1 v -2 h -1 v -1 h -1 v -2 h -1 v -1 h -1 v -2 h -1 v -1 h -1 v -2 h -1 v -1 h -1 v -1 h -1 v -2 h -1 v -1 h -1 v -2 h -1 v -1 h -1 v -1 h -1 v -2 h -1 v -1 h -1 v -1 h -1 v -2 h -1 v -1 h -1 v -1 h -1 v -2 h -1 v -1 h -1 v -1 h -1 v -2 h -1 v -1 h -1 v -1 h -1 v -1 h -1 v -1 h -1 v -2 h -1 v -1 h -1 v -1 h -1 v -1 h -1 v -1 h -1 v -2 h -1 v -1 h -1 v -1 h -1 v -1 h -1 v -1 h -1 v -2 h -1 v -1 h -1 v -1 h -1 v -1 h -1 v -1 h -1 v -2 h -1 v -1 h -1 v -1 h -1 v -1 h -1 v -1 h -1 v -1 h -1 v -1 h -1 v -1 h -1 v -1 h -1 v -1 h -1 v -1 h -1 v -1 h -1 v -1 h -1 v -1 h -1 v -1 h -1 v -2 h -1 v -1 h -1 v -1 h -1 v -1 h -1 v -1 h -1 v -1 h -1 v -1 h -1 v -1 h -1 v -1 h -1 v -1 h -1 v -1 h -1 v -1 h -1 v -1 h -1 v -1 h -1 v -1 h -1 v -1 h -1 v -1 h -1 v -1 h -1 v -1 h -1 v -1 h -1 v -1 h -1 v -1 h -1 v -1 h -1 v -1 h -1 v -1 h -1 v -1 h -2 v -1 h -1 v -1 h -1 v -1 h -1 v -1 h -1 v -1 h -1 v -1 h -1 v -1 h -1 v -1 h -2 v -1 h -1 v -1 h -1 v -1 h -1 v -1 h -1 v -1 h -1 v -1 h -1 v -1 h -1 v -1 h -2 v -1 h -1 v -1 h -1 v -1 h -1 v -1 h -1 v -1 h -1 v -1 h -1 v -1 h -2 v -1 h -1 v -1 h -1 v -1 h -2 v -1 h -1 v -1 h -1 v -1 h -2 v -1 h -1 v -1 h -1 v -1 h -2 v -1 h -1 v -1 h -1 v -1 h -2 v -1 h -1 v -1 h -1 v -1 h -2 v -1 h -1 v -1 h -1 v -1 h -2 v -1 h -1 v -1 h -1 v -1 h -2 v -1 h -1 v -1 h -1 v -1 h -2 v -1 h -1 v -1 h -2 v -1 h -1 v -1 h -2 v -1 h -2 v -1 h -1 v -1 h -2 v -1 h -1 v -1 h -2 v -1 h -2 v -1 h -1 v -1 h -2 v -1 h -1 v -1 h -2 v -1 h -2 v -1 h -1 v -1 h -2 v -1 h -1 v -1 h -2 v -1 h -1 v -1 h -2 v -1 h -2 v -1 h -2 v -1 h -2 v -1 h -2 v -1 h -2 v -1 h -2 v -1 h -2 v -1 h -2 v -1 h -2 v -1 h -1 v -1 h -2 v -1 h -2 v -1 h -2 v -1 h -2 v -1 h -2 v -1 h -2 v -1 h -2 v -1 h -2 v -1 h -3 v -1 h -2 v -1 h -3 v -1 h -2 v -1 h -3 v -1 h -2 v -1 h -3 v -1 h -2 v -1 h -3 v -1 h -2 v -1 h -2 v -1 h -3 v -1 h -2 v -1 h -3 v -1 h -3 v -1 h -3 v -1 h -4 v -1 h -3 v -1 h -3 v -1 h -3 v -1 h -4 v -1 h -3 v -1 h -4 v -1 h -4 v -1"
               style="fill:url(#linearGradient104);fill-opacity:1;fill-rule:nonzero;stroke:none"
               id="path106" /></g></g></g></g></g></svg>
