<?xml version="1.0" encoding="UTF-8" standalone="no"?>
<svg
   xmlns:dc="http://purl.org/dc/elements/1.1/"
   xmlns:cc="http://creativecommons.org/ns#"
   xmlns:rdf="http://www.w3.org/1999/02/22-rdf-syntax-ns#"
   xmlns:svg="http://www.w3.org/2000/svg"
   xmlns="http://www.w3.org/2000/svg"
   xmlns:sodipodi="http://sodipodi.sourceforge.net/DTD/sodipodi-0.dtd"
   xmlns:inkscape="http://www.inkscape.org/namespaces/inkscape"
   version="1.1"
   id="svg2"
   xml:space="preserve"
   width="917.01331"
   height="577.67999"
   viewBox="0 0 917.01331 577.67999"
   sodipodi:docname="Mumbai_Indians_Logo.eps"><metadata
     id="metadata8"><rdf:RDF><cc:Work
         rdf:about=""><dc:format>image/svg+xml</dc:format><dc:type
           rdf:resource="http://purl.org/dc/dcmitype/StillImage" /></cc:Work></rdf:RDF></metadata><defs
     id="defs6"><clipPath
       clipPathUnits="userSpaceOnUse"
       id="clipPath22"><path
         d="m 974.52,1456.69 c 287.59,33.76 660.95,152.36 1036.93,395.75 0,0 -245.98,-37.9 -531.69,-27.97 -285.28,9.68 -609.393,66.95 -761.209,255.57 146.808,-86.14 415.229,-117.36 813.929,0.41 -34.93,7.69 -195.24,41.72 -322.23,147.63 -126.07,104.94 -218.57,280.3 -122.44,566.89 -5.47,-141.42 80.97,-274.16 344.35,-307.85 -13.74,46.74 -55.11,142.85 -22.92,296.18 32.23,152.18 137.86,359.07 414.08,627.88 -120.67,-150.97 -191.63,-324.41 -101.51,-458.21 42.79,87.87 104.94,207.31 252.55,357.26 145.64,148.05 375.84,325.81 753.12,531.47 -201.76,-131.52 -393.84,-303.38 -467.98,-487.7 124.12,110.55 264.99,225.02 480.24,339.4 213.51,113.28 500.19,227.5 917.46,339.21 -253.07,-88.97 -532.73,-227.23 -751.03,-418.73 162.79,80.5 356.34,166.74 606.2,226.92 249.06,60.15 554.64,95.42 943.07,75.89 -266.36,-14.82 -593.06,-82.27 -926.53,-236.77 126.29,21.92 340.79,53.86 583.6,33.51 243.19,-20.53 518,-94.03 766.53,-284.68 -207.21,95.57 -508.38,145.91 -896.62,84.98 38.71,-11.75 216.59,-61.16 372.51,-195.55 157.23,-135.9 294.26,-359.51 244.93,-724.73 -33.09,221.14 -182.2,423.32 -508.27,517.91 30.78,-46.02 73.44,-182.64 58.35,-363.13 -14.91,-182.66 -91.29,-412.05 -300.55,-640.13 -144.98,-162.88 -268.13,-206.16 -268.13,-206.16 0,0 84.08,93.84 149.93,241.48 65.84,146.33 113.86,344.44 46.35,554.32 -64.08,-367.69 -383.7,-669.93 -694.08,-876.01 -314.7,-209.29 -617,-318.02 -632.34,-298.1 0,0 129.95,90.78 279.83,228.34 148.39,136.64 300.83,273.51 380.82,457.49 -445.4,-451.69 -1135.39,-730.83 -1769.89,-764.43 -195.47,-10.44 -331.15,9.76 -367.36,11.66 z"
         id="path20" /></clipPath><linearGradient
       x1="0"
       y1="0"
       x2="1"
       y2="0"
       gradientUnits="userSpaceOnUse"
       gradientTransform="matrix(-3692.68,-3324.91,3324.91,-3692.68,3966.71,3705.26)"
       spreadMethod="pad"
       id="linearGradient34"><stop
         style="stop-opacity:1;stop-color:#254182"
         offset="0"
         id="stop24" /><stop
         style="stop-opacity:1;stop-color:#25478d"
         offset="0.1156"
         id="stop26" /><stop
         style="stop-opacity:1;stop-color:#2b5dac"
         offset="0.4913"
         id="stop28" /><stop
         style="stop-opacity:1;stop-color:#326dbe"
         offset="0.7996"
         id="stop30" /><stop
         style="stop-opacity:1;stop-color:#3674c3"
         offset="1"
         id="stop32" /></linearGradient><clipPath
       clipPathUnits="userSpaceOnUse"
       id="clipPath46"><path
         d="m 2819.94,2658.19 v 0 c -178.51,-98.74 -370.27,-103.62 -426.53,-10.51 -55.86,92.44 43.04,246.11 221.21,342.94 176.24,96.15 363.96,100.63 421.37,10.19 57.62,-91.12 -38.4,-244.81 -216.05,-342.62 z m 221.47,-117.03 v 0 0 z m 1336.93,579.62 c -114.61,197.86 -318.24,297.94 -553.82,328.39 -235.61,30.38 -504.52,-7.78 -750.11,-87.99 169.29,66.7 324.82,113.07 425.89,128.44 284.42,105.85 540.44,132.43 736.02,116.78 -273.91,60.67 -562.73,43.69 -832.19,-21.27 -270.47,-65.31 -522.81,-178.66 -721.51,-310.44 128.62,97.76 257.54,178.19 352.63,221.65 208.22,152.84 449.46,250.92 659.7,305.88 -335.02,-58.09 -627.13,-166.36 -862.91,-296.27 -237.81,-131.18 -419.09,-285.1 -527.08,-432.9 59.2,104.51 134.61,198.14 204.33,257.77 96.94,158.58 277.02,295.79 456.25,395.93 -321.95,-148.05 -557.96,-314.3 -710.36,-474.53 -153.72,-162.04 -223.2,-318.79 -211.29,-445.56 -29.3,83.57 -28.59,166.43 -1.36,228 -36.21,126.13 49.44,272.01 167.7,394.49 -249.51,-208.3 -378.48,-396.31 -408.95,-548.84 -30.71,-154.5 37.94,-271.45 181.27,-336.15 -121.52,32.44 -204.32,79.19 -231.71,125.62 -175.53,54.29 -212.36,174.53 -182.41,294.45 -233.7,-463.46 101.92,-658.25 599.74,-593.62 -185.83,-39.96 -339.87,-53.62 -423.54,-41.14 -208.02,-74.14 -464.73,-4.04 -551.01,78.95 84.65,-190.34 289.66,-271.03 543.35,-269.31 253.71,1.91 554.25,86.25 829.77,223.07 -186.55,-108.59 -364.31,-190.69 -482.65,-224.88 -77.72,-125.21 -611.14,-214.34 -819.64,-213.11 213.92,-45.03 500.42,-35.16 745.48,21.03 383.79,88.39 746.77,323.99 1028.44,591.97 0,0 0.76,0.83 1.71,2.07 -0.22,-0.75 -0.95,-1.24 -1.71,-2.07 -85.56,-126.44 -497.53,-446.22 -497.53,-446.22 -32.45,-126.03 -407.75,-299.42 -801.1,-484.54 443.37,110.39 921.05,309.69 1264.12,619.45 167.18,150.94 263.43,281.45 318.21,381.34 75.71,137.53 74.31,219.47 74.31,219.47 0,0 0,0.41 0.39,0.5 21.77,-162.22 -64.41,-321.77 -64.41,-321.77 -35.95,-403.84 -402.57,-653.87 -402.57,-653.87 83.14,48.09 186.12,118.58 186.12,118.58 318.79,260.95 483.7,500.96 535.59,698.73 51.16,195.64 -6.51,351.46 -135.39,447.07 114.32,-57.03 193.88,-126.97 217.85,-189.03 197.88,-113.95 240.61,-298.58 198.61,-483.4 143.46,301.24 120.94,516.58 5.97,656.62 -114.02,138.87 -321.08,205.65 -552.58,208.72 168.09,11.66 310.38,4.79 388.45,-18.29 293.36,13.05 489.4,-63.83 603.93,-169.77 v 0 z"
         id="path44" /></clipPath><radialGradient
       fx="0"
       fy="0"
       cx="0"
       cy="0"
       r="1"
       gradientUnits="userSpaceOnUse"
       gradientTransform="matrix(1818.13,0,0,1818.13,2785.98,2704.32)"
       spreadMethod="pad"
       id="radialGradient56"><stop
         style="stop-opacity:1;stop-color:#fcc91f"
         offset="0"
         id="stop48" /><stop
         style="stop-opacity:1;stop-color:#fcc91f"
         offset="0.35"
         id="stop50" /><stop
         style="stop-opacity:1;stop-color:#ec1b30"
         offset="0.74"
         id="stop52" /><stop
         style="stop-opacity:1;stop-color:#ec1b30"
         offset="1"
         id="stop54" /></radialGradient><clipPath
       clipPathUnits="userSpaceOnUse"
       id="clipPath76"><path
         d="m 4175.91,1363.18 c -82.14,0 -150.33,22.6 -191.98,64.54 -39.87,39.74 -53.25,93.36 -37.39,151.88 l 83.72,309.02 h 117.41 l -76.53,-282.71 c -13.92,-51.71 -5.01,-96.84 25.25,-126.77 24.13,-24.26 60.45,-37 104.61,-37 100.6,0 188.34,65.13 213.54,158.33 l 78.48,288.15 h 117 l -82.07,-303.4 c -34.44,-126.79 -185.68,-222.04 -352.04,-222.04 v 0 z"
         id="path74" /></clipPath><linearGradient
       x1="0"
       y1="0"
       x2="1"
       y2="0"
       gradientUnits="userSpaceOnUse"
       gradientTransform="matrix(-2.75408,526.192,-526.192,-2.75408,4276.84,1363.69)"
       spreadMethod="pad"
       id="linearGradient88"><stop
         style="stop-opacity:1;stop-color:#253c79"
         offset="0"
         id="stop78" /><stop
         style="stop-opacity:1;stop-color:#254181"
         offset="0.1838"
         id="stop80" /><stop
         style="stop-opacity:1;stop-color:#244c94"
         offset="0.4834"
         id="stop82" /><stop
         style="stop-opacity:1;stop-color:#2c5eb1"
         offset="0.8594"
         id="stop84" /><stop
         style="stop-opacity:1;stop-color:#3268bb"
         offset="1"
         id="stop86" /></linearGradient><clipPath
       clipPathUnits="userSpaceOnUse"
       id="clipPath98"><path
         d="m 5986.25,1548.89 h 204.51 l -47.08,202.1 z m 244.02,-173.31 -23.55,99.16 h -278.01 l -77.26,-99.16 h -120.92 l 335.19,410.42 85.31,104.34 h 147.53 l -36.68,-44.53 -0.71,-1.23 c -9.67,-14.58 -14.01,-30.62 -11.84,-46.92 l 0.09,-1.99 107.75,-420.09 h -126.9 z"
         id="path96" /></clipPath><linearGradient
       x1="0"
       y1="0"
       x2="1"
       y2="0"
       gradientUnits="userSpaceOnUse"
       gradientTransform="matrix(-2.70039,515.83,-515.83,-2.70039,6043.85,1373.93)"
       spreadMethod="pad"
       id="linearGradient110"><stop
         style="stop-opacity:1;stop-color:#253c79"
         offset="0"
         id="stop100" /><stop
         style="stop-opacity:1;stop-color:#254181"
         offset="0.1838"
         id="stop102" /><stop
         style="stop-opacity:1;stop-color:#244c94"
         offset="0.4834"
         id="stop104" /><stop
         style="stop-opacity:1;stop-color:#2c5eb1"
         offset="0.8594"
         id="stop106" /><stop
         style="stop-opacity:1;stop-color:#3268bb"
         offset="1"
         id="stop108" /></linearGradient><clipPath
       clipPathUnits="userSpaceOnUse"
       id="clipPath124"><path
         d="m 5351.91,1677.24 h 219.54 c 56.63,0 90.36,31.79 98.99,63.58 5.29,18.94 1.08,37.72 -11.91,50.31 -11.8,11.93 -30.23,17.89 -54.8,17.89 h -215.95 z m -60.69,-224.27 h 243.5 c 54.72,0 102.38,29.13 113.16,69.42 5.64,20.87 0.87,40.15 -13.29,54.46 -13.93,13.84 -36.28,21.61 -64.17,21.61 h -239.74 z m -138.92,-79.02 139.75,514.82 h 350.29 c 57.25,0 103.64,-14.81 130.64,-41.97 22.88,-22.74 29.36,-53.13 19.16,-90.52 -9.03,-33.1 -33.08,-62.81 -67.56,-83.16 l -40.47,-24.09 40.47,-23.36 c 38.91,-22.58 52.89,-58.17 40.74,-102.85 -23.86,-87.89 -123.44,-148.87 -242.35,-148.87 H 5152.3 Z"
         id="path122" /></clipPath><linearGradient
       x1="0"
       y1="0"
       x2="1"
       y2="0"
       gradientUnits="userSpaceOnUse"
       gradientTransform="matrix(-2.7029,516.026,-516.026,-2.7029,5475.65,1373.68)"
       spreadMethod="pad"
       id="linearGradient136"><stop
         style="stop-opacity:1;stop-color:#253c79"
         offset="0"
         id="stop126" /><stop
         style="stop-opacity:1;stop-color:#254181"
         offset="0.1838"
         id="stop128" /><stop
         style="stop-opacity:1;stop-color:#244c94"
         offset="0.4834"
         id="stop130" /><stop
         style="stop-opacity:1;stop-color:#2c5eb1"
         offset="0.8594"
         id="stop132" /><stop
         style="stop-opacity:1;stop-color:#3268bb"
         offset="1"
         id="stop134" /></linearGradient><clipPath
       clipPathUnits="userSpaceOnUse"
       id="clipPath148"><path
         d="m 6529.73,1393.71 c 0,0.59 0.41,3.48 0.85,6.7 l 130.8,490.59 -114.42,-0.41 -144.39,-514.34 h 4.64 l 116.32,0.68 0.65,0.24 h 0.09 16.3 c -10.43,4.95 -10.84,9.58 -10.84,16.54 z"
         id="path146" /></clipPath><linearGradient
       x1="0"
       y1="0"
       x2="1"
       y2="0"
       gradientUnits="userSpaceOnUse"
       gradientTransform="matrix(-2.67071,513.594,-513.594,-2.67071,6533.32,1376.91)"
       spreadMethod="pad"
       id="linearGradient160"><stop
         style="stop-opacity:1;stop-color:#253c79"
         offset="0"
         id="stop150" /><stop
         style="stop-opacity:1;stop-color:#254181"
         offset="0.1838"
         id="stop152" /><stop
         style="stop-opacity:1;stop-color:#244c94"
         offset="0.4834"
         id="stop154" /><stop
         style="stop-opacity:1;stop-color:#2c5eb1"
         offset="0.8594"
         id="stop156" /><stop
         style="stop-opacity:1;stop-color:#3268bb"
         offset="1"
         id="stop158" /></linearGradient><clipPath
       clipPathUnits="userSpaceOnUse"
       id="clipPath170"><path
         d="m 5108.37,1389.17 c 0,0.16 0.2,3.07 0.49,6.05 l 18.03,67.17 115.5,426.38 h -10.26 l -338.95,-225.86 -216.31,225.86 h -13.96 l -139.93,-514.82 h 117.36 l 88.34,325.13 132.07,-142.1 213.87,145.33 -88.9,-329.55 117.6,0.83 14.82,0.18 c -9.57,4.63 -9.77,8.78 -9.77,15.4 z"
         id="path168" /></clipPath><linearGradient
       x1="0"
       y1="0"
       x2="1"
       y2="0"
       gradientUnits="userSpaceOnUse"
       gradientTransform="matrix(-2.71063,517.692,-517.692,-2.71063,4884.05,1372.23)"
       spreadMethod="pad"
       id="linearGradient182"><stop
         style="stop-opacity:1;stop-color:#253c79"
         offset="0"
         id="stop172" /><stop
         style="stop-opacity:1;stop-color:#254181"
         offset="0.1838"
         id="stop174" /><stop
         style="stop-opacity:1;stop-color:#244c94"
         offset="0.4834"
         id="stop176" /><stop
         style="stop-opacity:1;stop-color:#2c5eb1"
         offset="0.8594"
         id="stop178" /><stop
         style="stop-opacity:1;stop-color:#3268bb"
         offset="1"
         id="stop180" /></linearGradient><clipPath
       clipPathUnits="userSpaceOnUse"
       id="clipPath192"><path
         d="m 3850.36,1389.17 c 0,0.25 0,0.83 0.22,1.57 l 142.09,513.84 -356.4,-241.67 -227.58,237.38 L 3266,1373.95 h 117.57 l 88.17,325.13 132.08,-142.1 213.74,145.33 -88.95,-328.38 h 5.48 v 0 h 1.51 67.71 41.27 0.81 v 0 h 14.82 c -9.63,4.74 -9.85,8.94 -9.85,15.24 z"
         id="path190" /></clipPath><linearGradient
       x1="0"
       y1="0"
       x2="1"
       y2="0"
       gradientUnits="userSpaceOnUse"
       gradientTransform="matrix(-2.77366,529.946,-529.946,-2.77366,3630.73,1372.73)"
       spreadMethod="pad"
       id="linearGradient204"><stop
         style="stop-opacity:1;stop-color:#253c79"
         offset="0"
         id="stop194" /><stop
         style="stop-opacity:1;stop-color:#254181"
         offset="0.1838"
         id="stop196" /><stop
         style="stop-opacity:1;stop-color:#244c94"
         offset="0.4834"
         id="stop198" /><stop
         style="stop-opacity:1;stop-color:#2c5eb1"
         offset="0.8594"
         id="stop200" /><stop
         style="stop-opacity:1;stop-color:#3268bb"
         offset="1"
         id="stop202" /></linearGradient><clipPath
       clipPathUnits="userSpaceOnUse"
       id="clipPath222"><path
         d="m 462.734,150.781 c -21.39,7.188 -21.839,20.168 -21.839,33.848 0,0.652 0.664,6.359 1.644,12.73 L 701.66,1174.41 H 478.59 L 193.27,150.781 Z"
         id="path220" /></clipPath><linearGradient
       x1="0"
       y1="0"
       x2="1"
       y2="0"
       gradientUnits="userSpaceOnUse"
       gradientTransform="matrix(-5.32231,1023.51,-1023.51,-5.32231,450.127,150.72)"
       spreadMethod="pad"
       id="linearGradient234"><stop
         style="stop-opacity:1;stop-color:#253c79"
         offset="0"
         id="stop224" /><stop
         style="stop-opacity:1;stop-color:#254181"
         offset="0.1838"
         id="stop226" /><stop
         style="stop-opacity:1;stop-color:#244c94"
         offset="0.4834"
         id="stop228" /><stop
         style="stop-opacity:1;stop-color:#2c5eb1"
         offset="0.8594"
         id="stop230" /><stop
         style="stop-opacity:1;stop-color:#3268bb"
         offset="1"
         id="stop232" /></linearGradient><clipPath
       clipPathUnits="userSpaceOnUse"
       id="clipPath252"><path
         d="m 3627.37,487.68 357.47,1.992 -84.11,352.539 z m 432.73,-322 -43.4,180.14 -500.28,-2.379 -139.33,-181.261 -231.36,-1.231 611.25,757.383 155.63,192.078 279.52,1.49 -71.82,-88.71 -1.03,-1.82 c -17.13,-25.581 -24.02,-54.05 -20.6,-82.511 l 0.54,-2.98 201.18,-769.059 -240.3,-1.14 z"
         id="path250" /></clipPath><linearGradient
       x1="0"
       y1="0"
       x2="1"
       y2="0"
       gradientUnits="userSpaceOnUse"
       gradientTransform="matrix(-4.91723,945.613,-945.613,-4.91723,3723.06,163.82)"
       spreadMethod="pad"
       id="linearGradient264"><stop
         style="stop-opacity:1;stop-color:#253c79"
         offset="0"
         id="stop254" /><stop
         style="stop-opacity:1;stop-color:#254181"
         offset="0.1838"
         id="stop256" /><stop
         style="stop-opacity:1;stop-color:#244c94"
         offset="0.4834"
         id="stop258" /><stop
         style="stop-opacity:1;stop-color:#2c5eb1"
         offset="0.8594"
         id="stop260" /><stop
         style="stop-opacity:1;stop-color:#3268bb"
         offset="1"
         id="stop262" /></linearGradient><clipPath
       clipPathUnits="userSpaceOnUse"
       id="clipPath274"><path
         d="m 1854.07,307.02 284.93,1.492 c 242.16,1.226 453.44,135.308 502.44,318.687 23.79,89.551 3.18,171.391 -57.2,230.883 -60.9,60.18 -157.61,91.809 -279.05,91.059 L 2024.32,947.66 1854.07,307.02 Z m -263.75,-154.258 251.63,947.008 508.14,2.63 c 241.08,1.24 369.49,-75.41 434.76,-139.869 86.09,-84.902 115.08,-200.851 81.47,-326.312 -72.29,-272.348 -404.13,-479.008 -772.25,-481 z"
         id="path272" /></clipPath><linearGradient
       x1="0"
       y1="0"
       x2="1"
       y2="0"
       gradientUnits="userSpaceOnUse"
       gradientTransform="matrix(-4.91838,945.833,-945.833,-4.91838,2236.65,155.96)"
       spreadMethod="pad"
       id="linearGradient286"><stop
         style="stop-opacity:1;stop-color:#253c79"
         offset="0"
         id="stop276" /><stop
         style="stop-opacity:1;stop-color:#254181"
         offset="0.1838"
         id="stop278" /><stop
         style="stop-opacity:1;stop-color:#244c94"
         offset="0.4834"
         id="stop280" /><stop
         style="stop-opacity:1;stop-color:#2c5eb1"
         offset="0.8594"
         id="stop282" /><stop
         style="stop-opacity:1;stop-color:#3268bb"
         offset="1"
         id="stop284" /></linearGradient><clipPath
       clipPathUnits="userSpaceOnUse"
       id="clipPath296"><path
         d="m 3070.02,193.469 c 0,1.48 3.71,28.39 3.99,30.972 2.03,15.707 9.48,46.188 12.24,58.09 l 219.31,824.909 -223.36,-1.23 -227.47,-856.62 -24.09,-90.391 v 0 l 223.25,1.082 h 3.83 l 0.09,0.27 33.23,0.148 c -20.25,10.02 -21.02,19.121 -21.02,32.77 z"
         id="path294" /></clipPath><linearGradient
       x1="0"
       y1="0"
       x2="1"
       y2="0"
       gradientUnits="userSpaceOnUse"
       gradientTransform="matrix(-4.91847,945.851,-945.851,-4.91847,3070.56,160.34)"
       spreadMethod="pad"
       id="linearGradient308"><stop
         style="stop-opacity:1;stop-color:#253c79"
         offset="0"
         id="stop298" /><stop
         style="stop-opacity:1;stop-color:#254181"
         offset="0.1838"
         id="stop300" /><stop
         style="stop-opacity:1;stop-color:#244c94"
         offset="0.4834"
         id="stop302" /><stop
         style="stop-opacity:1;stop-color:#2c5eb1"
         offset="0.8594"
         id="stop304" /><stop
         style="stop-opacity:1;stop-color:#3268bb"
         offset="1"
         id="stop306" /></linearGradient><clipPath
       clipPathUnits="userSpaceOnUse"
       id="clipPath318"><path
         d="M 5401.13,1117.65 5296.79,725.289 v 0 l -0.18,-1.828 -21.85,-81.852 -1.25,-2.14 -17.96,-66.867 c -9,-21.59 -25.56,-17.711 -34.63,-13.512 l -56.75,55.711 c -0.5,0.668 -1.48,1.258 -2.15,1.648 l -1.84,1.36 -100.88,100.589 -5.31,5.411 v 0 l -417.74,415.111 -258.66,-972.49 227.17,1.332 v 0 l 33.07,0.148 c -20.2,10.031 -20.77,19.059 -20.91,32.531 0,1.739 3.69,28.551 3.98,31.278 2.85,19.793 13.62,63.07 13.62,63.07 l 70.74,265.723 H 4705 l 12.93,48.258 11.11,41.472 0.41,0.567 17.04,62.55 c 8.6,21.532 25.58,17.563 34.6,13.52 l 52.18,-51.75 1.19,-0.738 46.49,-46.25 67.09,-65.879 h -0.68 l 402.85,-400.551 h 19.88 l 241.79,906.529 c 4.35,18.11 11.01,34.92 19.71,50.49 l -230.46,-1.08 z"
         id="path316" /></clipPath><linearGradient
       x1="0"
       y1="0"
       x2="1"
       y2="0"
       gradientUnits="userSpaceOnUse"
       gradientTransform="matrix(-5.10122,980.996,-980.996,-5.10122,5007.1,159.83)"
       spreadMethod="pad"
       id="linearGradient330"><stop
         style="stop-opacity:1;stop-color:#253c79"
         offset="0"
         id="stop320" /><stop
         style="stop-opacity:1;stop-color:#254181"
         offset="0.1838"
         id="stop322" /><stop
         style="stop-opacity:1;stop-color:#244c94"
         offset="0.4834"
         id="stop324" /><stop
         style="stop-opacity:1;stop-color:#2c5eb1"
         offset="0.8594"
         id="stop326" /><stop
         style="stop-opacity:1;stop-color:#3268bb"
         offset="1"
         id="stop328" /></linearGradient><clipPath
       clipPathUnits="userSpaceOnUse"
       id="clipPath340"><path
         d="m 6428.76,657.172 c 29.64,-43.953 50.16,-99.953 50.16,-161.621 0,-182.071 -163.39,-316.949 -315.27,-326.871 l -113.28,-7.481 c -39.67,-1.969 -68.64,-1.969 -74.44,-1.969 0,0 -51.97,-1.75 -112.14,1.719 -399.18,21.02 -435.72,-3.219 -435.72,-3.219 -1.91,12.989 0.99,30.469 3.36,42.04 1.48,8.621 4.12,19.019 8.15,30.472 26.28,71.906 89.95,121.067 168.81,121.559 l 451.38,-10.922 c 46.2,0.332 186.65,1.75 222.44,101.633 14.09,38.898 0.86,66.547 -8.23,79.199 -24.81,35.168 -74.94,48.91 -162.81,48.668 l -91.79,0.902 c -68.38,2.239 -163.78,20.278 -222.39,44.028 -40.2,16.461 -62.46,35.082 -62.46,35.082 -73.45,54.461 -85.29,120.089 -81.77,159.961 1.12,37.168 13.12,335.098 476.77,350.968 0,0 49.22,2.99 72.67,2.99 l 148.17,-1.42 c 47.16,-2.3 122.19,-2.3 171.43,-4.35 33.68,-0.29 60.32,0 94.17,-0.29 34.61,1.09 75.99,1.09 119.38,9.28 0,0 -0.94,-48.89 -10.67,-76.95 -26.23,-72.67 -75.62,-107.271 -154.96,-107.99 l -466.37,-1.668 c -46.45,-0.75 -194.88,-5.031 -223.72,-100.383 l -0.67,-2.059 c -8.81,-26.98 -5.25,-53.531 10.09,-74.398 24.94,-34.434 75.49,-49.172 164.07,-48.91 l 154.32,0.976 c 0,0 149.73,7.774 221.32,-98.976 z"
         id="path338" /></clipPath><linearGradient
       x1="0"
       y1="0"
       x2="1"
       y2="0"
       gradientUnits="userSpaceOnUse"
       gradientTransform="matrix(-5.26133,1004.58,-1004.58,-5.26133,6084.06,159.51)"
       spreadMethod="pad"
       id="linearGradient346"><stop
         style="stop-opacity:1;stop-color:#254182"
         offset="0"
         id="stop342" /><stop
         style="stop-opacity:1;stop-color:#3674c3"
         offset="1"
         id="stop344" /></linearGradient><clipPath
       clipPathUnits="userSpaceOnUse"
       id="clipPath366"><path
         d="M 1532.98,1097.28 1429.04,705.09 v 0 l -0.5,-1.828 -21.82,-82.09 -1.03,-1.82 -18.21,-67.133 c -8.86,-21.418 -25.7,-17.617 -34.59,-13.508 l -56.7,55.891 c -0.66,0.589 -1.57,1.078 -2.06,1.82 l -2.04,1.25 -100.92,100.539 -5.29,5.309 v 0 L 768.254,1118.64 510.746,150.27 h 254.442 c -15.555,8.96 -16.102,17.64 -16.266,30.199 0,1.48 3.73,28.39 3.961,31.062 2.621,19.77 13.527,62.969 13.527,62.969 l 70.934,265.75 h -0.465 l 13.086,48.141 11.094,41.711 0.386,0.648 16.953,62.25 c 8.825,21.691 25.618,17.719 34.516,13.719 l 52.422,-51.688 1.035,-0.769 46.719,-46.512 66.91,-65.809 h -0.7 L 1473.27,150.25 h 31.03 l 239.57,897.94 c 4.28,18.03 10.92,35 19.79,50.32 l -230.68,-1.23 z"
         id="path364" /></clipPath><linearGradient
       x1="0"
       y1="0"
       x2="1"
       y2="0"
       gradientUnits="userSpaceOnUse"
       gradientTransform="matrix(-5.0904,972.215,-972.215,-5.0904,1139.69,148.33)"
       spreadMethod="pad"
       id="linearGradient378"><stop
         style="stop-opacity:1;stop-color:#253c79"
         offset="0"
         id="stop368" /><stop
         style="stop-opacity:1;stop-color:#254181"
         offset="0.1838"
         id="stop370" /><stop
         style="stop-opacity:1;stop-color:#244c94"
         offset="0.4834"
         id="stop372" /><stop
         style="stop-opacity:1;stop-color:#2c5eb1"
         offset="0.8594"
         id="stop374" /><stop
         style="stop-opacity:1;stop-color:#3268bb"
         offset="1"
         id="stop376" /></linearGradient></defs><sodipodi:namedview
     pagecolor="#ffffff"
     bordercolor="#666666"
     borderopacity="1"
     objecttolerance="10"
     gridtolerance="10"
     guidetolerance="10"
     inkscape:pageopacity="0"
     inkscape:pageshadow="2"
     inkscape:window-width="640"
     inkscape:window-height="480"
     id="namedview4" /><g
     id="g10"
     inkscape:groupmode="layer"
     inkscape:label="ink_ext_XXXXXX"
     transform="matrix(1.3333333,0,0,-1.3333333,0,577.68)"><g
       id="g12"
       transform="scale(0.1)"><path
         d="m 4726.06,2001.57 c 611.45,409.41 959.5,930.1 855.6,1395.48 -175.85,786.26 -1553.95,1148 -3078.14,807.38 C 979.109,3863.95 -113.738,2950.05 62.0352,2163.52 181.301,1629.66 854.352,1291.83 1751.58,1236.46 l -118.8,1.82 h -199.44 l -124.39,-462.3 -445.52,440.95 24.148,101.61 -523.48,-0.25 L 0,10.5898 H 850.508 L 959.613,466.441 1419.41,0.492188 h 617.21 c 0,0 426.8,-19.523488 669.22,187.429812 L 2655.65,17.7813 h 798.68 l 138.14,187.3597 h 314.13 l 45.71,-180.8207 h 751.83 l 122.32,466.4177 473.8,-469.5583 768.15,-1.168 126.88,5.3789 c 232.14,18.0391 423.42,204.0784 423.42,437.8004 0,0 22.86,259.778 -200.46,377.629 l 156.97,-0.488 c 0,0 159.33,4.137 228.84,101.039 34.81,48.649 68.52,118.339 69.44,193.809 l 4.05,83.02 -2.81,87.9 H 6623.5 l 185.64,699.36 H 4784.03 l -57.97,-3.89 v 0"
         style="fill:#ffffff;fill-opacity:1;fill-rule:nonzero;stroke:none"
         id="path14" /><g
         id="g16"><g
           id="g18"
           clip-path="url(#clipPath22)"><path
             d="m 974.52,1456.69 c 287.59,33.76 660.95,152.36 1036.93,395.75 0,0 -245.98,-37.9 -531.69,-27.97 -285.28,9.68 -609.393,66.95 -761.209,255.57 146.808,-86.14 415.229,-117.36 813.929,0.41 -34.93,7.69 -195.24,41.72 -322.23,147.63 -126.07,104.94 -218.57,280.3 -122.44,566.89 -5.47,-141.42 80.97,-274.16 344.35,-307.85 -13.74,46.74 -55.11,142.85 -22.92,296.18 32.23,152.18 137.86,359.07 414.08,627.88 -120.67,-150.97 -191.63,-324.41 -101.51,-458.21 42.79,87.87 104.94,207.31 252.55,357.26 145.64,148.05 375.84,325.81 753.12,531.47 -201.76,-131.52 -393.84,-303.38 -467.98,-487.7 124.12,110.55 264.99,225.02 480.24,339.4 213.51,113.28 500.19,227.5 917.46,339.21 -253.07,-88.97 -532.73,-227.23 -751.03,-418.73 162.79,80.5 356.34,166.74 606.2,226.92 249.06,60.15 554.64,95.42 943.07,75.89 -266.36,-14.82 -593.06,-82.27 -926.53,-236.77 126.29,21.92 340.79,53.86 583.6,33.51 243.19,-20.53 518,-94.03 766.53,-284.68 -207.21,95.57 -508.38,145.91 -896.62,84.98 38.71,-11.75 216.59,-61.16 372.51,-195.55 157.23,-135.9 294.26,-359.51 244.93,-724.73 -33.09,221.14 -182.2,423.32 -508.27,517.91 30.78,-46.02 73.44,-182.64 58.35,-363.13 -14.91,-182.66 -91.29,-412.05 -300.55,-640.13 -144.98,-162.88 -268.13,-206.16 -268.13,-206.16 0,0 84.08,93.84 149.93,241.48 65.84,146.33 113.86,344.44 46.35,554.32 -64.08,-367.69 -383.7,-669.93 -694.08,-876.01 -314.7,-209.29 -617,-318.02 -632.34,-298.1 0,0 129.95,90.78 279.83,228.34 148.39,136.64 300.83,273.51 380.82,457.49 -445.4,-451.69 -1135.39,-730.83 -1769.89,-764.43 -195.47,-10.44 -331.15,9.76 -367.36,11.66 v 0"
             style="fill:url(#linearGradient34);fill-opacity:1;fill-rule:nonzero;stroke:none"
             id="path36" /></g></g><path
         d="m 3070.37,2968.43 c -57.68,93.02 -245.97,88.64 -421.98,-10.43 -177.76,-99.31 -276.33,-257.3 -220.55,-351.98 56.66,-95.91 248.28,-90.86 426.91,10.76 177.46,100.48 272.54,258.39 215.62,351.65"
         style="fill:#ffffff;fill-opacity:1;fill-rule:nonzero;stroke:none"
         id="path38" /><g
         id="g40"><g
           id="g42"
           clip-path="url(#clipPath46)"><path
             d="m 2819.94,2658.19 v 0 c -178.51,-98.74 -370.27,-103.62 -426.53,-10.51 -55.86,92.44 43.04,246.11 221.21,342.94 176.24,96.15 363.96,100.63 421.37,10.19 57.62,-91.12 -38.4,-244.81 -216.05,-342.62 z m 221.47,-117.03 v 0 0 z m 1336.93,579.62 c -114.61,197.86 -318.24,297.94 -553.82,328.39 -235.61,30.38 -504.52,-7.78 -750.11,-87.99 169.29,66.7 324.82,113.07 425.89,128.44 284.42,105.85 540.44,132.43 736.02,116.78 -273.91,60.67 -562.73,43.69 -832.19,-21.27 -270.47,-65.31 -522.81,-178.66 -721.51,-310.44 128.62,97.76 257.54,178.19 352.63,221.65 208.22,152.84 449.46,250.92 659.7,305.88 -335.02,-58.09 -627.13,-166.36 -862.91,-296.27 -237.81,-131.18 -419.09,-285.1 -527.08,-432.9 59.2,104.51 134.61,198.14 204.33,257.77 96.94,158.58 277.02,295.79 456.25,395.93 -321.95,-148.05 -557.96,-314.3 -710.36,-474.53 -153.72,-162.04 -223.2,-318.79 -211.29,-445.56 -29.3,83.57 -28.59,166.43 -1.36,228 -36.21,126.13 49.44,272.01 167.7,394.49 -249.51,-208.3 -378.48,-396.31 -408.95,-548.84 -30.71,-154.5 37.94,-271.45 181.27,-336.15 -121.52,32.44 -204.32,79.19 -231.71,125.62 -175.53,54.29 -212.36,174.53 -182.41,294.45 -233.7,-463.46 101.92,-658.25 599.74,-593.62 -185.83,-39.96 -339.87,-53.62 -423.54,-41.14 -208.02,-74.14 -464.73,-4.04 -551.01,78.95 84.65,-190.34 289.66,-271.03 543.35,-269.31 253.71,1.91 554.25,86.25 829.77,223.07 -186.55,-108.59 -364.31,-190.69 -482.65,-224.88 -77.72,-125.21 -611.14,-214.34 -819.64,-213.11 213.92,-45.03 500.42,-35.16 745.48,21.03 383.79,88.39 746.77,323.99 1028.44,591.97 0,0 0.76,0.83 1.71,2.07 -0.22,-0.75 -0.95,-1.24 -1.71,-2.07 -85.56,-126.44 -497.53,-446.22 -497.53,-446.22 -32.45,-126.03 -407.75,-299.42 -801.1,-484.54 443.37,110.39 921.05,309.69 1264.12,619.45 167.18,150.94 263.43,281.45 318.21,381.34 75.71,137.53 74.31,219.47 74.31,219.47 0,0 0,0.41 0.39,0.5 21.77,-162.22 -64.41,-321.77 -64.41,-321.77 -35.95,-403.84 -402.57,-653.87 -402.57,-653.87 83.14,48.09 186.12,118.58 186.12,118.58 318.79,260.95 483.7,500.96 535.59,698.73 51.16,195.64 -6.51,351.46 -135.39,447.07 114.32,-57.03 193.88,-126.97 217.85,-189.03 197.88,-113.95 240.61,-298.58 198.61,-483.4 143.46,301.24 120.94,516.58 5.97,656.62 -114.02,138.87 -321.08,205.65 -552.58,208.72 168.09,11.66 310.38,4.79 388.45,-18.29 293.36,13.05 489.4,-63.83 603.93,-169.77 v 0 0"
             style="fill:url(#radialGradient56);fill-opacity:1;fill-rule:nonzero;stroke:none"
             id="path58" /></g></g><path
         d="m 4435.44,3391.5 c 661.31,-176.11 714.84,-905.21 -173.59,-1292.18 737.09,430.77 554.5,1064.11 171.85,1288.7 l 1.74,3.48 v 0"
         style="fill:#f68724;fill-opacity:1;fill-rule:nonzero;stroke:none"
         id="path60" /><path
         d="m 4346.66,1995.03 c 1043.57,368.03 1365.69,1851.72 15.35,1801.33 778.56,250.9 1160.13,-212.22 1038.76,-758.26 -62.96,-283.67 -243.62,-532.36 -463.08,-716.66 -176.91,-148.47 -383.63,-260.02 -591.03,-326.41"
         style="fill:#30ab57;fill-opacity:1;fill-rule:nonzero;stroke:none"
         id="path62" /><path
         d="M 1223.66,2110.58 C 463.777,2233.79 557.996,3079.5 1535.62,3383.46 675.18,2973.06 756.363,2224.01 1225.61,2114.05 l -1.95,-3.47 v 0"
         style="fill:#30ab57;fill-opacity:1;fill-rule:nonzero;stroke:none"
         id="path64" /><path
         d="M 1436.46,3523.99 C 359.215,3271.66 -164.684,1806.18 1182.82,1709.67 22.6328,1471.08 -137.953,2619.36 791.055,3240.62 c 138.23,92.51 293.625,170.64 450.765,226.68 62.81,22.34 127.29,40.79 194.64,56.69 v 0"
         style="fill:#f68724;fill-opacity:1;fill-rule:nonzero;stroke:none"
         id="path66" /><path
         d="m 4031.74,1964 -391.66,-265.66 -1.68,3.22 -243.37,252.84 -164.99,-607.76 h 174.42 l 80.93,297.76 114.33,-123.32 172.1,116.62 -78.93,-291.06 h 173.94 L 4031.74,1964"
         style="fill:#ffffff;fill-opacity:1;fill-rule:nonzero;stroke:none"
         id="path68" /><g
         id="g70"><g
           id="g72"
           clip-path="url(#clipPath76)"><path
             d="m 4175.91,1363.18 c -82.14,0 -150.33,22.6 -191.98,64.54 -39.87,39.74 -53.25,93.36 -37.39,151.88 l 83.72,309.02 h 117.41 l -76.53,-282.71 c -13.92,-51.71 -5.01,-96.84 25.25,-126.77 24.13,-24.26 60.45,-37 104.61,-37 100.6,0 188.34,65.13 213.54,158.33 l 78.48,288.15 h 117 l -82.07,-303.4 c -34.44,-126.79 -185.68,-222.04 -352.04,-222.04 v 0 0"
             style="fill:url(#linearGradient88);fill-opacity:1;fill-rule:nonzero;stroke:none"
             id="path90" /></g></g><g
         id="g92"><g
           id="g94"
           clip-path="url(#clipPath98)"><path
             d="m 5986.25,1548.89 h 204.51 l -47.08,202.1 z m 244.02,-173.31 -23.55,99.16 h -278.01 l -77.26,-99.16 h -120.92 l 335.19,410.42 85.31,104.34 h 147.53 l -36.68,-44.53 -0.71,-1.23 c -9.67,-14.58 -14.01,-30.62 -11.84,-46.92 l 0.09,-1.99 107.75,-420.09 h -126.9 v 0"
             style="fill:url(#linearGradient110);fill-opacity:1;fill-rule:nonzero;stroke:none"
             id="path112" /></g></g><path
         d="m 6695.36,1918.64 h -174.35 v 0 l -154.23,-569.79 h 174.12 l 154.46,569.79"
         style="fill:#ffffff;fill-opacity:1;fill-rule:nonzero;stroke:none"
         id="path114" /><path
         d="m 5643.89,1748.16 c -5.61,-21.76 -30.3,-43.34 -72.44,-43.34 H 5387.9 l 20.79,76.97 h 195.06 c 11.55,0 27.32,-1.75 35.52,-9.94 7.84,-7.71 6.36,-18.15 4.62,-23.69 z m -22.56,-218.64 c -7.39,-27.9 -44.83,-49.16 -86.61,-49.16 h -207.57 l 24.46,90.53 h 218.81 c 20.1,0 35.95,-4.9 44.59,-13.65 8.93,-8.85 8.39,-19.86 6.32,-27.72 z m 197.41,219.8 c 15.81,58.95 -5.62,96.09 -26.65,116.84 -31.82,32.29 -85.15,50.09 -149.75,50.09 h -371.29 l -154.71,-569.61 h 406.63 c 131.26,0 241.86,69.33 269.05,169.13 15.33,57.37 -4.26,104.79 -53.56,133.67 40.26,23.99 69.23,59.25 80.28,99.88"
         style="fill:#ffffff;fill-opacity:1;fill-rule:nonzero;stroke:none"
         id="path116" /><g
         id="g118"><g
           id="g120"
           clip-path="url(#clipPath124)"><path
             d="m 5351.91,1677.24 h 219.54 c 56.63,0 90.36,31.79 98.99,63.58 5.29,18.94 1.08,37.72 -11.91,50.31 -11.8,11.93 -30.23,17.89 -54.8,17.89 h -215.95 z m -60.69,-224.27 h 243.5 c 54.72,0 102.38,29.13 113.16,69.42 5.64,20.87 0.87,40.15 -13.29,54.46 -13.93,13.84 -36.28,21.61 -64.17,21.61 h -239.74 z m -138.92,-79.02 139.75,514.82 h 350.29 c 57.25,0 103.64,-14.81 130.64,-41.97 22.88,-22.74 29.36,-53.13 19.16,-90.52 -9.03,-33.1 -33.08,-62.81 -67.56,-83.16 l -40.47,-24.09 40.47,-23.36 c 38.91,-22.58 52.89,-58.17 40.74,-102.85 -23.86,-87.89 -123.44,-148.87 -242.35,-148.87 H 5152.3 v 0"
             style="fill:url(#linearGradient136);fill-opacity:1;fill-rule:nonzero;stroke:none"
             id="path138" /></g></g><path
         d="m 4949.73,1346.64 h 174.02 l 154.69,569.61 h -54.64 l -326.54,-217.91 -208.79,217.91 h -46.83 l -154.53,-569.61 h 174.2 l 80.93,297.76 114.63,-123.32 172.12,116.62 -79.26,-291.06"
         style="fill:#ffffff;fill-opacity:1;fill-rule:nonzero;stroke:none"
         id="path140" /><g
         id="g142"><g
           id="g144"
           clip-path="url(#clipPath148)"><path
             d="m 6529.73,1393.71 c 0,0.59 0.41,3.48 0.85,6.7 l 130.8,490.59 -114.42,-0.41 -144.39,-514.34 h 4.64 l 116.32,0.68 0.65,0.24 h 0.09 16.3 c -10.43,4.95 -10.84,9.58 -10.84,16.54 v 0"
             style="fill:url(#linearGradient160);fill-opacity:1;fill-rule:nonzero;stroke:none"
             id="path162" /></g></g><g
         id="g164"><g
           id="g166"
           clip-path="url(#clipPath170)"><path
             d="m 5108.37,1389.17 c 0,0.16 0.2,3.07 0.49,6.05 l 18.03,67.17 115.5,426.38 h -10.26 l -338.95,-225.86 -216.31,225.86 h -13.96 l -139.93,-514.82 h 117.36 l 88.34,325.13 132.07,-142.1 213.87,145.33 -88.9,-329.55 117.6,0.83 14.82,0.18 c -9.57,4.63 -9.77,8.78 -9.77,15.4 v 0"
             style="fill:url(#linearGradient182);fill-opacity:1;fill-rule:nonzero;stroke:none"
             id="path184" /></g></g><g
         id="g186"><g
           id="g188"
           clip-path="url(#clipPath192)"><path
             d="m 3850.36,1389.17 c 0,0.25 0,0.83 0.22,1.57 l 142.09,513.84 -356.4,-241.67 -227.58,237.38 L 3266,1373.95 h 117.57 l 88.17,325.13 132.08,-142.1 213.74,145.33 -88.95,-328.38 h 5.48 v 0 h 1.51 67.71 41.27 0.81 v 0 h 14.82 c -9.63,4.74 -9.85,8.94 -9.85,15.24 v 0"
             style="fill:url(#linearGradient204);fill-opacity:1;fill-rule:nonzero;stroke:none"
             id="path206" /></g></g><path
         d="M 2781.69,323.332 2713.92,63.8789 h 709.47 L 3562.17,248.34 h 383.61 l 44.44,-177.9181 h 682.94 L 4803.78,571.941 5319,64.9414 h 704.1 l 127.03,5.2305 c 232.11,18.289 423.35,185.3671 423.35,419.1681 0,65.121 -14.73,126.949 -41.2,182.172 0,0 -72.62,184.789 -355.6,171.789 0,0 -117.45,0.75 -146,-0.231 -28.29,-1.351 -48.52,1.399 -48.52,1.399 8.05,-0.418 -6.35,0.472 -8.39,8.41 -1.39,6.133 3.12,12.68 8.58,15.07 0,0 25.8,19.031 143.33,19.031 117.45,0 401.31,0 401.31,0 0,0 169.08,-10 239.17,86.489 41.14,56.781 62.05,128.361 63.03,203.661 v 77.38 l -646.73,-0.89 c 0,0 -286.93,9.18 -449.96,-118.2 l 18.45,70.44 H 5331.87 L 5199.15,705.582 4702.04,1199.29 h -60.99 l 555.91,-551.649 c 0,0 12.34,-11 26.29,-7.52 12.04,3.141 17.36,10.828 20.14,22.18 2.74,11.48 130.35,498.009 130.35,498.009 h 321.4 l -54.58,-203.9 c 0,0 90.01,260.53 544.93,252.65 127.3,-2.22 597.13,0 597.13,0 l 0.57,-31.43 c -0.73,-68.12 -22.41,-131.16 -58.51,-183.321 0,0 -58.51,-70.489 -202.5,-59.418 h -395.95 c -144.15,0 -181.85,-43.11 -181.85,-43.11 -12.04,-9.281 -19.86,-23.832 -19.86,-40.222 0,-27.879 26.48,-43.618 53.58,-45.368 0,0 120.76,-11.179 199.94,-5.691 79.74,5.691 235.77,-13.91 304.79,-136.379 28.68,-51.43 43.07,-111.652 43.07,-174.801 0,-207.808 -170.18,-363.629 -398.65,-378.699 l -777.58,-1.351 -527.44,513.519 c 0,0 -13.81,22.52 -32.1,18.223 -18.1,-4.043 -19.57,-29.461 -19.57,-29.461 L 4644.67,114.98 H 4026.1 l -46.13,179.09 h -439.15 l -140.1,-184.8 h -629.47 l 120.16,454.839 c 0,0 -148.72,-432.398 -770.74,-458.879 l -653.19,-2.808 -524.82,509.129 c 0,0 -6.945,17.07 -23.707,12.648 -16.879,-4.129 -21.008,-36.34 -21.008,-36.34 L 774.973,109.27 h -641.95 l 311.325,1107.99 363.48,0.09 13.317,48.91 H 410.828 L 72.2656,59.1602 H 806.539 L 936.598,557.102 1445.81,55.8086 h 570.91 c 0.01,0.0312 498.1,-32.7266 764.97,267.5234"
         style="fill:#ec1e27;fill-opacity:1;fill-rule:nonzero;stroke:none"
         id="path208" /><path
         d="M 773.508,1174.67 1323.89,633.52 c 0,0 9.39,-12.93 24.78,-9.04 16.71,2.489 19.41,24.5 19.41,24.5 l 133.2,494.4 h 807.56 c 0,0 180.87,12.17 342.85,-45.84 161.97,-57.94 307.12,-220.071 272.65,-415.54 l 123.8,468.02 h 320.57 L 3110.67,186.199 3893.64,1155.8 h 396.46 l -113.93,-141.11 c 0,0 -46.84,-41.19 -21.33,-105.94 l 184.65,-708.309 269.83,1000.109 h -49.23 L 4340.38,373.898 4199.2,912.801 c 0,0 -18.87,42.801 22.75,87.07 l 159.54,196.309 H 3869.66 L 3207.77,377.461 3424.85,1195.2 h -411.91 l -77.89,-294.708 c 0,0 -63.11,161.038 -270.67,234.688 -189.61,67.3 -359.09,49.4 -359.09,49.4 h -841.4 L 1331.4,688.699 837.543,1174.67 h -64.035 v 0"
         style="fill:#ec1e27;fill-opacity:1;fill-rule:nonzero;stroke:none"
         id="path210" /><path
         d="m 2139.5,394.07 c 201.92,1.18 376.47,106.282 414.82,250.192 10.56,39.547 13.44,96.738 -33.06,141.937 -43.53,43.11 -117.75,65.36 -214.76,64.883 l -211.21,0.41 L 1974.1,394.07 h 165.4 v 0"
         style="fill:#ffffff;fill-opacity:1;fill-rule:nonzero;stroke:none"
         id="path212" /><path
         d="M 2598.32,634.84 C 2554.61,470.711 2361.96,351.141 2139.63,349.789 l -225.32,-0.059 145.94,549.739 h 246.04 c 109.08,0.75 194.65,-26.321 246.92,-78.028 48.33,-47.73 64.47,-114.109 45.11,-186.601 z m 219.54,355.941 c -71.61,70.749 -210.57,154.149 -467.24,152.839 l -542.73,-2.73 -273.6,-1037.12 561,1.82 c 398.66,-0.899 738.63,223.461 815.99,514.672 37.84,142.34 4.71,273.758 -93.42,370.519"
         style="fill:#ffffff;fill-opacity:1;fill-rule:nonzero;stroke:none"
         id="path214" /><g
         id="g216"><g
           id="g218"
           clip-path="url(#clipPath222)"><path
             d="m 462.734,150.781 c -21.39,7.188 -21.839,20.168 -21.839,33.848 0,0.652 0.664,6.359 1.644,12.73 L 701.66,1174.41 H 478.59 L 193.27,150.781 h 269.464"
             style="fill:url(#linearGradient234);fill-opacity:1;fill-rule:nonzero;stroke:none"
             id="path236" /></g></g><path
         d="M 2598.32,634.84 C 2554.61,470.711 2361.96,351.141 2139.63,349.789 l -225.32,-0.059 145.94,549.739 h 246.04 c 109.08,0.75 194.65,-26.321 246.92,-78.028 48.33,-47.73 64.47,-114.109 45.11,-186.601 v 0"
         style="fill:#ec1b30;fill-opacity:1;fill-rule:nonzero;stroke:none"
         id="path238" /><path
         d="m 2139.5,394.07 c 201.92,1.18 376.47,106.282 414.82,250.192 10.56,39.547 13.44,96.738 -33.06,141.937 -43.53,43.11 -117.75,65.36 -214.76,64.883 l -211.21,0.41 L 1974.1,394.07 h 165.4 v 0"
         style="fill:#ffffff;fill-opacity:1;fill-rule:nonzero;stroke:none"
         id="path240" /><path
         d="M 3920.43,529.422 H 3722.37 L 3874,716.75 Z"
         style="fill:#ec1e27;fill-opacity:1;fill-rule:nonzero;stroke:none"
         id="path242" /><path
         d="m 6060.67,428.93 -452.28,10.91 c -23.77,-0.07 -46.83,-3.469 -68.67,-9.34 l 61.1,230.371 c 18.47,-27.711 45.4,-55.582 83.9,-81.422 112.49,-75.539 245.02,-93.187 331.4,-96.25 l 96.08,-1.808 c 54.25,0.41 81.6,4.359 84.91,-11.102 7.83,-33.398 -34.89,-40.207 -136.44,-41.359 z m 170.01,71.422 c -27.45,24.988 -49.8,23.48 -119.55,22.988 l -93.26,-0.418 c -81.62,3 -151.14,14.82 -220.69,41.887 -43.94,16.961 -87.82,44.929 -89.17,45.761 -94.77,68.692 -103.87,152.75 -100.54,198.442 0,5.218 0.25,13.75 1.09,24.488 L 5479.7,352.699 c 36.76,26.223 81.21,41.371 128.75,41.602 l 451.91,-10.992 c 43.25,3.711 160.09,-0.579 177.53,62.55 4.16,15.243 1.96,46.36 -7.21,54.493 v 0"
         style="fill:#ec1b30;fill-opacity:1;fill-rule:nonzero;stroke:none"
         id="path244" /><g
         id="g246"><g
           id="g248"
           clip-path="url(#clipPath252)"><path
             d="m 3627.37,487.68 357.47,1.992 -84.11,352.539 z m 432.73,-322 -43.4,180.14 -500.28,-2.379 -139.33,-181.261 -231.36,-1.231 611.25,757.383 155.63,192.078 279.52,1.49 -71.82,-88.71 -1.03,-1.82 c -17.13,-25.581 -24.02,-54.05 -20.6,-82.511 l 0.54,-2.98 201.18,-769.059 -240.3,-1.14 v 0"
             style="fill:url(#linearGradient264);fill-opacity:1;fill-rule:nonzero;stroke:none"
             id="path266" /></g></g><g
         id="g268"><g
           id="g270"
           clip-path="url(#clipPath274)"><path
             d="m 1854.07,307.02 284.93,1.492 c 242.16,1.226 453.44,135.308 502.44,318.687 23.79,89.551 3.18,171.391 -57.2,230.883 -60.9,60.18 -157.61,91.809 -279.05,91.059 L 2024.32,947.66 1854.07,307.02 Z m -263.75,-154.258 251.63,947.008 508.14,2.63 c 241.08,1.24 369.49,-75.41 434.76,-139.869 86.09,-84.902 115.08,-200.851 81.47,-326.312 -72.29,-272.348 -404.13,-479.008 -772.25,-481 l -503.75,-2.457"
             style="fill:url(#linearGradient286);fill-opacity:1;fill-rule:nonzero;stroke:none"
             id="path288" /></g></g><g
         id="g290"><g
           id="g292"
           clip-path="url(#clipPath296)"><path
             d="m 3070.02,193.469 c 0,1.48 3.71,28.39 3.99,30.972 2.03,15.707 9.48,46.188 12.24,58.09 l 219.31,824.909 -223.36,-1.23 -227.47,-856.62 -24.09,-90.391 v 0 l 223.25,1.082 h 3.83 l 0.09,0.27 33.23,0.148 c -20.25,10.02 -21.02,19.121 -21.02,32.77"
             style="fill:url(#linearGradient308);fill-opacity:1;fill-rule:nonzero;stroke:none"
             id="path310" /></g></g><g
         id="g312"><g
           id="g314"
           clip-path="url(#clipPath318)"><path
             d="M 5401.13,1117.65 5296.79,725.289 v 0 l -0.18,-1.828 -21.85,-81.852 -1.25,-2.14 -17.96,-66.867 c -9,-21.59 -25.56,-17.711 -34.63,-13.512 l -56.75,55.711 c -0.5,0.668 -1.48,1.258 -2.15,1.648 l -1.84,1.36 -100.88,100.589 -5.31,5.411 v 0 l -417.74,415.111 -258.66,-972.49 227.17,1.332 v 0 l 33.07,0.148 c -20.2,10.031 -20.77,19.059 -20.91,32.531 0,1.739 3.69,28.551 3.98,31.278 2.85,19.793 13.62,63.07 13.62,63.07 l 70.74,265.723 H 4705 l 12.93,48.258 11.11,41.472 0.41,0.567 17.04,62.55 c 8.6,21.532 25.58,17.563 34.6,13.52 l 52.18,-51.75 1.19,-0.738 46.49,-46.25 67.09,-65.879 h -0.68 l 402.85,-400.551 h 19.88 l 241.79,906.529 c 4.35,18.11 11.01,34.92 19.71,50.49 l -230.46,-1.08 v 0"
             style="fill:url(#linearGradient330);fill-opacity:1;fill-rule:nonzero;stroke:none"
             id="path332" /></g></g><g
         id="g334"><g
           id="g336"
           clip-path="url(#clipPath340)"><path
             d="m 6428.76,657.172 c 29.64,-43.953 50.16,-99.953 50.16,-161.621 0,-182.071 -163.39,-316.949 -315.27,-326.871 l -113.28,-7.481 c -39.67,-1.969 -68.64,-1.969 -74.44,-1.969 0,0 -51.97,-1.75 -112.14,1.719 -399.18,21.02 -435.72,-3.219 -435.72,-3.219 -1.91,12.989 0.99,30.469 3.36,42.04 1.48,8.621 4.12,19.019 8.15,30.472 26.28,71.906 89.95,121.067 168.81,121.559 l 451.38,-10.922 c 46.2,0.332 186.65,1.75 222.44,101.633 14.09,38.898 0.86,66.547 -8.23,79.199 -24.81,35.168 -74.94,48.91 -162.81,48.668 l -91.79,0.902 c -68.38,2.239 -163.78,20.278 -222.39,44.028 -40.2,16.461 -62.46,35.082 -62.46,35.082 -73.45,54.461 -85.29,120.089 -81.77,159.961 1.12,37.168 13.12,335.098 476.77,350.968 0,0 49.22,2.99 72.67,2.99 l 148.17,-1.42 c 47.16,-2.3 122.19,-2.3 171.43,-4.35 33.68,-0.29 60.32,0 94.17,-0.29 34.61,1.09 75.99,1.09 119.38,9.28 0,0 -0.94,-48.89 -10.67,-76.95 -26.23,-72.67 -75.62,-107.271 -154.96,-107.99 l -466.37,-1.668 c -46.45,-0.75 -194.88,-5.031 -223.72,-100.383 l -0.67,-2.059 c -8.81,-26.98 -5.25,-53.531 10.09,-74.398 24.94,-34.434 75.49,-49.172 164.07,-48.91 l 154.32,0.976 c 0,0 149.73,7.774 221.32,-98.976 v 0"
             style="fill:url(#linearGradient346);fill-opacity:1;fill-rule:nonzero;stroke:none"
             id="path348" /></g></g><path
         d="m 4054.53,1979.81 10.59,39.16 -420.97,-284.94 -262.99,274.35 -186.74,-689.29 h 231 l 73.39,270.44 97.01,-104.43 130.15,88.63 -68.95,-254.64 h 230.79 l 28.59,104.78 c 0,0 46.03,-78.38 157.12,-103.63 152.32,-38.3 285.14,23.17 307.94,33.79 26.94,12.23 70.11,37.07 95.3,60.48 l -25.55,-95.42 h 231.17 l 73.27,270.44 97.01,-104.43 130.22,88.63 -69.08,-254.64 h 595.75 c 0,0 89.98,-4.97 165.8,32.02 l 56.18,69.27 c 0,0 -30.22,-28.64 -72.33,-46.25 -42.22,-17.78 -86.23,-29.8 -151.61,-27.78 h -557.86 l 79.26,291.38 -172.12,-116.62 -114.63,123.3 -80.92,-297.76 h -174.21 l 50.73,186.88 c 0,0 -28.52,-65.23 -102.13,-116.87 -55.66,-39.04 -121.03,-66.63 -198.58,-77.19 -31.15,-4.31 -128.29,-12.43 -207.85,24.66 -23.91,11.18 -109.34,54.43 -116.51,155.25 l -45.94,-172.73 h -173.94 l 78.93,291.09 -172.07,-116.62 -114.36,123.29 -80.93,-297.76 h -174.4 l 164.97,607.77 245.99,-254.79 413.51,280.18 v 0"
         style="fill:#ec1e27;fill-opacity:1;fill-rule:nonzero;stroke:none"
         id="path350" /><path
         d="m 4045.09,1943.9 -7.28,-27.56 h 145.62 l -80.65,-298.84 c 0,0 -22.68,-60.67 -0.74,-100.72 21.76,-39.71 82.01,-62.64 163.48,-36.99 17.42,5.71 93.56,35.34 120.49,120.58 3,9.87 43.84,161.62 43.84,161.62 l 42.13,154.11 h 216.49 l 208.79,-217.76 326.57,217.92 h 415.89 c 0,0 112.76,5.38 164.02,-62.97 54.35,-80.62 -15.27,-161.88 -15.27,-161.88 0,0 -20.36,-25.26 -50.01,-41.97 0,0 105.23,-53.11 34.59,-178.36 l 365.12,446.65 h 218.1 l -68.64,-84.16 c 0,0 -16.92,-14.97 -9.18,-39.48 8.11,-25.55 101.66,-397.21 101.66,-397.21 l 140.9,521.76 h 174.38 L 6540.9,1348.85 h -332.44 l -23.42,98.49 h -242.98 l -77.2,-99.38 h -157.07 l -22.23,-27.57 h 192.69 l 77.35,99.13 h 207.7 l 23.41,-99.13 h 374.96 l 169.52,625.75 h -231.12 l -119.48,-440.71 -75.14,293.21 c 0,0 -4.69,9.1 3.89,18.87 8.79,9.46 104.96,127.71 104.96,127.71 h -289.25 l -302.06,-369.76 c 0,0 -3.17,38.08 -38.49,73.4 0,0 75.08,56.54 66.13,157.17 -2.25,24.31 -22.54,121.07 -177.23,136.97 -10.3,0.9 -37.13,0.9 -37.13,0.9 H 5215.54 L 4901.2,1734.03 4700.25,1943.9 h -249.39 l -88.56,-326.65 c 0,0 -17.58,-82.42 -106.84,-111.56 -23.37,-7.62 -82.9,-18.2 -116.1,8.7 -33.26,26.73 -13.99,82.27 -13.99,82.27 l 93.71,347.24 h -173.99 v 0"
         style="fill:#ec1e27;fill-opacity:1;fill-rule:nonzero;stroke:none"
         id="path352" /><path
         d="m 5578.97,1732.44 -155.23,-0.32 6.13,22.17 h 173.86 c 0,0 10.57,0.67 13.16,-1.23 2.69,-2.07 -13.16,-19.78 -37.92,-20.62 z m 27.75,49.32 h -198.03 l -20.82,-76.96 h 187.91 c 35.74,1.06 67.04,22 69.25,49.74 2.58,27.96 -38.31,27.22 -38.31,27.22 v 0"
         style="fill:#ec1e27;fill-opacity:1;fill-rule:nonzero;stroke:none"
         id="path354" /><path
         d="m 5542.34,1508.01 -179.42,-0.19 9.82,35.54 h 204.31 c 0,0 18.61,1.47 17.84,-6.65 -0.74,-8.27 -19.93,-26.06 -52.55,-28.7 z m 34.16,62.64 -224.89,0.24 -24.46,-90.52 215.86,0.41 c 39.36,2.48 78.26,25.84 79.43,57.11 1.44,31.93 -45.94,32.76 -45.94,32.76 v 0"
         style="fill:#ec1e27;fill-opacity:1;fill-rule:nonzero;stroke:none"
         id="path356" /><path
         d="m 6061.16,1587.28 61.42,72.25 17.11,-72.25 z"
         style="fill:#ec1e27;fill-opacity:1;fill-rule:nonzero;stroke:none"
         id="path358" /><g
         id="g360"><g
           id="g362"
           clip-path="url(#clipPath366)"><path
             d="M 1532.98,1097.28 1429.04,705.09 v 0 l -0.5,-1.828 -21.82,-82.09 -1.03,-1.82 -18.21,-67.133 c -8.86,-21.418 -25.7,-17.617 -34.59,-13.508 l -56.7,55.891 c -0.66,0.589 -1.57,1.078 -2.06,1.82 l -2.04,1.25 -100.92,100.539 -5.29,5.309 v 0 L 768.254,1118.64 510.746,150.27 h 254.442 c -15.555,8.96 -16.102,17.64 -16.266,30.199 0,1.48 3.73,28.39 3.961,31.062 2.621,19.77 13.527,62.969 13.527,62.969 l 70.934,265.75 h -0.465 l 13.086,48.141 11.094,41.711 0.386,0.648 16.953,62.25 c 8.825,21.691 25.618,17.719 34.516,13.719 l 52.422,-51.688 1.035,-0.769 46.719,-46.512 66.91,-65.809 h -0.7 L 1473.27,150.25 h 31.03 l 239.57,897.94 c 4.28,18.03 10.92,35 19.79,50.32 l -230.68,-1.23 v 0"
             style="fill:url(#linearGradient378);fill-opacity:1;fill-rule:nonzero;stroke:none"
             id="path380" /></g></g></g></g></svg>
