<?xml version="1.0" encoding="UTF-8" standalone="no"?>
<svg
   xmlns:dc="http://purl.org/dc/elements/1.1/"
   xmlns:cc="http://creativecommons.org/ns#"
   xmlns:rdf="http://www.w3.org/1999/02/22-rdf-syntax-ns#"
   xmlns:svg="http://www.w3.org/2000/svg"
   xmlns="http://www.w3.org/2000/svg"
   xmlns:sodipodi="http://sodipodi.sourceforge.net/DTD/sodipodi-0.dtd"
   xmlns:inkscape="http://www.inkscape.org/namespaces/inkscape"
   version="1.1"
   id="svg2"
   xml:space="preserve"
   width="673.96002"
   height="758.01331"
   viewBox="0 0 673.96002 758.01331"
   sodipodi:docname="Rajasthan_Royals_Logo.eps"><metadata
     id="metadata8"><rdf:RDF><cc:Work
         rdf:about=""><dc:format>image/svg+xml</dc:format><dc:type
           rdf:resource="http://purl.org/dc/dcmitype/StillImage" /></cc:Work></rdf:RDF></metadata><defs
     id="defs6" /><sodipodi:namedview
     pagecolor="#ffffff"
     bordercolor="#666666"
     borderopacity="1"
     objecttolerance="10"
     gridtolerance="10"
     guidetolerance="10"
     inkscape:pageopacity="0"
     inkscape:pageshadow="2"
     inkscape:window-width="640"
     inkscape:window-height="480"
     id="namedview4" /><g
     id="g10"
     inkscape:groupmode="layer"
     inkscape:label="ink_ext_XXXXXX"
     transform="matrix(1.3333333,0,0,-1.3333333,0,758.01333)"><g
       id="g12"
       transform="scale(0.1)"><path
         d="m 2529.51,4890.4 c 1209.86,0 2190.64,-864.88 2190.64,-1931.8 0,-1066.89 -980.78,-1931.81 -2190.64,-1931.81 -1209.87,0 -2190.631,864.89 -2190.631,1931.81 0,1066.92 980.761,1931.8 2190.631,1931.8"
         style="fill:#3147a4;fill-opacity:1;fill-rule:nonzero;stroke:none"
         id="path14" /><path
         d="m 966.949,1577.28 c -400.273,352.88 -648.586,841.5 -648.586,1381.33 0,539.86 248.313,1028.46 648.586,1381.36 400.281,352.97 952.731,570.89 1562.551,570.9 v -20.47 -20.47 c -600.03,0 -1142.91,-214.51 -1535.461,-560.68 C 601.461,3962.98 359.363,3485.67 359.316,2958.61 359.363,2431.55 601.461,1954.26 994.039,1607.98 1386.59,1261.79 1929.47,1047.28 2529.5,1047.31 c 600.02,-0.03 1142.93,214.48 1535.5,560.67 392.55,346.28 634.67,823.57 634.68,1350.63 -0.01,527.06 -242.13,1004.37 -634.68,1350.64 -392.57,346.17 -935.48,560.68 -1535.5,560.68 v 20.47 20.47 c 609.81,-0.01 1162.25,-217.93 1562.57,-570.9 400.25,-352.9 648.58,-841.5 648.55,-1381.36 0.03,-539.83 -248.3,-1028.45 -648.55,-1381.33 -400.32,-353.01 -952.76,-570.94 -1562.57,-570.94 -609.82,0 -1162.27,217.93 -1562.551,570.94"
         style="fill:#c5a718;fill-opacity:1;fill-rule:nonzero;stroke:none"
         id="path16" /><path
         d="m 3464.41,2773.23 c -0.19,-28.44 -13.65,-50.76 -40.06,-66.92 -23.13,-14.23 -49.93,-21.15 -80.89,-20.74 -70.92,0.95 -134.96,22.73 -192.25,65.12 -51.67,38.34 -96.03,92.23 -133.14,161.58 -18.97,36.59 -35.07,82.82 -48.29,138.56 -3.71,16.55 -12.99,66.01 -27.54,148.12 -10.28,58.44 -21.35,104.93 -33,139.48 -17.83,-5.77 -35.78,-10.32 -53.88,-13.57 -18.04,-3.49 -35.78,-5.08 -52.95,-4.85 -38.99,0.53 -70.17,8.26 -93.55,23.02 -27.9,17.73 -41.67,43.59 -41.34,78.07 0.4,30.32 14.36,54.39 42.06,71.84 23.64,14.88 51.67,22.13 84.46,21.67 30.28,-0.39 59.59,-7.9 87.82,-22.54 28.25,-14.51 50.71,-36.31 67.81,-64.94 56.69,32.27 105.28,83.65 145.46,153.9 44.1,76.66 66.72,158.71 67.7,246.02 1.13,128.26 -35.81,236.01 -110.98,322.99 -75.18,87.11 -172.44,131.36 -291.33,132.99 -63.49,0.84 -112.28,-1.51 -146.11,-6.95 -52.2,-8.53 -103.88,-27.36 -155.1,-56.32 -36.2,-20.67 -67.99,-46.46 -95.21,-77.18 -32.3,-37.24 -48.75,-73.08 -49.08,-107.5 -0.74,-7.9 -1.02,-13.14 -1.08,-15.81 -0.22,-18.55 3.17,-34.76 10.34,-48.79 6.91,-13.92 17.26,-21.03 30.95,-21.23 12.12,-0.2 21.58,3.33 28.5,10.51 6.97,7.2 12.53,20.61 16.76,40.44 1.75,7.9 4.43,11.78 7.76,11.78 3.44,-0.1 6,-2.75 7.78,-7.98 8.96,-12.64 13.34,-30.65 13.16,-53.88 -0.32,-26.43 -9.12,-48.76 -26.48,-67.04 -17.3,-18.31 -38.12,-27.21 -62.07,-26.97 -28.1,0.42 -50.77,13.33 -67.92,38.71 -17.13,25.3 -25.52,55.89 -25.22,91.58 0.52,57.48 19.13,110.89 55.75,160.01 28.37,38.56 67.38,73.78 117,105.51 63.84,40.87 129.45,68.74 196.6,83.71 53.33,11.75 119.64,17.22 199.32,16.15 134.97,-1.86 249.18,-47.74 342.7,-137.73 97.06,-93.17 144.74,-208.32 143.4,-345.21 -1.18,-114.48 -34.29,-219.1 -99.27,-314.18 -58.09,-85.15 -130.23,-147.7 -216.29,-187.52 20.23,-30.74 39.25,-67.38 57.22,-109.94 17.84,-42.66 35.62,-91.77 53.35,-147.48 27.05,-84.53 46.27,-140.56 57.46,-168.59 25.48,-64.46 51.63,-113.8 78.2,-147.96 32.77,-42.07 68.61,-63.4 107.5,-63.97 14.27,-0.12 27.75,3.33 40.47,10.43 12.58,7.15 19.8,17.93 21.73,32.38 0.11,11.95 -0.57,20.76 -1.93,26.34 -1.36,5.68 -3.81,10.9 -7.41,16.05 -3.82,5.05 -5.73,8.81 -5.54,11.51 0.05,3.27 2.27,5.85 6.84,7.78 12.58,2.44 27.46,-2.05 44.61,-13.46 17.04,-11.53 25.41,-27.12 25.2,-47 m -797.4,-170.96 c 1.08,-1.4 1.86,-3.6 2.6,-6.6 0.42,-2.06 0.78,-3.93 0.69,-5.37 -0.04,-7.59 -5.27,-11.35 -15.59,-11.29 -5.74,-0.5 -22.8,0.54 -51.17,3.29 -28.4,2.7 -48.04,6.11 -58.93,10.11 -18.38,0.32 -45.86,-0.98 -82.74,-3.73 -13.79,-1.08 -23.69,-1.39 -29.26,-0.67 -9.76,0.26 -14.66,4.2 -14.52,12.11 0.04,3.43 0.85,5.98 2.65,7.91 1.73,2.67 14.14,14.08 37.26,34.22 17.95,15.61 26.91,29.7 27.01,42.36 l 9.5,1274.65 c 0.08,20.5 -4.79,35.42 -15.1,44.95 -1.04,1.17 -10.14,6.27 -27.16,15.12 -5.73,2.69 -8.57,6.08 -8.54,10.05 0,3.33 3.48,8.56 10.36,15.75 16.98,10.33 31.83,19.68 45.25,28.19 9.77,5.82 24.3,15.49 43.31,29.16 19.18,13.6 45.27,35.01 78.25,64.39 16.17,14.36 26.07,22.5 29.55,24.39 5.8,1.86 9.76,1.3 12.06,-2.11 2.25,-3.41 2.22,-8.11 -0.1,-13.86 -14.86,-30.28 -26.39,-56.56 -34.54,-78.56 -8.13,-22.05 -12.26,-43.36 -12.45,-63.9 l -10.25,-1350.87 c -0.15,-12.51 8.45,-26.61 25.66,-42 22.96,-22.89 35.07,-35.41 36.2,-37.69 m 220.64,794.02 c -6.76,19.89 -19.4,36.26 -38.16,49.09 -18.67,12.82 -38.35,19.37 -58.89,19.69 -16.01,0.24 -30.24,-3.56 -42.93,-11.3 -12.61,-7.83 -19.07,-19.01 -19.22,-33.51 -0.15,-17.88 8.3,-30.8 25.32,-39.08 13.01,-6.11 30.25,-9.35 51.35,-9.69 13.03,-0.05 27.48,2.11 43.22,6.5 15.82,4.33 28.89,10.43 39.31,18.3"
         style="fill:#c5a718;fill-opacity:1;fill-rule:nonzero;stroke:none"
         id="path18" /><path
         d="m 1614.05,2845.11 c 17.27,10.99 32.18,15.1 44.76,12.34 4.51,-2.14 6.84,-4.77 6.84,-8.04 -0.05,-2.67 -2.1,-6.49 -5.76,-11.48 -3.76,-4.78 -6.32,-10.09 -7.81,-15.67 -1.52,-5.62 -2.29,-14.31 -2.42,-26.28 1.48,-14.54 8.57,-25.53 21.08,-32.97 12.47,-7.48 25.93,-11.34 40.15,-11.45 38.87,-0.52 75.22,19.88 108.67,60.9 27.31,33.4 54.41,82.05 81.22,145.81 11.71,27.63 32.1,83.27 61.07,166.83 18.82,55.31 37.7,103.95 56.32,146.05 18.7,42.14 38.56,78.22 59.37,108.35 -85.24,42.21 -156.04,106.64 -212.31,193.46 -63.11,96.67 -93.98,202.37 -92.8,316.75 1.41,136.95 51.39,250.66 150.33,341.26 95.27,87.37 210.39,130.03 345.37,128.28 79.75,-1.15 145.96,-8.3 199,-21.56 66.78,-16.81 131.69,-46.47 194.88,-89.02 48.89,-33.07 87.01,-69.4 114.73,-108.79 35.61,-50.09 53.01,-103.88 52.43,-161.42 -0.37,-35.75 -9.42,-65.99 -27.12,-90.85 -17.58,-24.92 -40.55,-37.19 -68.65,-36.93 -23.98,0.48 -44.48,10.01 -61.56,28.72 -16.89,18.81 -25.23,41.42 -24.96,67.83 0.24,23.15 5.04,40.99 14.19,53.37 1.81,5.25 4.47,7.93 7.8,7.93 3.41,-0.2 6.05,-4.11 7.71,-11.99 3.82,-20.01 9.07,-33.56 15.93,-40.97 6.73,-7.43 16.15,-11.15 28.29,-11.33 13.58,-0.13 24.12,6.56 31.34,20.44 7.42,13.78 11.14,29.94 11.27,48.43 0,2.73 -0.13,7.98 -0.72,15.85 0.43,34.42 -15.24,70.67 -46.76,108.89 -26.68,31.32 -57.92,57.93 -93.78,79.59 -50.62,30.47 -101.9,50.72 -153.84,60.66 -33.65,6.41 -82.36,10.15 -145.83,10.89 -119.13,1.7 -217.01,-39.98 -294.02,-125.02 -76.97,-84.82 -116.16,-191.53 -117.52,-319.81 -0.85,-87.34 20.02,-169.94 62.62,-247.92 38.67,-71.25 86.11,-123.87 142.32,-157.73 17.51,28.19 40.5,49.23 69.05,63.09 28.46,13.85 57.95,20.6 88.34,20.09 32.52,-0.48 60.53,-8.4 83.99,-24 27.29,-18.27 40.86,-42.54 40.52,-72.92 -0.3,-34.4 -14.81,-59.99 -42.93,-76.79 -23.66,-14.23 -55,-21.12 -94.03,-20.47 -17.15,0.13 -34.81,2.15 -52.86,6.08 -17.96,3.91 -35.85,8.97 -53.59,15.11 -12.43,-34.24 -24.33,-80.34 -35.66,-138.42 -16.31,-81.73 -26.51,-130.93 -30.73,-147.44 -14.28,-55.31 -31.25,-101.13 -51.14,-137.26 -38.48,-68.13 -83.77,-120.82 -136.26,-157.73 -58.25,-41 -122.78,-60.93 -193.59,-59.92 -30.9,0.35 -57.65,8 -80.47,22.82 -26.06,16.94 -39.03,39.55 -38.76,68.1 0.29,19.8 9.01,35.22 26.29,46.26 m 811.6,-202.39 c 17.53,15.06 26.39,28.8 26.48,41.42 l 10.23,1350.89 c 0.21,20.41 -3.51,41.84 -11.19,64.2 -7.62,22.24 -18.56,48.69 -32.78,79.29 -2.22,6.01 -2.22,10.63 0,13.92 2.4,3.3 6.48,3.87 12.14,1.82 3.43,-2.02 13.15,-10.3 29.06,-25.15 32.45,-30.31 58.04,-52.43 76.92,-66.52 18.77,-14.06 33.1,-24.29 42.74,-30.39 13.07,-8.78 27.98,-18.54 44.5,-29.37 6.85,-7.41 10.3,-12.71 10.22,-16.13 0,-3.86 -2.95,-7.23 -8.75,-9.72 -17.2,-8.33 -26.51,-13.15 -27.49,-14.52 -10.53,-9.09 -15.76,-23.91 -15.88,-44.44 l -9.49,-1274.63 c -0.26,-12.58 8.5,-26.85 26.02,-43.02 22.83,-20.75 34.93,-32.55 36.58,-35.23 1.9,-2 2.59,-4.61 2.59,-7.94 -0.12,-7.97 -5.07,-11.94 -14.83,-11.77 -5.77,-0.55 -15.41,-0.12 -29.16,1.48 -36.87,3.75 -64.34,5.82 -82.64,5.93 -10.97,-3.64 -30.77,-6.62 -59.23,-8.53 -28.37,-1.86 -45.5,-2.46 -51.2,-1.8 -10.34,0.2 -15.44,4.04 -15.44,11.65 0.03,1.42 0.42,3.18 1.05,5.44 0.61,2.9 1.41,4.99 2.62,6.5 1.25,2.1 13.47,14.38 36.93,36.62 m -209.59,743.9 c 15.69,-4.89 30.06,-7.36 43.16,-7.54 21.04,-0.32 38.33,2.42 51.43,8.16 17.28,7.74 26.03,20.51 26.13,38.38 0.27,14.54 -5.95,25.8 -18.38,33.97 -12.61,8.07 -26.83,12.18 -42.83,12.53 -20.54,0.25 -40.28,-5.74 -59.37,-18.02 -18.91,-12.36 -31.85,-28.37 -38.98,-48.11 10.17,-8.1 23.15,-14.62 38.84,-19.37"
         style="fill:#c5a718;fill-opacity:1;fill-rule:nonzero;stroke:none"
         id="path20" /><path
         d="m 1383.24,3879.08 c 14.36,-8.33 27.97,-18.34 32.4,-21.89 6.63,-0.23 96.9,-92.43 95.72,-199.12 0,0 10.25,-171.03 -127.99,-287.8 0,0 -86.27,-97.14 -257.74,-57.86 l -3.18,-9.04 c 0,0 155.39,-53.99 278.87,44.92 0,0 172.42,118.26 183.58,334.43 0,0 -10.67,177.93 -113.07,261.49 0,0 -132.8,119.53 -311.77,131.46 0,0 -11.32,25.65 -29.27,11.49 0,0 -21.78,13.71 -28.82,32.34 -1.02,2.65 -5.27,9.01 -9.77,8.91 -8.86,-0.18 -22.85,-3.58 -27.3,-22.54 -6.69,-28.57 -28.75,-138.16 12.55,-213.14 17.03,-17.66 29.71,5 29.71,5 0,0 6.88,14.22 15.17,16.06 0,0 9.02,-11.29 21.9,-2.71 12.83,8.55 12.3,19.14 12.3,19.14 0,0 102.49,23.73 197.39,-35.81 0,0 15.05,-6.86 29.32,-15.33"
         style="fill:#c5a718;fill-opacity:1;fill-rule:nonzero;stroke:none"
         id="path22" /><path
         d="m 1456.24,3849.82 c -168.95,172.2 -344.53,88.9 -344.53,88.9 l -2.33,-11.27 c -1,-12.33 -19.37,-15.5 -19.37,-15.5 -45.65,45.16 -12.62,195 -12.62,195 l 1.93,10.52 c -4.98,-2.88 -8.28,-7.85 -9.97,-14.79 -7.17,-30.61 -27.65,-135.78 11.53,-207.83 3.22,-3.18 6.29,-4.62 9.07,-4.34 5.05,0.56 9.46,6.51 10.59,8.39 1.39,2.83 8.74,16.95 19.21,19.2 l 3.47,0.72 2.28,-2.75 c 0.13,-0.18 3.58,-4.2 8.65,-3.7 1.81,0.21 3.6,0.98 5.56,2.23 9.52,6.34 9.53,13.46 9.62,13.8 v 5.06 l 4.6,1.12 c 0.28,0 7.83,1.79 20.76,3.16 37.48,4.02 110.71,4.17 180.59,-39.52 2.38,-1.13 16.1,-7.56 29.54,-15.4 14.72,-8.63 28.63,-18.84 33.11,-22.39 l -0.68,0.23 c 18.97,-10.74 99.86,-101.67 98.68,-203.94 0.09,-1.79 8.9,-175.3 -129.87,-292.74 -4.67,-5.18 -53.83,-56.33 -148.39,-66.97 102.37,5.91 177.17,87.41 177.17,87.41 62.81,45.75 210.35,293.2 41.4,465.4"
         style="fill:#3147a4;fill-opacity:1;fill-rule:nonzero;stroke:none"
         id="path24" /><path
         d="m 1396.67,2987.35 c -0.67,1.75 -2.58,2.65 -4.74,2.45 -0.59,-0.12 -1.29,-0.27 -1.82,-0.49 -1.58,-0.65 -2.84,-1.78 -3.42,-3.18 -0.41,-0.95 -0.46,-2.03 -0.1,-2.92 0.71,-1.78 3.82,-4.93 6.67,-4.66 0.31,0.04 0.73,0.1 1.02,0.25 2.95,1.38 3.11,6.64 2.39,8.55 m 16.92,-40.34 c -0.75,-0.08 -1.38,-0.34 -1.94,-0.75 -1.34,-1.11 -2.23,-2.58 -2.39,-4 -0.12,-1.13 0.1,-2.15 0.68,-2.98 1.19,-1.46 4.24,-2.99 6.51,-2.76 0.85,0.12 1.59,0.38 2.09,0.93 2.29,2.09 2.97,5.13 1.47,6.93 -1.03,1.19 -4.06,2.86 -6.42,2.63 m -40.33,101.41 c 3.19,0.72 4.21,5.98 3.78,7.98 -0.4,2.2 -2.72,3.48 -5.4,3.18 -0.29,0 -0.51,0 -0.83,-0.1 -1.66,-0.38 -3.04,-1.26 -3.84,-2.54 -0.58,-0.9 -0.75,-1.86 -0.58,-2.85 0.44,-1.89 3.31,-6.08 6.49,-5.77 0.07,0.06 0.24,0.06 0.38,0.1 m 12.53,-46.91 c 3.13,1.08 3.64,6.41 3.07,8.32 -0.55,1.97 -2.63,3.01 -5.01,2.77 -0.51,-0.05 -0.93,-0.11 -1.36,-0.26 -1.7,-0.47 -2.97,-1.59 -3.65,-2.91 -0.52,-0.93 -0.52,-2.01 -0.32,-2.89 0.64,-2.04 3.75,-5.5 6.56,-5.19 0.28,0.06 0.48,0.09 0.71,0.16 m -6.9,23.3 c 3.18,0.87 4.03,6.16 3.6,8.13 -0.54,2.04 -2.72,3.3 -5.36,3.01 -0.26,-0.04 -0.64,-0.06 -0.97,-0.18 -1.67,-0.43 -3.04,-1.41 -3.75,-2.71 -0.55,-0.9 -0.67,-1.92 -0.44,-2.88 0.44,-1.81 3.33,-5.8 6.4,-5.49 0.22,0.04 0.38,0.05 0.52,0.12 m 28.63,-61.26 c -0.85,1.55 -4.01,4.18 -6.72,3.93 -0.42,-0.08 -0.84,-0.22 -1.26,-0.41 -1.47,-0.86 -2.62,-2.1 -3,-3.56 -0.33,-1.05 -0.25,-2.07 0.2,-2.94 0.77,-1.56 3.94,-4.24 6.72,-3.92 0.44,0.04 0.93,0.2 1.32,0.45 2.7,1.57 3.81,4.42 2.74,6.45 m 105.32,-6.6 c -0.69,0.43 -1.44,0.58 -2.29,0.49 -2.41,-0.25 -4.89,-2.33 -5.68,-3.59 -1.11,-2.03 -0.08,-4.89 2.56,-6.57 1.25,-0.88 2.59,-1.22 3.93,-1.14 1.21,0.18 2.3,0.79 2.81,1.83 0.77,1.19 1.2,4.02 0.55,6.17 -0.35,1.67 -1.22,2.46 -1.88,2.81 m -76.8,-27.43 c -1.14,0.69 -3.29,1.04 -4.95,0.87 -1.58,-0.16 -2.75,-0.79 -3.42,-1.77 -1,-1.39 -1.38,-3.04 -1.19,-4.52 0.2,-1.1 0.79,-2.07 1.63,-2.66 1.08,-0.83 3.24,-1.22 5.11,-1.05 2.19,0.22 3.19,1.3 3.62,2.17 1.48,2.8 1.1,5.8 -0.8,6.96 m 60.25,8.51 c -1.72,-0.21 -3.77,-1.02 -4.62,-1.97 -1.62,-1.51 -1.31,-4.61 0.73,-6.98 1.33,-1.53 3.14,-2.4 4.65,-2.2 0.87,0.08 1.53,0.4 2.08,0.95 1.08,1.02 2.16,3.62 2.09,5.97 0,1.71 -0.61,2.66 -1.16,3.15 -0.93,0.85 -2.14,1.26 -3.77,1.08 m -21.72,-12.12 c -0.39,-0.02 -0.61,-0.11 -0.91,-0.2 -2.05,-0.63 -3.01,-3.58 -2.2,-6.66 l 1.1,-3.82 0.44,-1.65 1.57,0.46 2.53,0.87 c 1.39,0.46 3.46,2.37 4.42,4.5 0.66,1.5 0.46,2.68 0.22,3.35 -1.09,2.76 -4.93,3.36 -7.17,3.15 m -19.2,-2.86 h -0.62 c -1.74,-0.2 -5.8,-1.65 -6.26,-4.78 -0.31,-1.76 0.07,-3.41 0.89,-4.66 0.7,-0.9 1.58,-1.45 2.59,-1.6 0.24,-0.03 0.62,-0.03 0.99,0 2.13,0.26 6.33,2.03 6.33,5.27 -0.05,3.11 -1.78,5.72 -3.92,5.77 m -105.36,318.14 h 0.15 0.04 c 3.15,0.4 5,5.32 4.88,7.28 -0.04,1.26 -0.75,2.41 -1.93,3.17 -1.06,0.59 -2.33,0.91 -3.65,0.88 -0.22,0 -0.36,0 -0.51,-0.08 -2.74,-0.27 -4.83,-2.19 -4.73,-4.4 0.1,-1.43 1.18,-4.03 2.8,-5.52 1.16,-1.12 2.28,-1.34 2.95,-1.33 m -1.08,24.3 h 0.17 0.09 c 3.17,0.3 4.95,5.24 4.95,7.22 -0.08,2.35 -2.59,4.17 -5.6,4.12 l -2.57,-0.1 c -0.86,-0.03 -1.36,-0.03 -1.36,-0.03 l -1.45,-0.14 v -1.51 l 0.1,-2.67 c 0.1,-1.45 1.14,-4.02 2.71,-5.61 1.18,-1.14 2.29,-1.31 2.96,-1.28 m 2.5,-48.57 0.12,0.01 h 0.07 c 3.18,0.39 4.91,5.35 4.81,7.39 -0.1,1.2 -0.8,2.36 -2.03,3.08 -1.05,0.63 -2.36,0.94 -3.68,0.82 -0.15,0.02 -0.27,0 -0.37,0 -2.86,-0.31 -4.91,-2.29 -4.77,-4.61 0.09,-1.39 1.27,-3.97 2.8,-5.42 1.27,-1.12 2.34,-1.32 3.05,-1.27 m 170.76,-237.82 c -0.46,0.19 -1.07,0.29 -1.72,0.19 -2.45,-0.25 -5.05,-2.91 -5.75,-4.57 -0.89,-2.15 0.7,-4.89 3.44,-6.1 1.08,-0.51 2.24,-0.65 3.3,-0.58 1.59,0.18 2.83,1.01 3.37,2.35 0.51,1.33 0.51,4.14 -0.41,6.2 -0.59,1.6 -1.57,2.21 -2.23,2.51 m -173.97,310.68 h 0.16 0.11 c 3.13,0.36 4.98,5.2 4.95,7.15 -0.09,1.23 -0.71,2.42 -1.89,3.2 -1.1,0.62 -2.36,0.99 -3.61,0.97 h -0.68 c -2.74,-0.35 -4.75,-2.11 -4.65,-4.32 0.01,-1.44 1.13,-4.1 2.59,-5.66 1.2,-1.12 2.25,-1.39 3.02,-1.34 m 19.91,-217.6 0.2,0.01 h 0.02 c 3.29,0.68 4.49,5.84 4.09,7.92 -0.31,2.19 -2.77,3.61 -5.51,3.33 -0.2,-0.06 -0.38,-0.06 -0.54,-0.06 -1.7,-0.29 -3.12,-1.21 -3.92,-2.47 -0.64,-0.89 -0.87,-1.81 -0.68,-2.79 0.35,-1.89 3.14,-6.29 6.34,-5.95 m -20.41,241.89 h 0.25 0.03 c 3.43,0.39 5.15,7.37 5.15,8.26 0,0.62 -0.27,1.83 -2.21,2.54 -0.87,0.34 -2.01,0.56 -3.22,0.56 h -1.44 c -2.5,-0.3 -4.02,-1.39 -4.02,-2.97 0,-0.97 1.2,-5.23 3.1,-7.21 0.69,-0.79 1.58,-1.18 2.36,-1.18 m 16.37,-217.96 0.14,0.08 h 0.06 c 3.24,0.49 4.61,5.68 4.25,7.76 -0.32,2.32 -2.73,3.82 -5.71,3.47 l -0.26,-0.04 c -1.74,-0.22 -3.15,-1.05 -4.02,-2.27 -0.59,-0.86 -0.83,-1.88 -0.7,-2.87 0.33,-1.92 3.06,-6.42 6.24,-6.13 m -10.91,96.62 h 0.12 c 3.23,0.34 4.88,5.36 4.81,7.4 -0.15,1.21 -0.9,2.38 -2.1,3.09 -1.03,0.63 -2.33,0.94 -3.65,0.83 l -2.01,-0.2 c -1.1,-0.05 -1.86,-0.05 -1.97,-0.05 l -1.44,-0.17 0.12,-1.61 0.2,-2.67 c 0.08,-1.41 1.28,-3.98 2.85,-5.4 1.27,-1.11 2.37,-1.25 3.07,-1.22 m 7.5,-72.49 h 0.14 c 3.27,0.41 4.73,5.6 4.44,7.66 -0.26,2.36 -2.88,3.92 -5.89,3.62 l -3.92,-0.51 -0.56,-0.09 -0.42,-0.5 c -0.41,-0.56 -0.41,-0.56 0.05,-3.91 0.24,-2.04 2.91,-6.61 6.16,-6.27 m -5.39,48.3 h 0.09 c 3.28,0.3 4.88,5.41 4.68,7.43 -0.2,2.44 -2.77,4.05 -5.83,3.85 l -3.79,-0.33 -1.59,-0.12 0.14,-1.67 0.26,-2.65 c 0.09,-1.44 1.32,-3.94 2.99,-5.35 1.23,-1.07 2.34,-1.23 3.05,-1.16 m 2.49,-24.2 v 0 c 3.13,0.36 4.97,4.75 4.79,6.85 l -0.37,2.83 c -0.21,1.78 -2.14,2 -5.6,1.58 -4,-0.4 -5.36,-1.12 -5.17,-2.74 l 0.04,-0.55 0.26,-2.3 c 0.25,-2.07 3.03,-5.99 6.05,-5.67 m 187.02,293.42 c -3.23,-0.36 -4.98,-5.32 -4.84,-7.34 0.17,-2.4 2.69,-4.23 5.66,-4 l 0.39,0.04 c 2.85,0.28 4.94,2.27 4.78,4.6 -0.1,1.44 -1.21,3.91 -2.84,5.45 -0.94,0.86 -1.94,1.3 -3.15,1.25 m 4.06,-72.95 h -0.2 -0.03 c -3.16,-0.31 -5.03,-5.21 -4.91,-7.18 0.04,-2.45 2.59,-4.24 5.58,-4.1 0.17,0 0.31,0 0.49,0.03 2.84,0.29 4.81,2.2 4.74,4.46 -0.05,2.07 -2.33,6.95 -5.67,6.79 m 0.9,-24.25 h -0.18 c -3.24,-0.4 -5.05,-5.18 -4.99,-7.19 0.09,-2.39 2.49,-4.22 5.54,-4.17 0.21,0 0.4,0.04 0.56,0.04 2.83,0.31 4.85,2.23 4.79,4.46 -0.1,1.41 -1.15,4 -2.72,5.48 -0.91,0.93 -1.97,1.38 -3,1.38 m 0.77,-24.3 -0.19,-0.11 h -0.13 c -3.07,-0.26 -4.97,-5.03 -4.97,-6.99 0.11,-2.43 2.52,-4.31 5.55,-4.23 0.27,0 0.43,0 0.64,0.02 2.78,0.27 4.75,2.12 4.71,4.38 -0.06,1.43 -1.09,4.04 -2.62,5.52 -0.95,0.91 -2.01,1.41 -2.99,1.41 m -2.77,72.84 h -0.18 -0.05 c -3.19,-0.33 -5.05,-5.19 -4.88,-7.18 0.13,-2.45 2.56,-4.25 5.75,-4.08 0,0 0.1,0 0.29,0.01 2.82,0.32 4.94,2.24 4.83,4.5 -0.09,1.49 -1.25,3.98 -2.83,5.46 -0.93,0.91 -2,1.37 -2.93,1.29 m 3.3,-97.15 c -0.11,-0.02 -0.3,-0.05 -0.3,-0.05 -3.13,-0.36 -5,-5.05 -5,-7.03 0,-2.41 2.48,-4.28 5.46,-4.23 0.26,-0.04 0.52,0 0.77,0 2.65,0.31 4.67,2.11 4.67,4.35 -0.09,1.42 -1.12,4.04 -2.57,5.52 -0.97,0.98 -2,1.44 -3.03,1.44 m 0.34,-24.3 c -0.31,0 -0.5,-0.06 -0.75,-0.06 -2.7,-0.28 -4.64,-2.09 -4.64,-4.27 0,-2.1 2.2,-7.01 5.47,-7.01 0.26,-0.01 0.51,0 0.79,0 0.67,0.09 1.36,0.24 1.87,0.55 0.39,-0.42 0.81,-0.65 1.34,-0.56 0.81,0.04 1.5,0.86 1.35,1.72 0,0.39 -0.15,0.73 -0.37,0.93 0.27,0.51 0.37,1.07 0.41,1.6 -0.04,1.48 -1,4.11 -2.49,5.6 -0.95,1 -1.95,1.44 -2.98,1.5 m -11.91,242.89 c -3.29,-0.31 -4.94,-5.3 -4.77,-7.29 0.22,-2.48 2.74,-4.19 5.76,-3.96 l 0.22,0.05 c 2.9,0.29 5.06,2.4 4.86,4.75 -0.21,2.1 -2.71,6.75 -6.07,6.45 m -2.21,24.4 c -3.02,-0.37 -5.18,-2.32 -4.93,-4.61 0.15,-1.7 2.69,-7.03 6.06,-6.74 l 3.89,0.37 1.51,0.1 -0.13,1.63 -0.24,2.94 c -0.22,2.07 -2.71,6.59 -6.16,6.31 m 5.94,-72.89 c -3.26,-0.38 -4.95,-5.36 -4.81,-7.4 0.16,-2.41 2.62,-4.17 5.7,-3.94 h 0.28 c 2.9,0.3 5.02,2.32 4.82,4.69 -0.07,1.37 -1.14,3.9 -2.87,5.42 -0.9,0.85 -2,1.27 -3.12,1.23 m -1.76,24.25 c -3.26,-0.35 -4.96,-5.34 -4.87,-7.36 0.25,-2.45 2.77,-4.16 5.8,-3.96 l 0.26,0.05 c 2.91,0.27 5.01,2.32 4.84,4.73 -0.15,1.39 -1.25,3.87 -2.9,5.33 -0.91,0.86 -2,1.28 -3.13,1.21 m 4.98,-72.85 -0.13,-0.02 -0.07,0.02 c -3.19,-0.37 -4.99,-5.28 -4.84,-7.28 0.1,-2.45 2.61,-4.21 5.61,-4.07 l 3.94,0.22 1.52,0.07 -0.16,1.62 -0.08,2.67 c -0.03,1.49 -1.17,4.04 -2.76,5.48 -1.01,0.88 -1.98,1.31 -3.03,1.29 m 0.85,-291.49 h -0.71 c -2.98,-0.36 -5.08,-4.65 -5.28,-6.49 -0.16,-1.23 0.44,-2.45 1.55,-3.39 0.91,-0.85 2.19,-1.3 3.49,-1.46 0.53,-0.03 0.95,-0.03 1.42,0 2.45,0.32 4.23,1.77 4.39,3.77 0.12,1.46 -0.67,4.1 -2.07,5.85 -1.06,1.24 -2.13,1.58 -2.79,1.72 m -18.06,-119.78 c -0.37,0.14 -0.81,0.18 -1.24,0.14 -2.72,-0.27 -5.3,-3.53 -5.8,-5.16 -0.62,-2.32 1.14,-4.89 4.04,-5.84 0.9,-0.3 1.8,-0.44 2.72,-0.3 1.85,0.23 3.15,1.19 3.64,2.75 0.46,1.38 0.15,4.2 -0.85,6.13 -0.78,1.52 -1.81,2.08 -2.51,2.28 m 22.17,241.16 c 0,0 -0.18,0 -0.31,-0.05 -3.02,-0.32 -5.08,-5 -5.08,-6.9 0,-2.44 2.39,-4.38 5.42,-4.41 0.31,0 0.56,0.02 0.84,0.03 2.68,0.29 4.56,2.04 4.56,4.19 0,1.47 -0.96,4.06 -2.35,5.68 -0.96,0.92 -1.97,1.41 -3.08,1.46 m -8.92,-169.74 c -0.27,0.04 -0.57,0.08 -0.86,0.04 -2.84,-0.29 -5.16,-4.19 -5.45,-6.07 -0.31,-2.43 1.8,-4.66 4.86,-5.15 0.54,-0.12 1.18,-0.15 1.75,-0.09 2.33,0.27 3.91,1.66 4.18,3.51 0.18,1.45 -0.47,4.17 -1.75,5.92 -0.96,1.32 -1.99,1.78 -2.73,1.84 m -7.76,-47.87 c -0.33,0.11 -0.68,0.13 -1.08,0.11 -2.76,-0.33 -5.22,-3.86 -5.61,-5.67 -0.52,-2.28 1.35,-4.67 4.32,-5.48 0.82,-0.17 1.62,-0.23 2.37,-0.17 2,0.23 3.55,1.47 3.85,3.06 0.3,1.43 -0.08,4.22 -1.2,6.1 -0.87,1.42 -1.88,1.93 -2.65,2.05 m 4.34,23.93 c -0.71,0.06 -1.35,0.06 -1.95,0.03 -2.17,-0.26 -3.79,-1.51 -4.06,-3.29 -0.4,-2.06 0.89,-7.27 4.09,-7.95 0.73,-0.12 1.43,-0.19 2.1,-0.12 0.25,0.05 0.44,0.1 0.69,0.17 0.34,-0.56 0.89,-0.93 1.57,-0.8 0.8,0.08 1.38,0.85 1.35,1.73 -0.07,0.29 -0.13,0.5 -0.26,0.73 0.29,0.39 0.63,0.93 0.68,1.47 0.27,1.43 -0.32,4.15 -1.49,5.99 -0.96,1.39 -2,1.81 -2.72,2.04 m 6.15,48.11 c -0.59,0.01 -1.05,0.01 -1.53,0 -2.43,-0.31 -4.13,-1.74 -4.32,-3.7 -0.23,-2.04 1.37,-7.19 4.65,-7.61 0.52,-0.02 1.03,-0.04 1.55,0 0.45,0.03 0.88,0.13 1.2,0.23 0.29,-0.46 0.9,-0.77 1.45,-0.69 0.81,0.12 1.43,0.85 1.37,1.78 0,0.24 -0.17,0.5 -0.28,0.73 0.28,0.47 0.46,1.02 0.56,1.6 0.13,1.43 -0.62,4.09 -1.91,5.82 -0.99,1.38 -2.07,1.73 -2.74,1.84 m 5.58,96.9 h -0.45 c -3.05,-0.34 -5.1,-4.89 -5.13,-6.76 -0.06,-1.2 0.55,-2.47 1.75,-3.34 0.95,-0.68 2.18,-1.11 3.57,-1.14 0.34,0 0.66,-0.08 0.98,0 2.63,0.21 4.46,1.95 4.57,4.03 0,1.47 -0.93,4.04 -2.31,5.65 -0.92,1 -1.92,1.56 -2.98,1.56 m -1.93,-48.47 h -0.57 c -3.05,-0.37 -5.13,-4.76 -5.25,-6.6 -0.19,-2.44 2.11,-4.49 5.17,-4.73 0.38,-0.01 0.81,-0.01 1.2,0 2.54,0.27 4.36,1.84 4.48,3.86 0.06,1.49 -0.77,4.13 -2.15,5.79 -1.09,1.25 -2.16,1.58 -2.88,1.68 m 2.45,72.76 c -0.12,0.03 -0.25,0 -0.41,0 -3.1,-0.3 -5.14,-4.93 -5.14,-6.84 -0.06,-2.45 2.31,-4.44 5.33,-4.48 3.96,-0.14 4.06,-0.12 4.06,-0.12 l 1.34,0.12 0.08,1.46 0.09,2.74 c 0,1.39 -1.02,4.06 -2.45,5.59 -1.09,1.23 -2.22,1.53 -2.9,1.53 m -1.24,-48.57 c -0.21,0.05 -0.6,0.05 -0.6,0.05 -3.03,-0.33 -5.08,-4.82 -5.16,-6.71 -0.11,-2.39 2.13,-4.45 5.27,-4.69 0.37,0 0.76,0.06 1.11,0.1 2.53,0.26 4.36,1.97 4.43,3.97 0.09,1.41 -0.79,4.08 -2.18,5.73 -0.86,0.93 -1.88,1.53 -2.87,1.55"
         style="fill:#c5a718;fill-opacity:1;fill-rule:nonzero;stroke:none"
         id="path26" /><path
         d="m 1595.28,3663.47 c -1.33,6.43 -3.84,8.45 -3.84,8.45 -2.36,1.92 -2.8,5.75 -0.94,8.41 0,0 4.26,6.2 2.49,14.59 -0.16,1.11 -0.45,2.19 -0.7,3.31 -1.79,8.58 -7.07,13.72 -11.82,11.89 -23.62,-9.19 -48.28,-11.25 -73.13,-6.22 -5,1.04 -9.34,-4.88 -9.61,-13.66 -0.06,-1.12 -0.06,-2.25 -0.11,-3.39 -0.29,-8.59 4.97,-13.97 4.97,-13.97 2.25,-2.3 2.49,-6.12 0.49,-8.44 0,0 -2.13,-2.42 -2.35,-8.98 -0.05,-1.09 -0.05,-2.23 -0.12,-3.38 -0.34,-8.79 4.01,-17.14 9.58,-18.28 26.95,-5.62 53.82,-3.29 79.54,6.68 5.27,2.04 8.02,11.02 6.21,19.63 -0.2,1.11 -0.43,2.23 -0.66,3.36"
         style="fill:#c5a718;fill-opacity:1;fill-rule:nonzero;stroke:none"
         id="path28" /><path
         d="m 1449.95,3979.17 c -7.55,3.62 -11.73,2.29 -11.73,2.29 -3.9,-1.24 -8.04,1.29 -9.22,5.56 0,0 -2.82,10.03 -12.66,14.73 -1.34,0.54 -2.59,1.22 -3.93,1.83 -10.12,4.83 -19.62,2.68 -21.66,-4.34 -10.03,-34.95 -28.09,-65.46 -53.47,-90.41 -5.19,-5.04 -2.75,-14.89 5.88,-22.26 1.1,-1.01 2.19,-1.91 3.33,-2.88 8.37,-7.22 18.15,-5.37 18.15,-5.37 4.19,0.76 8.19,-1.97 8.84,-6.23 0,0 0.77,-4.42 7.21,-9.98 1.06,-0.96 2.22,-1.9 3.32,-2.83 8.59,-7.36 20.56,-9.11 26.2,-3.52 27.67,27.18 47.4,60.38 58.33,98.44 2.23,7.86 -4.6,18.31 -14.72,23.12 -1.29,0.62 -2.58,1.21 -3.87,1.85"
         style="fill:#c5a718;fill-opacity:1;fill-rule:nonzero;stroke:none"
         id="path30" /><path
         d="m 1073.06,4091 c 0,0 -23.88,-89.99 7.1,-171.19 0,0 -17.82,114.68 -7.1,171.19"
         style="fill:#c5a718;fill-opacity:1;fill-rule:nonzero;stroke:none"
         id="path32" /><path
         d="m 1162.09,4069.07 c 0,0 -4.29,-45.5 5.04,-70.66 9.41,-25.29 -16.96,-5.36 -16.96,-5.36 0,0 -42.63,38.73 -41.11,40.18 1.51,1.43 12.93,15.82 13.23,17.12"
         style="fill:#c5a718;fill-opacity:1;fill-rule:nonzero;stroke:none"
         id="path34" /><path
         d="m 1128.11,3974.43 c -5.36,50.07 9.53,85.86 9.53,85.86 0,0 -3.27,-42.43 -4.92,-56.08 -1.76,-13.93 1.63,-54.43 1.63,-54.43 0,0 -5.37,16.6 -6.24,24.65"
         style="fill:#c5a718;fill-opacity:1;fill-rule:nonzero;stroke:none"
         id="path36" /><path
         d="m 1582.33,3691.44 c 0.31,-3.33 -3.76,-4.72 -3.76,-4.72 -28.71,-7.72 -64.16,0.53 -64.16,0.53 0,0 24.33,0.96 32.38,1.1 8.35,0.11 30.46,6.8 30.46,6.8 0,0 4.67,-0.39 5.08,-3.71"
         style="fill:#3147a4;fill-opacity:1;fill-rule:nonzero;stroke:none"
         id="path38" /><path
         d="m 1585.98,3657.02 c 0.32,-3.23 -3.77,-4.69 -3.77,-4.69 -28.69,-7.75 -64.08,0.5 -64.08,0.5 0,0 24.26,1.04 32.4,1.16 8.23,0.12 30.45,6.8 30.45,6.8 0,0 4.62,-0.48 5,-3.77"
         style="fill:#3147a4;fill-opacity:1;fill-rule:nonzero;stroke:none"
         id="path40" /><path
         d="m 1366.97,3318.56 c 2.12,1.51 2.48,2.74 2.48,2.74 0.37,1.15 1.6,1.92 2.85,1.7 0,0 2.91,-0.51 5.65,1.45 0.35,0.28 0.71,0.54 1.06,0.81 2.83,2.07 3.9,4.67 2.53,6.13 -6.72,6.86 -11.08,15.31 -12.84,24.96 -0.37,1.95 -3.13,2.59 -6.39,1.21 -0.41,-0.18 -0.8,-0.35 -1.23,-0.5 -3.02,-1.29 -4.22,-4.05 -4.22,-4.05 -0.53,-1.18 -1.88,-1.88 -3.01,-1.51 0,0 -1.13,0.34 -3.59,-0.71 -0.37,-0.09 -0.82,-0.3 -1.21,-0.42 -3.17,-1.37 -5.6,-4.21 -5.2,-6.38 1.99,-10.52 6.66,-19.67 14.04,-27.18 1.52,-1.55 5.14,-1.11 7.92,0.93 0.45,0.26 0.77,0.53 1.16,0.82"
         style="fill:#c5a718;fill-opacity:1;fill-rule:nonzero;stroke:none"
         id="path42" /><path
         d="m 1370.43,3333.33 c -6.79,8.2 -7.28,17.34 -7.28,17.34 0,0 3.97,-8.32 4.99,-11.1 1.16,-2.83 6.44,-9.64 6.44,-9.64 0,0 -3.1,2.08 -4.15,3.4"
         style="fill:#c5a718;fill-opacity:1;fill-rule:nonzero;stroke:none"
         id="path44" /><path
         d="m 1358.73,3327.51 c -6.77,8.22 -7.24,17.34 -7.24,17.34 0,0 3.91,-8.32 5.05,-11.11 1.18,-2.8 6.37,-9.66 6.37,-9.66 0,0 -3.06,2.1 -4.18,3.43"
         style="fill:#c5a718;fill-opacity:1;fill-rule:nonzero;stroke:none"
         id="path46" /><path
         d="m 1443.9,3962.45 c 2.77,-1.54 1.68,-5.92 1.68,-5.92 -9.48,-29.31 -35.25,-55.48 -35.25,-55.48 0,0 12.4,21.65 16.72,28.78 4.41,7.3 11.14,30.31 11.14,30.31 0,0 2.85,3.83 5.71,2.31"
         style="fill:#3147a4;fill-opacity:1;fill-rule:nonzero;stroke:none"
         id="path48" /><path
         d="m 1408.21,3985.08 c 2.82,-1.52 1.78,-5.91 1.78,-5.91 -9.45,-29.3 -35.28,-55.52 -35.28,-55.52 0,0 12.4,21.66 16.7,28.81 4.42,7.33 11.07,30.34 11.07,30.34 0,0 2.88,3.83 5.73,2.28"
         style="fill:#3147a4;fill-opacity:1;fill-rule:nonzero;stroke:none"
         id="path50" /><path
         d="m 1015.65,3436.29 c -15.849,-4.07 -31.837,-6.12 -48.15,-6.23 -14.477,12.89 52.6,5.28 48.15,6.23"
         style="fill:#c5a718;fill-opacity:1;fill-rule:nonzero;stroke:none"
         id="path52" /><path
         d="m 1001.44,3425.7 c -15.21,-8.79 -67.143,-28.12 -72.983,3.46 22.356,-11.46 49.531,-5.73 72.983,-3.46"
         style="fill:#c5a718;fill-opacity:1;fill-rule:nonzero;stroke:none"
         id="path54" /><path
         d="m 1092.4,3419.37 c 25.91,-1.44 67.26,9.64 59.29,-25.33 36.45,-21.48 1.19,-59.75 -29.68,-56.47 -24.64,2.59 -50.66,-28.53 -34.53,-54.28 20,-15.53 81.66,18.84 84.04,-25.29 -23.82,6 -38.27,1.51 -61.62,10.58 -3.13,-7.68 9.39,-20.87 13.26,-26.11 -14.65,-3.83 -22.85,12.76 -29.03,21.9 -8.81,-5.95 -7.8,-14.85 2.97,-26.66 -13.48,3.77 -22.2,12.34 -26.14,25.86 -7.73,-0.79 -10.1,-7.03 -7.2,-18.7 -15.69,3.02 -1.98,25.65 -10.46,30.59 -7.69,-7.26 -12.17,-24.58 -27.55,-18.27 4.98,3.17 37.3,53.03 37.89,59.32 -4.43,2.68 -28.8,-17.97 -42.5,-13.43 19.71,3.22 22.75,46.05 47.58,25.75 8.22,1.74 -3.94,21.84 -11.97,16.66 -5.03,-2.91 5.34,-3.79 5.5,-6.13 -25.06,6.81 -13.85,-3.63 -25.06,-9.05 3.94,31.62 -24.29,34.27 -46.354,37.86 16.124,9.7 33.664,14.06 52.604,12.88 -28.43,-29.45 24.75,5.9 12.21,-30.72 15.7,14.09 21.8,7.37 29.92,23.53 3.84,36.85 30.37,22.52 49.78,17.7 -1.62,-2.47 5.44,10.65 5.98,8.6 -9.15,6.31 -32.62,9.71 -42.82,5.1 -26.43,-14.7 -39.03,-2.46 -70.55,-13.55 -41.522,-14.57 -108.003,-37.51 -129.214,22.76 69.141,-44.42 126.864,47.09 193.654,4.9"
         style="fill:#c5a718;fill-opacity:1;fill-rule:nonzero;stroke:none"
         id="path56" /><path
         d="m 1076.35,3386.26 c 3.76,-8.04 -2.25,5.24 0,0"
         style="fill:#c5a718;fill-opacity:1;fill-rule:nonzero;stroke:none"
         id="path58" /><path
         d="m 912.148,3378.28 c 4.79,-3.62 9.707,-7.16 14.516,-10.8 -8.465,-7.22 -46.43,-11.62 -50.762,4.17 12.473,-0.21 24.641,2.07 36.246,6.63"
         style="fill:#c5a718;fill-opacity:1;fill-rule:nonzero;stroke:none"
         id="path60" /><path
         d="m 1065.63,3370.46 c 5.11,-2.28 9.52,-1.9 13.38,1.28 -11.77,-8.8 -36.23,6.12 -21.19,13.71 0.39,-6.13 3.03,-11.06 7.81,-14.99"
         style="fill:#c5a718;fill-opacity:1;fill-rule:nonzero;stroke:none"
         id="path62" /><path
         d="m 943.105,3363.23 c 13.672,-2.56 28.504,5.93 39.907,-2.99 -12.11,-5.89 -20.871,-14.94 -26.352,-27.15 -0.605,1.46 25.703,1.08 23.313,2.02 -23.571,-5.98 -43.746,-20.37 -59.774,-38.33 -21.594,6.07 -54.711,39.3 -46.601,64.74 20.148,-13.91 49.629,-11.15 69.507,1.71"
         style="fill:#c5a718;fill-opacity:1;fill-rule:nonzero;stroke:none"
         id="path64" /><path
         d="m 1028.37,3345.25 c 8.15,-18.39 -16.23,-49.29 -23.58,-30.73 17.22,3.93 -20.79,-41.78 -28.544,-46.88 -12.891,-7.51 -58.758,-41.77 -68.789,-43.2 -3.047,29.22 13.875,54.94 34.359,73.75 14.539,13.49 77.594,23.13 80.544,29.17 -0.35,2.68 -35.547,18.06 -38.594,18 8.976,10.98 37.904,18.72 44.604,-0.11"
         style="fill:#c5a718;fill-opacity:1;fill-rule:nonzero;stroke:none"
         id="path66" /><path
         d="m 1079.64,3340.55 c -5.81,0.38 -9.52,3.58 -11.07,9.47 3.93,3.91 11,-8.24 11.07,-9.47"
         style="fill:#c5a718;fill-opacity:1;fill-rule:nonzero;stroke:none"
         id="path68" /><path
         d="m 1085.19,3347.33 c 6.61,-13.92 -13.94,12.56 0,0"
         style="fill:#c5a718;fill-opacity:1;fill-rule:nonzero;stroke:none"
         id="path70" /><path
         d="m 1153.78,3338.24 c -2.9,-5.54 -5.81,-11.02 -8.64,-16.5 -5.02,10.39 -2.17,15.88 8.64,16.5"
         style="fill:#c5a718;fill-opacity:1;fill-rule:nonzero;stroke:none"
         id="path72" /><path
         d="m 1137,3319.52 c -5.8,-31.24 -19.67,-10.73 -40.74,-32.4 -7.6,5.47 -7.9,13.52 -1.11,24.12 13.08,7.15 27.05,9.93 41.85,8.28"
         style="fill:#c5a718;fill-opacity:1;fill-rule:nonzero;stroke:none"
         id="path74" /><path
         d="m 1203.44,3314.38 c -22.93,-25.7 -42.06,-14.49 -63.73,-1.95 22.15,9.72 40.3,-4.78 63.73,1.95"
         style="fill:#c5a718;fill-opacity:1;fill-rule:nonzero;stroke:none"
         id="path76" /><path
         d="m 1145.4,3287.99 c -10.8,17.07 -1.08,-45.26 -4.44,16.23 1.54,-5.42 2.98,-10.86 4.44,-16.23"
         style="fill:#c5a718;fill-opacity:1;fill-rule:nonzero;stroke:none"
         id="path78" /><path
         d="m 1028.69,3287.31 c -2.03,-6.68 -1.99,-31.94 -15.55,-20.99 2.24,1.26 48.75,-42.42 59.28,-23.53 12.07,-9.68 25.91,-15.11 41.36,-16.29 2.33,5.42 0,9.79 -7.01,13.29 30.03,-19.1 46.95,-42.01 84.37,-52.62 39.06,-11.17 94.22,-31.91 91.15,-83.12 -17.09,29.66 -58.27,38.49 -89.11,47.36 -12.26,3.56 -84.93,63.3 -85.26,60.33 46.25,-37.01 54.07,-149.09 112.03,-163.42 -36.74,-32.92 -96.35,12.01 -104.08,50.38 1.27,18.67 -7.52,141.98 -45.46,132.92 25.99,-37 35.44,-78.72 33.11,-124.53 -2.28,-44.32 -27.03,-104.19 9.64,-141.22 -167.375,1.96 31.1,248.06 -61.08,271.13 19.23,4.92 5.22,-100.67 1.32,-112.05 -18.67,-54.63 -61.466,-100.27 -28.19,-158.74 -140.62,16.46 40.65,211.08 5.29,270.17 17.9,-2.44 -34,-88.84 -39.055,-95.35 -12.847,-16.18 -26.539,-32.27 -35.605,-51.08 -9.02,-22.2 4.371,-38.22 1.156,-58.84 -51.785,23.86 -45.082,90.28 -11.691,126.12 8.07,8.65 78.505,90.13 71.415,89.69 -21.15,-10.31 -42.052,-36.31 -67.185,-48.61 -30.39,-15 -30.941,-40.08 -37.519,-67.43 -29.477,37.46 -12.313,77.73 22.004,102.79 11.878,8.6 88.91,65.51 94.67,53.64"
         style="fill:#c5a718;fill-opacity:1;fill-rule:nonzero;stroke:none"
         id="path80" /><path
         d="m 1303.09,3245.93 c -0.45,1.09 27.97,17.64 31.53,18.49 2.94,-26.14 3.83,-52.42 5.26,-78.61 -13.73,-3.09 -23.76,2.15 -29.97,15.68 34.35,-15.15 3.77,-131.68 -20.43,-152.7 -20.43,18.37 -18.69,45.35 -33.41,67.96 14.87,-7.02 24.89,-22.74 24.09,-39.35 14.24,-12.42 9.11,52.03 10.11,46.25 -4.29,23.89 -21.22,41.67 -40.16,55.18 26.39,23.97 27.95,64.77 56.94,84.78 -1.29,-5.91 -2.62,-11.8 -3.96,-17.68"
         style="fill:#c5a718;fill-opacity:1;fill-rule:nonzero;stroke:none"
         id="path82" /><path
         d="m 1229.67,3212.42 c -25.81,6.63 -64.22,-31.26 -84.27,5.44 27.5,-2.42 62.27,21.69 84.27,-5.44"
         style="fill:#c5a718;fill-opacity:1;fill-rule:nonzero;stroke:none"
         id="path84" /><path
         d="m 1226.04,3129.85 c 16.61,-11.84 30.14,-28.73 34.84,-48.86 -11.32,9.46 -44.75,59.3 -63.44,47.06 28.6,-14.14 31.09,-39.72 53.93,-56.72 34.77,-25.78 58.54,-72.93 80.92,-108.87 30.1,-37.73 159.68,-147.33 124.22,-191.83 -4.64,6.11 -27.32,55.24 -42.33,47.63 -11.36,-34.19 58.89,-22.75 16.61,-58.96 -32.57,-27.87 -30.11,8.6 -45.37,38.56 -7.93,0.8 0.05,-32.14 0.56,-33.75 -0.17,-20.05 -24.15,-1.54 -36.45,-7.62 -21.86,26.36 -1.8,65.3 -37.65,94.63 9.74,-17.16 9.14,-34.42 8.93,-55.81 -6.15,6.18 -51.13,109.55 -55.81,102.16 18.85,-25.67 6.49,-38.99 7.33,-67.17 -18.17,13.43 -23.87,35.36 -26.71,56.45 1.2,-9.13 -9.49,70.15 -17.89,44.15 4.66,-18.92 15.25,-22.91 -3.13,-43.43 -8.08,14.61 -10.57,30.22 -7.71,46.71 15.24,-30.19 -24.16,59.23 -22.87,35.65 5.15,-7.62 7.74,-16.12 7.81,-25.35 -12.99,4.5 -20.45,35.47 -30.41,34.91 -1.14,-1.11 5.7,-16.7 6.47,-18.71 -16.65,4.23 -36.79,57.44 -28.91,22.11 -9.62,3.22 -12.21,28.46 -23.48,26.42 -11.26,-15.57 64.32,-73.76 77.05,-77.32 6.9,-15.36 -120.34,-69.27 -115.12,-70.73 17.74,7.86 23.6,20.11 44.39,21.76 -30.76,-23.16 -53.14,-47.2 -65.69,-84.28 -3.08,5.51 -13.77,42.42 -11.29,44.99 -8.07,-31.14 6.4,-53.44 19.9,-80.01 7.68,-15.71 15.48,-31.41 23.41,-47.03 3.27,-7.58 -0.35,-45.66 3.2,-48.96 3.1,5.36 4.74,11.24 5.03,17.59 14.8,-37.73 -16.97,-100.42 -61.86,-74.55 -15.92,-5.88 41.14,-12.03 34.41,-8.98 -11.24,-26.37 -37.6,-50.36 -55.51,-72.09 -10.67,-12.87 -31.139,-79.03 -19.98,-48.73 18.29,-34.79 53.31,-136.01 97.1,-145.7 26.48,-5.79 -5.88,-50.36 -16.14,-50.97 2.44,-0.52 -54.97,58.76 -57.1,48.95 24.78,20.28 60.65,-103.53 5.89,-73.86 -14.82,8 -50.038,53.94 -55.803,69.5 -3.848,10.17 -26.492,80.37 -25.809,82.17 -3.258,-9.53 -6.578,-38.53 -7.269,-48.84 -8.102,12.19 6.211,80.02 -6.68,81.81 -8.141,-12.6 -10.086,-31.78 -21.383,-47.78 -20.848,22.51 32.984,66.22 4.402,88.4 2.696,1.02 -27.832,-51.46 -29.121,-54.41 -16.902,40.54 24.047,67.2 12.45,105.56 -4.739,15.9 23.093,41.35 31.086,22.56 17.574,-0.76 27.519,75.78 30.945,87.73 9.222,40.79 -21.473,94.82 -24.973,135.21 -12.82,-48.12 -25.094,-162.79 -111.594,-128.15 -34.519,13.86 -38.66,49.58 -32.191,81.79 7.203,36.6 -24.684,63.95 -1.98,101.75 1.75,-5.36 19.003,-57.32 18.894,-57.16 33.809,20.93 -31.512,80.27 8.988,111 0.555,-14.23 27.399,-51.88 16.418,-64.56 30.293,27.64 -15.414,77.37 21.352,110.19 4.375,-18.11 20.965,-34.57 12.473,-54.67 -2.348,42.77 46.082,91.06 2.804,141.08 -79.679,77.9 -71.988,-75.84 -25.301,-34.87 12.415,-81.68 -99.582,-17.63 -76.488,12.83 -8.055,-36.49 26.758,-73.35 5.285,-110.56 -13.699,-24.54 -54.019,-51.01 -78.269,-21.06 39.551,-2.78 -14.496,207.76 107.012,212.06 140.406,5.04 128.511,-154.11 79.066,-238.65 -19.816,-35.41 -74.402,-87.55 -61.051,-132.37 16.461,-55.35 72.309,1.18 84.098,25.86 19.082,39.5 18.937,85.07 37.769,123.63 10.457,21.47 26.813,39.37 42.875,56.74 11.155,11.49 21.705,23.55 31.685,36.09 11.93,-0.81 22.64,2.43 31.96,9.76 -12.1,18.54 -30.04,-14.05 -9.03,29.43 11.84,-16.48 72.16,-66.22 92.31,-31.8 -25.02,35.71 -40.66,58.6 -24,106.38 38.71,-41.78 96.69,-56.89 137.69,-7.13 0.53,-9.79 -44.7,9.28 -49.74,15.11 -17.3,20.26 -19.62,48.03 -30.28,71.47 17.26,-8.15 35.32,-13.29 54.25,-15.54"
         style="fill:#c5a718;fill-opacity:1;fill-rule:nonzero;stroke:none"
         id="path86" /><path
         d="m 705.676,3031.91 c 4.965,-0.18 9.965,-0.33 14.988,-0.5 -5.562,-11.53 -9.504,-23.61 -11.965,-36.21 -30.09,-8.6 -42.195,38.62 -26.047,55.77 4.61,-10.01 12.297,-16.34 23.024,-19.06"
         style="fill:#c5a718;fill-opacity:1;fill-rule:nonzero;stroke:none"
         id="path88" /><path
         d="m 1270.36,3020.63 c 7.83,-4.57 13.35,-11.2 16.56,-19.7 -1.64,-4.58 -29.74,30.46 -32.2,36.63 6.91,-4.02 12.17,-9.69 15.64,-16.93"
         style="fill:#c5a718;fill-opacity:1;fill-rule:nonzero;stroke:none"
         id="path90" /><path
         d="m 976.711,2878.76 c -5.574,-18.75 -20.496,-27.36 -20.555,-49.77 -0.926,-0.6 5.285,41.74 20.555,49.77"
         style="fill:#c5a718;fill-opacity:1;fill-rule:nonzero;stroke:none"
         id="path92" /><path
         d="m 1144.22,2859.63 c 18.39,-20.87 46.53,-20.52 71.43,-14.26 43.54,11.08 32.06,-32.33 35.47,-61.03 4.28,-35.47 12.39,-70.38 22.54,-104.72 -14.71,-19.99 -45.71,-16.45 -53.83,-43.62 -0.14,3.15 40,-16.12 47.78,-19.28 46.81,-19.38 54.16,-44.21 84.14,-86.66 -6.76,-2.49 -28.59,5.75 -30.22,0.39 11.58,-14.11 31.82,1.2 40.23,-14.29 -29.19,-11.91 -25.24,-32.27 -64.22,-20.56 -12.02,3.58 -66.1,59.76 -66.5,66.8 18.64,-20.51 12.92,-43.72 26.58,-65.06 -18.44,4.51 -53.08,94.81 -60.36,90.03 8.37,5.59 10.02,-60.52 10.16,-67.5 -16.28,7.64 -19.02,24.28 -20.92,40.09 -1.53,12.29 -26.89,47.81 -26.84,45.99 17.56,-20.52 4.73,-37.15 3.25,-59.43 -25.43,16.6 -22.01,57.92 -30.62,83.91 -2.13,39.02 51.53,26.28 39.64,68.35 -9.69,34.36 -59.76,49.22 -86.92,65.1 -23.54,36.3 63.83,61.45 58.22,71.47 -11.92,5.48 -27.76,5.07 -40.64,3.45 11.34,18.19 24.95,37 41.63,20.83"
         style="fill:#c5a718;fill-opacity:1;fill-rule:nonzero;stroke:none"
         id="path94" /><path
         d="m 1125.32,2832.63 c -16.31,-12.08 -32.37,-21.91 -46.76,-36.59 4.12,25.51 21.44,39.57 46.76,36.59"
         style="fill:#c5a718;fill-opacity:1;fill-rule:nonzero;stroke:none"
         id="path96" /><path
         d="m 1286.42,2809.47 c -5.09,9.24 -5.42,18.67 -1.09,28.23 0.39,-9.37 1.21,-18.83 1.09,-28.23"
         style="fill:#c5a718;fill-opacity:1;fill-rule:nonzero;stroke:none"
         id="path98" /><path
         d="m 1466.68,2820.61 c -0.24,-3.54 -0.52,-7.04 -0.78,-10.61 -9.14,5.04 -15.04,12.54 -17.92,22.54 9.29,0.65 15.52,-3.28 18.7,-11.93"
         style="fill:#c5a718;fill-opacity:1;fill-rule:nonzero;stroke:none"
         id="path100" /><path
         d="m 1482.57,2809.19 c -0.66,-4.35 -1.28,-8.67 -1.88,-13.07 -11.81,10.41 -8.61,13.62 -9.02,27.12 6.12,-2.72 9.8,-7.39 10.9,-14.05"
         style="fill:#c5a718;fill-opacity:1;fill-rule:nonzero;stroke:none"
         id="path102" /><path
         d="m 1472.48,2776.08 c 6.13,-14.12 6.98,-18.4 -0.7,-33.73 -7.2,10.98 -2.46,8.63 -13.37,17.47 1,8.08 5.72,13.47 14.07,16.26"
         style="fill:#c5a718;fill-opacity:1;fill-rule:nonzero;stroke:none"
         id="path104" /><path
         d="m 963.805,2732.73 c 0.316,-11.97 47.735,-105.86 52.865,-98.39 -36.19,-4.57 -37.959,-21.29 -51.436,-59.77 -10.761,11.15 17.129,64.82 15.297,82.14 -2.472,24.5 -24.277,60.69 -16.726,76.02"
         style="fill:#c5a718;fill-opacity:1;fill-rule:nonzero;stroke:none"
         id="path106" /><path
         d="m 1375.1,2751.73 c -2.54,-7.93 -2.8,-15.95 -1,-24.04 -12.96,2.44 -19.86,10.57 -20.67,24.42 7.21,-0.15 14.47,-0.26 21.67,-0.38"
         style="fill:#c5a718;fill-opacity:1;fill-rule:nonzero;stroke:none"
         id="path108" /><path
         d="m 1446.67,2758.18 c 7.15,-15.89 5.7,-26.99 -7.9,-39.82 -4.37,11.15 -21.27,46.5 7.9,39.82"
         style="fill:#c5a718;fill-opacity:1;fill-rule:nonzero;stroke:none"
         id="path110" /><path
         d="m 1153.3,2651.63 c 0.29,-1.36 -12.17,-17.72 -13.28,-17.72 -0.46,9.32 1.73,17.81 13.28,17.72"
         style="fill:#c5a718;fill-opacity:1;fill-rule:nonzero;stroke:none"
         id="path112" /><path
         d="m 926.746,2543.62 c -1.066,-2.78 -5.574,-23.87 -5.84,-24.27 -18.597,13.73 5.758,24.98 5.84,24.27"
         style="fill:#c5a718;fill-opacity:1;fill-rule:nonzero;stroke:none"
         id="path114" /><path
         d="m 1280.82,2531.9 c 3.2,-9.19 9.06,-16.06 17.82,-20.4 -16.45,1.09 -28.61,30.93 -17.82,20.4"
         style="fill:#c5a718;fill-opacity:1;fill-rule:nonzero;stroke:none"
         id="path116" /><path
         d="m 1373.26,2503.7 c -6.6,-1.22 -13.28,-2.43 -19.91,-3.65 -2.9,20.95 17.85,4 19.91,3.65"
         style="fill:#c5a718;fill-opacity:1;fill-rule:nonzero;stroke:none"
         id="path118" /><path
         d="m 986.664,2357.51 c 0,0.49 14.586,-30.75 13.976,-32.72 -8.515,-14.4 -12.007,44.86 -13.976,32.72"
         style="fill:#c5a718;fill-opacity:1;fill-rule:nonzero;stroke:none"
         id="path120" /><path
         d="m 1352.36,2331.43 c -16.23,-0.89 16.01,3.13 0,0"
         style="fill:#c5a718;fill-opacity:1;fill-rule:nonzero;stroke:none"
         id="path122" /><path
         d="m 1122.37,2299.49 c 0.27,-6.68 0.55,-13.37 0.85,-20.01 -15.19,-13.12 -26.67,64.21 -0.85,20.01"
         style="fill:#c5a718;fill-opacity:1;fill-rule:nonzero;stroke:none"
         id="path124" /><path
         d="m 1078.56,2274.87 c 1.58,-10.91 -0.58,-21.09 -6.5,-30.44 -0.61,5.44 -19.58,66.05 6.5,30.44"
         style="fill:#c5a718;fill-opacity:1;fill-rule:nonzero;stroke:none"
         id="path126" /><path
         d="m 1114.52,2278.19 c 5.68,-17.69 -20.86,-27.82 -33.59,-35.36 1.71,4.49 20.25,57.87 33.59,35.36"
         style="fill:#c5a718;fill-opacity:1;fill-rule:nonzero;stroke:none"
         id="path128" /><path
         d="m 1293.67,3263.14 15.46,57.78 34.23,4.09 47.18,24.42 -8.17,-44.78 -13.85,-48 -15.64,-25.46 -46.19,13.25"
         style="fill:#c5a718;fill-opacity:1;fill-rule:nonzero;stroke:none"
         id="path130" /><path
         d="m 1453.14,2360.05 c 0,52.97 0,62.74 -0.71,73.91 -0.67,11.8 -3.48,17.42 -14.96,19.88 -2.8,0.61 -8.72,1.02 -13.58,1.02 -3.83,0 -5.93,0.69 -5.93,3.13 0,2.42 2.44,3.12 7.68,3.12 18.46,0 40.37,-1.04 47.72,-1.04 11.88,0 38.31,1.04 49.12,1.04 21.98,0 45.35,-2.08 64.17,-14.95 9.76,-6.63 23.71,-24.39 23.71,-47.74 0,-25.79 -10.82,-49.54 -46,-78.12 30.99,-39.02 55.02,-69.97 75.61,-91.64 19.51,-20.19 33.79,-22.64 39.07,-23.69 3.78,-0.67 6.89,-1.04 9.72,-1.04 2.8,0 4.21,-1.05 4.21,-2.79 0,-2.78 -2.51,-3.54 -6.68,-3.54 h -33.11 c -19.51,0 -28.23,1.81 -37.29,6.7 -14.99,7.99 -28.19,24.36 -47.77,51.22 -13.9,19.18 -29.92,42.89 -34.48,48.08 -1.71,2.1 -3.81,2.42 -6.26,2.42 l -30.3,0.73 c -1.73,0 -2.8,-0.73 -2.8,-2.87 v -4.82 c 0,-32.41 0,-59.93 1.74,-74.57 1.06,-10.11 3.14,-17.76 13.58,-19.19 5.25,-0.68 12.88,-1.37 17.11,-1.37 2.73,0 4.16,-1.05 4.16,-2.79 0,-2.44 -2.45,-3.54 -6.98,-3.54 -20.21,0 -45.99,1.1 -51.19,1.1 -6.69,0 -28.6,-1.1 -42.52,-1.1 -4.54,0 -7.03,1.1 -7.03,3.54 0,1.74 1.44,2.79 5.6,2.79 5.24,0 9.41,0.69 12.57,1.37 6.96,1.43 8.7,9.08 10.07,19.19 1.75,14.64 1.75,42.16 1.75,74.2 z m 41.14,-27.52 c 0,-3.86 0.71,-5.24 3.16,-6.29 7.29,-2.4 17.73,-3.46 26.45,-3.46 13.98,0 18.5,1.37 24.76,5.89 10.46,7.71 20.51,23.71 20.51,52.3 0,49.49 -32.7,63.75 -53.27,63.75 -8.74,0 -14.99,-0.31 -18.45,-1.34 -2.45,-0.75 -3.16,-2.09 -3.16,-4.95 v -105.9"
         style="fill:#c5a718;fill-opacity:1;fill-rule:nonzero;stroke:none"
         id="path132" /><path
         d="m 1730.21,2288.58 c -1.76,0 -2.46,-0.64 -3.17,-2.73 l -18.8,-49.79 c -3.45,-8.75 -5.18,-17.21 -5.18,-21.33 0,-6.23 3.1,-10.84 13.87,-10.84 h 5.2 c 4.22,0 5.29,-0.66 5.29,-2.75 0,-2.78 -2.1,-3.54 -5.94,-3.54 -11.15,0 -26.13,1.14 -36.95,1.14 -3.83,0 -22.98,-1.14 -41.13,-1.14 -4.5,0 -6.63,0.76 -6.63,3.54 0,2.09 1.4,2.75 4.21,2.75 3.16,0 8.03,0.41 10.78,0.73 16.02,2.11 22.67,14 29.64,31.44 l 87.5,218.8 c 4.16,10.04 6.29,13.93 9.77,13.93 3.07,0 5.21,-3.13 8.67,-11.16 8.39,-19.18 64.16,-161.35 86.41,-214.3 13.31,-31.38 23.39,-36.25 30.68,-38.03 5.23,-1 10.44,-1.41 14.69,-1.41 2.77,0 4.5,-0.31 4.5,-2.75 0,-2.78 -3.16,-3.54 -16.05,-3.54 -12.5,0 -37.94,0 -65.83,0.76 -6.32,0.38 -10.48,0.38 -10.48,2.78 0,2.09 1.36,2.75 4.89,3.16 2.45,0.67 4.86,3.79 3.1,7.99 l -27.85,73.85 c -0.69,1.8 -1.71,2.44 -3.49,2.44 z m 71.06,17.44 c 1.75,0 2.12,1.1 1.75,2.09 l -31.33,86.13 c -0.36,1.34 -0.73,3.11 -1.78,3.11 -1.01,0 -1.73,-1.77 -2.07,-3.11 l -32.06,-85.73 c -0.38,-1.39 0,-2.49 1.39,-2.49 h 64.1"
         style="fill:#c5a718;fill-opacity:1;fill-rule:nonzero;stroke:none"
         id="path134" /><path
         d="m 1960.19,2360.05 c 0,52.97 0,62.76 -0.67,73.89 -0.71,11.84 -3.48,17.44 -15.03,19.9 -2.77,0.61 -8.68,1.02 -13.59,1.02 -3.84,0 -5.92,0.69 -5.92,3.13 0,2.42 2.45,3.15 7.69,3.15 18.48,0 40.41,-1.04 49.51,-1.04 8.33,0 30.28,1.04 43.92,1.04 4.87,0 7.3,-0.73 7.3,-3.15 0,-2.44 -2.15,-3.13 -6.29,-3.13 -3.87,0 -5.88,-0.41 -10.12,-1.02 -9.39,-1.77 -12.17,-7.68 -12.87,-19.9 -0.71,-11.13 -0.71,-20.92 -0.71,-73.89 v -64.46 c 0,-14.98 1.06,-31.72 1.06,-49.16 0,-19.86 -1.42,-42.13 -8.4,-61.68 -7.31,-21.24 -25.75,-45.32 -59.22,-65.86 -4.55,-2.8 -10.12,-5.57 -17.43,-9.03 -2.45,-1.43 -5.17,-2.13 -6.95,-2.13 -1.39,0 -2.81,1.08 -2.81,2.82 0,1.73 1.75,3.12 7.7,6.23 4.5,2.42 9.7,6.28 16.71,13.23 26.47,26.86 26.12,61.69 26.12,130 v 100.04"
         style="fill:#c5a718;fill-opacity:1;fill-rule:nonzero;stroke:none"
         id="path136" /><path
         d="m 2119.11,2288.58 c -1.73,0 -2.45,-0.64 -3.12,-2.73 l -18.8,-49.79 c -3.49,-8.75 -5.25,-17.21 -5.25,-21.33 0,-6.23 3.13,-10.84 13.93,-10.84 h 5.22 c 4.2,0 5.21,-0.66 5.21,-2.75 0,-2.78 -2.05,-3.54 -5.88,-3.54 -11.2,0 -26.18,1.14 -36.96,1.14 -3.85,0 -23.04,-1.14 -41.13,-1.14 -4.54,0 -6.6,0.76 -6.6,3.54 0,2.09 1.33,2.75 4.19,2.75 3.06,0 7.96,0.41 10.78,0.73 16.02,2.11 22.66,14 29.57,31.44 l 87.54,218.8 c 4.14,10.04 6.26,13.93 9.72,13.93 3.17,0 5.25,-3.13 8.77,-11.16 8.34,-19.18 64.1,-161.35 86.39,-214.3 13.24,-31.38 23.29,-36.25 30.67,-38.03 5.22,-1 10.45,-1.41 14.63,-1.41 2.84,0 4.55,-0.31 4.55,-2.75 0,-2.78 -3.18,-3.54 -16.06,-3.54 -12.52,0 -37.99,0 -65.83,0.76 -6.34,0.38 -10.42,0.38 -10.42,2.78 0,2.09 1.33,2.75 4.8,3.16 2.46,0.67 4.93,3.79 3.19,7.99 l -27.93,73.85 c -0.67,1.8 -1.68,2.44 -3.44,2.44 z m 71.09,17.44 c 1.77,0 2.13,1.1 1.77,2.09 l -31.4,86.13 c -0.32,1.34 -0.66,3.11 -1.68,3.11 -1.08,0 -1.78,-1.77 -2.13,-3.11 l -32.08,-85.73 c -0.33,-1.39 0,-2.49 1.42,-2.49 h 64.1"
         style="fill:#c5a718;fill-opacity:1;fill-rule:nonzero;stroke:none"
         id="path138" /><path
         d="m 2326.55,2201.8 c -5.56,2.5 -6.66,4.22 -6.66,11.88 0,19.16 1.44,40.1 1.75,45.67 0.37,5.23 1.42,9.06 4.2,9.06 3.14,0 3.5,-3.17 3.5,-5.96 0,-4.53 1.38,-11.82 3.1,-17.73 7.7,-25.87 28.28,-35.21 49.87,-35.21 31.36,0 46.69,21.24 46.69,39.72 0,17.1 -5.23,33.45 -34.12,55.78 l -16.07,12.52 c -38.32,29.95 -51.57,54.38 -51.57,82.66 0,38.24 32.07,65.79 80.48,65.79 22.7,0 37.31,-3.44 46.37,-5.91 3.15,-0.7 4.89,-1.77 4.89,-4.2 0,-4.49 -1.41,-14.6 -1.41,-41.81 0,-7.64 -1.04,-10.4 -3.81,-10.4 -2.47,0 -3.49,2.03 -3.49,6.22 0,3.14 -1.77,13.94 -9.04,23.05 -5.26,6.6 -15.38,17.03 -38,17.03 -25.78,0 -41.53,-14.96 -41.53,-35.9 0,-16 8.04,-28.25 36.99,-50.18 l 9.73,-7.3 c 41.85,-32.39 57.15,-55.77 57.15,-88.88 0,-20.23 -7.64,-44.28 -32.75,-60.62 -17.4,-11.16 -36.93,-14.31 -55.37,-14.31 -20.26,0 -35.92,2.47 -50.9,9.03"
         style="fill:#c5a718;fill-opacity:1;fill-rule:nonzero;stroke:none"
         id="path140" /><path
         d="m 2594.86,2441.58 -51.89,-1.39 c -20.27,-0.66 -28.64,-2.4 -33.85,-10.08 -3.51,-5.24 -5.19,-9.41 -5.91,-12.22 -0.68,-2.76 -1.73,-4.18 -3.86,-4.18 -2.37,0 -3.12,1.74 -3.12,5.6 0,5.56 6.62,37.28 7.33,40.1 1.06,4.49 2.05,6.6 4.19,6.6 2.8,0 6.27,-3.47 14.95,-4.23 10.16,-0.99 23.36,-1.71 34.9,-1.71 h 138.03 c 11.1,0 18.76,1.07 24.01,1.71 5.24,1.07 8.03,1.79 9.44,1.79 2.45,0 2.79,-2.07 2.79,-7.32 0,-7.33 -1.06,-31.38 -1.06,-40.43 -0.37,-3.49 -1.04,-5.55 -3.14,-5.55 -2.79,0 -3.49,1.65 -3.84,6.92 l -0.36,3.86 c -0.68,9.06 -10.12,18.82 -41.09,19.53 l -43.91,1 v -142.89 c 0,-32.02 0,-59.56 1.72,-74.54 1.05,-9.79 3.14,-17.42 13.62,-18.85 4.85,-0.68 12.53,-1.41 17.74,-1.41 3.85,0 5.59,-1.01 5.59,-2.75 0,-2.44 -2.84,-3.54 -6.64,-3.54 -22.98,0 -44.97,1.1 -54.7,1.1 -8,0 -29.95,-1.1 -43.95,-1.1 -4.54,0 -6.92,1.1 -6.92,3.54 0,1.74 1.38,2.75 5.59,2.75 5.15,0 9.36,0.73 12.48,1.41 7,1.43 9.08,9.06 10.1,19.19 1.76,14.64 1.76,42.18 1.76,74.2 v 142.89"
         style="fill:#c5a718;fill-opacity:1;fill-rule:nonzero;stroke:none"
         id="path142" /><path
         d="m 2974.76,2350.29 c 1.05,0 2.07,0.7 2.07,2.44 v 7.3 c 0,53.01 0,62.78 -0.72,73.91 -0.65,11.84 -3.45,17.44 -14.98,19.9 -2.77,0.61 -8.71,1.02 -13.53,1.02 -3.91,0 -5.99,0.69 -5.99,3.15 0,2.4 2.48,3.13 7.32,3.13 18.84,0 40.81,-1.07 50.21,-1.07 8.4,0 30.28,1.07 43.9,1.07 4.9,0 7.35,-0.73 7.35,-3.13 0,-2.46 -2.13,-3.15 -6.27,-3.15 -2.82,0 -5.94,-0.41 -10.11,-1.02 -9.43,-1.77 -12.2,-7.68 -12.94,-19.9 -0.67,-11.13 -0.67,-20.9 -0.67,-73.91 v -61.37 c 0,-31.99 0,-59.53 1.69,-74.51 1.12,-9.77 3.18,-17.42 13.65,-18.85 4.89,-0.66 12.52,-1.37 17.79,-1.37 3.8,0 5.53,-1.05 5.53,-2.79 0,-2.44 -2.78,-3.54 -6.96,-3.54 -22.68,0 -44.56,1.1 -54.35,1.1 -8.01,0 -29.98,-1.1 -43.56,-1.1 -4.9,0 -7.34,1.1 -7.34,3.54 0,1.74 1.39,2.79 5.57,2.79 5.24,0 9.45,0.71 12.53,1.37 7.02,1.43 8.71,9.08 10.15,19.19 1.73,14.64 1.73,42.18 1.73,74.17 v 30.72 c 0,1.44 -1.02,2.08 -2.07,2.08 h -133.15 c -1.05,0 -2.08,-0.34 -2.08,-2.08 v -30.72 c 0,-31.99 0,-59.53 1.74,-74.51 1.06,-9.77 3.15,-17.42 13.6,-18.85 4.87,-0.66 12.5,-1.37 17.74,-1.37 3.82,0 5.61,-1.05 5.61,-2.79 0,-2.44 -2.84,-3.54 -7.02,-3.54 -22.58,0 -44.59,1.1 -54.34,1.1 -8.01,0 -29.98,-1.1 -43.94,-1.1 -4.56,0 -6.9,1.1 -6.9,3.54 0,1.74 1.35,2.79 5.56,2.79 5.17,0 9.38,0.71 12.57,1.37 6.87,1.43 8.67,9.08 10.07,19.19 1.72,14.64 1.72,42.18 1.72,74.17 v 61.37 c 0,53.01 0,62.78 -0.67,73.91 -0.73,11.84 -3.5,17.44 -15.01,19.9 -2.77,0.61 -8.68,1.02 -13.6,1.02 -3.82,0 -5.92,0.69 -5.92,3.15 0,2.4 2.45,3.13 7.38,3.13 18.76,0 40.73,-1.07 50.13,-1.07 8.36,0 30.37,1.07 43.91,1.07 4.9,0 7.38,-0.73 7.38,-3.13 0,-2.46 -2.17,-3.15 -6.33,-3.15 -2.79,0 -5.95,-0.41 -10.09,-1.02 -9.38,-1.77 -12.24,-7.68 -12.87,-19.9 -0.72,-11.13 -0.72,-20.9 -0.72,-73.91 v -7.3 c 0,-1.74 1.03,-2.44 2.08,-2.44 h 133.15"
         style="fill:#c5a718;fill-opacity:1;fill-rule:nonzero;stroke:none"
         id="path144" /><path
         d="m 3148.63,2288.58 c -1.72,0 -2.46,-0.64 -3.15,-2.73 l -18.81,-49.79 c -3.51,-8.75 -5.27,-17.21 -5.27,-21.33 0,-6.23 3.17,-10.84 13.97,-10.84 h 5.26 c 4.18,0 5.15,-0.66 5.15,-2.75 0,-2.78 -2.06,-3.54 -5.9,-3.54 -11.1,0 -26.11,1.14 -36.95,1.14 -3.83,0 -22.97,-1.14 -41.1,-1.14 -4.49,0 -6.6,0.76 -6.6,3.54 0,2.09 1.38,2.75 4.16,2.75 3.14,0 8.03,0.41 10.77,0.73 16.1,2.11 22.67,14 29.66,31.44 l 87.44,218.8 c 4.19,10.04 6.29,13.93 9.8,13.93 3.18,0 5.22,-3.13 8.7,-11.16 8.32,-19.18 64.15,-161.35 86.44,-214.3 13.32,-31.38 23.39,-36.25 30.75,-38.03 5.11,-1 10.37,-1.41 14.59,-1.41 2.74,0 4.5,-0.31 4.5,-2.75 0,-2.78 -3.13,-3.54 -16.03,-3.54 -12.54,0 -37.98,0 -65.88,0.76 -6.27,0.38 -10.46,0.38 -10.46,2.78 0,2.09 1.46,2.75 4.91,3.16 2.44,0.67 4.88,3.79 3.1,7.99 l -27.86,73.85 c -0.65,1.8 -1.77,2.44 -3.49,2.44 z m 71.06,17.44 c 1.78,0 2.08,1.1 1.78,2.09 l -31.4,86.13 c -0.35,1.34 -0.66,3.11 -1.69,3.11 -1.12,0 -1.75,-1.77 -2.12,-3.11 l -32.09,-85.73 c -0.32,-1.39 0,-2.49 1.42,-2.49 h 64.1"
         style="fill:#c5a718;fill-opacity:1;fill-rule:nonzero;stroke:none"
         id="path146" /><path
         d="m 3398.16,2245.01 c 0.69,-27.15 5.24,-36.22 12.18,-38.62 5.91,-2.09 12.58,-2.46 18.12,-2.46 3.84,0 5.95,-0.7 5.95,-2.79 0,-2.78 -3.16,-3.54 -8.05,-3.54 -22.65,0 -36.57,1.1 -43.21,1.1 -3.13,0 -19.52,-1.1 -37.69,-1.1 -4.48,0 -7.56,0.38 -7.56,3.54 0,2.09 2.04,2.79 5.5,2.79 4.56,0 10.85,0.37 15.69,1.74 9.05,2.83 10.49,12.95 10.89,43.22 l 3.08,206.32 c 0,6.98 0.98,11.81 4.51,11.81 3.84,0 6.98,-4.48 12.92,-10.77 4.15,-4.53 57.15,-61.31 108.02,-111.89 23.67,-23.67 70.72,-73.88 76.65,-79.45 h 1.73 l -3.46,156.49 c -0.37,21.23 -3.46,27.86 -11.81,31.35 -5.24,2.11 -13.63,2.11 -18.45,2.11 -4.26,0 -5.63,1.01 -5.63,3.15 0,2.78 3.86,3.13 9.07,3.13 18.12,0 34.86,-1.07 42.17,-1.07 3.82,0 17.05,1.07 34.13,1.07 4.53,0 8.04,-0.35 8.04,-3.13 0,-2.14 -2.09,-3.15 -6.26,-3.15 -3.47,0 -6.3,0 -10.47,-1.02 -9.75,-2.81 -12.59,-10.17 -12.89,-29.7 l -3.88,-219.84 c 0,-7.71 -1.36,-10.84 -4.49,-10.84 -3.84,0 -8.02,3.83 -11.87,7.68 -21.93,20.92 -66.51,66.56 -102.82,102.46 -37.96,37.59 -76.68,81.14 -82.94,87.74 h -1.02 l 3.85,-146.33"
         style="fill:#c5a718;fill-opacity:1;fill-rule:nonzero;stroke:none"
         id="path148" /><path
         d="m 1308.82,1845.41 c 0,96.34 0,114.07 -1.3,134.38 -1.26,21.53 -6.43,31.67 -27.57,36.13 -5.13,1.27 -16,1.86 -24.95,1.86 -7.09,0 -10.93,1.29 -10.93,5.76 0,4.41 4.49,5.65 14.08,5.65 33.94,0 74.38,-1.89 87.77,-1.89 21.82,0 70.56,1.89 90.42,1.89 40.31,0 83.35,-3.74 117.88,-27.21 17.95,-12.06 43.56,-44.38 43.56,-86.89 0,-46.88 -19.8,-89.95 -84.54,-141.96 57.05,-70.93 101.26,-127.4 139.06,-166.7 35.88,-36.72 62.12,-41.18 71.71,-43.06 7.09,-1.28 12.86,-1.91 18.01,-1.91 5.16,0 7.67,-1.89 7.67,-5.08 0,-5.07 -4.49,-6.34 -12.19,-6.34 h -60.86 c -35.89,0 -51.93,3.16 -68.56,12.05 -27.6,14.57 -51.97,44.34 -87.8,93.13 -25.6,34.91 -55.13,78.04 -63.47,87.55 -3.15,3.7 -7.06,4.4 -11.5,4.4 l -55.79,1.25 c -3.17,0 -5.11,-1.25 -5.11,-5.11 v -8.86 c 0,-58.93 0,-108.96 3.19,-135.65 1.92,-18.31 5.78,-32.25 25.02,-34.77 9.56,-1.32 23.72,-2.57 31.4,-2.57 5.11,0 7.68,-1.89 7.68,-5.08 0,-4.38 -4.44,-6.34 -12.81,-6.34 -37.19,0 -84.58,1.96 -94.24,1.96 -12.12,0 -52.56,-1.96 -78.15,-1.96 -8.35,0 -12.84,1.96 -12.84,6.34 0,3.19 2.57,5.08 10.29,5.08 9.58,0 17.29,1.25 23.07,2.57 12.78,2.52 16.06,16.46 18.59,34.77 3.21,26.69 3.21,76.72 3.21,135.04 z m 75.59,-50.1 c 0,-7.01 1.28,-9.5 5.76,-11.37 13.45,-4.47 32.66,-6.38 48.72,-6.38 25.63,0 33.92,2.58 45.49,10.74 19.21,14 37.78,43.24 37.78,95.13 0,90.01 -60.23,115.98 -98.05,115.98 -16.01,0 -27.51,-0.58 -33.94,-2.49 -4.48,-1.28 -5.76,-3.88 -5.76,-8.87 v -192.74"
         style="fill:#c5a718;fill-opacity:1;fill-rule:nonzero;stroke:none"
         id="path150" /><path
         d="m 1719.57,1789.64 c 0,108.36 72.4,248.44 264.65,248.44 159.59,0 258.93,-91.93 258.93,-237.05 0,-145.16 -102.55,-259.86 -265.31,-259.86 -183.91,0 -258.27,136.28 -258.27,248.47 m 433.91,-12.08 c 0,141.99 -82.69,230.11 -187.8,230.11 -73.73,0 -157.66,-40.6 -157.66,-198.41 0,-131.81 73.7,-236.39 196.76,-236.39 44.84,0 148.7,21.53 148.7,204.69"
         style="fill:#c5a718;fill-opacity:1;fill-rule:nonzero;stroke:none"
         id="path152" /><path
         d="m 2455.22,1714.2 c 0,34.24 -6.41,48.17 -14.72,66.55 -4.47,10.17 -90.34,149.55 -112.75,182.52 -16.08,23.48 -32.08,39.29 -44.24,46.3 -8.4,4.47 -19.25,8.21 -26.96,8.21 -5.06,0 -9.56,1.29 -9.56,5.76 0,3.76 4.5,5.65 12.2,5.65 11.48,0 59.56,-1.89 80.71,-1.89 13.44,0 39.69,1.89 68.57,1.89 6.4,0 9.57,-1.89 9.57,-5.65 0,-3.85 -4.49,-4.47 -14.07,-7 -5.78,-1.26 -9.01,-6.35 -9.01,-11.37 0,-5.1 3.23,-12.69 7.75,-21.61 8.95,-19.01 98.65,-171.78 108.95,-189.51 6.37,15.24 87.09,154.65 96.11,174.35 6.4,13.94 8.97,24.64 8.97,32.92 0,6.35 -2.57,13.32 -13.44,15.87 -5.77,1.22 -11.6,2.5 -11.6,6.35 0,4.41 3.24,5.65 10.97,5.65 21.14,0 41.6,-1.89 60.19,-1.89 14.16,0 56.37,1.89 68.59,1.89 7.05,0 11.5,-1.24 11.5,-5.07 0,-4.43 -5.08,-6.34 -12.12,-6.34 -6.48,0 -18.6,-2.5 -28.22,-7.59 -13.45,-6.33 -20.5,-13.92 -34.59,-31.04 -21.14,-25.4 -110.9,-174.29 -122.42,-201.59 -9.65,-22.79 -9.65,-42.41 -9.65,-63.36 v -51.92 c 0,-10.24 0,-36.79 1.95,-63.48 1.32,-18.31 7,-32.25 26.31,-34.77 8.95,-1.32 23.06,-2.57 31.99,-2.57 7.1,0 10.32,-1.89 10.32,-5.08 0,-4.38 -5.17,-6.34 -13.45,-6.34 -40.42,0 -80.75,1.96 -98.08,1.96 -16.04,0 -56.36,-1.96 -80.12,-1.96 -8.99,0 -14.13,1.25 -14.13,6.34 0,3.19 3.23,5.08 10.31,5.08 8.99,0 16.62,1.25 22.39,2.57 12.86,2.52 18.59,16.46 19.92,34.77 1.86,26.69 1.86,53.24 1.86,63.48 v 51.92"
         style="fill:#c5a718;fill-opacity:1;fill-rule:nonzero;stroke:none"
         id="path154" /><path
         d="m 2825.76,1715.44 c -3.25,0 -4.46,-1.24 -5.7,-4.98 l -34.63,-90.71 c -6.47,-15.85 -9.65,-31.07 -9.65,-38.65 0,-11.39 5.75,-19.64 25.67,-19.64 h 9.5 c 7.77,0 9.68,-1.28 9.68,-5.08 0,-5.09 -3.83,-6.34 -10.88,-6.34 -20.58,0 -48.08,1.94 -67.92,1.94 -7.04,0 -42.3,-1.94 -75.65,-1.94 -8.29,0 -12.16,1.25 -12.16,6.34 0,3.8 2.55,5.08 7.69,5.08 5.79,0 14.75,0.63 19.9,1.25 29.49,3.84 41.63,25.43 54.4,57.04 l 160.92,398.03 c 7.64,18.45 11.56,25.35 17.98,25.35 5.74,0 9.56,-5.68 16,-20.23 15.39,-34.85 117.87,-293.48 158.89,-389.86 24.37,-57.01 42.99,-65.94 56.41,-69.01 9.62,-1.94 19.21,-2.57 26.84,-2.57 5.23,0 8.38,-0.65 8.38,-5.08 0,-5.09 -5.79,-6.34 -29.45,-6.34 -23.07,0 -69.87,0 -121.15,1.25 -11.54,0.69 -19.2,0.69 -19.2,5.09 0,3.8 2.6,5.08 8.94,5.71 4.52,1.24 8.97,6.98 5.78,14.57 l -51.22,134.39 c -1.31,3.15 -3.22,4.39 -6.4,4.39 z m 130.74,31.73 c 3.17,0 3.87,1.88 3.17,3.77 l -57.65,156.59 c -0.62,2.52 -1.27,5.66 -3.18,5.66 -1.91,0 -3.22,-3.14 -3.88,-5.66 l -58.92,-155.94 c -0.66,-2.54 0,-4.42 2.55,-4.42 h 117.91"
         style="fill:#c5a718;fill-opacity:1;fill-rule:nonzero;stroke:none"
         id="path156" /><path
         d="m 3328.84,1733.84 c 0,-81.09 0,-124.84 13.4,-136.26 10.9,-9.44 27.59,-13.91 77.6,-13.91 33.92,0 58.96,0.62 74.92,17.68 7.77,8.25 15.43,26.07 16.73,38.04 0.61,5.71 1.89,9.5 7.01,9.5 4.47,0 5.21,-3.16 5.21,-10.72 0,-7.01 -4.56,-54.5 -9.69,-72.92 -3.83,-13.94 -7.07,-17.09 -40.38,-17.09 -92.26,0 -134.56,3.84 -186.5,3.84 -14.72,0 -55.07,-1.96 -80.66,-1.96 -8.43,0 -12.9,1.96 -12.9,6.34 0,3.19 2.61,5.08 10.23,5.08 9.63,0 17.33,1.25 23.07,2.57 12.91,2.52 16.08,16.46 18.63,34.77 3.24,26.69 3.24,76.72 3.24,135.04 v 111.57 c 0,96.34 0,114.07 -1.33,134.35 -1.25,21.56 -6.36,31.7 -27.53,36.16 -5.16,1.27 -12.81,1.86 -21.18,1.86 -7.05,0 -10.93,1.29 -10.93,5.76 0,4.41 4.52,5.65 14.15,5.65 30.14,0 70.49,-1.89 87.81,-1.89 15.38,0 62.13,1.89 87.06,1.89 9.1,0 13.53,-1.24 13.53,-5.65 0,-4.47 -3.83,-5.76 -11.46,-5.76 -7.08,0 -17.4,-0.59 -25.03,-1.86 -17.38,-3.18 -22.45,-13.94 -23.76,-36.16 -1.24,-20.28 -1.24,-38.01 -1.24,-134.35 v -111.57"
         style="fill:#c5a718;fill-opacity:1;fill-rule:nonzero;stroke:none"
         id="path158" /><path
         d="m 3601.18,1557.66 c -10.27,4.43 -12.18,7.59 -12.18,21.55 0,34.83 2.6,72.87 3.2,83.07 0.63,9.47 2.52,16.39 7.72,16.39 5.7,0 6.36,-5.67 6.36,-10.72 0,-8.25 2.56,-21.6 5.73,-32.32 14.12,-46.95 51.96,-64.08 91.62,-64.08 57.74,0 85.93,38.7 85.93,72.27 0,31.06 -9.63,60.9 -62.82,101.43 l -29.47,22.84 c -70.52,54.49 -94.87,98.88 -94.87,150.22 0,69.74 59.02,119.77 148.14,119.77 41.61,0 68.5,-6.34 85.15,-10.78 5.78,-1.26 8.99,-3.18 8.99,-7.65 0,-8.19 -2.55,-26.61 -2.55,-76 0,-13.93 -1.94,-19.02 -7.09,-19.02 -4.48,0 -6.44,3.83 -6.44,11.38 0,5.74 -3.15,25.39 -16.6,41.87 -9.65,12.04 -28.22,31.06 -69.89,31.06 -47.41,0 -76.22,-27.21 -76.22,-65.29 0,-29.17 14.77,-51.36 67.89,-91.25 l 17.95,-13.36 c 76.87,-58.9 105.11,-101.34 105.11,-161.59 0,-36.75 -14.07,-80.52 -60.19,-110.31 -32.07,-20.22 -68,-25.97 -101.95,-25.97 -37.18,0 -66.01,4.44 -93.52,16.49"
         style="fill:#c5a718;fill-opacity:1;fill-rule:nonzero;stroke:none"
         id="path160" /><path
         d="m 3680.85,3896.21 c -14.34,-8.35 -27.98,-18.36 -32.38,-21.9 -6.64,-0.23 -96.9,-92.44 -95.73,-199.12 0,0 -10.24,-171.04 127.98,-287.8 0,0 86.27,-97.13 257.75,-57.88 l 3.18,-9.05 c 0,0 -155.4,-53.98 -278.87,44.95 0,0 -172.43,118.25 -183.61,334.42 0,0 10.67,177.94 113.09,261.49 0,0 132.82,119.54 311.77,131.44 0,0 11.35,25.66 29.3,11.51 0,0 21.76,13.72 28.77,32.35 1.03,2.65 5.32,9.02 9.81,8.88 8.86,-0.16 22.85,-3.56 27.29,-22.51 6.69,-28.55 28.78,-138.18 -12.53,-213.15 -17.08,-17.65 -29.74,5.01 -29.74,5.01 0,0 -6.91,14.23 -15.17,16.05 0,0 -9,-11.28 -21.89,-2.7 -12.82,8.57 -12.29,19.15 -12.29,19.15 0,0 -102.5,23.72 -197.38,-35.83 0,0 -15.05,-6.86 -29.35,-15.31"
         style="fill:#c5a718;fill-opacity:1;fill-rule:nonzero;stroke:none"
         id="path162" /><path
         d="m 3607.85,3866.93 c 168.98,172.2 344.53,88.9 344.53,88.9 l 2.33,-11.27 c 1,-12.33 19.38,-15.48 19.38,-15.48 45.66,45.15 12.62,194.98 12.62,194.98 l -1.96,10.54 c 5.01,-2.9 8.29,-7.86 10,-14.83 7.18,-30.59 27.63,-135.76 -11.52,-207.82 -3.22,-3.16 -6.3,-4.62 -9.08,-4.33 -5.05,0.57 -9.46,6.51 -10.6,8.39 -1.38,2.83 -8.75,16.95 -19.2,19.19 l -3.49,0.73 -2.28,-2.74 c -0.11,-0.18 -3.59,-4.23 -8.64,-3.71 -1.81,0.22 -3.6,0.97 -5.55,2.25 -9.53,6.31 -9.57,13.43 -9.63,13.79 v 5.07 l -4.57,1.1 c -0.3,0.03 -7.83,1.79 -20.79,3.18 -37.49,4 -110.71,4.15 -180.6,-39.53 -2.37,-1.12 -16.08,-7.57 -29.5,-15.41 -14.72,-8.63 -28.65,-18.85 -33.12,-22.4 l 0.66,0.24 c -18.97,-10.73 -99.82,-101.67 -98.67,-203.93 -0.1,-1.8 -8.91,-175.31 129.86,-292.75 4.69,-5.19 53.85,-56.35 148.41,-66.94 -102.41,5.9 -177.18,87.38 -177.18,87.38 -62.83,45.73 -210.34,293.2 -41.41,465.4"
         style="fill:#3147a4;fill-opacity:1;fill-rule:nonzero;stroke:none"
         id="path164" /><path
         d="m 3669.84,2995.93 c 0.28,-0.18 0.67,-0.23 0.99,-0.25 2.86,-0.3 5.97,2.85 6.68,4.64 0.37,0.91 0.31,1.97 -0.11,2.91 -0.57,1.43 -1.82,2.56 -3.4,3.18 -0.53,0.25 -1.27,0.38 -1.85,0.51 -2.16,0.2 -4.04,-0.73 -4.73,-2.45 -0.75,-1.91 -0.56,-7.18 2.42,-8.54 m -25.73,-34.46 c -1.54,-1.79 -0.83,-4.82 1.46,-6.92 0.48,-0.52 1.23,-0.78 2.06,-0.93 2.27,-0.21 5.33,1.32 6.52,2.77 0.59,0.85 0.8,1.88 0.68,2.98 -0.17,1.42 -1.04,2.91 -2.38,4.01 -0.57,0.42 -1.21,0.65 -1.94,0.77 -2.36,0.21 -5.39,-1.48 -6.4,-2.68 m 47.11,103.97 c 3.16,-0.3 6.06,3.89 6.5,5.75 0.16,0.99 0,1.96 -0.62,2.85 -0.81,1.28 -2.12,2.19 -3.81,2.56 -0.34,0.07 -0.54,0.07 -0.83,0.07 -2.71,0.32 -4.98,-0.97 -5.38,-3.15 -0.46,-2.03 0.57,-7.26 3.75,-7.99 0.14,-0.03 0.28,-0.03 0.39,-0.09 m -12.2,-46.97 c 2.79,-0.32 5.94,3.14 6.58,5.18 0.19,0.9 0.19,1.96 -0.32,2.89 -0.71,1.33 -1.96,2.46 -3.66,2.92 -0.43,0.16 -0.84,0.2 -1.37,0.25 -2.37,0.27 -4.44,-0.79 -5.01,-2.76 -0.57,-1.92 -0.07,-7.23 3.05,-8.31 0.25,-0.08 0.46,-0.14 0.73,-0.17 m 6.67,23.31 c 3.12,-0.29 6,3.69 6.44,5.53 0.21,0.95 0.08,1.94 -0.44,2.89 -0.72,1.29 -2.06,2.27 -3.76,2.67 -0.34,0.12 -0.69,0.16 -0.96,0.2 -2.64,0.28 -4.82,-0.95 -5.35,-3.03 -0.44,-1.97 0.4,-7.25 3.61,-8.1 0.11,-0.07 0.27,-0.1 0.46,-0.16 m -26.37,-67.55 c 0.37,-0.26 0.88,-0.44 1.31,-0.47 2.78,-0.32 5.97,2.36 6.74,3.91 0.42,0.88 0.54,1.88 0.17,2.97 -0.34,1.43 -1.5,2.69 -2.96,3.56 -0.43,0.16 -0.84,0.31 -1.29,0.38 -2.72,0.25 -5.84,-2.39 -6.71,-3.89 -1.11,-2.07 0.07,-4.92 2.74,-6.46 m -109.92,-2.96 c -0.68,-2.17 -0.23,-5.01 0.52,-6.19 0.51,-1.05 1.59,-1.65 2.81,-1.83 1.34,-0.09 2.69,0.26 3.95,1.15 2.63,1.67 3.66,4.55 2.53,6.55 -0.77,1.28 -3.26,3.34 -5.66,3.59 -0.85,0.1 -1.62,-0.03 -2.29,-0.46 -0.68,-0.35 -1.52,-1.13 -1.86,-2.81 m 77.85,-31.61 c 0.44,-0.85 1.48,-1.92 3.63,-2.15 1.87,-0.18 4.02,0.23 5.12,1.04 0.82,0.61 1.4,1.54 1.6,2.66 0.21,1.48 -0.17,3.14 -1.19,4.49 -0.64,1.03 -1.82,1.66 -3.41,1.8 -1.66,0.18 -3.79,-0.16 -4.94,-0.87 -1.91,-1.16 -2.28,-4.16 -0.81,-6.97 m -63.2,14.42 c -0.56,-0.52 -1.17,-1.45 -1.17,-3.19 -0.07,-2.31 1.03,-4.95 2.1,-5.93 0.52,-0.58 1.22,-0.87 2.09,-0.99 1.49,-0.17 3.31,0.69 4.64,2.2 2.05,2.41 2.33,5.48 0.71,7.01 -0.86,0.93 -2.86,1.76 -4.6,1.98 -1.62,0.13 -2.84,-0.25 -3.77,-1.08 m 18.3,-14.19 c -0.22,-0.67 -0.43,-1.89 0.23,-3.37 0.96,-2.13 3.03,-4.02 4.43,-4.46 l 2.51,-0.9 1.57,-0.46 0.41,1.66 1.1,3.82 c 0.85,3.07 -0.11,5.99 -2.2,6.66 -0.27,0.09 -0.48,0.15 -0.88,0.2 -2.24,0.2 -6.07,-0.41 -7.17,-3.15 m 22.44,-5.5 c 0,-3.23 4.25,-5.02 6.36,-5.22 0.34,-0.09 0.74,-0.06 0.95,0 1.04,0.11 1.92,0.67 2.64,1.55 0.8,1.23 1.16,2.9 0.86,4.67 -0.47,3.1 -4.51,4.58 -6.23,4.76 h -0.65 c -2.13,-0.06 -3.85,-2.64 -3.93,-5.76 m 112.26,325.23 c 1.61,1.49 2.71,4.11 2.79,5.54 0.11,2.21 -1.98,4.14 -4.75,4.4 -0.13,0.07 -0.26,0.07 -0.5,0.07 -1.33,0.03 -2.58,-0.29 -3.66,-0.88 -1.14,-0.75 -1.87,-1.92 -1.93,-3.16 -0.12,-1.96 1.78,-6.91 4.88,-7.27 h 0.08 0.15 c 0.66,-0.04 1.79,0.18 2.94,1.3 m 1.08,24.28 c 1.58,1.56 2.62,4.13 2.72,5.61 l 0.06,2.65 v 1.51 l -1.39,0.16 c 0,0 -0.54,0 -1.39,0.01 l -2.58,0.09 c -2.99,0.05 -5.53,-1.77 -5.62,-4.1 0,-1.97 1.81,-6.91 4.93,-7.22 h 0.14 0.19 c 0.65,-0.04 1.78,0.14 2.94,1.29 m -2.42,-48.6 c 1.54,1.45 2.72,4.02 2.78,5.43 0.17,2.29 -1.9,4.28 -4.74,4.62 -0.11,0 -0.22,0.02 -0.38,0 -1.29,0.1 -2.59,-0.21 -3.64,-0.84 -1.25,-0.73 -1.98,-1.88 -2.06,-3.09 -0.1,-2.02 1.6,-6.97 4.82,-7.38 h 0.07 l 0.11,-0.02 c 0.7,-0.06 1.8,0.18 3.04,1.28 m -176.03,-241.58 c -0.92,-2.09 -0.92,-4.88 -0.42,-6.19 0.54,-1.35 1.79,-2.2 3.38,-2.37 1.1,-0.08 2.22,0.07 3.28,0.58 2.77,1.19 4.36,3.94 3.48,6.11 -0.71,1.66 -3.32,4.31 -5.77,4.57 -0.66,0.07 -1.26,0 -1.71,-0.2 -0.68,-0.29 -1.63,-0.9 -2.24,-2.5 m 179.22,314.5 c 1.46,1.6 2.56,4.25 2.57,5.67 0.11,2.23 -1.88,3.97 -4.64,4.31 h -0.65 c -1.32,0.05 -2.54,-0.34 -3.62,-0.97 -1.19,-0.76 -1.78,-1.97 -1.9,-3.2 -0.02,-1.94 1.83,-6.79 4.97,-7.15 h 0.08 0.19 c 0.75,-0.02 1.78,0.24 3,1.34 m -16.6,-213 c 0.21,1.01 -0.03,1.93 -0.66,2.8 -0.81,1.24 -2.21,2.2 -3.92,2.48 -0.2,0 -0.37,0 -0.53,0.04 -2.74,0.3 -5.22,-1.12 -5.52,-3.32 -0.42,-2.06 0.79,-7.23 4.08,-7.91 l 0.22,-0.02 c 3.19,-0.35 5.98,4.04 6.33,5.93 m 16.43,237.12 c 1.91,1.98 3.13,6.24 3.13,7.23 0,1.57 -1.56,2.66 -4.03,2.97 h -1.46 c -1.18,0 -2.32,-0.23 -3.19,-0.58 -1.96,-0.69 -2.25,-1.9 -2.25,-2.51 0,-0.9 1.74,-7.9 5.17,-8.28 h 0.02 0.25 c 0.77,0 1.69,0.38 2.36,1.17 m -12.49,-212.98 c 0.11,0.97 -0.11,1.98 -0.7,2.84 -0.87,1.22 -2.27,2.09 -4.01,2.29 l -0.28,0.03 c -2.94,0.35 -5.36,-1.16 -5.67,-3.46 -0.36,-2.08 0.99,-7.29 4.21,-7.76 h 0.05 l 0.18,-0.09 c 3.16,-0.31 5.88,4.22 6.22,6.15 m 7.75,91.71 c 1.56,1.4 2.74,3.95 2.84,5.37 l 0.22,2.67 0.09,1.63 -1.43,0.16 c -0.08,0 -0.87,0 -1.96,0.04 l -2.01,0.19 c -1.3,0.13 -2.67,-0.19 -3.64,-0.81 -1.22,-0.69 -1.97,-1.89 -2.08,-3.07 -0.12,-2.06 1.55,-7.09 4.78,-7.42 h 0.11 c 0.69,-0.03 1.8,0.13 3.08,1.24 m -4.39,-67.48 c 0.42,3.39 0.42,3.39 0.04,3.94 l -0.43,0.51 -0.57,0.08 -3.93,0.49 c -3.01,0.31 -5.59,-1.26 -5.88,-3.61 -0.3,-2.07 1.19,-7.25 4.46,-7.65 h 0.1 c 3.27,-0.36 5.95,4.21 6.21,6.24 m 2.26,43.2 c 1.67,1.41 2.91,3.92 2.98,5.35 l 0.25,2.67 0.18,1.65 -1.6,0.14 -3.81,0.33 c -3.08,0.21 -5.63,-1.41 -5.81,-3.85 -0.24,-2.03 1.42,-7.13 4.67,-7.42 h 0.08 c 0.76,-0.1 1.84,0.06 3.06,1.13 m 0.51,-19.68 0.27,2.31 0.03,0.53 c 0.19,1.64 -1.16,2.37 -5.17,2.77 -3.46,0.38 -5.41,0.17 -5.62,-1.6 l -0.35,-2.85 c -0.19,-2.08 1.65,-6.49 4.78,-6.84 3.03,-0.31 5.81,3.61 6.06,5.68 m -196.24,286.51 c -1.59,-1.55 -2.72,-4.03 -2.81,-5.46 -0.18,-2.33 1.93,-4.32 4.77,-4.57 l 0.38,-0.06 c 2.96,-0.24 5.49,1.57 5.67,4 0.12,2 -1.63,6.98 -4.87,7.34 -1.18,0.04 -2.21,-0.4 -3.14,-1.25 m -6.55,-78.49 c -0.07,-2.27 1.89,-4.17 4.72,-4.47 0.17,0 0.35,0 0.49,0 3.01,-0.19 5.52,1.64 5.59,4.1 0.11,1.94 -1.8,6.85 -4.9,7.17 h -0.03 -0.2 c -3.37,0.16 -5.63,-4.73 -5.67,-6.8 m 1.78,-18.86 c -1.59,-1.48 -2.64,-4.06 -2.76,-5.48 -0.05,-2.22 1.98,-4.15 4.81,-4.46 0.16,0 0.35,-0.02 0.59,-0.02 3.05,-0.03 5.44,1.76 5.51,4.17 0.06,2 -1.74,6.78 -4.97,7.16 h -0.19 c -1.03,0 -2.1,-0.39 -2.99,-1.37 m -0.78,-24.31 c -1.53,-1.47 -2.57,-4.08 -2.63,-5.52 -0.03,-2.25 1.95,-4.14 4.71,-4.39 0.21,-0.02 0.37,-0.02 0.66,-0.02 3.02,-0.07 5.43,1.8 5.55,4.25 0,1.93 -1.9,6.7 -4.98,6.99 h -0.13 l -0.19,0.09 c -0.99,0 -2.04,-0.48 -2.99,-1.4 m 2.83,72.97 c -1.57,-1.5 -2.73,-4 -2.83,-5.49 -0.11,-2.24 2,-4.17 4.82,-4.49 0.17,-0.01 0.29,-0.01 0.29,-0.01 3.21,-0.18 5.62,1.61 5.74,4.07 0.19,1.98 -1.68,6.85 -4.84,7.2 h -0.08 -0.17 c -0.94,0.07 -1.99,-0.4 -2.93,-1.28 m -3.41,-97.32 c -1.45,-1.49 -2.49,-4.08 -2.54,-5.54 0,-2.22 1.99,-4.02 4.64,-4.33 0.24,0 0.53,-0.04 0.77,0 2.99,-0.05 5.46,1.8 5.46,4.24 0,1.97 -1.86,6.67 -4.98,7.04 0,0 -0.21,0.01 -0.32,0.02 -1.03,0 -2.05,-0.44 -3.03,-1.43 m -0.3,-24.37 c -1.49,-1.49 -2.43,-4.09 -2.49,-5.59 0.06,-0.53 0.15,-1.07 0.41,-1.58 -0.24,-0.23 -0.35,-0.56 -0.35,-0.93 -0.14,-0.88 0.53,-1.72 1.33,-1.73 0.58,-0.1 0.98,0.14 1.39,0.56 0.48,-0.3 1.17,-0.47 1.85,-0.56 0.26,0 0.5,0 0.79,0 3.27,0 5.46,4.93 5.46,7.01 0,2.19 -1.96,4 -4.65,4.28 -0.28,0 -0.42,0.04 -0.76,0.04 -1.03,-0.04 -2,-0.49 -2.98,-1.5 m 8.86,237.96 c -0.23,-2.37 1.93,-4.47 4.83,-4.78 l 0.2,-0.02 c 3.06,-0.25 5.55,1.48 5.78,3.94 0.18,2.01 -1.48,7 -4.76,7.32 -3.38,0.26 -5.86,-4.37 -6.05,-6.46 m 2.11,24.52 -0.24,-2.93 -0.13,-1.61 1.49,-0.12 3.89,-0.36 c 3.37,-0.29 5.9,5.02 6.07,6.74 0.24,2.29 -1.92,4.24 -4.92,4.6 -3.45,0.28 -5.96,-4.22 -6.16,-6.32 m -2.9,-67.81 c -1.72,-1.5 -2.82,-4.04 -2.88,-5.43 -0.21,-2.36 1.94,-4.38 4.8,-4.65 h 0.3 c 3.08,-0.24 5.55,1.51 5.69,3.91 0.14,2.06 -1.54,7.03 -4.81,7.4 -1.12,0.03 -2.22,-0.37 -3.1,-1.23 m 1.74,24.3 c -1.65,-1.48 -2.78,-3.97 -2.89,-5.35 -0.19,-2.42 1.94,-4.44 4.81,-4.73 l 0.29,-0.03 c 3.01,-0.2 5.54,1.5 5.78,3.94 0.09,2.03 -1.63,7 -4.87,7.36 -1.13,0.07 -2.2,-0.36 -3.12,-1.19 m -4.86,-72.96 c -1.62,-1.44 -2.77,-3.97 -2.78,-5.45 l -0.08,-2.69 -0.17,-1.62 1.52,-0.06 3.92,-0.23 c 3.02,-0.13 5.53,1.63 5.64,4.07 0.14,2.01 -1.64,6.91 -4.84,7.27 l -0.06,-0.01 -0.15,0.01 c -1.03,0.04 -2.01,-0.37 -3,-1.29 m -0.64,-291.9 c -1.38,-1.73 -2.17,-4.4 -2.04,-5.84 0.13,-2.03 1.92,-3.46 4.37,-3.76 0.49,-0.06 0.89,-0.06 1.43,-0.02 1.27,0.15 2.54,0.62 3.46,1.45 1.17,0.93 1.71,2.16 1.57,3.38 -0.21,1.85 -2.31,6.17 -5.29,6.52 h -0.68 c -0.7,-0.17 -1.77,-0.49 -2.82,-1.73 m 18.33,-120.33 c -1.01,-1.95 -1.29,-4.76 -0.84,-6.16 0.49,-1.54 1.81,-2.51 3.63,-2.76 0.94,-0.11 1.82,0 2.75,0.33 2.91,0.95 4.67,3.52 4.04,5.82 -0.52,1.66 -3.1,4.89 -5.82,5.19 -0.41,0.01 -0.86,0 -1.25,-0.18 -0.7,-0.19 -1.71,-0.76 -2.51,-2.24 m -22.72,241.94 c -1.41,-1.6 -2.35,-4.2 -2.35,-5.65 0,-2.14 1.91,-3.92 4.57,-4.18 0.26,-0.01 0.5,-0.07 0.82,-0.07 3.03,0.07 5.43,1.98 5.43,4.44 0,1.9 -2.04,6.56 -5.07,6.87 -0.15,0.07 -0.34,0.06 -0.34,0.06 -1.11,-0.06 -2.1,-0.53 -3.06,-1.47 m 9.28,-170.09 c -1.27,-1.77 -1.93,-4.49 -1.75,-5.92 0.27,-1.88 1.84,-3.25 4.16,-3.5 0.58,-0.07 1.2,-0.05 1.76,0.07 3.06,0.5 5.18,2.71 4.87,5.15 -0.34,1.86 -2.63,5.78 -5.45,6.07 -0.31,0.04 -0.6,0 -0.87,-0.03 -0.75,-0.05 -1.76,-0.52 -2.72,-1.84 m 7.83,-48.08 c -1.11,-1.88 -1.5,-4.68 -1.19,-6.12 0.28,-1.59 1.84,-2.83 3.83,-3.03 0.75,-0.08 1.53,0 2.38,0.17 2.98,0.78 4.83,3.17 4.32,5.47 -0.38,1.78 -2.85,5.34 -5.61,5.65 -0.4,0.05 -0.76,0 -1.09,-0.1 -0.78,-0.13 -1.78,-0.62 -2.64,-2.04 m -4.38,23.93 c -1.22,-1.86 -1.8,-4.58 -1.52,-6 0.04,-0.52 0.4,-1.05 0.67,-1.47 -0.13,-0.2 -0.19,-0.44 -0.27,-0.73 0,-0.87 0.56,-1.63 1.36,-1.72 0.7,-0.13 1.24,0.24 1.57,0.78 0.27,-0.06 0.45,-0.1 0.7,-0.14 0.68,-0.06 1.36,0 2.1,0.12 3.2,0.68 4.5,5.89 4.09,7.94 -0.26,1.77 -1.91,3.04 -4.07,3.29 -0.61,0.03 -1.23,0.03 -1.94,-0.04 -0.72,-0.21 -1.75,-0.63 -2.69,-2.03 m -6.22,48.31 c -1.27,-1.74 -2.04,-4.39 -1.89,-5.81 0.11,-0.57 0.3,-1.12 0.55,-1.62 -0.11,-0.22 -0.25,-0.48 -0.25,-0.72 -0.09,-0.93 0.52,-1.67 1.36,-1.76 0.53,-0.1 1.15,0.21 1.43,0.69 0.32,-0.13 0.76,-0.22 1.23,-0.25 0.48,-0.06 1.01,-0.01 1.52,0 3.3,0.44 4.91,5.6 4.65,7.6 -0.16,1.97 -1.89,3.39 -4.3,3.71 -0.47,0.02 -0.97,0.02 -1.53,0 -0.67,-0.12 -1.75,-0.47 -2.77,-1.84 m -5.8,97.19 c -1.42,-1.61 -2.32,-4.19 -2.32,-5.67 0.13,-2.06 1.98,-3.8 4.57,-4.01 0.33,-0.07 0.64,0 0.99,0 1.38,0.02 2.62,0.47 3.58,1.14 1.18,0.89 1.8,2.12 1.75,3.33 -0.03,1.87 -2.07,6.44 -5.14,6.74 h -0.44 c -1.07,0 -2.07,-0.55 -2.99,-1.53 m 2.01,-48.62 c -1.36,-1.65 -2.19,-4.26 -2.15,-5.75 0.14,-2.02 1.97,-3.61 4.49,-3.88 0.38,-0.01 0.83,-0.01 1.22,0 3.05,0.25 5.33,2.3 5.16,4.72 -0.13,1.85 -2.19,6.23 -5.24,6.59 h -0.57 c -0.71,-0.09 -1.81,-0.4 -2.91,-1.68 m -2.44,72.93 c -1.44,-1.54 -2.44,-4.19 -2.44,-5.58 l 0.05,-2.72 0.08,-1.51 1.32,-0.07 c 0,0 0.14,-0.05 4.11,0.07 3.03,0.06 5.36,2.06 5.31,4.49 0,1.91 -2.05,6.55 -5.17,6.84 -0.13,0 -0.25,0.05 -0.37,0 -0.69,0 -1.81,-0.29 -2.89,-1.52 m 1.26,-48.58 c -1.39,-1.65 -2.27,-4.32 -2.16,-5.73 0.05,-2.02 1.86,-3.69 4.41,-3.97 0.35,-0.04 0.75,-0.1 1.13,-0.1 3.11,0.25 5.35,2.29 5.25,4.7 -0.1,1.86 -2.14,6.35 -5.14,6.71 0,0 -0.41,0 -0.62,-0.05 -1,-0.01 -2.03,-0.62 -2.87,-1.56"
         style="fill:#c5a718;fill-opacity:1;fill-rule:nonzero;stroke:none"
         id="path166" /><path
         d="m 3468.83,3680.58 c 1.31,6.43 3.82,8.46 3.82,8.46 2.38,1.9 2.83,5.75 0.96,8.4 0,0 -4.26,6.2 -2.53,14.6 0.2,1.11 0.49,2.18 0.73,3.3 1.8,8.6 7.1,13.74 11.83,11.88 23.63,-9.17 48.26,-11.24 73.1,-6.21 5.01,1.06 9.34,-4.88 9.63,-13.66 0.06,-1.1 0.06,-2.25 0.13,-3.39 0.25,-8.58 -4.99,-13.95 -4.99,-13.95 -2.27,-2.3 -2.51,-6.15 -0.5,-8.47 0,0 2.13,-2.41 2.36,-8.97 0.06,-1.09 0.06,-2.22 0.12,-3.36 0.34,-8.8 -4,-17.14 -9.57,-18.3 -26.96,-5.61 -53.84,-3.29 -79.55,6.67 -5.27,2.08 -8.02,11.04 -6.22,19.64 0.18,1.13 0.46,2.23 0.68,3.36"
         style="fill:#c5a718;fill-opacity:1;fill-rule:nonzero;stroke:none"
         id="path168" /><path
         d="m 3614.14,3996.28 c 7.53,3.62 11.74,2.3 11.74,2.3 3.89,-1.26 8.04,1.26 9.2,5.57 0,0 2.85,10.02 12.7,14.72 1.33,0.53 2.57,1.22 3.9,1.82 10.11,4.85 19.64,2.7 21.65,-4.33 10.05,-34.96 28.12,-65.47 53.49,-90.43 5.21,-5.02 2.76,-14.88 -5.91,-22.25 -1.07,-1 -2.18,-1.91 -3.31,-2.87 -8.38,-7.24 -18.13,-5.39 -18.13,-5.39 -4.18,0.79 -8.24,-1.95 -8.85,-6.21 0,0 -0.76,-4.45 -7.21,-9.98 -1.05,-0.97 -2.22,-1.91 -3.3,-2.84 -8.58,-7.35 -20.6,-9.1 -26.22,-3.52 -27.67,27.18 -47.41,60.39 -58.34,98.42 -2.22,7.88 4.6,18.34 14.74,23.14 1.26,0.63 2.59,1.22 3.85,1.85"
         style="fill:#c5a718;fill-opacity:1;fill-rule:nonzero;stroke:none"
         id="path170" /><path
         d="m 3991.04,4108.13 c 0,0 23.86,-90.01 -7.07,-171.21 0,0 17.77,114.68 7.07,171.21"
         style="fill:#c5a718;fill-opacity:1;fill-rule:nonzero;stroke:none"
         id="path172" /><path
         d="m 3902,4086.18 c 0,0 4.29,-45.5 -5.02,-70.67 -9.42,-25.27 16.92,-5.35 16.92,-5.35 0,0 42.68,38.73 41.13,40.19 -1.53,1.42 -12.95,15.81 -13.21,17.11"
         style="fill:#c5a718;fill-opacity:1;fill-rule:nonzero;stroke:none"
         id="path174" /><path
         d="m 3935.97,3991.54 c 5.36,50.09 -9.52,85.86 -9.52,85.86 0,0 3.27,-42.43 4.94,-56.07 1.73,-13.94 -1.65,-54.44 -1.65,-54.44 0,0 5.4,16.6 6.23,24.65"
         style="fill:#c5a718;fill-opacity:1;fill-rule:nonzero;stroke:none"
         id="path176" /><path
         d="m 3481.77,3708.56 c -0.33,-3.34 3.75,-4.72 3.75,-4.72 28.73,-7.73 64.15,0.52 64.15,0.52 0,0 -24.3,0.96 -32.39,1.11 -8.31,0.11 -30.44,6.79 -30.44,6.79 0,0 -4.65,-0.39 -5.07,-3.7"
         style="fill:#3147a4;fill-opacity:1;fill-rule:nonzero;stroke:none"
         id="path178" /><path
         d="m 3478.13,3674.14 c -0.34,-3.24 3.75,-4.69 3.75,-4.69 28.72,-7.76 64.09,0.51 64.09,0.51 0,0 -24.25,1.03 -32.42,1.12 -8.21,0.12 -30.44,6.82 -30.44,6.82 0,0 -4.61,-0.47 -4.98,-3.76"
         style="fill:#3147a4;fill-opacity:1;fill-rule:nonzero;stroke:none"
         id="path180" /><path
         d="m 3697.1,3335.66 c -2.1,1.55 -2.45,2.78 -2.45,2.78 -0.4,1.13 -1.63,1.9 -2.84,1.66 0,0 -2.93,-0.5 -5.66,1.5 -0.36,0.22 -0.72,0.5 -1.05,0.77 -2.88,2.07 -3.92,4.69 -2.52,6.14 6.67,6.86 11.07,15.28 12.83,24.97 0.34,1.93 3.12,2.55 6.37,1.22 0.42,-0.19 0.83,-0.4 1.22,-0.53 3.03,-1.3 4.22,-4.03 4.22,-4.03 0.54,-1.21 1.85,-1.9 3.04,-1.54 0,0 1.11,0.35 3.56,-0.67 0.4,-0.14 0.82,-0.32 1.19,-0.44 3.23,-1.4 5.63,-4.22 5.25,-6.41 -2.01,-10.51 -6.69,-19.64 -14.05,-27.16 -1.54,-1.55 -5.14,-1.09 -7.94,0.93 -0.43,0.27 -0.75,0.56 -1.17,0.81"
         style="fill:#c5a718;fill-opacity:1;fill-rule:nonzero;stroke:none"
         id="path182" /><path
         d="m 3693.68,3350.45 c 6.79,8.18 7.27,17.33 7.27,17.33 0,0 -3.95,-8.32 -4.98,-11.1 -1.17,-2.84 -6.43,-9.64 -6.43,-9.64 0,0 3.06,2.08 4.14,3.41"
         style="fill:#c5a718;fill-opacity:1;fill-rule:nonzero;stroke:none"
         id="path184" /><path
         d="m 3705.36,3344.61 c 6.77,8.25 7.28,17.35 7.28,17.35 0,0 -3.92,-8.33 -5.07,-11.12 -1.22,-2.78 -6.39,-9.63 -6.39,-9.63 0,0 3.05,2.1 4.18,3.4"
         style="fill:#c5a718;fill-opacity:1;fill-rule:nonzero;stroke:none"
         id="path186" /><path
         d="m 3620.22,3979.58 c -2.78,-1.55 -1.71,-5.93 -1.71,-5.93 9.49,-29.32 35.28,-55.51 35.28,-55.51 0,0 -12.42,21.69 -16.76,28.81 -4.39,7.29 -11.12,30.31 -11.12,30.31 0,0 -2.84,3.82 -5.69,2.32"
         style="fill:#3147a4;fill-opacity:1;fill-rule:nonzero;stroke:none"
         id="path188" /><path
         d="m 3655.87,4002.19 c -2.82,-1.51 -1.75,-5.91 -1.75,-5.91 9.46,-29.32 35.25,-55.51 35.25,-55.51 0,0 -12.36,21.66 -16.7,28.78 -4.4,7.35 -11.03,30.38 -11.03,30.38 0,0 -2.93,3.81 -5.77,2.26"
         style="fill:#3147a4;fill-opacity:1;fill-rule:nonzero;stroke:none"
         id="path190" /><path
         d="m 4048.43,3453.42 c 15.87,-4.07 31.88,-6.15 48.19,-6.25 14.45,12.9 -52.6,5.3 -48.19,6.25"
         style="fill:#c5a718;fill-opacity:1;fill-rule:nonzero;stroke:none"
         id="path192" /><path
         d="m 4062.67,3442.8 c 15.22,-8.76 67.11,-28.12 73.01,3.46 -22.39,-11.46 -49.57,-5.74 -73.01,-3.46"
         style="fill:#c5a718;fill-opacity:1;fill-rule:nonzero;stroke:none"
         id="path194" /><path
         d="m 3971.69,3436.48 c -25.89,-1.44 -67.26,9.64 -59.29,-25.32 -36.44,-21.5 -1.17,-59.77 29.68,-56.49 24.65,2.62 50.67,-28.5 34.52,-54.29 -19.97,-15.52 -81.63,18.87 -84.01,-25.28 23.83,6 38.25,1.54 61.61,10.61 3.11,-7.71 -9.39,-20.89 -13.29,-26.14 14.67,-3.8 22.87,12.77 29.04,21.92 8.82,-5.98 7.82,-14.84 -2.97,-26.68 13.46,3.81 22.21,12.35 26.16,25.88 7.73,-0.8 10.1,-7.03 7.18,-18.71 15.7,3.02 2,25.64 10.49,30.58 7.7,-7.25 12.17,-24.56 27.54,-18.25 -5,3.15 -37.3,53.02 -37.89,59.31 4.43,2.68 28.77,-17.95 42.47,-13.42 -19.7,3.2 -22.69,46.07 -47.54,25.75 -8.22,1.72 3.93,21.83 11.96,16.66 5.02,-2.93 -5.31,-3.8 -5.51,-6.15 25.05,6.83 13.84,-3.6 25.05,-9.03 -3.91,31.6 24.3,34.26 46.39,37.86 -16.13,9.71 -33.7,14.08 -52.61,12.88 28.42,-29.44 -24.76,5.9 -12.21,-30.73 -15.71,14.08 -21.79,7.38 -29.95,23.56 -3.83,36.82 -30.33,22.48 -49.76,17.67 1.62,-2.45 -5.48,10.66 -6,8.58 9.17,6.32 32.63,9.75 42.82,5.14 26.46,-14.7 39.04,-2.47 70.57,-13.53 41.55,-14.59 108.01,-37.53 129.19,22.71 -69.13,-44.39 -126.84,47.11 -193.64,4.91"
         style="fill:#c5a718;fill-opacity:1;fill-rule:nonzero;stroke:none"
         id="path196" /><path
         d="m 3987.76,3403.37 c -3.76,-8.05 2.24,5.26 0,0"
         style="fill:#c5a718;fill-opacity:1;fill-rule:nonzero;stroke:none"
         id="path198" /><path
         d="m 4151.93,3395.4 c -4.77,-3.62 -9.66,-7.16 -14.51,-10.82 8.49,-7.21 46.43,-11.6 50.78,4.19 -12.5,-0.24 -24.62,2.06 -36.27,6.63"
         style="fill:#c5a718;fill-opacity:1;fill-rule:nonzero;stroke:none"
         id="path200" /><path
         d="m 3998.49,3387.58 c -5.14,-2.29 -9.55,-1.9 -13.41,1.27 11.77,-8.8 36.2,6.11 21.18,13.73 -0.36,-6.15 -2.99,-11.09 -7.77,-15"
         style="fill:#c5a718;fill-opacity:1;fill-rule:nonzero;stroke:none"
         id="path202" /><path
         d="m 4120.99,3380.33 c -13.67,-2.55 -28.52,5.96 -39.9,-2.96 12.12,-5.92 20.88,-14.95 26.36,-27.16 0.59,1.44 -25.7,1.1 -23.31,2.03 23.55,-5.99 43.72,-20.38 59.74,-38.35 21.64,6.06 54.74,39.29 46.63,64.73 -20.18,-13.89 -49.64,-11.13 -69.52,1.71"
         style="fill:#c5a718;fill-opacity:1;fill-rule:nonzero;stroke:none"
         id="path204" /><path
         d="m 4035.73,3362.36 c -8.13,-18.37 16.22,-49.26 23.57,-30.7 -17.22,3.93 20.79,-41.82 28.54,-46.92 12.94,-7.49 58.78,-41.77 68.81,-43.2 3.03,29.23 -13.89,54.94 -34.37,73.76 -14.54,13.48 -77.62,23.13 -80.58,29.17 0.38,2.68 35.58,18.08 38.65,18.01 -9,11 -37.92,18.72 -44.62,-0.12"
         style="fill:#c5a718;fill-opacity:1;fill-rule:nonzero;stroke:none"
         id="path206" /><path
         d="m 3984.46,3357.67 c 5.83,0.38 9.54,3.58 11.07,9.47 -3.93,3.89 -11,-8.24 -11.07,-9.47"
         style="fill:#c5a718;fill-opacity:1;fill-rule:nonzero;stroke:none"
         id="path208" /><path
         d="m 3978.92,3364.46 c -6.64,-13.93 13.93,12.55 0,0"
         style="fill:#c5a718;fill-opacity:1;fill-rule:nonzero;stroke:none"
         id="path210" /><path
         d="m 3910.32,3355.34 c 2.88,-5.53 5.78,-10.97 8.63,-16.47 5.01,10.38 2.16,15.85 -8.63,16.47"
         style="fill:#c5a718;fill-opacity:1;fill-rule:nonzero;stroke:none"
         id="path212" /><path
         d="m 3927.08,3336.63 c 5.84,-31.25 19.66,-10.73 40.77,-32.41 7.6,5.49 7.91,13.55 1.08,24.16 -13.09,7.15 -27.03,9.92 -41.85,8.25"
         style="fill:#c5a718;fill-opacity:1;fill-rule:nonzero;stroke:none"
         id="path214" /><path
         d="m 3860.7,3331.49 c 22.9,-25.7 42.01,-14.5 63.69,-1.94 -22.15,9.71 -40.31,-4.81 -63.69,1.94"
         style="fill:#c5a718;fill-opacity:1;fill-rule:nonzero;stroke:none"
         id="path216" /><path
         d="m 3918.7,3305.08 c 10.81,17.09 1.09,-45.24 4.44,16.24 -1.53,-5.38 -3,-10.86 -4.44,-16.24"
         style="fill:#c5a718;fill-opacity:1;fill-rule:nonzero;stroke:none"
         id="path218" /><path
         d="m 4035.42,3304.41 c 2.06,-6.66 1.96,-31.92 15.53,-21 -2.22,1.27 -48.74,-42.41 -59.28,-23.5 -12.06,-9.67 -25.92,-15.09 -41.33,-16.31 -2.36,5.45 0,9.79 6.97,13.3 -30.02,-19.11 -46.92,-42.01 -84.35,-52.63 -39.08,-11.14 -94.22,-31.9 -91.15,-83.11 17.06,29.64 58.25,38.49 89.09,47.38 12.29,3.53 84.93,63.26 85.29,60.29 -46.24,-36.98 -54.09,-149.08 -112.02,-163.39 36.72,-32.93 96.32,11.99 104.05,50.4 -1.27,18.64 7.54,141.95 45.48,132.9 -25.99,-37 -35.42,-78.72 -33.13,-124.51 2.3,-44.36 27.02,-104.23 -9.62,-141.24 167.35,1.96 -31.13,248.05 61.07,271.14 -19.23,4.89 -5.24,-100.7 -1.3,-112.08 18.63,-54.62 61.43,-100.27 28.17,-158.72 140.6,16.45 -40.64,211.1 -5.3,270.17 -17.91,-2.44 33.99,-88.82 39.06,-95.35 12.85,-16.2 26.52,-32.28 35.61,-51.08 9.03,-22.21 -4.39,-38.24 -1.18,-58.85 51.82,23.87 45.12,90.28 11.72,126.1 -8.08,8.67 -78.49,90.15 -71.41,89.7 21.15,-10.31 42.04,-36.3 67.16,-48.62 30.41,-14.95 30.96,-40.09 37.53,-67.41 29.48,37.49 12.31,77.76 -22.02,102.8 -11.86,8.6 -88.88,65.5 -94.64,53.62"
         style="fill:#c5a718;fill-opacity:1;fill-rule:nonzero;stroke:none"
         id="path220" /><path
         d="m 3761,3263.06 c 0.45,1.06 -27.95,17.63 -31.53,18.45 -2.93,-26.11 -3.82,-52.38 -5.26,-78.59 13.74,-3.06 23.76,2.16 29.99,15.67 -34.36,-15.12 -3.81,-131.67 20.41,-152.7 20.44,18.37 18.7,45.39 33.42,67.98 -14.86,-7.01 -24.89,-22.75 -24.09,-39.36 -14.22,-12.39 -9.11,52.04 -10.12,46.26 4.29,23.9 21.23,41.67 40.16,55.18 -26.39,23.98 -27.94,64.76 -56.94,84.77 1.31,-5.92 2.6,-11.79 3.96,-17.66"
         style="fill:#c5a718;fill-opacity:1;fill-rule:nonzero;stroke:none"
         id="path222" /><path
         d="m 3834.42,3229.56 c 25.82,6.61 64.19,-31.26 84.28,5.4 -27.49,-2.38 -62.29,21.69 -84.28,-5.4"
         style="fill:#c5a718;fill-opacity:1;fill-rule:nonzero;stroke:none"
         id="path224" /><path
         d="m 3838.07,3146.98 c -16.6,-11.85 -30.16,-28.73 -34.85,-48.86 11.33,9.46 44.74,59.3 63.43,47.03 -28.58,-14.14 -31.08,-39.69 -53.93,-56.7 -34.77,-25.78 -58.52,-72.95 -80.9,-108.9 -30.11,-37.73 -159.71,-147.29 -124.24,-191.82 4.69,6.13 27.32,55.27 42.32,47.62 11.4,-34.19 -58.85,-22.71 -16.57,-58.92 32.56,-27.85 30.08,8.57 45.39,38.55 7.9,0.81 -0.08,-32.13 -0.6,-33.75 0.17,-20.05 24.16,-1.57 36.43,-7.61 21.88,26.32 1.82,65.3 37.67,94.59 -9.73,-17.12 -9.14,-34.39 -8.94,-55.81 6.16,6.18 51.15,109.61 55.82,102.2 -18.83,-25.65 -6.49,-39.01 -7.34,-67.17 18.19,13.41 23.88,35.36 26.7,56.44 -1.18,-9.12 9.48,70.15 17.9,44.16 -4.68,-18.92 -15.23,-22.92 3.13,-43.46 8.1,14.63 10.56,30.25 7.73,46.73 -15.26,-30.22 24.13,59.23 22.83,35.63 -5.13,-7.6 -7.72,-16.11 -7.78,-25.33 12.99,4.5 20.47,35.47 30.42,34.89 1.13,-1.11 -5.69,-16.69 -6.47,-18.7 16.64,4.22 36.78,57.45 28.91,22.11 9.61,3.24 12.2,28.48 23.45,26.4 11.27,-15.56 -64.29,-73.75 -77.04,-77.26 -6.89,-15.42 120.36,-69.36 115.13,-70.78 -17.71,7.87 -23.58,20.11 -44.41,21.79 30.76,-23.2 53.16,-47.2 65.67,-84.32 3.13,5.57 13.81,42.48 11.33,45 8.07,-31.12 -6.41,-53.39 -19.92,-79.99 -7.67,-15.73 -15.45,-31.43 -23.38,-46.99 -3.3,-7.63 0.36,-45.73 -3.23,-49 -3.06,5.36 -4.73,11.25 -5,17.6 -14.81,-37.77 16.95,-100.43 61.85,-74.56 15.93,-5.87 -41.15,-12.02 -34.41,-9.01 11.24,-26.37 37.6,-50.3 55.52,-72.05 10.67,-12.87 31.12,-79.06 19.98,-48.77 -18.32,-34.78 -53.32,-136.01 -97.09,-145.63 -26.5,-5.86 5.84,-50.39 16.14,-51.03 -2.48,-0.53 54.93,58.75 57.08,48.96 -24.78,20.28 -60.67,-103.52 -5.91,-73.87 14.83,8.03 50.03,53.97 55.83,69.53 3.82,10.17 26.47,80.33 25.79,82.17 3.27,-9.56 6.59,-38.51 7.32,-48.86 8.03,12.21 -6.24,80.02 6.67,81.8 8.13,-12.58 10.04,-31.79 21.35,-47.75 20.84,22.51 -32.96,66.19 -4.41,88.39 -2.65,0.99 27.83,-51.45 29.12,-54.43 16.91,40.54 -24.04,67.19 -12.45,105.56 4.74,15.91 -23.06,41.36 -31.09,22.55 -17.54,-0.72 -27.51,75.8 -30.95,87.73 -9.18,40.79 21.51,94.86 24.99,135.21 12.81,-48.12 25.1,-162.77 111.6,-128.13 34.51,13.84 38.66,49.6 32.18,81.79 -7.18,36.59 24.7,63.93 2,101.73 -1.76,-5.32 -19.02,-57.3 -18.9,-57.09 -33.82,20.86 31.5,80.2 -8.98,110.97 -0.58,-14.23 -27.41,-51.9 -16.44,-64.56 -30.3,27.64 15.46,77.35 -21.36,110.16 -4.39,-18.08 -20.96,-34.56 -12.45,-54.67 2.35,42.76 -46.09,91.08 -2.82,141.11 79.68,77.86 72.01,-75.86 25.33,-34.91 -12.41,-81.64 99.55,-17.62 76.47,12.84 8.05,-36.48 -26.75,-73.32 -5.3,-110.53 13.71,-24.57 54.04,-51.02 78.28,-21.09 -39.58,-2.77 14.5,207.78 -107.01,212.09 -140.4,5.02 -128.53,-154.17 -79.05,-238.69 19.78,-35.41 74.38,-87.55 61.04,-132.37 -16.46,-55.35 -72.32,1.22 -84.09,25.87 -19.1,39.49 -18.93,85.09 -37.78,123.66 -10.43,21.47 -26.82,39.33 -42.85,56.72 -11.19,11.47 -21.74,23.56 -31.71,36.06 -11.93,-0.77 -22.66,2.45 -31.96,9.78 12.12,18.53 30.04,-14.04 9.04,29.43 -11.83,-16.43 -72.16,-66.23 -92.31,-31.78 24.99,35.7 40.65,58.6 24,106.39 -38.71,-41.81 -96.68,-56.9 -137.71,-7.14 -0.53,-9.81 44.7,9.26 49.75,15.09 17.32,20.27 19.64,48.06 30.27,71.5 -17.26,-8.18 -35.32,-13.31 -54.23,-15.54"
         style="fill:#c5a718;fill-opacity:1;fill-rule:nonzero;stroke:none"
         id="path226" /><path
         d="m 4358.42,3049.02 c -4.96,-0.16 -9.95,-0.3 -14.99,-0.48 5.59,-11.53 9.49,-23.63 11.98,-36.21 30.07,-8.61 42.19,38.63 26.03,55.76 -4.6,-10.02 -12.29,-16.36 -23.02,-19.07"
         style="fill:#c5a718;fill-opacity:1;fill-rule:nonzero;stroke:none"
         id="path228" /><path
         d="m 3793.73,3037.74 c -7.83,-4.59 -13.35,-11.2 -16.59,-19.69 1.67,-4.6 29.78,30.46 32.25,36.65 -6.95,-4.05 -12.18,-9.72 -15.66,-16.96"
         style="fill:#c5a718;fill-opacity:1;fill-rule:nonzero;stroke:none"
         id="path230" /><path
         d="m 4087.39,2895.85 c 5.57,-18.75 20.5,-27.36 20.56,-49.77 0.92,-0.56 -5.32,41.77 -20.56,49.77"
         style="fill:#c5a718;fill-opacity:1;fill-rule:nonzero;stroke:none"
         id="path232" /><path
         d="m 3919.87,2876.75 c -18.37,-20.88 -46.52,-20.54 -71.41,-14.25 -43.55,11.04 -32.09,-32.37 -35.49,-61.05 -4.24,-35.46 -12.4,-70.4 -22.55,-104.7 14.73,-20.03 45.75,-16.46 53.84,-43.66 0.15,3.19 -39.99,-16.09 -47.77,-19.27 -46.81,-19.36 -54.18,-44.21 -84.13,-86.63 6.74,-2.52 28.57,5.73 30.2,0.41 -11.58,-14.15 -31.8,1.18 -40.22,-14.32 29.18,-11.93 25.23,-32.3 64.24,-20.57 12,3.63 66.08,59.74 66.5,66.78 -18.66,-20.47 -12.96,-43.72 -26.62,-65.06 18.45,4.51 53.1,94.82 60.38,90.01 -8.35,5.62 -10,-60.49 -10.16,-67.5 16.3,7.67 19.02,24.36 20.92,40.15 1.54,12.29 26.89,47.8 26.83,45.95 -17.56,-20.48 -4.69,-37.14 -3.23,-59.4 25.42,16.61 22,57.92 30.59,83.88 2.14,39.03 -51.5,26.31 -39.62,68.37 9.68,34.34 59.77,49.23 86.92,65.08 23.53,36.33 -63.84,61.45 -58.23,71.47 11.95,5.5 27.8,5.07 40.67,3.49 -11.36,18.15 -24.98,36.99 -41.66,20.82"
         style="fill:#c5a718;fill-opacity:1;fill-rule:nonzero;stroke:none"
         id="path234" /><path
         d="m 3938.76,2849.72 c 16.33,-12.08 32.39,-21.88 46.75,-36.56 -4.1,25.52 -21.42,39.58 -46.75,36.56"
         style="fill:#c5a718;fill-opacity:1;fill-rule:nonzero;stroke:none"
         id="path236" /><path
         d="m 3777.69,2826.57 c 5.07,9.27 5.42,18.66 1.1,28.22 -0.43,-9.33 -1.27,-18.8 -1.1,-28.22"
         style="fill:#c5a718;fill-opacity:1;fill-rule:nonzero;stroke:none"
         id="path238" /><path
         d="m 3597.42,2837.73 c 0.24,-3.54 0.5,-7.04 0.8,-10.6 9.13,5.03 15.02,12.54 17.92,22.53 -9.31,0.63 -15.52,-3.27 -18.72,-11.93"
         style="fill:#c5a718;fill-opacity:1;fill-rule:nonzero;stroke:none"
         id="path240" /><path
         d="m 3581.52,2826.28 c 0.68,-4.32 1.32,-8.66 1.87,-13.03 11.82,10.39 8.64,13.59 9.07,27.08 -6.17,-2.71 -9.84,-7.35 -10.94,-14.05"
         style="fill:#c5a718;fill-opacity:1;fill-rule:nonzero;stroke:none"
         id="path242" /><path
         d="m 3591.64,2793.2 c -6.15,-14.15 -7,-18.42 0.67,-33.73 7.22,10.95 2.45,8.64 13.37,17.48 -1.01,8.05 -5.72,13.43 -14.04,16.25"
         style="fill:#c5a718;fill-opacity:1;fill-rule:nonzero;stroke:none"
         id="path244" /><path
         d="m 4100.29,2749.86 c -0.32,-11.97 -47.71,-105.87 -52.87,-98.39 36.2,-4.59 37.95,-21.33 51.45,-59.77 10.77,11.14 -17.12,64.78 -15.31,82.13 2.45,24.51 24.27,60.69 16.73,76.03"
         style="fill:#c5a718;fill-opacity:1;fill-rule:nonzero;stroke:none"
         id="path246" /><path
         d="m 3689,2768.84 c 2.54,-7.92 2.81,-15.95 1,-24.02 12.98,2.4 19.86,10.53 20.66,24.42 -7.19,-0.15 -14.45,-0.26 -21.66,-0.4"
         style="fill:#c5a718;fill-opacity:1;fill-rule:nonzero;stroke:none"
         id="path248" /><path
         d="m 3617.44,2775.29 c -7.15,-15.87 -5.72,-26.97 7.89,-39.81 4.35,11.16 21.29,46.5 -7.89,39.81"
         style="fill:#c5a718;fill-opacity:1;fill-rule:nonzero;stroke:none"
         id="path250" /><path
         d="m 3910.8,2668.76 c -0.27,-1.39 12.15,-17.72 13.31,-17.72 0.43,9.32 -1.78,17.8 -13.31,17.72"
         style="fill:#c5a718;fill-opacity:1;fill-rule:nonzero;stroke:none"
         id="path252" /><path
         d="m 4137.36,2560.71 c 1.03,-2.78 5.58,-23.87 5.8,-24.26 18.63,13.76 -5.72,24.97 -5.8,24.26"
         style="fill:#c5a718;fill-opacity:1;fill-rule:nonzero;stroke:none"
         id="path254" /><path
         d="m 3783.3,2548.99 c -3.21,-9.19 -9.08,-16.03 -17.83,-20.4 16.43,1.13 28.6,30.97 17.83,20.4"
         style="fill:#c5a718;fill-opacity:1;fill-rule:nonzero;stroke:none"
         id="path256" /><path
         d="m 3690.84,2520.83 c 6.61,-1.22 13.27,-2.44 19.94,-3.68 2.85,20.95 -17.88,3.99 -19.94,3.68"
         style="fill:#c5a718;fill-opacity:1;fill-rule:nonzero;stroke:none"
         id="path258" /><path
         d="m 4077.46,2374.62 c 0,0.53 -14.6,-30.75 -14.01,-32.72 8.53,-14.35 12.02,44.87 14.01,32.72"
         style="fill:#c5a718;fill-opacity:1;fill-rule:nonzero;stroke:none"
         id="path260" /><path
         d="m 3711.74,2348.53 c 16.24,-0.87 -16.05,3.15 0,0"
         style="fill:#c5a718;fill-opacity:1;fill-rule:nonzero;stroke:none"
         id="path262" /><path
         d="m 3941.72,2316.62 c -0.26,-6.68 -0.56,-13.38 -0.86,-20.02 15.23,-13.11 26.67,64.18 0.86,20.02"
         style="fill:#c5a718;fill-opacity:1;fill-rule:nonzero;stroke:none"
         id="path264" /><path
         d="m 3985.51,2292 c -1.54,-10.95 0.62,-21.09 6.52,-30.46 0.58,5.42 19.58,66.07 -6.52,30.46"
         style="fill:#c5a718;fill-opacity:1;fill-rule:nonzero;stroke:none"
         id="path266" /><path
         d="m 3949.56,2295.28 c -5.66,-17.65 20.88,-27.8 33.65,-35.33 -1.73,4.48 -20.29,57.86 -33.65,35.33"
         style="fill:#c5a718;fill-opacity:1;fill-rule:nonzero;stroke:none"
         id="path268" /><path
         d="m 3770.42,3280.24 -15.46,57.79 -34.21,4.1 -47.21,24.42 8.18,-44.81 13.86,-47.98 15.65,-25.45 46.18,13.22"
         style="fill:#c5a718;fill-opacity:1;fill-rule:nonzero;stroke:none"
         id="path270" /></g></g></svg>
