<svg height="100%" viewBox="0 0 512.00099 512" width="100%" xmlns="http://www.w3.org/2000/svg" fill="#82ccdd"><path d="m23.511719 78.199219c3.25 3.21875 7.644531 5.007812 12.21875 4.976562 1.257812-.011719 2.515625-.152343 3.746093-.417969l53.980469 53.929688c.042969 0 .050781.09375.09375.136719s.09375.050781.136719.09375l49.398438 49.355469c.121093.15625.25.273437.375.410156l.4375.523437.570312.636719c.253906.503906.539062.992188.855469 1.460938l1.074219 2.234374c1.058593 2.304688 1.59375 4.8125 1.5625 7.347657.003906 1.125-.085938 2.246093-.273438 3.355469-.078125.226562-.140625.457031-.1875.691406-.796875 3.460937-2.515625 6.644531-4.976562 9.207031-2.421876 2.414063-3.785157 5.695313-3.789063 9.117187-.003906 3.421876 1.355469 6.707032 3.773437 9.125l24.675782 24.746094-162.875 163.457032c-5.0625 5.113281-5.738282 13.121093-1.601563 19.011718 19.78125 27.648438 43.945313 51.878906 71.535157 71.742188 5.882812 4.089844 13.851562 3.371094 18.90625-1.707032l162.851562-163.398437 27.152344 27.214844c-25.050782 26.804687-24.386719 68.628906 1.5 94.625 25.886718 26 67.710937 26.839843 94.621094 1.902343l39.714843 39.84375c2.765625 2.664063 6.457031 4.15625 10.296875 4.164063 3.070313 0 6.070313-.9375 8.59375-2.679687 27.582032-19.890626 51.734375-44.144532 71.511719-71.808594 3.980469-5.902344 3.269531-13.789063-1.707031-18.882813l-162.84375-163.578125 24.652344-24.703125c5-5.039062 5-13.167969 0-18.210937-2.476563-2.519532-4.191407-5.6875-4.949219-9.136719-.039063-.207031-.09375-.414063-.160157-.617187-.226562-1.144532-.339843-2.3125-.332031-3.480469-.03125-2.539063.515625-5.050781 1.59375-7.347657.15625-.324218.503907-1.089843.613281-1.441406l.402344-.785156c.34375-.484375.589844-.902344.75-1.175781l.136719-.238281.070313-.097657c.085937-.082031.398437-.441406.671874-.765625.230469-.234375.445313-.480468.648438-.734375l49.390625-49.347656c.042969 0 .097656-.050781.136719-.09375.042968-.042969.054687-.09375.09375-.136719l53.964844-53.964844c1.234374.261719 2.496093.402344 3.757812.410157 4.570312.03125 8.964844-1.761719 12.210938-4.984375l18.5-18.464844c3.238281-3.234375 5.042968-7.636719 5.007812-12.210938-.039062-4.988281-2.042969-9.757812-5.582031-13.269531l-28.722657-28.683593c-6.890624-7.171876-18.285156-7.433594-25.496093-.578126l-18.5 18.472657c-3.242188 3.234375-5.046875 7.636719-5.007813 12.210937 0 1.261719.140625 2.515625.40625 3.746094l-53.886718 53.804688c-.066407.058593-.160157.085937-.230469.152343-.066407.070313-.085938.164063-.152344.230469l-48.640625 48.597656-.058594.042969-1.367187 1.28125-.851563.613281-.785156.5625c-.765625.515625-1.582031.945313-2.441406 1.28125-3.6875 1.734375-7.851563 2.195313-11.828125 1.304688-3.421875-.808594-6.546875-2.558594-9.027344-5.050782l-.964844-.964843c-5.082031-4.914063-13.144531-4.914063-18.226562 0l-24.636719 24.679687-24.746094-24.859375c-5.046875-4.898437-13.09375-4.828125-18.058594.152344l-1.023437 1.027344c-2.4375 2.445312-5.507813 4.167969-8.863281 4.972656-4.1875.972656-8.582032.441406-12.417969-1.492187-.65625-.253907-1.285156-.578126-1.875-.964844l-.777344-.570313c-.332031-.257812-.675781-.511719-1.023437-.761719-.445313-.390624-.898438-.792968-1.265625-1.167968l-48.742188-48.640625c-.066406-.066407-.085937-.160157-.152343-.230469-.070313-.066406-.164063-.09375-.230469-.152344l-53.921875-53.847656c.269531-1.230469.40625-2.492188.410156-3.753906.035156-4.578125-1.769531-8.976563-5.011719-12.210938l-18.5-18.464844c-7.210937-6.855468-18.605469-6.59375-25.496093.578126l-28.714844 28.671874c-3.539063 3.523438-5.5468752 8.296876-5.589844 13.289063-.03125 4.574219 1.773438 8.96875 5.007812 12.203125zm144.296875 70.09375-19.285156 19.292969-36.847657-36.8125 19.277344-19.277344zm-68.199219-29.585938-45.847656-45.824219 19.25-19.234374 45.867187 45.792968zm181.992187 299.410157c.023438-20.773438 12.589844-39.480469 31.8125-47.359376-12.160156 20.667969-25.03125 56.320313-1.707031 93.953126-18.308593-8.28125-30.082031-26.5-30.105469-46.59375zm54.808594 51.019531c-41.15625-45.769531-9.53125-90.453125.078125-102.03125 26.796875 1.886719 47.566407 24.1875 47.546875 51.050781-.023437 26.867188-20.824218 49.132812-47.625 50.980469zm157.867188-39.882813c-18.0625 24.902344-39.902344 46.832032-64.734375 64.988282l-39.253907-39.414063c17.316407-26.929687 13.550782-62.277344-9.046874-84.957031-22.59375-22.679688-57.929688-26.570313-84.921876-9.355469l-28.304687-28.371094 64.785156-65.015625zm-113.230469-317.757812 19.277344 19.277344-36.855469 36.832031-19.257812-19.328125zm77.195313-38.613282-45.859376 45.835938-19.277343-19.277344 45.867187-45.792968zm5.972656-55.832031c.53125-.058593 1.058594.148438 1.40625.554688l28.722656 28.679687c.402344.332032.621094.835938.589844 1.359375l-18.464844 18.445313c-.152344.035156-.308594.035156-.460938 0l-30.15625-30c-.078124-.179688-.109374-.371094-.09375-.566406zm-174.398438 139.160157c4.351563 3.707031 9.515625 6.339843 15.070313 7.679687 7.566406 1.753906 15.496093.960937 22.5625-2.257813 1.378906-.554687 2.710937-1.222656 3.976562-2l20.667969 20.746094c-.289062.476563-.5625.945313-.734375 1.304688l-.417969.855468c-.34375.671876-.648437 1.367188-.921875 2.070313-2.054687 4.488281-3.105469 9.371094-3.070312 14.304687-.023438 2.613282.265625 5.21875.851562 7.765626.050781.179687.09375.355468.144531.535156 1.195313 5.042968 3.464844 9.769531 6.648438 13.859375l-272.152344 273.136719c-24.820312-18.136719-46.648437-40.046876-64.691406-64.933594zm-82.636718 7.640624c5.558593-1.316406 10.714843-3.953124 15.039062-7.683593l21.773438 21.839843-64.75 64.972657-21.886719-21.914063c3.097656-4 5.339843-8.589844 6.585937-13.492187.113282-.324219.207032-.65625.292969-.988281.539063-2.527344.808594-5.101563.800781-7.679688.046875-4.972656-1.007812-9.890625-3.089844-14.40625-.324218-.742188-.640624-1.382812-.953124-2.011719l-.402344-.796875-.394532-.792968c-.09375-.1875-.195312-.367188-.296874-.546876l20.703124-20.691406c1.085938.664063 2.226563 1.238282 3.410157 1.707032 7.21875 3.4375 15.390625 4.304687 23.167969 2.457031zm-189.53125-117.539062 28.714843-28.679688c.324219-.351562.773438-.558593 1.253907-.582031h.171874l18.480469 18.433594c.023438.203125-.003906.414063-.085937.605469l-30.191406 29.984375c-.140626.019531-.28125.019531-.425782 0l-18.5-18.398438c-.046875-.523437.171875-1.035156.582032-1.363281zm0 0"/></svg>